M48
; DRILL file {KiCad 8.0.6} date 2024-11-27T12:45:58+0100
; FORMAT={-:-/ absolute / inch / decimal}
; #@! TF.CreationDate,2024-11-27T12:45:58+01:00
; #@! TF.GenerationSoftware,Kicad,Pcbnew,8.0.6
; #@! TF.FileFunction,Plated,1,4,PTH
FMAT,2
INCH
; #@! TA.AperFunction,Plated,PTH,ViaDrill
T1C0.0118
; #@! TA.AperFunction,Plated,PTH,ComponentDrill
T2C0.0197
; #@! TA.AperFunction,Plated,PTH,ComponentDrill
T3C0.0315
; #@! TA.AperFunction,Plated,PTH,ComponentDrill
T4C0.0394
%
G90
G05
T1
X0.1083Y0.3878
X0.1083Y0.25
X0.1083Y0.1142
X0.1201Y0.4252
X0.1201Y0.2874
X0.1201Y0.1516
X0.1594Y0.4252
X0.1594Y0.2874
X0.1594Y0.1516
X0.19Y0.25
X0.19Y0.1142
X0.2771Y0.3194
X0.2805Y0.4606
X0.2805Y0.187
X0.3671Y0.2776
X0.3671Y0.1998
X0.3671Y0.122
X0.4173Y0.0876
X0.4744Y0.0748
X0.501Y0.3484
X0.5817Y0.3484
X0.686Y0.2106
X0.7224Y0.2106
X0.7933Y0.3425
X0.9669Y0.1555
X0.9941Y0.1575
X0.9959Y0.0522
X1.0177Y0.0404
X1.0453Y0.2057
X1.1004Y0.4931
X1.1004Y0.4035
X1.1099Y0.0538
X1.1575Y0.4724
X1.1594Y0.3819
X1.1594Y0.3504
X1.1594Y0.3199
X1.2362Y0.4764
X1.2362Y0.3543
X1.2362Y0.1142
X1.2677Y0.5778
X1.2717Y0.4449
X1.2992Y0.5787
X1.3031Y0.4449
X1.315Y0.3976
X1.315Y0.3189
X1.315Y0.2402
X1.3307Y0.1161
X1.3937Y0.3976
X1.3937Y0.3189
X1.3937Y0.2402
X1.4724Y0.3976
X1.4724Y0.3189
X1.4724Y0.2402
X1.5512Y0.5079
X1.5512Y0.4449
X1.5512Y0.3819
X1.5512Y0.2559
X1.5512Y0.1929
X1.5512Y0.1299
X1.5886Y0.6102
X1.5886Y0.5807
X1.5886Y0.0512
X1.5886Y0.0236
T2
X1.0079Y0.5931
X1.0472Y0.5931
X1.0866Y0.5931
X1.126Y0.5931
T3
X0.5308Y0.563
X0.6292Y0.563
T4
X0.0697Y0.562
X0.1697Y0.562
X0.2697Y0.562
X0.3697Y0.562
X0.7878Y0.564
X0.8878Y0.564
M30
