%TF.GenerationSoftware,KiCad,Pcbnew,8.0.6*%
%TF.CreationDate,2024-11-27T12:45:58+01:00*%
%TF.ProjectId,Caffeinated-AFTONSPARV,43616666-6569-46e6-9174-65642d414654,rev?*%
%TF.SameCoordinates,Original*%
%TF.FileFunction,Copper,L1,Top*%
%TF.FilePolarity,Positive*%
%FSLAX46Y46*%
G04 Gerber Fmt 4.6, Leading zero omitted, Abs format (unit mm)*
G04 Created by KiCad (PCBNEW 8.0.6) date 2024-11-27 12:45:58*
%MOMM*%
%LPD*%
G01*
G04 APERTURE LIST*
%TA.AperFunction,ComponentPad*%
%ADD10R,0.850000X0.850000*%
%TD*%
%TA.AperFunction,ComponentPad*%
%ADD11O,0.850000X0.850000*%
%TD*%
%TA.AperFunction,ConnectorPad*%
%ADD12C,0.787400*%
%TD*%
%TA.AperFunction,SMDPad,CuDef*%
%ADD13R,0.900000X1.000000*%
%TD*%
%TA.AperFunction,ComponentPad*%
%ADD14R,1.700000X1.700000*%
%TD*%
%TA.AperFunction,ComponentPad*%
%ADD15O,1.700000X1.700000*%
%TD*%
%TA.AperFunction,ComponentPad*%
%ADD16R,1.600000X1.600000*%
%TD*%
%TA.AperFunction,ComponentPad*%
%ADD17C,1.600000*%
%TD*%
%TA.AperFunction,ViaPad*%
%ADD18C,0.450000*%
%TD*%
%TA.AperFunction,Conductor*%
%ADD19C,0.500000*%
%TD*%
%TA.AperFunction,Conductor*%
%ADD20C,0.200000*%
%TD*%
%TA.AperFunction,Conductor*%
%ADD21C,0.250000*%
%TD*%
G04 APERTURE END LIST*
D10*
%TO.P,J4,1,Pin_1*%
%TO.N,GND*%
X25600000Y15065000D03*
D11*
%TO.P,J4,2,Pin_2*%
%TO.N,USB-D+*%
X26600000Y15065000D03*
%TO.P,J4,3,Pin_3*%
%TO.N,USB-D-*%
X27600000Y15065000D03*
%TO.P,J4,4,Pin_4*%
%TO.N,+3.3V*%
X28600000Y15065000D03*
%TD*%
D12*
%TO.P,J3,1,VCC*%
%TO.N,+3.3V*%
X27100000Y3200000D03*
%TO.P,J3,2,IO0/IO9*%
%TO.N,IO9*%
X27100000Y1930000D03*
%TO.P,J3,3,TX*%
%TO.N,TX*%
X25830000Y3200000D03*
%TO.P,J3,4,RX*%
%TO.N,RX*%
X25830000Y1930000D03*
%TO.P,J3,5,GND*%
%TO.N,GND*%
X24560000Y3200000D03*
%TO.P,J3,6,EN*%
%TO.N,EN*%
X24560000Y1930000D03*
%TD*%
D13*
%TO.P,SW1,1,1*%
%TO.N,GND*%
X30650000Y5200000D03*
X30650000Y11000000D03*
%TO.P,SW1,2,2*%
%TO.N,IO9*%
X34350000Y5200000D03*
X34350000Y11000000D03*
%TD*%
D14*
%TO.P,J2,1,Pin_1*%
%TO.N,+24V*%
X9390000Y14275000D03*
D15*
%TO.P,J2,2,Pin_2*%
%TO.N,Net-(J2-Pin_2)*%
X6850000Y14275000D03*
%TO.P,J2,3,Pin_3*%
%TO.N,Net-(J2-Pin_3)*%
X4310000Y14275000D03*
%TO.P,J2,4,Pin_4*%
%TO.N,Net-(J2-Pin_4)*%
X1770000Y14275000D03*
%TD*%
D14*
%TO.P,J1,1,Pin_1*%
%TO.N,GND*%
X22550000Y14325000D03*
D15*
%TO.P,J1,2,Pin_2*%
%TO.N,+24V*%
X20010000Y14325000D03*
%TD*%
D16*
%TO.P,C2,1*%
%TO.N,+24V*%
X15982380Y14300000D03*
D17*
%TO.P,C2,2*%
%TO.N,GND*%
X13482380Y14300000D03*
%TD*%
D18*
%TO.N,GND*%
X39400000Y3300000D03*
X40350000Y1300000D03*
X33400000Y10100000D03*
X4825000Y2900000D03*
X2750000Y2900000D03*
X31400000Y2900000D03*
X39400000Y11300000D03*
X2750000Y9850000D03*
X9325000Y3100000D03*
X2750000Y6350000D03*
X9325000Y7050000D03*
X37400000Y10100000D03*
X18350000Y5350000D03*
X9325000Y5075000D03*
X39400000Y9700000D03*
X33400000Y8100000D03*
X40350000Y15500000D03*
X33400000Y6100000D03*
X29400000Y12000000D03*
X35400000Y8100000D03*
X24560000Y3950000D03*
X12725000Y8850000D03*
X37400000Y6100000D03*
X17425000Y5350000D03*
X14775000Y8850000D03*
X4825000Y6350000D03*
X39400000Y6500000D03*
X35400000Y10100000D03*
X35400000Y6100000D03*
X37400000Y8100000D03*
X40350000Y14750000D03*
X39400000Y4900000D03*
X39400000Y12900000D03*
X40350000Y600000D03*
%TO.N,+24V*%
X20150000Y8700000D03*
%TO.N,Net-(J2-Pin_2)*%
X3050000Y3850000D03*
X4050000Y3850000D03*
%TO.N,Net-(J2-Pin_3)*%
X4050000Y7300000D03*
X3050000Y7300000D03*
%TO.N,+3.3V*%
X12050000Y1900000D03*
X27950000Y12525000D03*
X26550000Y5225000D03*
X10600000Y2225000D03*
%TO.N,IO9*%
X31400000Y12100000D03*
X28192500Y1367500D03*
%TO.N,TX*%
X33100000Y11300000D03*
%TO.N,Net-(U1-GPIO2{slash}ADC1_CH2)*%
X31400000Y9000000D03*
X27950000Y10250000D03*
%TO.N,RX*%
X25250000Y4000000D03*
X32300000Y11300000D03*
X25295000Y1325000D03*
%TO.N,EN*%
X33800000Y2950000D03*
X25850000Y1025000D03*
%TO.N,USB-D+*%
X33000000Y14700000D03*
%TO.N,LED-B*%
X7125000Y11700000D03*
X29450000Y9700000D03*
%TO.N,LED-G*%
X7037500Y8112500D03*
X29450000Y8900000D03*
%TO.N,LED-R*%
X29450000Y8125000D03*
X7125000Y4750000D03*
%TO.N,USB-D-*%
X32200000Y14675000D03*
%TO.N,Net-(J2-Pin_4)*%
X4050000Y10800000D03*
X3050000Y10800000D03*
%TD*%
D19*
%TO.N,GND*%
X24560000Y3950000D02*
X24560000Y3200000D01*
%TO.N,Net-(J2-Pin_2)*%
X5850000Y5650000D02*
X5850000Y13245000D01*
X3050000Y3850000D02*
X4050000Y3850000D01*
X4050000Y3850000D02*
X5850000Y5650000D01*
X5850000Y13245000D02*
X6880000Y14275000D01*
%TO.N,Net-(J2-Pin_3)*%
X3050000Y7300000D02*
X4125000Y7300000D01*
X4950000Y8125000D02*
X4950000Y13075000D01*
X4340000Y13685000D02*
X4340000Y14275000D01*
X4125000Y7300000D02*
X4950000Y8125000D01*
X4950000Y13075000D02*
X4340000Y13685000D01*
%TO.N,+3.3V*%
X27100000Y4675000D02*
X27100000Y3200000D01*
X26550000Y5225000D02*
X27100000Y4675000D01*
D20*
%TO.N,IO9*%
X31475036Y1367500D02*
X34350000Y4242464D01*
X28192500Y1367500D02*
X31475036Y1367500D01*
X34350000Y5200000D02*
X34350000Y11850000D01*
X27662500Y1367500D02*
X27100000Y1930000D01*
X34350000Y11850000D02*
X34100000Y12100000D01*
X34100000Y12100000D02*
X31400000Y12100000D01*
X28192500Y1367500D02*
X27662500Y1367500D01*
X34350000Y4242464D02*
X34350000Y5200000D01*
%TO.N,TX*%
X32875000Y8325000D02*
X30975000Y6425000D01*
X25830000Y5980000D02*
X25830000Y3200000D01*
X26275000Y6425000D02*
X25830000Y5980000D01*
X30975000Y6425000D02*
X26275000Y6425000D01*
X32875000Y11075000D02*
X32875000Y8325000D01*
X33100000Y11300000D02*
X32875000Y11075000D01*
%TO.N,Net-(U1-GPIO2{slash}ADC1_CH2)*%
X30150000Y10250000D02*
X27950000Y10250000D01*
X31400000Y9000000D02*
X30150000Y10250000D01*
%TO.N,RX*%
X25250000Y4000000D02*
X25250000Y6300000D01*
X25250000Y6300000D02*
X25775000Y6825000D01*
X25295000Y1395000D02*
X25830000Y1930000D01*
X32498000Y8548000D02*
X32498000Y11102000D01*
X25775000Y6825000D02*
X30775000Y6825000D01*
X32498000Y11102000D02*
X32300000Y11300000D01*
X30775000Y6825000D02*
X32498000Y8548000D01*
X25295000Y1325000D02*
X25295000Y1395000D01*
%TO.N,EN*%
X28399607Y867500D02*
X28572607Y1040500D01*
X27985393Y867500D02*
X28399607Y867500D01*
X24560000Y1290000D02*
X24560000Y1930000D01*
X25850000Y1025000D02*
X25650000Y825000D01*
X25850000Y1025000D02*
X27827893Y1025000D01*
X25650000Y825000D02*
X25025000Y825000D01*
X31890500Y1040500D02*
X33800000Y2950000D01*
X27827893Y1025000D02*
X27985393Y867500D01*
X25025000Y825000D02*
X24560000Y1290000D01*
X28572607Y1040500D02*
X31890500Y1040500D01*
D21*
%TO.N,USB-D+*%
X33000000Y14000000D02*
X32500000Y13500000D01*
X33000000Y14700000D02*
X33000000Y14000000D01*
X32500000Y13500000D02*
X27400000Y13500000D01*
X27400000Y13500000D02*
X26600000Y14300000D01*
X26600000Y14300000D02*
X26600000Y15065000D01*
%TO.N,LED-B*%
X19050000Y11200000D02*
X18550000Y11700000D01*
X25900000Y11200000D02*
X19050000Y11200000D01*
X29450000Y9700000D02*
X27400000Y9700000D01*
X18550000Y11700000D02*
X7125000Y11700000D01*
X27400000Y9700000D02*
X25900000Y11200000D01*
%TO.N,LED-G*%
X18800000Y10800000D02*
X18350000Y11250000D01*
X25650000Y10800000D02*
X18800000Y10800000D01*
X27200000Y9250000D02*
X25650000Y10800000D01*
X18350000Y11250000D02*
X8650000Y11250000D01*
X29157537Y9250000D02*
X27200000Y9250000D01*
X29450000Y8900000D02*
X29450000Y8957537D01*
X7037500Y9637500D02*
X7037500Y8112500D01*
X8650000Y11250000D02*
X7037500Y9637500D01*
X29450000Y8957537D02*
X29157537Y9250000D01*
%TO.N,LED-R*%
X29450000Y8125000D02*
X28775000Y8800000D01*
X28775000Y8800000D02*
X27000000Y8800000D01*
X25400000Y10400000D02*
X18550000Y10400000D01*
X18150000Y10800000D02*
X9150000Y10800000D01*
X27000000Y8800000D02*
X25400000Y10400000D01*
X7750000Y9400000D02*
X7750000Y7925000D01*
X18550000Y10400000D02*
X18150000Y10800000D01*
X9150000Y10800000D02*
X7750000Y9400000D01*
X7750000Y7925000D02*
X7125000Y7300000D01*
X7125000Y7300000D02*
X7125000Y4750000D01*
%TO.N,USB-D-*%
X27600000Y14400000D02*
X27600000Y15065000D01*
X27900000Y14100000D02*
X27600000Y14400000D01*
X31625000Y14100000D02*
X27900000Y14100000D01*
X32200000Y14675000D02*
X31625000Y14100000D01*
D19*
%TO.N,Net-(J2-Pin_4)*%
X3050000Y10800000D02*
X4050000Y10800000D01*
X3050000Y10800000D02*
X3050000Y13025000D01*
X3050000Y13025000D02*
X1800000Y14275000D01*
%TD*%
%TA.AperFunction,Conductor*%
%TO.N,GND*%
G36*
X33533625Y10878988D02*
G01*
X33583616Y10830175D01*
X33599500Y10769455D01*
X33599500Y10455144D01*
X33599502Y10455118D01*
X33602413Y10430013D01*
X33602415Y10430009D01*
X33647793Y10327236D01*
X33647794Y10327235D01*
X33727235Y10247794D01*
X33792226Y10219098D01*
X33830006Y10202416D01*
X33830009Y10202415D01*
X33839786Y10201281D01*
X33904111Y10174004D01*
X33943478Y10116280D01*
X33949500Y10078107D01*
X33949500Y6121894D01*
X33929815Y6054855D01*
X33877011Y6009100D01*
X33839789Y5998720D01*
X33830010Y5997586D01*
X33830008Y5997585D01*
X33727235Y5952207D01*
X33647794Y5872766D01*
X33602415Y5769994D01*
X33602415Y5769992D01*
X33599500Y5744869D01*
X33599500Y4655144D01*
X33599502Y4655118D01*
X33602413Y4630013D01*
X33602415Y4630009D01*
X33647793Y4527236D01*
X33647794Y4527235D01*
X33727235Y4447794D01*
X33743184Y4440752D01*
X33796560Y4395666D01*
X33817087Y4328880D01*
X33798248Y4261598D01*
X33780778Y4239637D01*
X31345462Y1804319D01*
X31284139Y1770834D01*
X31257781Y1768000D01*
X28926710Y1768000D01*
X28859671Y1787685D01*
X28813916Y1840489D01*
X28803972Y1909647D01*
X28832997Y1973203D01*
X28841258Y1981246D01*
X28841113Y1981391D01*
X28949298Y2089577D01*
X28949301Y2089580D01*
X29030920Y2211731D01*
X29087140Y2347458D01*
X29115800Y2491545D01*
X29115800Y2638455D01*
X29087140Y2782542D01*
X29030920Y2918269D01*
X29030919Y2918270D01*
X29030916Y2918276D01*
X28949301Y3040420D01*
X28949298Y3040424D01*
X28845423Y3144299D01*
X28845419Y3144302D01*
X28723275Y3225917D01*
X28723266Y3225922D01*
X28587544Y3282139D01*
X28587545Y3282139D01*
X28587542Y3282140D01*
X28587538Y3282141D01*
X28587534Y3282142D01*
X28443459Y3310800D01*
X28443455Y3310800D01*
X28296545Y3310800D01*
X28296540Y3310800D01*
X28152465Y3282142D01*
X28152455Y3282139D01*
X28016733Y3225922D01*
X28016726Y3225918D01*
X27980382Y3201633D01*
X27913705Y3180756D01*
X27846325Y3199241D01*
X27799635Y3251220D01*
X27788396Y3289788D01*
X27778979Y3367353D01*
X27771729Y3386469D01*
X27756307Y3427134D01*
X27719199Y3524980D01*
X27672450Y3592708D01*
X27650567Y3659063D01*
X27650500Y3663148D01*
X27650500Y4747473D01*
X27650500Y4747475D01*
X27612984Y4887485D01*
X27540510Y5013015D01*
X26888015Y5665510D01*
X26762485Y5737984D01*
X26762486Y5737984D01*
X26727482Y5747363D01*
X26622474Y5775500D01*
X26491255Y5775500D01*
X26424216Y5795185D01*
X26378461Y5847989D01*
X26368517Y5917147D01*
X26397542Y5980703D01*
X26403574Y5987181D01*
X26404574Y5988181D01*
X26465897Y6021666D01*
X26492255Y6024500D01*
X31027725Y6024500D01*
X31027727Y6024500D01*
X31129588Y6051793D01*
X31220913Y6104520D01*
X33110703Y7994313D01*
X33110708Y7994316D01*
X33120911Y8004520D01*
X33120913Y8004520D01*
X33195480Y8079087D01*
X33234978Y8147500D01*
X33248207Y8170412D01*
X33275500Y8272273D01*
X33275500Y8377727D01*
X33275500Y10721043D01*
X33295185Y10788082D01*
X33347989Y10833837D01*
X33352015Y10835591D01*
X33365018Y10840976D01*
X33400015Y10867831D01*
X33465180Y10893025D01*
X33533625Y10878988D01*
G37*
%TD.AperFunction*%
%TA.AperFunction,Conductor*%
G36*
X26281454Y15930315D02*
G01*
X26327209Y15877511D01*
X26337153Y15808353D01*
X26308128Y15744797D01*
X26280387Y15721006D01*
X26144795Y15635808D01*
X26029192Y15520205D01*
X25942210Y15381775D01*
X25888212Y15227456D01*
X25869909Y15065004D01*
X25869909Y15064997D01*
X25888212Y14902545D01*
X25942210Y14748226D01*
X26029192Y14609796D01*
X26138181Y14500807D01*
X26171666Y14439484D01*
X26174500Y14413126D01*
X26174500Y14356018D01*
X26174500Y14243982D01*
X26203497Y14135763D01*
X26259515Y14038737D01*
X27138737Y13159515D01*
X27235763Y13103497D01*
X27343982Y13074500D01*
X27343984Y13074500D01*
X27457821Y13074500D01*
X27524860Y13054815D01*
X27570615Y13002011D01*
X27580559Y12932853D01*
X27556198Y12875016D01*
X27534682Y12846975D01*
X27490974Y12790015D01*
X27438027Y12662187D01*
X27438026Y12662182D01*
X27419965Y12525001D01*
X27419965Y12525000D01*
X27438026Y12387819D01*
X27438027Y12387814D01*
X27490974Y12259985D01*
X27490975Y12259983D01*
X27490976Y12259982D01*
X27575209Y12150209D01*
X27684982Y12065976D01*
X27812817Y12013026D01*
X27935702Y11996848D01*
X27949999Y11994965D01*
X27950000Y11994965D01*
X27950001Y11994965D01*
X27962947Y11996670D01*
X28087183Y12013026D01*
X28215018Y12065976D01*
X28324791Y12150209D01*
X28409024Y12259982D01*
X28461974Y12387817D01*
X28480035Y12525000D01*
X28461974Y12662183D01*
X28409024Y12790017D01*
X28343802Y12875016D01*
X28318609Y12940182D01*
X28332647Y13008627D01*
X28381461Y13058617D01*
X28442179Y13074500D01*
X32556016Y13074500D01*
X32556018Y13074500D01*
X32664237Y13103497D01*
X32761263Y13159515D01*
X33340485Y13738737D01*
X33396503Y13835763D01*
X33425500Y13943982D01*
X33425500Y14056019D01*
X33425500Y14349201D01*
X33445185Y14416240D01*
X33451128Y14424692D01*
X33459022Y14434980D01*
X33459024Y14434982D01*
X33511974Y14562817D01*
X33530035Y14700000D01*
X33511974Y14837183D01*
X33459024Y14965017D01*
X33374791Y15074791D01*
X33374789Y15074792D01*
X33374789Y15074793D01*
X33297597Y15134025D01*
X33265018Y15159024D01*
X33265017Y15159025D01*
X33265015Y15159026D01*
X33137186Y15211973D01*
X33137184Y15211974D01*
X33137183Y15211974D01*
X33019551Y15227461D01*
X33000001Y15230035D01*
X32999999Y15230035D01*
X32931408Y15221005D01*
X32862817Y15211974D01*
X32862816Y15211974D01*
X32862813Y15211973D01*
X32734984Y15159026D01*
X32734982Y15159024D01*
X32659196Y15100871D01*
X32594027Y15075677D01*
X32525582Y15089716D01*
X32508224Y15100871D01*
X32465018Y15134024D01*
X32465016Y15134025D01*
X32337186Y15186973D01*
X32337184Y15186974D01*
X32337183Y15186974D01*
X32245727Y15199015D01*
X32200001Y15205035D01*
X32199999Y15205035D01*
X32139372Y15197053D01*
X32062817Y15186974D01*
X32062816Y15186974D01*
X32062813Y15186973D01*
X31934985Y15134026D01*
X31825209Y15049791D01*
X31740974Y14940015D01*
X31688026Y14812186D01*
X31688024Y14812178D01*
X31686330Y14799311D01*
X31658060Y14735416D01*
X31651074Y14727823D01*
X31485069Y14561818D01*
X31423749Y14528334D01*
X31397390Y14525500D01*
X29342203Y14525500D01*
X29275164Y14545185D01*
X29229409Y14597989D01*
X29219465Y14667147D01*
X29237209Y14715472D01*
X29241036Y14721564D01*
X29257789Y14748225D01*
X29311786Y14902539D01*
X29316009Y14940017D01*
X29330091Y15064997D01*
X29330091Y15065004D01*
X29311787Y15227456D01*
X29311786Y15227458D01*
X29311786Y15227461D01*
X29257789Y15381775D01*
X29170808Y15520204D01*
X29055204Y15635808D01*
X28919613Y15721006D01*
X28873322Y15773341D01*
X28862674Y15842395D01*
X28891049Y15906243D01*
X28949439Y15944615D01*
X28985585Y15950000D01*
X40876000Y15950000D01*
X40943039Y15930315D01*
X40988794Y15877511D01*
X41000000Y15826000D01*
X41000000Y274000D01*
X40980315Y206961D01*
X40927511Y161206D01*
X40876000Y150000D01*
X274000Y150000D01*
X206961Y169685D01*
X161206Y222489D01*
X150000Y274000D01*
X150000Y2225000D01*
X10069965Y2225000D01*
X10087794Y2089577D01*
X10088026Y2087819D01*
X10088027Y2087814D01*
X10140974Y1959985D01*
X10140975Y1959983D01*
X10140976Y1959982D01*
X10225209Y1850209D01*
X10334982Y1765976D01*
X10334983Y1765976D01*
X10334984Y1765975D01*
X10342616Y1762814D01*
X10462817Y1713026D01*
X10585702Y1696848D01*
X10599999Y1694965D01*
X10600000Y1694965D01*
X10600001Y1694965D01*
X10612947Y1696670D01*
X10737183Y1713026D01*
X10865018Y1765976D01*
X10974791Y1850209D01*
X11012998Y1900001D01*
X11519965Y1900001D01*
X11519965Y1900000D01*
X11538026Y1762819D01*
X11538027Y1762814D01*
X11590974Y1634985D01*
X11590975Y1634983D01*
X11590976Y1634982D01*
X11675209Y1525209D01*
X11784982Y1440976D01*
X11912817Y1388026D01*
X12035702Y1371848D01*
X12049999Y1369965D01*
X12050000Y1369965D01*
X12050001Y1369965D01*
X12062947Y1371670D01*
X12187183Y1388026D01*
X12315018Y1440976D01*
X12424791Y1525209D01*
X12509024Y1634982D01*
X12561974Y1762817D01*
X12580035Y1900000D01*
X12561974Y2037183D01*
X12509024Y2165017D01*
X12424791Y2274791D01*
X12424789Y2274792D01*
X12424789Y2274793D01*
X12315015Y2359026D01*
X12187186Y2411973D01*
X12187184Y2411974D01*
X12187183Y2411974D01*
X12084613Y2425478D01*
X12050001Y2430035D01*
X12049999Y2430035D01*
X12015387Y2425478D01*
X11912817Y2411974D01*
X11912816Y2411974D01*
X11912813Y2411973D01*
X11784985Y2359026D01*
X11675209Y2274791D01*
X11590974Y2165015D01*
X11538027Y2037187D01*
X11538026Y2037182D01*
X11519965Y1900001D01*
X11012998Y1900001D01*
X11059024Y1959982D01*
X11111974Y2087817D01*
X11130035Y2225000D01*
X11111974Y2362183D01*
X11059024Y2490017D01*
X10974791Y2599791D01*
X10974789Y2599792D01*
X10974789Y2599793D01*
X10865015Y2684026D01*
X10737186Y2736973D01*
X10737184Y2736974D01*
X10737183Y2736974D01*
X10645727Y2749015D01*
X10600001Y2755035D01*
X10599999Y2755035D01*
X10531408Y2746005D01*
X10462817Y2736974D01*
X10462816Y2736974D01*
X10462813Y2736973D01*
X10334985Y2684026D01*
X10225209Y2599791D01*
X10140974Y2490015D01*
X10088027Y2362187D01*
X10088026Y2362184D01*
X10088026Y2362183D01*
X10069965Y2225000D01*
X150000Y2225000D01*
X150000Y14275000D01*
X614571Y14275000D01*
X634244Y14062690D01*
X687650Y13874989D01*
X692596Y13857608D01*
X692596Y13857606D01*
X787632Y13666747D01*
X878369Y13546593D01*
X916128Y13496593D01*
X1073698Y13352948D01*
X1254981Y13240702D01*
X1453802Y13163679D01*
X1663390Y13124500D01*
X1663392Y13124500D01*
X1876607Y13124500D01*
X1876610Y13124500D01*
X2061212Y13159009D01*
X2130722Y13151978D01*
X2171674Y13124801D01*
X2463181Y12833294D01*
X2496666Y12771971D01*
X2499500Y12745613D01*
X2499500Y10872475D01*
X2499500Y10727525D01*
X2537016Y10587515D01*
X2537017Y10587512D01*
X2609488Y10461989D01*
X2609490Y10461987D01*
X2609491Y10461985D01*
X2711985Y10359491D01*
X2711986Y10359490D01*
X2711988Y10359489D01*
X2837511Y10287018D01*
X2837512Y10287018D01*
X2837515Y10287016D01*
X2977525Y10249500D01*
X2977528Y10249500D01*
X4122472Y10249500D01*
X4122475Y10249500D01*
X4243410Y10281905D01*
X4313255Y10280242D01*
X4371118Y10241080D01*
X4398623Y10176852D01*
X4399500Y10162130D01*
X4399500Y8404387D01*
X4379815Y8337348D01*
X4363181Y8316706D01*
X3933294Y7886819D01*
X3871971Y7853334D01*
X3845613Y7850500D01*
X2977525Y7850500D01*
X2848993Y7816060D01*
X2837511Y7812983D01*
X2711988Y7740512D01*
X2711982Y7740507D01*
X2609493Y7638018D01*
X2609488Y7638012D01*
X2537017Y7512489D01*
X2537016Y7512485D01*
X2499500Y7372475D01*
X2499500Y7227525D01*
X2537016Y7087515D01*
X2537017Y7087512D01*
X2609488Y6961989D01*
X2609490Y6961987D01*
X2609491Y6961985D01*
X2711985Y6859491D01*
X2711986Y6859490D01*
X2711988Y6859489D01*
X2837511Y6787018D01*
X2837512Y6787018D01*
X2837515Y6787016D01*
X2977525Y6749500D01*
X2977528Y6749500D01*
X4197472Y6749500D01*
X4197474Y6749500D01*
X4197475Y6749500D01*
X4337485Y6787016D01*
X4339216Y6788016D01*
X4339236Y6788021D01*
X4339234Y6788025D01*
X4463008Y6859486D01*
X4463007Y6859486D01*
X4463015Y6859490D01*
X5087819Y7484294D01*
X5149142Y7517779D01*
X5218834Y7512795D01*
X5274767Y7470923D01*
X5299184Y7405459D01*
X5299500Y7396613D01*
X5299500Y5929387D01*
X5279815Y5862348D01*
X5263181Y5841706D01*
X3858294Y4436819D01*
X3796971Y4403334D01*
X3770613Y4400500D01*
X2977525Y4400500D01*
X2848993Y4366060D01*
X2837511Y4362983D01*
X2711988Y4290512D01*
X2711982Y4290507D01*
X2609493Y4188018D01*
X2609488Y4188012D01*
X2537017Y4062489D01*
X2537016Y4062485D01*
X2499500Y3922475D01*
X2499500Y3777525D01*
X2535600Y3642800D01*
X2537017Y3637512D01*
X2609488Y3511989D01*
X2609490Y3511987D01*
X2609491Y3511985D01*
X2711985Y3409491D01*
X2711986Y3409490D01*
X2711988Y3409489D01*
X2837511Y3337018D01*
X2837512Y3337018D01*
X2837515Y3337016D01*
X2977525Y3299500D01*
X2977528Y3299500D01*
X4122472Y3299500D01*
X4122474Y3299500D01*
X4122475Y3299500D01*
X4262485Y3337016D01*
X4308284Y3363458D01*
X4388015Y3409490D01*
X4632985Y3654460D01*
X22544200Y3654460D01*
X22544200Y3507541D01*
X22570821Y3373708D01*
X22572860Y3363458D01*
X22594672Y3310800D01*
X22629078Y3227734D01*
X22629083Y3227725D01*
X22710698Y3105581D01*
X22710701Y3105577D01*
X22814576Y3001702D01*
X22814580Y3001699D01*
X22936724Y2920084D01*
X22936730Y2920081D01*
X22936731Y2920080D01*
X23072458Y2863860D01*
X23216540Y2835201D01*
X23216544Y2835200D01*
X23216545Y2835200D01*
X23363456Y2835200D01*
X23363457Y2835201D01*
X23507542Y2863860D01*
X23643269Y2920080D01*
X23765420Y3001699D01*
X23869301Y3105580D01*
X23950920Y3227731D01*
X24007140Y3363458D01*
X24035800Y3507545D01*
X24035800Y3654455D01*
X24007140Y3798542D01*
X23950920Y3934269D01*
X23950919Y3934270D01*
X23950916Y3934276D01*
X23869301Y4056420D01*
X23869298Y4056424D01*
X23765423Y4160299D01*
X23765419Y4160302D01*
X23643275Y4241917D01*
X23643266Y4241922D01*
X23525965Y4290509D01*
X23507542Y4298140D01*
X23507538Y4298141D01*
X23507534Y4298142D01*
X23363459Y4326800D01*
X23363455Y4326800D01*
X23216545Y4326800D01*
X23216540Y4326800D01*
X23072465Y4298142D01*
X23072455Y4298139D01*
X22936733Y4241922D01*
X22936724Y4241917D01*
X22814580Y4160302D01*
X22814576Y4160299D01*
X22710701Y4056424D01*
X22710698Y4056420D01*
X22629083Y3934276D01*
X22629078Y3934267D01*
X22572861Y3798545D01*
X22572858Y3798535D01*
X22544200Y3654460D01*
X4632985Y3654460D01*
X6290510Y5311985D01*
X6362984Y5437515D01*
X6367444Y5454162D01*
X6377053Y5490018D01*
X6385634Y5522048D01*
X6400500Y5577525D01*
X6400500Y7714134D01*
X6420185Y7781173D01*
X6472989Y7826928D01*
X6542147Y7836872D01*
X6605703Y7807847D01*
X6622874Y7789622D01*
X6633681Y7775539D01*
X6662709Y7737708D01*
X6731442Y7684967D01*
X6772644Y7628539D01*
X6776799Y7558793D01*
X6763343Y7524593D01*
X6728497Y7464238D01*
X6728497Y7464237D01*
X6699500Y7356018D01*
X6699500Y5100799D01*
X6679815Y5033760D01*
X6673876Y5025313D01*
X6665975Y5015018D01*
X6613027Y4887187D01*
X6613026Y4887184D01*
X6613026Y4887183D01*
X6594965Y4750000D01*
X6607454Y4655136D01*
X6613026Y4612819D01*
X6613027Y4612814D01*
X6665974Y4484985D01*
X6665975Y4484983D01*
X6665976Y4484982D01*
X6750209Y4375209D01*
X6859982Y4290976D01*
X6987817Y4238026D01*
X7110702Y4221848D01*
X7124999Y4219965D01*
X7125000Y4219965D01*
X7125001Y4219965D01*
X7137947Y4221670D01*
X7262183Y4238026D01*
X7390018Y4290976D01*
X7499791Y4375209D01*
X7584024Y4484982D01*
X7636974Y4612817D01*
X7655035Y4750000D01*
X7636974Y4887183D01*
X7584854Y5013014D01*
X7584024Y5015018D01*
X7576124Y5025313D01*
X7550930Y5090482D01*
X7550500Y5100799D01*
X7550500Y7072390D01*
X7570185Y7139429D01*
X7586819Y7160071D01*
X8090480Y7663732D01*
X8090484Y7663736D01*
X8091778Y7665976D01*
X8146503Y7760763D01*
X8151972Y7781173D01*
X8160226Y7811975D01*
X8171307Y7853334D01*
X8175500Y7868981D01*
X8175500Y7981018D01*
X8175500Y8700001D01*
X19619965Y8700001D01*
X19619965Y8700000D01*
X19638026Y8562819D01*
X19638027Y8562814D01*
X19690974Y8434985D01*
X19690975Y8434983D01*
X19690976Y8434982D01*
X19775209Y8325209D01*
X19884982Y8240976D01*
X20012817Y8188026D01*
X20135702Y8171848D01*
X20149999Y8169965D01*
X20150000Y8169965D01*
X20150001Y8169965D01*
X20162947Y8171670D01*
X20287183Y8188026D01*
X20415018Y8240976D01*
X20524791Y8325209D01*
X20609024Y8434982D01*
X20661974Y8562817D01*
X20680035Y8700000D01*
X20661974Y8837183D01*
X20609024Y8965017D01*
X20524791Y9074791D01*
X20524789Y9074792D01*
X20524789Y9074793D01*
X20415015Y9159026D01*
X20287186Y9211973D01*
X20287184Y9211974D01*
X20287183Y9211974D01*
X20191943Y9224513D01*
X20150001Y9230035D01*
X20149999Y9230035D01*
X20108057Y9224513D01*
X20012817Y9211974D01*
X20012816Y9211974D01*
X20012813Y9211973D01*
X19884985Y9159026D01*
X19775209Y9074791D01*
X19690974Y8965015D01*
X19638027Y8837187D01*
X19638026Y8837182D01*
X19619965Y8700001D01*
X8175500Y8700001D01*
X8175500Y9172390D01*
X8195185Y9239429D01*
X8211819Y9260071D01*
X9289929Y10338181D01*
X9351252Y10371666D01*
X9377610Y10374500D01*
X17922390Y10374500D01*
X17989429Y10354815D01*
X18010071Y10338181D01*
X18209515Y10138737D01*
X18288737Y10059515D01*
X18315667Y10043967D01*
X18385763Y10003497D01*
X18493981Y9974500D01*
X18493982Y9974500D01*
X22703027Y9974500D01*
X22770066Y9954815D01*
X22815821Y9902011D01*
X22825765Y9832853D01*
X22796740Y9769297D01*
X22756829Y9738781D01*
X22742303Y9731785D01*
X22595840Y9661253D01*
X22373211Y9509467D01*
X22175699Y9326204D01*
X22007701Y9115540D01*
X21872979Y8882198D01*
X21872976Y8882190D01*
X21774542Y8631384D01*
X21774536Y8631365D01*
X21714583Y8368691D01*
X21714583Y8368690D01*
X21694448Y8100004D01*
X21694448Y8099997D01*
X21714583Y7831311D01*
X21714583Y7831310D01*
X21774536Y7568636D01*
X21774542Y7568617D01*
X21872976Y7317811D01*
X21872979Y7317803D01*
X21925102Y7227525D01*
X22007701Y7084460D01*
X22105372Y6961985D01*
X22175699Y6873797D01*
X22362153Y6700794D01*
X22373212Y6690533D01*
X22595836Y6538750D01*
X22595841Y6538748D01*
X22595842Y6538747D01*
X22595843Y6538746D01*
X22724771Y6476658D01*
X22838592Y6421845D01*
X22838593Y6421845D01*
X22838596Y6421843D01*
X23096069Y6342423D01*
X23096070Y6342423D01*
X23096073Y6342422D01*
X23362494Y6302266D01*
X23362499Y6302266D01*
X23362502Y6302265D01*
X23362503Y6302265D01*
X23631945Y6302265D01*
X23631946Y6302265D01*
X23631953Y6302266D01*
X23898374Y6342422D01*
X23898375Y6342423D01*
X23898379Y6342423D01*
X24155852Y6421843D01*
X24398612Y6538750D01*
X24621236Y6690533D01*
X24803324Y6859486D01*
X24818748Y6873797D01*
X24818748Y6873799D01*
X24818752Y6873801D01*
X24986747Y7084460D01*
X25121469Y7317805D01*
X25219908Y7568622D01*
X25279864Y7831310D01*
X25292080Y7994316D01*
X25300000Y8099997D01*
X25300000Y8100004D01*
X25279864Y8368690D01*
X25279864Y8368691D01*
X25219911Y8631365D01*
X25219910Y8631366D01*
X25219908Y8631378D01*
X25121469Y8882195D01*
X25121468Y8882198D01*
X25031987Y9037182D01*
X24986747Y9115540D01*
X24818752Y9326199D01*
X24818751Y9326200D01*
X24818748Y9326204D01*
X24621236Y9509467D01*
X24555497Y9554287D01*
X24398612Y9661250D01*
X24398609Y9661251D01*
X24398607Y9661253D01*
X24262157Y9726963D01*
X24237618Y9738781D01*
X24185760Y9785602D01*
X24167447Y9853029D01*
X24188495Y9919653D01*
X24242221Y9964322D01*
X24291421Y9974500D01*
X25172390Y9974500D01*
X25239429Y9954815D01*
X25260071Y9938181D01*
X26659515Y8538737D01*
X26738737Y8459515D01*
X26835763Y8403497D01*
X26943982Y8374500D01*
X28547390Y8374500D01*
X28614429Y8354815D01*
X28635071Y8338181D01*
X28901073Y8072179D01*
X28934558Y8010856D01*
X28936330Y8000689D01*
X28938024Y7987824D01*
X28938026Y7987815D01*
X28990974Y7859985D01*
X28990975Y7859983D01*
X28990976Y7859982D01*
X29075209Y7750209D01*
X29184982Y7665976D01*
X29184983Y7665976D01*
X29184984Y7665975D01*
X29215160Y7653476D01*
X29312817Y7613026D01*
X29435702Y7596848D01*
X29449999Y7594965D01*
X29450000Y7594965D01*
X29450001Y7594965D01*
X29462947Y7596670D01*
X29587183Y7613026D01*
X29715018Y7665976D01*
X29824791Y7750209D01*
X29909024Y7859982D01*
X29961974Y7987817D01*
X29980035Y8125000D01*
X29961974Y8262183D01*
X29930495Y8338181D01*
X29909025Y8390016D01*
X29909023Y8390018D01*
X29872962Y8437014D01*
X29847768Y8502183D01*
X29861806Y8570628D01*
X29872963Y8587987D01*
X29874737Y8590300D01*
X29909024Y8634982D01*
X29961974Y8762817D01*
X29980035Y8900000D01*
X29961974Y9037183D01*
X29920553Y9137183D01*
X29909025Y9165015D01*
X29909024Y9165016D01*
X29909024Y9165017D01*
X29863369Y9224516D01*
X29838176Y9289682D01*
X29852214Y9358127D01*
X29863365Y9375481D01*
X29909024Y9434982D01*
X29961974Y9562817D01*
X29965080Y9586412D01*
X29993346Y9650308D01*
X30051671Y9688779D01*
X30121535Y9689610D01*
X30175700Y9657907D01*
X30845713Y8987894D01*
X30879198Y8926571D01*
X30880971Y8916400D01*
X30888026Y8862816D01*
X30940974Y8734985D01*
X30940975Y8734983D01*
X30940976Y8734982D01*
X31025209Y8625209D01*
X31134982Y8540976D01*
X31134983Y8540976D01*
X31134984Y8540975D01*
X31173048Y8525209D01*
X31262817Y8488026D01*
X31385702Y8471848D01*
X31399999Y8469965D01*
X31400000Y8469965D01*
X31400001Y8469965D01*
X31412947Y8471670D01*
X31537183Y8488026D01*
X31537193Y8488031D01*
X31545034Y8490130D01*
X31545762Y8487413D01*
X31601630Y8493432D01*
X31664116Y8462171D01*
X31699782Y8402090D01*
X31697304Y8332264D01*
X31667322Y8283716D01*
X30645426Y7261819D01*
X30584103Y7228334D01*
X30557745Y7225500D01*
X25722273Y7225500D01*
X25620410Y7198207D01*
X25529087Y7145480D01*
X25529084Y7145478D01*
X24929522Y6545916D01*
X24929518Y6545910D01*
X24876792Y6454588D01*
X24876793Y6454587D01*
X24849500Y6352727D01*
X24849500Y4383380D01*
X24829815Y4316341D01*
X24823876Y4307894D01*
X24790975Y4265018D01*
X24738027Y4137187D01*
X24738026Y4137182D01*
X24719965Y4000001D01*
X24719965Y4000000D01*
X24738026Y3862819D01*
X24738027Y3862814D01*
X24790974Y3734985D01*
X24790975Y3734983D01*
X24790976Y3734982D01*
X24875209Y3625209D01*
X24984982Y3540976D01*
X25076149Y3503214D01*
X25130551Y3459375D01*
X25152617Y3393081D01*
X25151792Y3373708D01*
X25143942Y3309054D01*
X25116321Y3244876D01*
X25058387Y3205819D01*
X25020846Y3200000D01*
X24560000Y3200000D01*
X24560000Y2742124D01*
X24540315Y2675085D01*
X24487511Y2629330D01*
X24465675Y2621727D01*
X24312026Y2583857D01*
X24162751Y2505512D01*
X24036568Y2393723D01*
X23940802Y2254982D01*
X23940800Y2254979D01*
X23922272Y2206126D01*
X23880093Y2150424D01*
X23814495Y2126368D01*
X23746305Y2141596D01*
X23737440Y2146997D01*
X23643275Y2209917D01*
X23643266Y2209922D01*
X23507544Y2266139D01*
X23507545Y2266139D01*
X23507542Y2266140D01*
X23507538Y2266141D01*
X23507534Y2266142D01*
X23363459Y2294800D01*
X23363455Y2294800D01*
X23216545Y2294800D01*
X23216540Y2294800D01*
X23072465Y2266142D01*
X23072455Y2266139D01*
X22936733Y2209922D01*
X22936724Y2209917D01*
X22814580Y2128302D01*
X22814576Y2128299D01*
X22710701Y2024424D01*
X22710698Y2024420D01*
X22629083Y1902276D01*
X22629078Y1902267D01*
X22572861Y1766545D01*
X22572858Y1766535D01*
X22544200Y1622460D01*
X22544200Y1475541D01*
X22572858Y1331466D01*
X22572861Y1331456D01*
X22629078Y1195734D01*
X22629083Y1195725D01*
X22710698Y1073581D01*
X22710701Y1073577D01*
X22814576Y969702D01*
X22814580Y969699D01*
X22936724Y888084D01*
X22936730Y888081D01*
X22936731Y888080D01*
X23072458Y831860D01*
X23216540Y803201D01*
X23216544Y803200D01*
X23216545Y803200D01*
X23363456Y803200D01*
X23363457Y803201D01*
X23507542Y831860D01*
X23643269Y888080D01*
X23765420Y969699D01*
X23869301Y1073580D01*
X23911991Y1137470D01*
X23954305Y1200796D01*
X23956063Y1199622D01*
X23998295Y1242626D01*
X24066430Y1258097D01*
X24132114Y1234275D01*
X24174491Y1178724D01*
X24178482Y1166431D01*
X24186793Y1135411D01*
X24213156Y1089750D01*
X24239520Y1044087D01*
X24704519Y579088D01*
X24704520Y579087D01*
X24779087Y504520D01*
X24870413Y451793D01*
X24972273Y424500D01*
X24972275Y424500D01*
X25702725Y424500D01*
X25702727Y424500D01*
X25804588Y451793D01*
X25866678Y487642D01*
X25912491Y503193D01*
X25987183Y513026D01*
X26115018Y565976D01*
X26157893Y598876D01*
X26223060Y624070D01*
X26233379Y624500D01*
X27610638Y624500D01*
X27677677Y604815D01*
X27698319Y588181D01*
X27739480Y547020D01*
X27813092Y504520D01*
X27830806Y494293D01*
X27932666Y466999D01*
X27932668Y466999D01*
X28045716Y466999D01*
X28045732Y467000D01*
X28452332Y467000D01*
X28452334Y467000D01*
X28554195Y494293D01*
X28645520Y547020D01*
X28702181Y603681D01*
X28763504Y637166D01*
X28789862Y640000D01*
X31943225Y640000D01*
X31943227Y640000D01*
X32045088Y667293D01*
X32136413Y720020D01*
X33812108Y2395717D01*
X33873429Y2429200D01*
X33883587Y2430971D01*
X33937183Y2438026D01*
X34065018Y2490976D01*
X34174791Y2575209D01*
X34259024Y2684982D01*
X34311974Y2812817D01*
X34330035Y2950000D01*
X34311974Y3087183D01*
X34259024Y3215017D01*
X34174791Y3324791D01*
X34174788Y3324794D01*
X34174786Y3324796D01*
X34174436Y3325146D01*
X34174234Y3325515D01*
X34169843Y3331238D01*
X34170735Y3331923D01*
X34140951Y3386469D01*
X34145935Y3456161D01*
X34174436Y3500508D01*
X34372427Y3698499D01*
X34670480Y3996551D01*
X34723207Y4087876D01*
X34750500Y4189737D01*
X34750500Y4278107D01*
X34770185Y4345146D01*
X34822989Y4390901D01*
X34860213Y4401282D01*
X34869991Y4402415D01*
X34972765Y4447794D01*
X35052206Y4527235D01*
X35097585Y4630009D01*
X35100500Y4655135D01*
X35100499Y5744864D01*
X35100497Y5744883D01*
X35097586Y5769988D01*
X35097585Y5769990D01*
X35097585Y5769991D01*
X35052206Y5872765D01*
X34972765Y5952206D01*
X34972763Y5952207D01*
X34869992Y5997585D01*
X34860208Y5998720D01*
X34795884Y6026001D01*
X34756520Y6083727D01*
X34750500Y6121894D01*
X34750500Y10078107D01*
X34770185Y10145146D01*
X34822989Y10190901D01*
X34860213Y10201282D01*
X34869991Y10202415D01*
X34972765Y10247794D01*
X35052206Y10327235D01*
X35097585Y10430009D01*
X35100500Y10455135D01*
X35100499Y11544864D01*
X35100497Y11544883D01*
X35097586Y11569988D01*
X35097585Y11569990D01*
X35097585Y11569991D01*
X35052206Y11672765D01*
X34972765Y11752206D01*
X34869993Y11797585D01*
X34869986Y11797587D01*
X34858727Y11798893D01*
X34794404Y11826175D01*
X34755042Y11883902D01*
X34752375Y11895727D01*
X34750500Y11902725D01*
X34750500Y11902727D01*
X34723207Y12004587D01*
X34670480Y12095913D01*
X34595913Y12170480D01*
X34345913Y12420480D01*
X34300250Y12446844D01*
X34254589Y12473207D01*
X34203657Y12486854D01*
X34152727Y12500500D01*
X34152726Y12500500D01*
X31783379Y12500500D01*
X31716340Y12520185D01*
X31707906Y12526115D01*
X31665018Y12559024D01*
X31665017Y12559025D01*
X31665015Y12559026D01*
X31537186Y12611973D01*
X31537184Y12611974D01*
X31537183Y12611974D01*
X31445727Y12624015D01*
X31400001Y12630035D01*
X31399999Y12630035D01*
X31331408Y12621005D01*
X31262817Y12611974D01*
X31262816Y12611974D01*
X31262813Y12611973D01*
X31134985Y12559026D01*
X31025209Y12474791D01*
X30940974Y12365015D01*
X30888027Y12237187D01*
X30888026Y12237184D01*
X30888026Y12237183D01*
X30869965Y12100000D01*
X30887736Y11965016D01*
X30888026Y11962819D01*
X30888027Y11962814D01*
X30940974Y11834985D01*
X30940975Y11834983D01*
X30940976Y11834982D01*
X31025209Y11725209D01*
X31134982Y11640976D01*
X31262817Y11588026D01*
X31385702Y11571848D01*
X31399999Y11569965D01*
X31400000Y11569965D01*
X31400001Y11569965D01*
X31412947Y11571670D01*
X31537183Y11588026D01*
X31638826Y11630128D01*
X31708293Y11637596D01*
X31770772Y11606321D01*
X31806424Y11546232D01*
X31803930Y11476407D01*
X31800838Y11468116D01*
X31788027Y11437187D01*
X31788026Y11437184D01*
X31788026Y11437183D01*
X31787736Y11434982D01*
X31773267Y11325077D01*
X31769965Y11300000D01*
X31779309Y11229024D01*
X31788026Y11162819D01*
X31788027Y11162814D01*
X31840974Y11034985D01*
X31840975Y11034983D01*
X31840976Y11034982D01*
X31925209Y10925209D01*
X32034982Y10840976D01*
X32034985Y10840974D01*
X32035500Y10840677D01*
X32035847Y10840313D01*
X32041430Y10836029D01*
X32040761Y10835159D01*
X32083715Y10790110D01*
X32097500Y10733290D01*
X32097500Y9312675D01*
X32077815Y9245636D01*
X32025011Y9199881D01*
X31955853Y9189937D01*
X31892297Y9218962D01*
X31863846Y9258417D01*
X31863088Y9257978D01*
X31859026Y9265013D01*
X31859025Y9265014D01*
X31859024Y9265017D01*
X31774791Y9374791D01*
X31774789Y9374792D01*
X31774789Y9374793D01*
X31665015Y9459026D01*
X31537184Y9511974D01*
X31483600Y9519029D01*
X31419704Y9547297D01*
X31412106Y9554287D01*
X30395915Y10570478D01*
X30395913Y10570480D01*
X30350250Y10596844D01*
X30304589Y10623207D01*
X30253657Y10636854D01*
X30202727Y10650500D01*
X30202726Y10650500D01*
X28333379Y10650500D01*
X28266340Y10670185D01*
X28257906Y10676115D01*
X28215018Y10709024D01*
X28215017Y10709025D01*
X28215015Y10709026D01*
X28087186Y10761973D01*
X28087184Y10761974D01*
X28087183Y10761974D01*
X27995727Y10774015D01*
X27950001Y10780035D01*
X27949999Y10780035D01*
X27881408Y10771005D01*
X27812817Y10761974D01*
X27812816Y10761974D01*
X27812813Y10761973D01*
X27684985Y10709026D01*
X27575209Y10624791D01*
X27490976Y10515017D01*
X27472882Y10471334D01*
X27429040Y10416931D01*
X27362746Y10394867D01*
X27295047Y10412147D01*
X27270640Y10431107D01*
X26776538Y10925209D01*
X26161263Y11540485D01*
X26064237Y11596503D01*
X25956018Y11625500D01*
X25956017Y11625500D01*
X19277610Y11625500D01*
X19210571Y11645185D01*
X19189929Y11661819D01*
X18811265Y12040483D01*
X18811263Y12040485D01*
X18715259Y12095913D01*
X18714239Y12096502D01*
X18714238Y12096503D01*
X18714237Y12096503D01*
X18606018Y12125500D01*
X18606017Y12125500D01*
X7475800Y12125500D01*
X7408761Y12145185D01*
X7400315Y12151123D01*
X7390017Y12159025D01*
X7262186Y12211973D01*
X7262184Y12211974D01*
X7262183Y12211974D01*
X7170727Y12224015D01*
X7125001Y12230035D01*
X7124999Y12230035D01*
X7056408Y12221005D01*
X6987817Y12211974D01*
X6987816Y12211974D01*
X6987813Y12211973D01*
X6859985Y12159026D01*
X6750209Y12074791D01*
X6665975Y11965016D01*
X6639061Y11900038D01*
X6595220Y11845635D01*
X6528926Y11823570D01*
X6461227Y11840849D01*
X6413616Y11891986D01*
X6400500Y11947491D01*
X6400500Y12965613D01*
X6420185Y13032652D01*
X6436814Y13053291D01*
X6498876Y13115353D01*
X6560197Y13148836D01*
X6609339Y13149559D01*
X6743390Y13124500D01*
X6743392Y13124500D01*
X6956608Y13124500D01*
X6956610Y13124500D01*
X7166198Y13163679D01*
X7365019Y13240702D01*
X7546302Y13352948D01*
X7703872Y13496593D01*
X7832366Y13666745D01*
X7857264Y13716747D01*
X7927403Y13857606D01*
X7927403Y13857607D01*
X7927405Y13857611D01*
X7985756Y14062690D01*
X7992029Y14130395D01*
X8017814Y14195331D01*
X8074614Y14236019D01*
X8144395Y14239539D01*
X8205002Y14204775D01*
X8237193Y14142762D01*
X8239500Y14118953D01*
X8239500Y13380144D01*
X8239502Y13380118D01*
X8242413Y13355013D01*
X8242415Y13355009D01*
X8287793Y13252236D01*
X8287794Y13252235D01*
X8367235Y13172794D01*
X8470009Y13127415D01*
X8495135Y13124500D01*
X10284864Y13124501D01*
X10284879Y13124503D01*
X10284882Y13124503D01*
X10309987Y13127414D01*
X10309988Y13127415D01*
X10309991Y13127415D01*
X10412765Y13172794D01*
X10492206Y13252235D01*
X10537585Y13355009D01*
X10540500Y13380135D01*
X10540499Y15144869D01*
X14881880Y15144869D01*
X14881880Y13455144D01*
X14881882Y13455118D01*
X14884793Y13430013D01*
X14884795Y13430009D01*
X14930173Y13327236D01*
X14930174Y13327235D01*
X15009615Y13247794D01*
X15112389Y13202415D01*
X15137515Y13199500D01*
X16827244Y13199501D01*
X16827259Y13199503D01*
X16827262Y13199503D01*
X16852367Y13202414D01*
X16852368Y13202415D01*
X16852371Y13202415D01*
X16955145Y13247794D01*
X17034586Y13327235D01*
X17079965Y13430009D01*
X17082880Y13455135D01*
X17082879Y14325000D01*
X18854571Y14325000D01*
X18874244Y14112690D01*
X18922246Y13943982D01*
X18932596Y13907608D01*
X18932596Y13907606D01*
X19027632Y13716747D01*
X19128623Y13583015D01*
X19156128Y13546593D01*
X19313698Y13402948D01*
X19494981Y13290702D01*
X19693802Y13213679D01*
X19903390Y13174500D01*
X19903392Y13174500D01*
X20116608Y13174500D01*
X20116610Y13174500D01*
X20326198Y13213679D01*
X20525019Y13290702D01*
X20706302Y13402948D01*
X20863872Y13546593D01*
X20992366Y13716745D01*
X21030798Y13793928D01*
X21087403Y13907606D01*
X21087403Y13907607D01*
X21087405Y13907611D01*
X21145756Y14112690D01*
X21165429Y14325000D01*
X21145756Y14537310D01*
X21087405Y14742389D01*
X21087403Y14742394D01*
X21087403Y14742395D01*
X20992367Y14933254D01*
X20863872Y15103407D01*
X20818395Y15144865D01*
X20706302Y15247052D01*
X20525019Y15359298D01*
X20525017Y15359299D01*
X20361655Y15422585D01*
X20326198Y15436321D01*
X20116610Y15475500D01*
X19903390Y15475500D01*
X19693802Y15436321D01*
X19693799Y15436321D01*
X19693799Y15436320D01*
X19494982Y15359299D01*
X19494980Y15359298D01*
X19313699Y15247053D01*
X19156127Y15103407D01*
X19027632Y14933254D01*
X18932596Y14742395D01*
X18932596Y14742393D01*
X18874244Y14537311D01*
X18856814Y14349201D01*
X18854571Y14325000D01*
X17082879Y14325000D01*
X17082879Y15144864D01*
X17079980Y15169865D01*
X17079966Y15169988D01*
X17079965Y15169990D01*
X17079965Y15169991D01*
X17034586Y15272765D01*
X16955145Y15352206D01*
X16939081Y15359299D01*
X16852372Y15397585D01*
X16827245Y15400500D01*
X15137523Y15400500D01*
X15137497Y15400498D01*
X15112392Y15397587D01*
X15112388Y15397585D01*
X15009615Y15352207D01*
X14930174Y15272766D01*
X14884795Y15169994D01*
X14884795Y15169992D01*
X14881880Y15144869D01*
X10540499Y15144869D01*
X10540499Y15169864D01*
X10538515Y15186974D01*
X10537586Y15194988D01*
X10537585Y15194990D01*
X10537585Y15194991D01*
X10492206Y15297765D01*
X10412765Y15377206D01*
X10392124Y15386320D01*
X10309992Y15422585D01*
X10284865Y15425500D01*
X8495143Y15425500D01*
X8495117Y15425498D01*
X8470012Y15422587D01*
X8470008Y15422585D01*
X8367235Y15377207D01*
X8287794Y15297766D01*
X8242415Y15194994D01*
X8242415Y15194992D01*
X8239500Y15169869D01*
X8239500Y14431049D01*
X8219815Y14364010D01*
X8167011Y14318255D01*
X8097853Y14308311D01*
X8034297Y14337336D01*
X7996523Y14396114D01*
X7992029Y14419609D01*
X7990604Y14434984D01*
X7985756Y14487310D01*
X7974083Y14528334D01*
X7964271Y14562819D01*
X7927405Y14692389D01*
X7927403Y14692394D01*
X7927403Y14692395D01*
X7832367Y14883254D01*
X7703872Y15053407D01*
X7649025Y15103407D01*
X7546302Y15197052D01*
X7365019Y15309298D01*
X7365017Y15309299D01*
X7235950Y15359299D01*
X7166198Y15386321D01*
X6956610Y15425500D01*
X6743390Y15425500D01*
X6533802Y15386321D01*
X6533799Y15386321D01*
X6533799Y15386320D01*
X6334982Y15309299D01*
X6334980Y15309298D01*
X6153699Y15197053D01*
X5996127Y15053407D01*
X5867632Y14883254D01*
X5772596Y14692395D01*
X5772596Y14692393D01*
X5714244Y14487311D01*
X5703471Y14371049D01*
X5677685Y14306112D01*
X5633130Y14274196D01*
X5669503Y14253332D01*
X5701693Y14191319D01*
X5703471Y14178952D01*
X5714244Y14062689D01*
X5733047Y13996604D01*
X5732461Y13926737D01*
X5701462Y13874989D01*
X5607030Y13780557D01*
X5545707Y13747072D01*
X5476015Y13752056D01*
X5420082Y13793928D01*
X5395665Y13859392D01*
X5400082Y13902166D01*
X5445756Y14062690D01*
X5456529Y14178953D01*
X5482315Y14243889D01*
X5526869Y14275806D01*
X5490497Y14296669D01*
X5458307Y14358682D01*
X5456529Y14371049D01*
X5450605Y14434980D01*
X5445756Y14487310D01*
X5387405Y14692389D01*
X5387403Y14692394D01*
X5387403Y14692395D01*
X5292367Y14883254D01*
X5163872Y15053407D01*
X5109025Y15103407D01*
X5006302Y15197052D01*
X4825019Y15309298D01*
X4825017Y15309299D01*
X4695950Y15359299D01*
X4626198Y15386321D01*
X4416610Y15425500D01*
X4203390Y15425500D01*
X3993802Y15386321D01*
X3993799Y15386321D01*
X3993799Y15386320D01*
X3794982Y15309299D01*
X3794980Y15309298D01*
X3613699Y15197053D01*
X3456127Y15053407D01*
X3327632Y14883254D01*
X3232596Y14692395D01*
X3232596Y14692393D01*
X3174244Y14487311D01*
X3163471Y14371049D01*
X3137685Y14306112D01*
X3080885Y14265424D01*
X3011104Y14261904D01*
X2950497Y14296669D01*
X2918307Y14358682D01*
X2916529Y14371049D01*
X2910605Y14434980D01*
X2905756Y14487310D01*
X2847405Y14692389D01*
X2847403Y14692394D01*
X2847403Y14692395D01*
X2752367Y14883254D01*
X2623872Y15053407D01*
X2569025Y15103407D01*
X2466302Y15197052D01*
X2285019Y15309298D01*
X2285017Y15309299D01*
X2155950Y15359299D01*
X2086198Y15386321D01*
X1876610Y15425500D01*
X1663390Y15425500D01*
X1453802Y15386321D01*
X1453799Y15386321D01*
X1453799Y15386320D01*
X1254982Y15309299D01*
X1254980Y15309298D01*
X1073699Y15197053D01*
X916127Y15053407D01*
X787632Y14883254D01*
X692596Y14692395D01*
X692596Y14692393D01*
X634244Y14487311D01*
X621447Y14349201D01*
X614571Y14275000D01*
X150000Y14275000D01*
X150000Y15826000D01*
X169685Y15893039D01*
X222489Y15938794D01*
X274000Y15950000D01*
X26214415Y15950000D01*
X26281454Y15930315D01*
G37*
%TD.AperFunction*%
%TD*%
M02*
