%TF.GenerationSoftware,KiCad,Pcbnew,8.0.6*%
%TF.CreationDate,2024-11-27T12:45:58+01:00*%
%TF.ProjectId,Caffeinated-AFTONSPARV,43616666-6569-46e6-9174-65642d414654,rev?*%
%TF.SameCoordinates,Original*%
%TF.FileFunction,Legend,Top*%
%TF.FilePolarity,Positive*%
%FSLAX46Y46*%
G04 Gerber Fmt 4.6, Leading zero omitted, Abs format (unit mm)*
G04 Created by KiCad (PCBNEW 8.0.6) date 2024-11-27 12:45:58*
%MOMM*%
%LPD*%
G01*
G04 APERTURE LIST*
%ADD10C,0.150000*%
%ADD11C,0.428553*%
%ADD12C,0.100000*%
%ADD13C,0.120000*%
%ADD14C,0.000000*%
%ADD15C,0.010000*%
%ADD16R,0.850000X0.850000*%
%ADD17O,0.850000X0.850000*%
%ADD18C,0.990600*%
%ADD19C,0.787400*%
%ADD20R,0.900000X1.000000*%
%ADD21R,1.700000X1.700000*%
%ADD22O,1.700000X1.700000*%
%ADD23R,1.600000X1.600000*%
%ADD24C,1.600000*%
G04 APERTURE END LIST*
D10*
X38050000Y6300000D02*
X39200000Y6300000D01*
D11*
X41014276Y8800000D02*
G75*
G02*
X40585724Y8800000I-214276J0D01*
G01*
X40585724Y8800000D02*
G75*
G02*
X41014276Y8800000I214276J0D01*
G01*
X39014276Y7800000D02*
G75*
G02*
X38585724Y7800000I-214276J0D01*
G01*
X38585724Y7800000D02*
G75*
G02*
X39014276Y7800000I214276J0D01*
G01*
X40014276Y7800000D02*
G75*
G02*
X39585724Y7800000I-214276J0D01*
G01*
X39585724Y7800000D02*
G75*
G02*
X40014276Y7800000I214276J0D01*
G01*
D10*
X38050000Y5550000D02*
X39800000Y5550000D01*
X39800000Y11050000D02*
X40800000Y9050000D01*
X38800000Y7600000D02*
X38550000Y7100000D01*
X38050000Y10300000D02*
X39175000Y10300000D01*
X38550000Y9550000D02*
X38800000Y9050000D01*
X38050000Y11050000D02*
X39800000Y11050000D01*
X40800000Y7600000D02*
X39800000Y5550000D01*
X38300000Y9550000D02*
X38550000Y9550000D01*
X38050000Y7100000D02*
X38550000Y7100000D01*
D11*
X39014276Y8800000D02*
G75*
G02*
X38585724Y8800000I-214276J0D01*
G01*
X38585724Y8800000D02*
G75*
G02*
X39014276Y8800000I214276J0D01*
G01*
X41014276Y7800000D02*
G75*
G02*
X40585724Y7800000I-214276J0D01*
G01*
X40585724Y7800000D02*
G75*
G02*
X41014276Y7800000I214276J0D01*
G01*
D10*
X39175000Y10300000D02*
X39800000Y9050000D01*
D11*
X40014276Y8800000D02*
G75*
G02*
X39585724Y8800000I-214276J0D01*
G01*
X39585724Y8800000D02*
G75*
G02*
X40014276Y8800000I214276J0D01*
G01*
D10*
X38050000Y9550000D02*
X38550000Y9550000D01*
X39800000Y7600000D02*
X39200000Y6300000D01*
D12*
X27326109Y11834211D02*
X27730871Y11834211D01*
X27730871Y11834211D02*
X27778490Y11858021D01*
X27778490Y11858021D02*
X27802300Y11881830D01*
X27802300Y11881830D02*
X27826109Y11929449D01*
X27826109Y11929449D02*
X27826109Y12024687D01*
X27826109Y12024687D02*
X27802300Y12072306D01*
X27802300Y12072306D02*
X27778490Y12096116D01*
X27778490Y12096116D02*
X27730871Y12119925D01*
X27730871Y12119925D02*
X27326109Y12119925D01*
X27802300Y12334212D02*
X27826109Y12405640D01*
X27826109Y12405640D02*
X27826109Y12524688D01*
X27826109Y12524688D02*
X27802300Y12572307D01*
X27802300Y12572307D02*
X27778490Y12596116D01*
X27778490Y12596116D02*
X27730871Y12619926D01*
X27730871Y12619926D02*
X27683252Y12619926D01*
X27683252Y12619926D02*
X27635633Y12596116D01*
X27635633Y12596116D02*
X27611823Y12572307D01*
X27611823Y12572307D02*
X27588014Y12524688D01*
X27588014Y12524688D02*
X27564204Y12429450D01*
X27564204Y12429450D02*
X27540395Y12381831D01*
X27540395Y12381831D02*
X27516585Y12358021D01*
X27516585Y12358021D02*
X27468966Y12334212D01*
X27468966Y12334212D02*
X27421347Y12334212D01*
X27421347Y12334212D02*
X27373728Y12358021D01*
X27373728Y12358021D02*
X27349919Y12381831D01*
X27349919Y12381831D02*
X27326109Y12429450D01*
X27326109Y12429450D02*
X27326109Y12548497D01*
X27326109Y12548497D02*
X27349919Y12619926D01*
X27564204Y13000878D02*
X27588014Y13072306D01*
X27588014Y13072306D02*
X27611823Y13096116D01*
X27611823Y13096116D02*
X27659442Y13119925D01*
X27659442Y13119925D02*
X27730871Y13119925D01*
X27730871Y13119925D02*
X27778490Y13096116D01*
X27778490Y13096116D02*
X27802300Y13072306D01*
X27802300Y13072306D02*
X27826109Y13024687D01*
X27826109Y13024687D02*
X27826109Y12834211D01*
X27826109Y12834211D02*
X27326109Y12834211D01*
X27326109Y12834211D02*
X27326109Y13000878D01*
X27326109Y13000878D02*
X27349919Y13048497D01*
X27349919Y13048497D02*
X27373728Y13072306D01*
X27373728Y13072306D02*
X27421347Y13096116D01*
X27421347Y13096116D02*
X27468966Y13096116D01*
X27468966Y13096116D02*
X27516585Y13072306D01*
X27516585Y13072306D02*
X27540395Y13048497D01*
X27540395Y13048497D02*
X27564204Y13000878D01*
X27564204Y13000878D02*
X27564204Y12834211D01*
X27635633Y13334211D02*
X27635633Y13715163D01*
X36865163Y5323891D02*
X36865163Y5823891D01*
X37198496Y5823891D02*
X37293734Y5823891D01*
X37293734Y5823891D02*
X37341353Y5800081D01*
X37341353Y5800081D02*
X37388972Y5752462D01*
X37388972Y5752462D02*
X37412782Y5657224D01*
X37412782Y5657224D02*
X37412782Y5490558D01*
X37412782Y5490558D02*
X37388972Y5395320D01*
X37388972Y5395320D02*
X37341353Y5347700D01*
X37341353Y5347700D02*
X37293734Y5323891D01*
X37293734Y5323891D02*
X37198496Y5323891D01*
X37198496Y5323891D02*
X37150877Y5347700D01*
X37150877Y5347700D02*
X37103258Y5395320D01*
X37103258Y5395320D02*
X37079449Y5490558D01*
X37079449Y5490558D02*
X37079449Y5657224D01*
X37079449Y5657224D02*
X37103258Y5752462D01*
X37103258Y5752462D02*
X37150877Y5800081D01*
X37150877Y5800081D02*
X37198496Y5823891D01*
X37650878Y5323891D02*
X37746116Y5323891D01*
X37746116Y5323891D02*
X37793735Y5347700D01*
X37793735Y5347700D02*
X37817544Y5371510D01*
X37817544Y5371510D02*
X37865163Y5442939D01*
X37865163Y5442939D02*
X37888973Y5538177D01*
X37888973Y5538177D02*
X37888973Y5728653D01*
X37888973Y5728653D02*
X37865163Y5776272D01*
X37865163Y5776272D02*
X37841354Y5800081D01*
X37841354Y5800081D02*
X37793735Y5823891D01*
X37793735Y5823891D02*
X37698497Y5823891D01*
X37698497Y5823891D02*
X37650878Y5800081D01*
X37650878Y5800081D02*
X37627068Y5776272D01*
X37627068Y5776272D02*
X37603259Y5728653D01*
X37603259Y5728653D02*
X37603259Y5609605D01*
X37603259Y5609605D02*
X37627068Y5561986D01*
X37627068Y5561986D02*
X37650878Y5538177D01*
X37650878Y5538177D02*
X37698497Y5514367D01*
X37698497Y5514367D02*
X37793735Y5514367D01*
X37793735Y5514367D02*
X37841354Y5538177D01*
X37841354Y5538177D02*
X37865163Y5561986D01*
X37865163Y5561986D02*
X37888973Y5609605D01*
X18689333Y12272867D02*
X19298857Y12272867D01*
X18994095Y11968105D02*
X18994095Y12577629D01*
X19641713Y12691915D02*
X19679809Y12730010D01*
X19679809Y12730010D02*
X19755999Y12768105D01*
X19755999Y12768105D02*
X19946475Y12768105D01*
X19946475Y12768105D02*
X20022666Y12730010D01*
X20022666Y12730010D02*
X20060761Y12691915D01*
X20060761Y12691915D02*
X20098856Y12615724D01*
X20098856Y12615724D02*
X20098856Y12539534D01*
X20098856Y12539534D02*
X20060761Y12425248D01*
X20060761Y12425248D02*
X19603618Y11968105D01*
X19603618Y11968105D02*
X20098856Y11968105D01*
X20784571Y12501439D02*
X20784571Y11968105D01*
X20594095Y12806200D02*
X20403618Y12234772D01*
X20403618Y12234772D02*
X20898857Y12234772D01*
X9115238Y12425867D02*
X9724762Y12425867D01*
X9420000Y12121105D02*
X9420000Y12730629D01*
X4738095Y4655273D02*
X4699999Y4617177D01*
X4699999Y4617177D02*
X4585714Y4579082D01*
X4585714Y4579082D02*
X4509523Y4579082D01*
X4509523Y4579082D02*
X4395237Y4617177D01*
X4395237Y4617177D02*
X4319047Y4693368D01*
X4319047Y4693368D02*
X4280952Y4769558D01*
X4280952Y4769558D02*
X4242856Y4921939D01*
X4242856Y4921939D02*
X4242856Y5036225D01*
X4242856Y5036225D02*
X4280952Y5188606D01*
X4280952Y5188606D02*
X4319047Y5264797D01*
X4319047Y5264797D02*
X4395237Y5340987D01*
X4395237Y5340987D02*
X4509523Y5379082D01*
X4509523Y5379082D02*
X4585714Y5379082D01*
X4585714Y5379082D02*
X4699999Y5340987D01*
X4699999Y5340987D02*
X4738095Y5302892D01*
X5423809Y4579082D02*
X5423809Y4998130D01*
X5423809Y4998130D02*
X5385714Y5074320D01*
X5385714Y5074320D02*
X5309523Y5112416D01*
X5309523Y5112416D02*
X5157142Y5112416D01*
X5157142Y5112416D02*
X5080952Y5074320D01*
X5423809Y4617177D02*
X5347618Y4579082D01*
X5347618Y4579082D02*
X5157142Y4579082D01*
X5157142Y4579082D02*
X5080952Y4617177D01*
X5080952Y4617177D02*
X5042856Y4693368D01*
X5042856Y4693368D02*
X5042856Y4769558D01*
X5042856Y4769558D02*
X5080952Y4845749D01*
X5080952Y4845749D02*
X5157142Y4883844D01*
X5157142Y4883844D02*
X5347618Y4883844D01*
X5347618Y4883844D02*
X5423809Y4921939D01*
X5690476Y5112416D02*
X5995238Y5112416D01*
X5804762Y4579082D02*
X5804762Y5264797D01*
X5804762Y5264797D02*
X5842857Y5340987D01*
X5842857Y5340987D02*
X5919047Y5379082D01*
X5919047Y5379082D02*
X5995238Y5379082D01*
X6147619Y5112416D02*
X6452381Y5112416D01*
X6261905Y4579082D02*
X6261905Y5264797D01*
X6261905Y5264797D02*
X6300000Y5340987D01*
X6300000Y5340987D02*
X6376190Y5379082D01*
X6376190Y5379082D02*
X6452381Y5379082D01*
X7023810Y4617177D02*
X6947619Y4579082D01*
X6947619Y4579082D02*
X6795238Y4579082D01*
X6795238Y4579082D02*
X6719048Y4617177D01*
X6719048Y4617177D02*
X6680952Y4693368D01*
X6680952Y4693368D02*
X6680952Y4998130D01*
X6680952Y4998130D02*
X6719048Y5074320D01*
X6719048Y5074320D02*
X6795238Y5112416D01*
X6795238Y5112416D02*
X6947619Y5112416D01*
X6947619Y5112416D02*
X7023810Y5074320D01*
X7023810Y5074320D02*
X7061905Y4998130D01*
X7061905Y4998130D02*
X7061905Y4921939D01*
X7061905Y4921939D02*
X6680952Y4845749D01*
X7404762Y4579082D02*
X7404762Y5112416D01*
X7404762Y5379082D02*
X7366666Y5340987D01*
X7366666Y5340987D02*
X7404762Y5302892D01*
X7404762Y5302892D02*
X7442857Y5340987D01*
X7442857Y5340987D02*
X7404762Y5379082D01*
X7404762Y5379082D02*
X7404762Y5302892D01*
X7785714Y5112416D02*
X7785714Y4579082D01*
X7785714Y5036225D02*
X7823809Y5074320D01*
X7823809Y5074320D02*
X7899999Y5112416D01*
X7899999Y5112416D02*
X8014285Y5112416D01*
X8014285Y5112416D02*
X8090476Y5074320D01*
X8090476Y5074320D02*
X8128571Y4998130D01*
X8128571Y4998130D02*
X8128571Y4579082D01*
X8852381Y4579082D02*
X8852381Y4998130D01*
X8852381Y4998130D02*
X8814286Y5074320D01*
X8814286Y5074320D02*
X8738095Y5112416D01*
X8738095Y5112416D02*
X8585714Y5112416D01*
X8585714Y5112416D02*
X8509524Y5074320D01*
X8852381Y4617177D02*
X8776190Y4579082D01*
X8776190Y4579082D02*
X8585714Y4579082D01*
X8585714Y4579082D02*
X8509524Y4617177D01*
X8509524Y4617177D02*
X8471428Y4693368D01*
X8471428Y4693368D02*
X8471428Y4769558D01*
X8471428Y4769558D02*
X8509524Y4845749D01*
X8509524Y4845749D02*
X8585714Y4883844D01*
X8585714Y4883844D02*
X8776190Y4883844D01*
X8776190Y4883844D02*
X8852381Y4921939D01*
X9119048Y5112416D02*
X9423810Y5112416D01*
X9233334Y5379082D02*
X9233334Y4693368D01*
X9233334Y4693368D02*
X9271429Y4617177D01*
X9271429Y4617177D02*
X9347619Y4579082D01*
X9347619Y4579082D02*
X9423810Y4579082D01*
X9995239Y4617177D02*
X9919048Y4579082D01*
X9919048Y4579082D02*
X9766667Y4579082D01*
X9766667Y4579082D02*
X9690477Y4617177D01*
X9690477Y4617177D02*
X9652381Y4693368D01*
X9652381Y4693368D02*
X9652381Y4998130D01*
X9652381Y4998130D02*
X9690477Y5074320D01*
X9690477Y5074320D02*
X9766667Y5112416D01*
X9766667Y5112416D02*
X9919048Y5112416D01*
X9919048Y5112416D02*
X9995239Y5074320D01*
X9995239Y5074320D02*
X10033334Y4998130D01*
X10033334Y4998130D02*
X10033334Y4921939D01*
X10033334Y4921939D02*
X9652381Y4845749D01*
X10719048Y4579082D02*
X10719048Y5379082D01*
X10719048Y4617177D02*
X10642857Y4579082D01*
X10642857Y4579082D02*
X10490476Y4579082D01*
X10490476Y4579082D02*
X10414286Y4617177D01*
X10414286Y4617177D02*
X10376191Y4655273D01*
X10376191Y4655273D02*
X10338095Y4731463D01*
X10338095Y4731463D02*
X10338095Y4960035D01*
X10338095Y4960035D02*
X10376191Y5036225D01*
X10376191Y5036225D02*
X10414286Y5074320D01*
X10414286Y5074320D02*
X10490476Y5112416D01*
X10490476Y5112416D02*
X10642857Y5112416D01*
X10642857Y5112416D02*
X10719048Y5074320D01*
X3957143Y3519699D02*
X4338096Y3519699D01*
X3880953Y3291127D02*
X4147620Y4091127D01*
X4147620Y4091127D02*
X4414286Y3291127D01*
X4947619Y3710175D02*
X4680953Y3710175D01*
X4680953Y3291127D02*
X4680953Y4091127D01*
X4680953Y4091127D02*
X5061905Y4091127D01*
X5252381Y4091127D02*
X5709524Y4091127D01*
X5480952Y3291127D02*
X5480952Y4091127D01*
X6128572Y4091127D02*
X6280953Y4091127D01*
X6280953Y4091127D02*
X6357143Y4053032D01*
X6357143Y4053032D02*
X6433334Y3976842D01*
X6433334Y3976842D02*
X6471429Y3824461D01*
X6471429Y3824461D02*
X6471429Y3557794D01*
X6471429Y3557794D02*
X6433334Y3405413D01*
X6433334Y3405413D02*
X6357143Y3329222D01*
X6357143Y3329222D02*
X6280953Y3291127D01*
X6280953Y3291127D02*
X6128572Y3291127D01*
X6128572Y3291127D02*
X6052381Y3329222D01*
X6052381Y3329222D02*
X5976191Y3405413D01*
X5976191Y3405413D02*
X5938095Y3557794D01*
X5938095Y3557794D02*
X5938095Y3824461D01*
X5938095Y3824461D02*
X5976191Y3976842D01*
X5976191Y3976842D02*
X6052381Y4053032D01*
X6052381Y4053032D02*
X6128572Y4091127D01*
X6814286Y3291127D02*
X6814286Y4091127D01*
X6814286Y4091127D02*
X7271429Y3291127D01*
X7271429Y3291127D02*
X7271429Y4091127D01*
X7614285Y3329222D02*
X7728571Y3291127D01*
X7728571Y3291127D02*
X7919047Y3291127D01*
X7919047Y3291127D02*
X7995238Y3329222D01*
X7995238Y3329222D02*
X8033333Y3367318D01*
X8033333Y3367318D02*
X8071428Y3443508D01*
X8071428Y3443508D02*
X8071428Y3519699D01*
X8071428Y3519699D02*
X8033333Y3595889D01*
X8033333Y3595889D02*
X7995238Y3633984D01*
X7995238Y3633984D02*
X7919047Y3672080D01*
X7919047Y3672080D02*
X7766666Y3710175D01*
X7766666Y3710175D02*
X7690476Y3748270D01*
X7690476Y3748270D02*
X7652381Y3786365D01*
X7652381Y3786365D02*
X7614285Y3862556D01*
X7614285Y3862556D02*
X7614285Y3938746D01*
X7614285Y3938746D02*
X7652381Y4014937D01*
X7652381Y4014937D02*
X7690476Y4053032D01*
X7690476Y4053032D02*
X7766666Y4091127D01*
X7766666Y4091127D02*
X7957143Y4091127D01*
X7957143Y4091127D02*
X8071428Y4053032D01*
X8414286Y3291127D02*
X8414286Y4091127D01*
X8414286Y4091127D02*
X8719048Y4091127D01*
X8719048Y4091127D02*
X8795238Y4053032D01*
X8795238Y4053032D02*
X8833333Y4014937D01*
X8833333Y4014937D02*
X8871429Y3938746D01*
X8871429Y3938746D02*
X8871429Y3824461D01*
X8871429Y3824461D02*
X8833333Y3748270D01*
X8833333Y3748270D02*
X8795238Y3710175D01*
X8795238Y3710175D02*
X8719048Y3672080D01*
X8719048Y3672080D02*
X8414286Y3672080D01*
X9176190Y3519699D02*
X9557143Y3519699D01*
X9100000Y3291127D02*
X9366667Y4091127D01*
X9366667Y4091127D02*
X9633333Y3291127D01*
X10357143Y3291127D02*
X10090476Y3672080D01*
X9900000Y3291127D02*
X9900000Y4091127D01*
X9900000Y4091127D02*
X10204762Y4091127D01*
X10204762Y4091127D02*
X10280952Y4053032D01*
X10280952Y4053032D02*
X10319047Y4014937D01*
X10319047Y4014937D02*
X10357143Y3938746D01*
X10357143Y3938746D02*
X10357143Y3824461D01*
X10357143Y3824461D02*
X10319047Y3748270D01*
X10319047Y3748270D02*
X10280952Y3710175D01*
X10280952Y3710175D02*
X10204762Y3672080D01*
X10204762Y3672080D02*
X9900000Y3672080D01*
X10585714Y4091127D02*
X10852381Y3291127D01*
X10852381Y3291127D02*
X11119047Y4091127D01*
X12585715Y5379082D02*
X12738096Y5379082D01*
X12738096Y5379082D02*
X12814286Y5340987D01*
X12814286Y5340987D02*
X12890477Y5264797D01*
X12890477Y5264797D02*
X12928572Y5112416D01*
X12928572Y5112416D02*
X12928572Y4845749D01*
X12928572Y4845749D02*
X12890477Y4693368D01*
X12890477Y4693368D02*
X12814286Y4617177D01*
X12814286Y4617177D02*
X12738096Y4579082D01*
X12738096Y4579082D02*
X12585715Y4579082D01*
X12585715Y4579082D02*
X12509524Y4617177D01*
X12509524Y4617177D02*
X12433334Y4693368D01*
X12433334Y4693368D02*
X12395238Y4845749D01*
X12395238Y4845749D02*
X12395238Y5112416D01*
X12395238Y5112416D02*
X12433334Y5264797D01*
X12433334Y5264797D02*
X12509524Y5340987D01*
X12509524Y5340987D02*
X12585715Y5379082D01*
X13233333Y4617177D02*
X13347619Y4579082D01*
X13347619Y4579082D02*
X13538095Y4579082D01*
X13538095Y4579082D02*
X13614286Y4617177D01*
X13614286Y4617177D02*
X13652381Y4655273D01*
X13652381Y4655273D02*
X13690476Y4731463D01*
X13690476Y4731463D02*
X13690476Y4807654D01*
X13690476Y4807654D02*
X13652381Y4883844D01*
X13652381Y4883844D02*
X13614286Y4921939D01*
X13614286Y4921939D02*
X13538095Y4960035D01*
X13538095Y4960035D02*
X13385714Y4998130D01*
X13385714Y4998130D02*
X13309524Y5036225D01*
X13309524Y5036225D02*
X13271429Y5074320D01*
X13271429Y5074320D02*
X13233333Y5150511D01*
X13233333Y5150511D02*
X13233333Y5226701D01*
X13233333Y5226701D02*
X13271429Y5302892D01*
X13271429Y5302892D02*
X13309524Y5340987D01*
X13309524Y5340987D02*
X13385714Y5379082D01*
X13385714Y5379082D02*
X13576191Y5379082D01*
X13576191Y5379082D02*
X13690476Y5340987D01*
X14033334Y4579082D02*
X14033334Y5379082D01*
X14033334Y4998130D02*
X14490477Y4998130D01*
X14490477Y4579082D02*
X14490477Y5379082D01*
X14795238Y5379082D02*
X14985714Y4579082D01*
X14985714Y4579082D02*
X15138095Y5150511D01*
X15138095Y5150511D02*
X15290476Y4579082D01*
X15290476Y4579082D02*
X15480953Y5379082D01*
X15785715Y4579082D02*
X15785715Y5379082D01*
X16166667Y4579082D02*
X16166667Y5379082D01*
X16166667Y5379082D02*
X16357143Y5379082D01*
X16357143Y5379082D02*
X16471429Y5340987D01*
X16471429Y5340987D02*
X16547619Y5264797D01*
X16547619Y5264797D02*
X16585714Y5188606D01*
X16585714Y5188606D02*
X16623810Y5036225D01*
X16623810Y5036225D02*
X16623810Y4921939D01*
X16623810Y4921939D02*
X16585714Y4769558D01*
X16585714Y4769558D02*
X16547619Y4693368D01*
X16547619Y4693368D02*
X16471429Y4617177D01*
X16471429Y4617177D02*
X16357143Y4579082D01*
X16357143Y4579082D02*
X16166667Y4579082D01*
X16966667Y4655273D02*
X17004762Y4617177D01*
X17004762Y4617177D02*
X16966667Y4579082D01*
X16966667Y4579082D02*
X16928571Y4617177D01*
X16928571Y4617177D02*
X16966667Y4655273D01*
X16966667Y4655273D02*
X16966667Y4579082D01*
X16966667Y5074320D02*
X17004762Y5036225D01*
X17004762Y5036225D02*
X16966667Y4998130D01*
X16966667Y4998130D02*
X16928571Y5036225D01*
X16928571Y5036225D02*
X16966667Y5074320D01*
X16966667Y5074320D02*
X16966667Y4998130D01*
X11842856Y3291127D02*
X11842856Y4091127D01*
X11842856Y4091127D02*
X12033332Y4091127D01*
X12033332Y4091127D02*
X12147618Y4053032D01*
X12147618Y4053032D02*
X12223808Y3976842D01*
X12223808Y3976842D02*
X12261903Y3900651D01*
X12261903Y3900651D02*
X12299999Y3748270D01*
X12299999Y3748270D02*
X12299999Y3633984D01*
X12299999Y3633984D02*
X12261903Y3481603D01*
X12261903Y3481603D02*
X12223808Y3405413D01*
X12223808Y3405413D02*
X12147618Y3329222D01*
X12147618Y3329222D02*
X12033332Y3291127D01*
X12033332Y3291127D02*
X11842856Y3291127D01*
X12642856Y3710175D02*
X12909522Y3710175D01*
X13023808Y3291127D02*
X12642856Y3291127D01*
X12642856Y3291127D02*
X12642856Y4091127D01*
X12642856Y4091127D02*
X13023808Y4091127D01*
X13519047Y4091127D02*
X13595237Y4091127D01*
X13595237Y4091127D02*
X13671428Y4053032D01*
X13671428Y4053032D02*
X13709523Y4014937D01*
X13709523Y4014937D02*
X13747618Y3938746D01*
X13747618Y3938746D02*
X13785713Y3786365D01*
X13785713Y3786365D02*
X13785713Y3595889D01*
X13785713Y3595889D02*
X13747618Y3443508D01*
X13747618Y3443508D02*
X13709523Y3367318D01*
X13709523Y3367318D02*
X13671428Y3329222D01*
X13671428Y3329222D02*
X13595237Y3291127D01*
X13595237Y3291127D02*
X13519047Y3291127D01*
X13519047Y3291127D02*
X13442856Y3329222D01*
X13442856Y3329222D02*
X13404761Y3367318D01*
X13404761Y3367318D02*
X13366666Y3443508D01*
X13366666Y3443508D02*
X13328570Y3595889D01*
X13328570Y3595889D02*
X13328570Y3786365D01*
X13328570Y3786365D02*
X13366666Y3938746D01*
X13366666Y3938746D02*
X13404761Y4014937D01*
X13404761Y4014937D02*
X13442856Y4053032D01*
X13442856Y4053032D02*
X13519047Y4091127D01*
X14280952Y4091127D02*
X14357142Y4091127D01*
X14357142Y4091127D02*
X14433333Y4053032D01*
X14433333Y4053032D02*
X14471428Y4014937D01*
X14471428Y4014937D02*
X14509523Y3938746D01*
X14509523Y3938746D02*
X14547618Y3786365D01*
X14547618Y3786365D02*
X14547618Y3595889D01*
X14547618Y3595889D02*
X14509523Y3443508D01*
X14509523Y3443508D02*
X14471428Y3367318D01*
X14471428Y3367318D02*
X14433333Y3329222D01*
X14433333Y3329222D02*
X14357142Y3291127D01*
X14357142Y3291127D02*
X14280952Y3291127D01*
X14280952Y3291127D02*
X14204761Y3329222D01*
X14204761Y3329222D02*
X14166666Y3367318D01*
X14166666Y3367318D02*
X14128571Y3443508D01*
X14128571Y3443508D02*
X14090475Y3595889D01*
X14090475Y3595889D02*
X14090475Y3786365D01*
X14090475Y3786365D02*
X14128571Y3938746D01*
X14128571Y3938746D02*
X14166666Y4014937D01*
X14166666Y4014937D02*
X14204761Y4053032D01*
X14204761Y4053032D02*
X14280952Y4091127D01*
X15042857Y4091127D02*
X15119047Y4091127D01*
X15119047Y4091127D02*
X15195238Y4053032D01*
X15195238Y4053032D02*
X15233333Y4014937D01*
X15233333Y4014937D02*
X15271428Y3938746D01*
X15271428Y3938746D02*
X15309523Y3786365D01*
X15309523Y3786365D02*
X15309523Y3595889D01*
X15309523Y3595889D02*
X15271428Y3443508D01*
X15271428Y3443508D02*
X15233333Y3367318D01*
X15233333Y3367318D02*
X15195238Y3329222D01*
X15195238Y3329222D02*
X15119047Y3291127D01*
X15119047Y3291127D02*
X15042857Y3291127D01*
X15042857Y3291127D02*
X14966666Y3329222D01*
X14966666Y3329222D02*
X14928571Y3367318D01*
X14928571Y3367318D02*
X14890476Y3443508D01*
X14890476Y3443508D02*
X14852380Y3595889D01*
X14852380Y3595889D02*
X14852380Y3786365D01*
X14852380Y3786365D02*
X14890476Y3938746D01*
X14890476Y3938746D02*
X14928571Y4014937D01*
X14928571Y4014937D02*
X14966666Y4053032D01*
X14966666Y4053032D02*
X15042857Y4091127D01*
X16071428Y3291127D02*
X15614285Y3291127D01*
X15842857Y3291127D02*
X15842857Y4091127D01*
X15842857Y4091127D02*
X15766666Y3976842D01*
X15766666Y3976842D02*
X15690476Y3900651D01*
X15690476Y3900651D02*
X15614285Y3862556D01*
X16757143Y3824461D02*
X16757143Y3291127D01*
X16566667Y4129222D02*
X16376190Y3557794D01*
X16376190Y3557794D02*
X16871429Y3557794D01*
X17328572Y4091127D02*
X17404762Y4091127D01*
X17404762Y4091127D02*
X17480953Y4053032D01*
X17480953Y4053032D02*
X17519048Y4014937D01*
X17519048Y4014937D02*
X17557143Y3938746D01*
X17557143Y3938746D02*
X17595238Y3786365D01*
X17595238Y3786365D02*
X17595238Y3595889D01*
X17595238Y3595889D02*
X17557143Y3443508D01*
X17557143Y3443508D02*
X17519048Y3367318D01*
X17519048Y3367318D02*
X17480953Y3329222D01*
X17480953Y3329222D02*
X17404762Y3291127D01*
X17404762Y3291127D02*
X17328572Y3291127D01*
X17328572Y3291127D02*
X17252381Y3329222D01*
X17252381Y3329222D02*
X17214286Y3367318D01*
X17214286Y3367318D02*
X17176191Y3443508D01*
X17176191Y3443508D02*
X17138095Y3595889D01*
X17138095Y3595889D02*
X17138095Y3786365D01*
X17138095Y3786365D02*
X17176191Y3938746D01*
X17176191Y3938746D02*
X17214286Y4014937D01*
X17214286Y4014937D02*
X17252381Y4053032D01*
X17252381Y4053032D02*
X17328572Y4091127D01*
X25349919Y12691354D02*
X25326109Y12643735D01*
X25326109Y12643735D02*
X25326109Y12572306D01*
X25326109Y12572306D02*
X25349919Y12500878D01*
X25349919Y12500878D02*
X25397538Y12453259D01*
X25397538Y12453259D02*
X25445157Y12429449D01*
X25445157Y12429449D02*
X25540395Y12405640D01*
X25540395Y12405640D02*
X25611823Y12405640D01*
X25611823Y12405640D02*
X25707061Y12429449D01*
X25707061Y12429449D02*
X25754680Y12453259D01*
X25754680Y12453259D02*
X25802300Y12500878D01*
X25802300Y12500878D02*
X25826109Y12572306D01*
X25826109Y12572306D02*
X25826109Y12619925D01*
X25826109Y12619925D02*
X25802300Y12691354D01*
X25802300Y12691354D02*
X25778490Y12715163D01*
X25778490Y12715163D02*
X25611823Y12715163D01*
X25611823Y12715163D02*
X25611823Y12619925D01*
X25826109Y12929449D02*
X25326109Y12929449D01*
X25326109Y12929449D02*
X25826109Y13215163D01*
X25826109Y13215163D02*
X25326109Y13215163D01*
X25826109Y13453259D02*
X25326109Y13453259D01*
X25326109Y13453259D02*
X25326109Y13572307D01*
X25326109Y13572307D02*
X25349919Y13643735D01*
X25349919Y13643735D02*
X25397538Y13691354D01*
X25397538Y13691354D02*
X25445157Y13715164D01*
X25445157Y13715164D02*
X25540395Y13738973D01*
X25540395Y13738973D02*
X25611823Y13738973D01*
X25611823Y13738973D02*
X25707061Y13715164D01*
X25707061Y13715164D02*
X25754680Y13691354D01*
X25754680Y13691354D02*
X25802300Y13643735D01*
X25802300Y13643735D02*
X25826109Y13572307D01*
X25826109Y13572307D02*
X25826109Y13453259D01*
X7127619Y12121105D02*
X6860952Y12502058D01*
X6670476Y12121105D02*
X6670476Y12921105D01*
X6670476Y12921105D02*
X6975238Y12921105D01*
X6975238Y12921105D02*
X7051428Y12883010D01*
X7051428Y12883010D02*
X7089523Y12844915D01*
X7089523Y12844915D02*
X7127619Y12768724D01*
X7127619Y12768724D02*
X7127619Y12654439D01*
X7127619Y12654439D02*
X7089523Y12578248D01*
X7089523Y12578248D02*
X7051428Y12540153D01*
X7051428Y12540153D02*
X6975238Y12502058D01*
X6975238Y12502058D02*
X6670476Y12502058D01*
X4549523Y12883010D02*
X4473333Y12921105D01*
X4473333Y12921105D02*
X4359047Y12921105D01*
X4359047Y12921105D02*
X4244761Y12883010D01*
X4244761Y12883010D02*
X4168571Y12806820D01*
X4168571Y12806820D02*
X4130476Y12730629D01*
X4130476Y12730629D02*
X4092380Y12578248D01*
X4092380Y12578248D02*
X4092380Y12463962D01*
X4092380Y12463962D02*
X4130476Y12311581D01*
X4130476Y12311581D02*
X4168571Y12235391D01*
X4168571Y12235391D02*
X4244761Y12159200D01*
X4244761Y12159200D02*
X4359047Y12121105D01*
X4359047Y12121105D02*
X4435238Y12121105D01*
X4435238Y12121105D02*
X4549523Y12159200D01*
X4549523Y12159200D02*
X4587619Y12197296D01*
X4587619Y12197296D02*
X4587619Y12463962D01*
X4587619Y12463962D02*
X4435238Y12463962D01*
X37680074Y1268439D02*
X37870550Y735105D01*
X37870550Y735105D02*
X38061027Y1268439D01*
X38518170Y1535105D02*
X38594360Y1535105D01*
X38594360Y1535105D02*
X38670551Y1497010D01*
X38670551Y1497010D02*
X38708646Y1458915D01*
X38708646Y1458915D02*
X38746741Y1382724D01*
X38746741Y1382724D02*
X38784836Y1230343D01*
X38784836Y1230343D02*
X38784836Y1039867D01*
X38784836Y1039867D02*
X38746741Y887486D01*
X38746741Y887486D02*
X38708646Y811296D01*
X38708646Y811296D02*
X38670551Y773200D01*
X38670551Y773200D02*
X38594360Y735105D01*
X38594360Y735105D02*
X38518170Y735105D01*
X38518170Y735105D02*
X38441979Y773200D01*
X38441979Y773200D02*
X38403884Y811296D01*
X38403884Y811296D02*
X38365789Y887486D01*
X38365789Y887486D02*
X38327693Y1039867D01*
X38327693Y1039867D02*
X38327693Y1230343D01*
X38327693Y1230343D02*
X38365789Y1382724D01*
X38365789Y1382724D02*
X38403884Y1458915D01*
X38403884Y1458915D02*
X38441979Y1497010D01*
X38441979Y1497010D02*
X38518170Y1535105D01*
X39127694Y811296D02*
X39165789Y773200D01*
X39165789Y773200D02*
X39127694Y735105D01*
X39127694Y735105D02*
X39089598Y773200D01*
X39089598Y773200D02*
X39127694Y811296D01*
X39127694Y811296D02*
X39127694Y735105D01*
X39432455Y1535105D02*
X39927693Y1535105D01*
X39927693Y1535105D02*
X39661027Y1230343D01*
X39661027Y1230343D02*
X39775312Y1230343D01*
X39775312Y1230343D02*
X39851503Y1192248D01*
X39851503Y1192248D02*
X39889598Y1154153D01*
X39889598Y1154153D02*
X39927693Y1077962D01*
X39927693Y1077962D02*
X39927693Y887486D01*
X39927693Y887486D02*
X39889598Y811296D01*
X39889598Y811296D02*
X39851503Y773200D01*
X39851503Y773200D02*
X39775312Y735105D01*
X39775312Y735105D02*
X39546741Y735105D01*
X39546741Y735105D02*
X39470550Y773200D01*
X39470550Y773200D02*
X39432455Y811296D01*
X36841353Y9800081D02*
X36793734Y9823891D01*
X36793734Y9823891D02*
X36722305Y9823891D01*
X36722305Y9823891D02*
X36650877Y9800081D01*
X36650877Y9800081D02*
X36603258Y9752462D01*
X36603258Y9752462D02*
X36579448Y9704843D01*
X36579448Y9704843D02*
X36555639Y9609605D01*
X36555639Y9609605D02*
X36555639Y9538177D01*
X36555639Y9538177D02*
X36579448Y9442939D01*
X36579448Y9442939D02*
X36603258Y9395320D01*
X36603258Y9395320D02*
X36650877Y9347700D01*
X36650877Y9347700D02*
X36722305Y9323891D01*
X36722305Y9323891D02*
X36769924Y9323891D01*
X36769924Y9323891D02*
X36841353Y9347700D01*
X36841353Y9347700D02*
X36865162Y9371510D01*
X36865162Y9371510D02*
X36865162Y9538177D01*
X36865162Y9538177D02*
X36769924Y9538177D01*
X37079448Y9323891D02*
X37079448Y9823891D01*
X37079448Y9823891D02*
X37365162Y9323891D01*
X37365162Y9323891D02*
X37365162Y9823891D01*
X37603258Y9323891D02*
X37603258Y9823891D01*
X37603258Y9823891D02*
X37722306Y9823891D01*
X37722306Y9823891D02*
X37793734Y9800081D01*
X37793734Y9800081D02*
X37841353Y9752462D01*
X37841353Y9752462D02*
X37865163Y9704843D01*
X37865163Y9704843D02*
X37888972Y9609605D01*
X37888972Y9609605D02*
X37888972Y9538177D01*
X37888972Y9538177D02*
X37865163Y9442939D01*
X37865163Y9442939D02*
X37841353Y9395320D01*
X37841353Y9395320D02*
X37793734Y9347700D01*
X37793734Y9347700D02*
X37722306Y9323891D01*
X37722306Y9323891D02*
X37603258Y9323891D01*
X28426109Y12524689D02*
X28426109Y12834213D01*
X28426109Y12834213D02*
X28616585Y12667546D01*
X28616585Y12667546D02*
X28616585Y12738975D01*
X28616585Y12738975D02*
X28640395Y12786594D01*
X28640395Y12786594D02*
X28664204Y12810403D01*
X28664204Y12810403D02*
X28711823Y12834213D01*
X28711823Y12834213D02*
X28830871Y12834213D01*
X28830871Y12834213D02*
X28878490Y12810403D01*
X28878490Y12810403D02*
X28902300Y12786594D01*
X28902300Y12786594D02*
X28926109Y12738975D01*
X28926109Y12738975D02*
X28926109Y12596118D01*
X28926109Y12596118D02*
X28902300Y12548499D01*
X28902300Y12548499D02*
X28878490Y12524689D01*
X28426109Y12977070D02*
X28926109Y13143736D01*
X28926109Y13143736D02*
X28426109Y13310403D01*
X28426109Y13429450D02*
X28426109Y13738974D01*
X28426109Y13738974D02*
X28616585Y13572307D01*
X28616585Y13572307D02*
X28616585Y13643736D01*
X28616585Y13643736D02*
X28640395Y13691355D01*
X28640395Y13691355D02*
X28664204Y13715164D01*
X28664204Y13715164D02*
X28711823Y13738974D01*
X28711823Y13738974D02*
X28830871Y13738974D01*
X28830871Y13738974D02*
X28878490Y13715164D01*
X28878490Y13715164D02*
X28902300Y13691355D01*
X28902300Y13691355D02*
X28926109Y13643736D01*
X28926109Y13643736D02*
X28926109Y13500879D01*
X28926109Y13500879D02*
X28902300Y13453260D01*
X28902300Y13453260D02*
X28878490Y13429450D01*
X1857142Y12540153D02*
X1971428Y12502058D01*
X1971428Y12502058D02*
X2009523Y12463962D01*
X2009523Y12463962D02*
X2047619Y12387772D01*
X2047619Y12387772D02*
X2047619Y12273486D01*
X2047619Y12273486D02*
X2009523Y12197296D01*
X2009523Y12197296D02*
X1971428Y12159200D01*
X1971428Y12159200D02*
X1895238Y12121105D01*
X1895238Y12121105D02*
X1590476Y12121105D01*
X1590476Y12121105D02*
X1590476Y12921105D01*
X1590476Y12921105D02*
X1857142Y12921105D01*
X1857142Y12921105D02*
X1933333Y12883010D01*
X1933333Y12883010D02*
X1971428Y12844915D01*
X1971428Y12844915D02*
X2009523Y12768724D01*
X2009523Y12768724D02*
X2009523Y12692534D01*
X2009523Y12692534D02*
X1971428Y12616343D01*
X1971428Y12616343D02*
X1933333Y12578248D01*
X1933333Y12578248D02*
X1857142Y12540153D01*
X1857142Y12540153D02*
X1590476Y12540153D01*
X26326109Y11834211D02*
X26730871Y11834211D01*
X26730871Y11834211D02*
X26778490Y11858021D01*
X26778490Y11858021D02*
X26802300Y11881830D01*
X26802300Y11881830D02*
X26826109Y11929449D01*
X26826109Y11929449D02*
X26826109Y12024687D01*
X26826109Y12024687D02*
X26802300Y12072306D01*
X26802300Y12072306D02*
X26778490Y12096116D01*
X26778490Y12096116D02*
X26730871Y12119925D01*
X26730871Y12119925D02*
X26326109Y12119925D01*
X26802300Y12334212D02*
X26826109Y12405640D01*
X26826109Y12405640D02*
X26826109Y12524688D01*
X26826109Y12524688D02*
X26802300Y12572307D01*
X26802300Y12572307D02*
X26778490Y12596116D01*
X26778490Y12596116D02*
X26730871Y12619926D01*
X26730871Y12619926D02*
X26683252Y12619926D01*
X26683252Y12619926D02*
X26635633Y12596116D01*
X26635633Y12596116D02*
X26611823Y12572307D01*
X26611823Y12572307D02*
X26588014Y12524688D01*
X26588014Y12524688D02*
X26564204Y12429450D01*
X26564204Y12429450D02*
X26540395Y12381831D01*
X26540395Y12381831D02*
X26516585Y12358021D01*
X26516585Y12358021D02*
X26468966Y12334212D01*
X26468966Y12334212D02*
X26421347Y12334212D01*
X26421347Y12334212D02*
X26373728Y12358021D01*
X26373728Y12358021D02*
X26349919Y12381831D01*
X26349919Y12381831D02*
X26326109Y12429450D01*
X26326109Y12429450D02*
X26326109Y12548497D01*
X26326109Y12548497D02*
X26349919Y12619926D01*
X26564204Y13000878D02*
X26588014Y13072306D01*
X26588014Y13072306D02*
X26611823Y13096116D01*
X26611823Y13096116D02*
X26659442Y13119925D01*
X26659442Y13119925D02*
X26730871Y13119925D01*
X26730871Y13119925D02*
X26778490Y13096116D01*
X26778490Y13096116D02*
X26802300Y13072306D01*
X26802300Y13072306D02*
X26826109Y13024687D01*
X26826109Y13024687D02*
X26826109Y12834211D01*
X26826109Y12834211D02*
X26326109Y12834211D01*
X26326109Y12834211D02*
X26326109Y13000878D01*
X26326109Y13000878D02*
X26349919Y13048497D01*
X26349919Y13048497D02*
X26373728Y13072306D01*
X26373728Y13072306D02*
X26421347Y13096116D01*
X26421347Y13096116D02*
X26468966Y13096116D01*
X26468966Y13096116D02*
X26516585Y13072306D01*
X26516585Y13072306D02*
X26540395Y13048497D01*
X26540395Y13048497D02*
X26564204Y13000878D01*
X26564204Y13000878D02*
X26564204Y12834211D01*
X26635633Y13334211D02*
X26635633Y13715163D01*
X26826109Y13524687D02*
X26445157Y13524687D01*
X36674688Y11323891D02*
X36984212Y11323891D01*
X36984212Y11323891D02*
X36817545Y11133415D01*
X36817545Y11133415D02*
X36888974Y11133415D01*
X36888974Y11133415D02*
X36936593Y11109605D01*
X36936593Y11109605D02*
X36960402Y11085796D01*
X36960402Y11085796D02*
X36984212Y11038177D01*
X36984212Y11038177D02*
X36984212Y10919129D01*
X36984212Y10919129D02*
X36960402Y10871510D01*
X36960402Y10871510D02*
X36936593Y10847700D01*
X36936593Y10847700D02*
X36888974Y10823891D01*
X36888974Y10823891D02*
X36746117Y10823891D01*
X36746117Y10823891D02*
X36698498Y10847700D01*
X36698498Y10847700D02*
X36674688Y10871510D01*
X37127069Y11323891D02*
X37293735Y10823891D01*
X37293735Y10823891D02*
X37460402Y11323891D01*
X37579449Y11323891D02*
X37888973Y11323891D01*
X37888973Y11323891D02*
X37722306Y11133415D01*
X37722306Y11133415D02*
X37793735Y11133415D01*
X37793735Y11133415D02*
X37841354Y11109605D01*
X37841354Y11109605D02*
X37865163Y11085796D01*
X37865163Y11085796D02*
X37888973Y11038177D01*
X37888973Y11038177D02*
X37888973Y10919129D01*
X37888973Y10919129D02*
X37865163Y10871510D01*
X37865163Y10871510D02*
X37841354Y10847700D01*
X37841354Y10847700D02*
X37793735Y10823891D01*
X37793735Y10823891D02*
X37650878Y10823891D01*
X37650878Y10823891D02*
X37603259Y10847700D01*
X37603259Y10847700D02*
X37579449Y10871510D01*
X1299122Y773200D02*
X1222931Y735105D01*
X1222931Y735105D02*
X1070550Y735105D01*
X1070550Y735105D02*
X994360Y773200D01*
X994360Y773200D02*
X956265Y811296D01*
X956265Y811296D02*
X918169Y887486D01*
X918169Y887486D02*
X918169Y1116058D01*
X918169Y1116058D02*
X956265Y1192248D01*
X956265Y1192248D02*
X994360Y1230343D01*
X994360Y1230343D02*
X1070550Y1268439D01*
X1070550Y1268439D02*
X1222931Y1268439D01*
X1222931Y1268439D02*
X1299122Y1230343D01*
X1984836Y735105D02*
X1984836Y1154153D01*
X1984836Y1154153D02*
X1946741Y1230343D01*
X1946741Y1230343D02*
X1870550Y1268439D01*
X1870550Y1268439D02*
X1718169Y1268439D01*
X1718169Y1268439D02*
X1641979Y1230343D01*
X1984836Y773200D02*
X1908645Y735105D01*
X1908645Y735105D02*
X1718169Y735105D01*
X1718169Y735105D02*
X1641979Y773200D01*
X1641979Y773200D02*
X1603883Y849391D01*
X1603883Y849391D02*
X1603883Y925581D01*
X1603883Y925581D02*
X1641979Y1001772D01*
X1641979Y1001772D02*
X1718169Y1039867D01*
X1718169Y1039867D02*
X1908645Y1039867D01*
X1908645Y1039867D02*
X1984836Y1077962D01*
X2251503Y1268439D02*
X2556265Y1268439D01*
X2365789Y735105D02*
X2365789Y1420820D01*
X2365789Y1420820D02*
X2403884Y1497010D01*
X2403884Y1497010D02*
X2480074Y1535105D01*
X2480074Y1535105D02*
X2556265Y1535105D01*
X2708646Y1268439D02*
X3013408Y1268439D01*
X2822932Y735105D02*
X2822932Y1420820D01*
X2822932Y1420820D02*
X2861027Y1497010D01*
X2861027Y1497010D02*
X2937217Y1535105D01*
X2937217Y1535105D02*
X3013408Y1535105D01*
X3584837Y773200D02*
X3508646Y735105D01*
X3508646Y735105D02*
X3356265Y735105D01*
X3356265Y735105D02*
X3280075Y773200D01*
X3280075Y773200D02*
X3241979Y849391D01*
X3241979Y849391D02*
X3241979Y1154153D01*
X3241979Y1154153D02*
X3280075Y1230343D01*
X3280075Y1230343D02*
X3356265Y1268439D01*
X3356265Y1268439D02*
X3508646Y1268439D01*
X3508646Y1268439D02*
X3584837Y1230343D01*
X3584837Y1230343D02*
X3622932Y1154153D01*
X3622932Y1154153D02*
X3622932Y1077962D01*
X3622932Y1077962D02*
X3241979Y1001772D01*
X3965789Y735105D02*
X3965789Y1268439D01*
X3965789Y1535105D02*
X3927693Y1497010D01*
X3927693Y1497010D02*
X3965789Y1458915D01*
X3965789Y1458915D02*
X4003884Y1497010D01*
X4003884Y1497010D02*
X3965789Y1535105D01*
X3965789Y1535105D02*
X3965789Y1458915D01*
X4346741Y1268439D02*
X4346741Y735105D01*
X4346741Y1192248D02*
X4384836Y1230343D01*
X4384836Y1230343D02*
X4461026Y1268439D01*
X4461026Y1268439D02*
X4575312Y1268439D01*
X4575312Y1268439D02*
X4651503Y1230343D01*
X4651503Y1230343D02*
X4689598Y1154153D01*
X4689598Y1154153D02*
X4689598Y735105D01*
X5413408Y735105D02*
X5413408Y1154153D01*
X5413408Y1154153D02*
X5375313Y1230343D01*
X5375313Y1230343D02*
X5299122Y1268439D01*
X5299122Y1268439D02*
X5146741Y1268439D01*
X5146741Y1268439D02*
X5070551Y1230343D01*
X5413408Y773200D02*
X5337217Y735105D01*
X5337217Y735105D02*
X5146741Y735105D01*
X5146741Y735105D02*
X5070551Y773200D01*
X5070551Y773200D02*
X5032455Y849391D01*
X5032455Y849391D02*
X5032455Y925581D01*
X5032455Y925581D02*
X5070551Y1001772D01*
X5070551Y1001772D02*
X5146741Y1039867D01*
X5146741Y1039867D02*
X5337217Y1039867D01*
X5337217Y1039867D02*
X5413408Y1077962D01*
X5680075Y1268439D02*
X5984837Y1268439D01*
X5794361Y1535105D02*
X5794361Y849391D01*
X5794361Y849391D02*
X5832456Y773200D01*
X5832456Y773200D02*
X5908646Y735105D01*
X5908646Y735105D02*
X5984837Y735105D01*
X6556266Y773200D02*
X6480075Y735105D01*
X6480075Y735105D02*
X6327694Y735105D01*
X6327694Y735105D02*
X6251504Y773200D01*
X6251504Y773200D02*
X6213408Y849391D01*
X6213408Y849391D02*
X6213408Y1154153D01*
X6213408Y1154153D02*
X6251504Y1230343D01*
X6251504Y1230343D02*
X6327694Y1268439D01*
X6327694Y1268439D02*
X6480075Y1268439D01*
X6480075Y1268439D02*
X6556266Y1230343D01*
X6556266Y1230343D02*
X6594361Y1154153D01*
X6594361Y1154153D02*
X6594361Y1077962D01*
X6594361Y1077962D02*
X6213408Y1001772D01*
X7280075Y735105D02*
X7280075Y1535105D01*
X7280075Y773200D02*
X7203884Y735105D01*
X7203884Y735105D02*
X7051503Y735105D01*
X7051503Y735105D02*
X6975313Y773200D01*
X6975313Y773200D02*
X6937218Y811296D01*
X6937218Y811296D02*
X6899122Y887486D01*
X6899122Y887486D02*
X6899122Y1116058D01*
X6899122Y1116058D02*
X6937218Y1192248D01*
X6937218Y1192248D02*
X6975313Y1230343D01*
X6975313Y1230343D02*
X7051503Y1268439D01*
X7051503Y1268439D02*
X7203884Y1268439D01*
X7203884Y1268439D02*
X7280075Y1230343D01*
X7661028Y1039867D02*
X8270552Y1039867D01*
X8765789Y735105D02*
X8689599Y773200D01*
X8689599Y773200D02*
X8651504Y849391D01*
X8651504Y849391D02*
X8651504Y1535105D01*
X9413409Y735105D02*
X9413409Y1154153D01*
X9413409Y1154153D02*
X9375314Y1230343D01*
X9375314Y1230343D02*
X9299123Y1268439D01*
X9299123Y1268439D02*
X9146742Y1268439D01*
X9146742Y1268439D02*
X9070552Y1230343D01*
X9413409Y773200D02*
X9337218Y735105D01*
X9337218Y735105D02*
X9146742Y735105D01*
X9146742Y735105D02*
X9070552Y773200D01*
X9070552Y773200D02*
X9032456Y849391D01*
X9032456Y849391D02*
X9032456Y925581D01*
X9032456Y925581D02*
X9070552Y1001772D01*
X9070552Y1001772D02*
X9146742Y1039867D01*
X9146742Y1039867D02*
X9337218Y1039867D01*
X9337218Y1039867D02*
X9413409Y1077962D01*
X9794362Y735105D02*
X9794362Y1535105D01*
X9794362Y1230343D02*
X9870552Y1268439D01*
X9870552Y1268439D02*
X10022933Y1268439D01*
X10022933Y1268439D02*
X10099124Y1230343D01*
X10099124Y1230343D02*
X10137219Y1192248D01*
X10137219Y1192248D02*
X10175314Y1116058D01*
X10175314Y1116058D02*
X10175314Y887486D01*
X10175314Y887486D02*
X10137219Y811296D01*
X10137219Y811296D02*
X10099124Y773200D01*
X10099124Y773200D02*
X10022933Y735105D01*
X10022933Y735105D02*
X9870552Y735105D01*
X9870552Y735105D02*
X9794362Y773200D01*
X10480076Y773200D02*
X10556267Y735105D01*
X10556267Y735105D02*
X10708648Y735105D01*
X10708648Y735105D02*
X10784838Y773200D01*
X10784838Y773200D02*
X10822934Y849391D01*
X10822934Y849391D02*
X10822934Y887486D01*
X10822934Y887486D02*
X10784838Y963677D01*
X10784838Y963677D02*
X10708648Y1001772D01*
X10708648Y1001772D02*
X10594362Y1001772D01*
X10594362Y1001772D02*
X10518172Y1039867D01*
X10518172Y1039867D02*
X10480076Y1116058D01*
X10480076Y1116058D02*
X10480076Y1154153D01*
X10480076Y1154153D02*
X10518172Y1230343D01*
X10518172Y1230343D02*
X10594362Y1268439D01*
X10594362Y1268439D02*
X10708648Y1268439D01*
X10708648Y1268439D02*
X10784838Y1230343D01*
X11165791Y811296D02*
X11203886Y773200D01*
X11203886Y773200D02*
X11165791Y735105D01*
X11165791Y735105D02*
X11127695Y773200D01*
X11127695Y773200D02*
X11165791Y811296D01*
X11165791Y811296D02*
X11165791Y735105D01*
X11661028Y735105D02*
X11584838Y773200D01*
X11584838Y773200D02*
X11546743Y811296D01*
X11546743Y811296D02*
X11508647Y887486D01*
X11508647Y887486D02*
X11508647Y1116058D01*
X11508647Y1116058D02*
X11546743Y1192248D01*
X11546743Y1192248D02*
X11584838Y1230343D01*
X11584838Y1230343D02*
X11661028Y1268439D01*
X11661028Y1268439D02*
X11775314Y1268439D01*
X11775314Y1268439D02*
X11851505Y1230343D01*
X11851505Y1230343D02*
X11889600Y1192248D01*
X11889600Y1192248D02*
X11927695Y1116058D01*
X11927695Y1116058D02*
X11927695Y887486D01*
X11927695Y887486D02*
X11889600Y811296D01*
X11889600Y811296D02*
X11851505Y773200D01*
X11851505Y773200D02*
X11775314Y735105D01*
X11775314Y735105D02*
X11661028Y735105D01*
X12270553Y735105D02*
X12270553Y1268439D01*
X12270553Y1116058D02*
X12308648Y1192248D01*
X12308648Y1192248D02*
X12346743Y1230343D01*
X12346743Y1230343D02*
X12422934Y1268439D01*
X12422934Y1268439D02*
X12499124Y1268439D01*
X13108648Y1268439D02*
X13108648Y620820D01*
X13108648Y620820D02*
X13070553Y544629D01*
X13070553Y544629D02*
X13032457Y506534D01*
X13032457Y506534D02*
X12956267Y468439D01*
X12956267Y468439D02*
X12841981Y468439D01*
X12841981Y468439D02*
X12765791Y506534D01*
X13108648Y773200D02*
X13032457Y735105D01*
X13032457Y735105D02*
X12880076Y735105D01*
X12880076Y735105D02*
X12803886Y773200D01*
X12803886Y773200D02*
X12765791Y811296D01*
X12765791Y811296D02*
X12727695Y887486D01*
X12727695Y887486D02*
X12727695Y1116058D01*
X12727695Y1116058D02*
X12765791Y1192248D01*
X12765791Y1192248D02*
X12803886Y1230343D01*
X12803886Y1230343D02*
X12880076Y1268439D01*
X12880076Y1268439D02*
X13032457Y1268439D01*
X13032457Y1268439D02*
X13108648Y1230343D01*
X14061029Y1573200D02*
X13375315Y544629D01*
X14670553Y735105D02*
X14670553Y1154153D01*
X14670553Y1154153D02*
X14632458Y1230343D01*
X14632458Y1230343D02*
X14556267Y1268439D01*
X14556267Y1268439D02*
X14403886Y1268439D01*
X14403886Y1268439D02*
X14327696Y1230343D01*
X14670553Y773200D02*
X14594362Y735105D01*
X14594362Y735105D02*
X14403886Y735105D01*
X14403886Y735105D02*
X14327696Y773200D01*
X14327696Y773200D02*
X14289600Y849391D01*
X14289600Y849391D02*
X14289600Y925581D01*
X14289600Y925581D02*
X14327696Y1001772D01*
X14327696Y1001772D02*
X14403886Y1039867D01*
X14403886Y1039867D02*
X14594362Y1039867D01*
X14594362Y1039867D02*
X14670553Y1077962D01*
X14937220Y1268439D02*
X15241982Y1268439D01*
X15051506Y735105D02*
X15051506Y1420820D01*
X15051506Y1420820D02*
X15089601Y1497010D01*
X15089601Y1497010D02*
X15165791Y1535105D01*
X15165791Y1535105D02*
X15241982Y1535105D01*
X15394363Y1268439D02*
X15699125Y1268439D01*
X15508649Y1535105D02*
X15508649Y849391D01*
X15508649Y849391D02*
X15546744Y773200D01*
X15546744Y773200D02*
X15622934Y735105D01*
X15622934Y735105D02*
X15699125Y735105D01*
X16080077Y735105D02*
X16003887Y773200D01*
X16003887Y773200D02*
X15965792Y811296D01*
X15965792Y811296D02*
X15927696Y887486D01*
X15927696Y887486D02*
X15927696Y1116058D01*
X15927696Y1116058D02*
X15965792Y1192248D01*
X15965792Y1192248D02*
X16003887Y1230343D01*
X16003887Y1230343D02*
X16080077Y1268439D01*
X16080077Y1268439D02*
X16194363Y1268439D01*
X16194363Y1268439D02*
X16270554Y1230343D01*
X16270554Y1230343D02*
X16308649Y1192248D01*
X16308649Y1192248D02*
X16346744Y1116058D01*
X16346744Y1116058D02*
X16346744Y887486D01*
X16346744Y887486D02*
X16308649Y811296D01*
X16308649Y811296D02*
X16270554Y773200D01*
X16270554Y773200D02*
X16194363Y735105D01*
X16194363Y735105D02*
X16080077Y735105D01*
X16689602Y1268439D02*
X16689602Y735105D01*
X16689602Y1192248D02*
X16727697Y1230343D01*
X16727697Y1230343D02*
X16803887Y1268439D01*
X16803887Y1268439D02*
X16918173Y1268439D01*
X16918173Y1268439D02*
X16994364Y1230343D01*
X16994364Y1230343D02*
X17032459Y1154153D01*
X17032459Y1154153D02*
X17032459Y735105D01*
X17375316Y773200D02*
X17451507Y735105D01*
X17451507Y735105D02*
X17603888Y735105D01*
X17603888Y735105D02*
X17680078Y773200D01*
X17680078Y773200D02*
X17718174Y849391D01*
X17718174Y849391D02*
X17718174Y887486D01*
X17718174Y887486D02*
X17680078Y963677D01*
X17680078Y963677D02*
X17603888Y1001772D01*
X17603888Y1001772D02*
X17489602Y1001772D01*
X17489602Y1001772D02*
X17413412Y1039867D01*
X17413412Y1039867D02*
X17375316Y1116058D01*
X17375316Y1116058D02*
X17375316Y1154153D01*
X17375316Y1154153D02*
X17413412Y1230343D01*
X17413412Y1230343D02*
X17489602Y1268439D01*
X17489602Y1268439D02*
X17603888Y1268439D01*
X17603888Y1268439D02*
X17680078Y1230343D01*
X18061031Y1268439D02*
X18061031Y468439D01*
X18061031Y1230343D02*
X18137221Y1268439D01*
X18137221Y1268439D02*
X18289602Y1268439D01*
X18289602Y1268439D02*
X18365793Y1230343D01*
X18365793Y1230343D02*
X18403888Y1192248D01*
X18403888Y1192248D02*
X18441983Y1116058D01*
X18441983Y1116058D02*
X18441983Y887486D01*
X18441983Y887486D02*
X18403888Y811296D01*
X18403888Y811296D02*
X18365793Y773200D01*
X18365793Y773200D02*
X18289602Y735105D01*
X18289602Y735105D02*
X18137221Y735105D01*
X18137221Y735105D02*
X18061031Y773200D01*
X19127698Y735105D02*
X19127698Y1154153D01*
X19127698Y1154153D02*
X19089603Y1230343D01*
X19089603Y1230343D02*
X19013412Y1268439D01*
X19013412Y1268439D02*
X18861031Y1268439D01*
X18861031Y1268439D02*
X18784841Y1230343D01*
X19127698Y773200D02*
X19051507Y735105D01*
X19051507Y735105D02*
X18861031Y735105D01*
X18861031Y735105D02*
X18784841Y773200D01*
X18784841Y773200D02*
X18746745Y849391D01*
X18746745Y849391D02*
X18746745Y925581D01*
X18746745Y925581D02*
X18784841Y1001772D01*
X18784841Y1001772D02*
X18861031Y1039867D01*
X18861031Y1039867D02*
X19051507Y1039867D01*
X19051507Y1039867D02*
X19127698Y1077962D01*
X19508651Y735105D02*
X19508651Y1268439D01*
X19508651Y1116058D02*
X19546746Y1192248D01*
X19546746Y1192248D02*
X19584841Y1230343D01*
X19584841Y1230343D02*
X19661032Y1268439D01*
X19661032Y1268439D02*
X19737222Y1268439D01*
X19927698Y1268439D02*
X20118174Y735105D01*
X20118174Y735105D02*
X20308651Y1268439D01*
X22194476Y12730010D02*
X22118286Y12768105D01*
X22118286Y12768105D02*
X22004000Y12768105D01*
X22004000Y12768105D02*
X21889714Y12730010D01*
X21889714Y12730010D02*
X21813524Y12653820D01*
X21813524Y12653820D02*
X21775429Y12577629D01*
X21775429Y12577629D02*
X21737333Y12425248D01*
X21737333Y12425248D02*
X21737333Y12310962D01*
X21737333Y12310962D02*
X21775429Y12158581D01*
X21775429Y12158581D02*
X21813524Y12082391D01*
X21813524Y12082391D02*
X21889714Y12006200D01*
X21889714Y12006200D02*
X22004000Y11968105D01*
X22004000Y11968105D02*
X22080191Y11968105D01*
X22080191Y11968105D02*
X22194476Y12006200D01*
X22194476Y12006200D02*
X22232572Y12044296D01*
X22232572Y12044296D02*
X22232572Y12310962D01*
X22232572Y12310962D02*
X22080191Y12310962D01*
X22575429Y11968105D02*
X22575429Y12768105D01*
X22575429Y12768105D02*
X23032572Y11968105D01*
X23032572Y11968105D02*
X23032572Y12768105D01*
X23413524Y11968105D02*
X23413524Y12768105D01*
X23413524Y12768105D02*
X23604000Y12768105D01*
X23604000Y12768105D02*
X23718286Y12730010D01*
X23718286Y12730010D02*
X23794476Y12653820D01*
X23794476Y12653820D02*
X23832571Y12577629D01*
X23832571Y12577629D02*
X23870667Y12425248D01*
X23870667Y12425248D02*
X23870667Y12310962D01*
X23870667Y12310962D02*
X23832571Y12158581D01*
X23832571Y12158581D02*
X23794476Y12082391D01*
X23794476Y12082391D02*
X23718286Y12006200D01*
X23718286Y12006200D02*
X23604000Y11968105D01*
X23604000Y11968105D02*
X23413524Y11968105D01*
X37412782Y6073891D02*
X37246116Y6311986D01*
X37127068Y6073891D02*
X37127068Y6573891D01*
X37127068Y6573891D02*
X37317544Y6573891D01*
X37317544Y6573891D02*
X37365163Y6550081D01*
X37365163Y6550081D02*
X37388973Y6526272D01*
X37388973Y6526272D02*
X37412782Y6478653D01*
X37412782Y6478653D02*
X37412782Y6407224D01*
X37412782Y6407224D02*
X37388973Y6359605D01*
X37388973Y6359605D02*
X37365163Y6335796D01*
X37365163Y6335796D02*
X37317544Y6311986D01*
X37317544Y6311986D02*
X37127068Y6311986D01*
X37579449Y6573891D02*
X37912782Y6073891D01*
X37912782Y6573891D02*
X37579449Y6073891D01*
X37127067Y7135796D02*
X37293734Y7135796D01*
X37365162Y6873891D02*
X37127067Y6873891D01*
X37127067Y6873891D02*
X37127067Y7373891D01*
X37127067Y7373891D02*
X37365162Y7373891D01*
X37579448Y6873891D02*
X37579448Y7373891D01*
X37579448Y7373891D02*
X37865162Y6873891D01*
X37865162Y6873891D02*
X37865162Y7373891D01*
X37174688Y10573891D02*
X37460402Y10573891D01*
X37317545Y10073891D02*
X37317545Y10573891D01*
X37579449Y10573891D02*
X37912782Y10073891D01*
X37912782Y10573891D02*
X37579449Y10073891D01*
X30073890Y15566667D02*
X29716747Y15566667D01*
X29716747Y15566667D02*
X29645319Y15590476D01*
X29645319Y15590476D02*
X29597700Y15638095D01*
X29597700Y15638095D02*
X29573890Y15709524D01*
X29573890Y15709524D02*
X29573890Y15757143D01*
X29907223Y15114286D02*
X29573890Y15114286D01*
X30097700Y15233334D02*
X29740557Y15352381D01*
X29740557Y15352381D02*
X29740557Y15042858D01*
X31833334Y4847700D02*
X31904762Y4823891D01*
X31904762Y4823891D02*
X32023810Y4823891D01*
X32023810Y4823891D02*
X32071429Y4847700D01*
X32071429Y4847700D02*
X32095238Y4871510D01*
X32095238Y4871510D02*
X32119048Y4919129D01*
X32119048Y4919129D02*
X32119048Y4966748D01*
X32119048Y4966748D02*
X32095238Y5014367D01*
X32095238Y5014367D02*
X32071429Y5038177D01*
X32071429Y5038177D02*
X32023810Y5061986D01*
X32023810Y5061986D02*
X31928572Y5085796D01*
X31928572Y5085796D02*
X31880953Y5109605D01*
X31880953Y5109605D02*
X31857143Y5133415D01*
X31857143Y5133415D02*
X31833334Y5181034D01*
X31833334Y5181034D02*
X31833334Y5228653D01*
X31833334Y5228653D02*
X31857143Y5276272D01*
X31857143Y5276272D02*
X31880953Y5300081D01*
X31880953Y5300081D02*
X31928572Y5323891D01*
X31928572Y5323891D02*
X32047619Y5323891D01*
X32047619Y5323891D02*
X32119048Y5300081D01*
X32285714Y5323891D02*
X32404762Y4823891D01*
X32404762Y4823891D02*
X32500000Y5181034D01*
X32500000Y5181034D02*
X32595238Y4823891D01*
X32595238Y4823891D02*
X32714286Y5323891D01*
X33166667Y4823891D02*
X32880953Y4823891D01*
X33023810Y4823891D02*
X33023810Y5323891D01*
X33023810Y5323891D02*
X32976191Y5252462D01*
X32976191Y5252462D02*
X32928572Y5204843D01*
X32928572Y5204843D02*
X32880953Y5181034D01*
D13*
%TO.C,J4*%
X24790000Y15750000D02*
X25600000Y15750000D01*
X24790000Y15065000D02*
X24790000Y15750000D01*
X26100000Y13965000D02*
X26100000Y14380000D01*
X26100000Y13965000D02*
X29410000Y13965000D01*
X27045898Y15585000D02*
X27154102Y15585000D01*
X28045898Y15585000D02*
X28154102Y15585000D01*
X29045898Y15585000D02*
X29410000Y15585000D01*
X29410000Y13965000D02*
X29410000Y15585000D01*
D14*
%TO.C,sheep*%
G36*
X36861564Y3415979D02*
G01*
X36869902Y3411067D01*
X36904574Y3377984D01*
X36927864Y3331528D01*
X36939430Y3277258D01*
X36938931Y3220731D01*
X36926025Y3167506D01*
X36900372Y3123142D01*
X36888333Y3110748D01*
X36852056Y3091480D01*
X36807082Y3085652D01*
X36762794Y3094322D01*
X36758581Y3096110D01*
X36726480Y3121538D01*
X36700554Y3163533D01*
X36683578Y3217012D01*
X36679946Y3240205D01*
X36682234Y3291094D01*
X36698049Y3341234D01*
X36724248Y3383853D01*
X36757688Y3412181D01*
X36760419Y3413550D01*
X36798830Y3428329D01*
X36829440Y3429209D01*
X36861564Y3415979D01*
G37*
G36*
X37374549Y3422706D02*
G01*
X37410318Y3399790D01*
X37439631Y3368765D01*
X37450443Y3349659D01*
X37460028Y3315229D01*
X37465626Y3272894D01*
X37466221Y3256407D01*
X37458593Y3190427D01*
X37436031Y3139150D01*
X37399015Y3103661D01*
X37398394Y3103279D01*
X37359347Y3085288D01*
X37322912Y3084008D01*
X37285027Y3096432D01*
X37253521Y3121182D01*
X37229632Y3161267D01*
X37214587Y3211059D01*
X37209611Y3264929D01*
X37215931Y3317251D01*
X37229176Y3352771D01*
X37254164Y3385635D01*
X37288464Y3413017D01*
X37324250Y3429357D01*
X37340207Y3431648D01*
X37374549Y3422706D01*
G37*
G36*
X35462576Y4359938D02*
G01*
X35566460Y4333740D01*
X35672266Y4286001D01*
X35732638Y4249569D01*
X35822836Y4190227D01*
X35907621Y4218416D01*
X35947494Y4230675D01*
X35983830Y4238889D01*
X36022983Y4243867D01*
X36071308Y4246416D01*
X36135157Y4247342D01*
X36135402Y4247343D01*
X36278397Y4248081D01*
X36360035Y4207941D01*
X36409086Y4185684D01*
X36450061Y4172653D01*
X36493239Y4166101D01*
X36523722Y4164169D01*
X36605770Y4160537D01*
X36630747Y4213147D01*
X36652738Y4250657D01*
X36679507Y4274834D01*
X36702107Y4286812D01*
X36753474Y4303019D01*
X36809358Y4305824D01*
X36872846Y4294784D01*
X36947030Y4269456D01*
X37006734Y4243102D01*
X37073682Y4211441D01*
X37123445Y4243000D01*
X37188140Y4272668D01*
X37253190Y4280856D01*
X37316694Y4267883D01*
X37376751Y4234068D01*
X37420194Y4193186D01*
X37461003Y4146824D01*
X37564971Y4141727D01*
X37638235Y4135027D01*
X37693280Y4122307D01*
X37733266Y4102367D01*
X37761353Y4074009D01*
X37767172Y4064981D01*
X37780364Y4021746D01*
X37776027Y3968578D01*
X37754980Y3909621D01*
X37744161Y3883641D01*
X37744398Y3865855D01*
X37756393Y3845141D01*
X37759327Y3840985D01*
X37777350Y3809169D01*
X37792882Y3771421D01*
X37794787Y3765414D01*
X37799935Y3714821D01*
X37786310Y3668340D01*
X37755945Y3631328D01*
X37739799Y3620503D01*
X37703254Y3599695D01*
X37684799Y3585587D01*
X37683361Y3574247D01*
X37697866Y3561742D01*
X37720091Y3548338D01*
X37756194Y3530914D01*
X37803561Y3512946D01*
X37851991Y3498303D01*
X37852374Y3498204D01*
X37946518Y3467854D01*
X38023979Y3429583D01*
X38082528Y3384493D01*
X38082919Y3384102D01*
X38126937Y3329204D01*
X38150110Y3275519D01*
X38153489Y3225196D01*
X38138126Y3180384D01*
X38105072Y3143231D01*
X38055378Y3115885D01*
X37990095Y3100494D01*
X37942882Y3097894D01*
X37880966Y3103530D01*
X37823247Y3121496D01*
X37763159Y3154208D01*
X37731945Y3175571D01*
X37720302Y3183591D01*
X37712734Y3186059D01*
X37709230Y3180169D01*
X37709780Y3163114D01*
X37714371Y3132086D01*
X37722991Y3084279D01*
X37731389Y3039477D01*
X37741326Y2981026D01*
X37748262Y2924923D01*
X37752654Y2865037D01*
X37754960Y2795235D01*
X37755633Y2713999D01*
X37755435Y2641033D01*
X37754396Y2585031D01*
X37752037Y2541049D01*
X37747876Y2504139D01*
X37741435Y2469354D01*
X37732231Y2431748D01*
X37725969Y2408621D01*
X37682492Y2283179D01*
X37626096Y2175386D01*
X37556807Y2085275D01*
X37474652Y2012874D01*
X37379656Y1958214D01*
X37318747Y1934673D01*
X37278469Y1920446D01*
X37254315Y1906988D01*
X37241286Y1889233D01*
X37234381Y1862111D01*
X37232128Y1846877D01*
X37209976Y1763445D01*
X37168632Y1687554D01*
X37110283Y1621915D01*
X37037114Y1569240D01*
X36989698Y1546091D01*
X36960091Y1533040D01*
X36939304Y1520043D01*
X36922842Y1502173D01*
X36906210Y1474504D01*
X36884913Y1432108D01*
X36883991Y1430220D01*
X36834068Y1341930D01*
X36779879Y1274157D01*
X36719741Y1225659D01*
X36651975Y1195190D01*
X36574899Y1181506D01*
X36546644Y1180458D01*
X36463589Y1179918D01*
X36434164Y1119651D01*
X36405344Y1042174D01*
X36387211Y952776D01*
X36381406Y865932D01*
X36384819Y821641D01*
X36397087Y780748D01*
X36416036Y741832D01*
X36437827Y690606D01*
X36451824Y634775D01*
X36458027Y578825D01*
X36456437Y527242D01*
X36447054Y484511D01*
X36429877Y455118D01*
X36416015Y445821D01*
X36385177Y436696D01*
X36340910Y426753D01*
X36291576Y417534D01*
X36245535Y410584D01*
X36211147Y407446D01*
X36207935Y407399D01*
X36151316Y417678D01*
X36102808Y447935D01*
X36063765Y497300D01*
X36061357Y501565D01*
X36031688Y555328D01*
X36038447Y799137D01*
X36040403Y886934D01*
X36040816Y943447D01*
X36140336Y943447D01*
X36141002Y879102D01*
X36143952Y832605D01*
X36150619Y799906D01*
X36162433Y776956D01*
X36180825Y759703D01*
X36207225Y744098D01*
X36211561Y741855D01*
X36242836Y728475D01*
X36262245Y728750D01*
X36272046Y744936D01*
X36274496Y779292D01*
X36273671Y803964D01*
X36275654Y894775D01*
X36288994Y993782D01*
X36312235Y1091404D01*
X36321967Y1122085D01*
X36337681Y1170221D01*
X36345832Y1201875D01*
X36346793Y1220991D01*
X36340943Y1231513D01*
X36332821Y1235945D01*
X36318824Y1231719D01*
X36293127Y1216269D01*
X36260286Y1193065D01*
X36224860Y1165578D01*
X36191407Y1137277D01*
X36164485Y1111634D01*
X36154033Y1099820D01*
X36147265Y1080423D01*
X36142823Y1041619D01*
X36140622Y982452D01*
X36140336Y943447D01*
X36040816Y943447D01*
X36040908Y956008D01*
X36039975Y1005547D01*
X36037617Y1034737D01*
X36034414Y1042947D01*
X36016497Y1033755D01*
X35994556Y1009857D01*
X35973011Y976769D01*
X35960267Y950449D01*
X35950053Y916628D01*
X35941109Y871358D01*
X35935905Y829674D01*
X35933257Y790192D01*
X35934471Y760934D01*
X35941300Y733948D01*
X35955497Y701278D01*
X35971077Y670145D01*
X35991998Y626845D01*
X36004922Y591817D01*
X36012114Y556114D01*
X36015839Y510787D01*
X36016801Y489582D01*
X36017882Y429898D01*
X36013918Y387772D01*
X36002591Y359018D01*
X35981581Y339446D01*
X35948569Y324871D01*
X35920903Y316464D01*
X35870404Y305129D01*
X35815467Y296994D01*
X35782279Y294459D01*
X35727252Y297690D01*
X35685944Y313496D01*
X35653116Y345081D01*
X35626459Y389708D01*
X35618610Y406086D01*
X35612474Y422084D01*
X35607814Y440590D01*
X35604389Y464491D01*
X35601961Y496676D01*
X35600292Y540031D01*
X35599142Y597446D01*
X35598272Y671807D01*
X35597685Y737513D01*
X35596821Y815759D01*
X35595752Y881044D01*
X35702027Y881044D01*
X35702027Y716765D01*
X35746623Y676476D01*
X35780926Y650392D01*
X35808149Y639549D01*
X35814258Y639589D01*
X35823693Y642175D01*
X35830243Y649049D01*
X35834547Y663794D01*
X35837243Y689994D01*
X35838970Y731232D01*
X35840249Y785440D01*
X35841645Y843575D01*
X35843288Y897794D01*
X35844980Y942186D01*
X35846518Y970839D01*
X35846579Y971647D01*
X35847599Y999724D01*
X35841012Y1013344D01*
X35821071Y1019665D01*
X35806126Y1022048D01*
X35769098Y1028626D01*
X35735812Y1036035D01*
X35732161Y1037008D01*
X35702027Y1045323D01*
X35702027Y881044D01*
X35595752Y881044D01*
X35595661Y886632D01*
X35594283Y947238D01*
X35592764Y994677D01*
X35591183Y1026054D01*
X35589617Y1038471D01*
X35589586Y1038506D01*
X35578412Y1035713D01*
X35554021Y1023208D01*
X35521343Y1003563D01*
X35515859Y1000048D01*
X35412737Y943552D01*
X35311885Y908794D01*
X35213397Y895774D01*
X35117367Y904493D01*
X35023889Y934953D01*
X34933056Y987154D01*
X34923238Y994218D01*
X34891409Y1016181D01*
X34867866Y1026809D01*
X34844015Y1028738D01*
X34819835Y1025923D01*
X34783511Y1015671D01*
X34758437Y995602D01*
X34742941Y962622D01*
X34735355Y913636D01*
X34733852Y866634D01*
X34735773Y813554D01*
X34742703Y774176D01*
X34756069Y740580D01*
X34756891Y738989D01*
X34784382Y673925D01*
X34801813Y606298D01*
X34808528Y541530D01*
X34803875Y485041D01*
X34791757Y449882D01*
X34773195Y434674D01*
X34737886Y421331D01*
X34690960Y410458D01*
X34637550Y402661D01*
X34582787Y398547D01*
X34531804Y398722D01*
X34489730Y403793D01*
X34466551Y411458D01*
X34440065Y430060D01*
X34412659Y456655D01*
X34389853Y484942D01*
X34377169Y508619D01*
X34376143Y514624D01*
X34368056Y531019D01*
X34364313Y533952D01*
X34356549Y530143D01*
X34354920Y505488D01*
X34355273Y498986D01*
X34356726Y434544D01*
X34351014Y388272D01*
X34337766Y357502D01*
X34335052Y353995D01*
X34310756Y337077D01*
X34270449Y321379D01*
X34220035Y308036D01*
X34165420Y298182D01*
X34112507Y292953D01*
X34067200Y293486D01*
X34043240Y297874D01*
X33998953Y321344D01*
X33962458Y362814D01*
X33937896Y409683D01*
X33930212Y428155D01*
X33924472Y445279D01*
X33920670Y463997D01*
X33918800Y487251D01*
X33918857Y517985D01*
X33920835Y559140D01*
X33924727Y613659D01*
X33930529Y684485D01*
X33937193Y762455D01*
X33941615Y829247D01*
X33943191Y868209D01*
X34048215Y868209D01*
X34048301Y806484D01*
X34049008Y760928D01*
X34050582Y728670D01*
X34053268Y706837D01*
X34057312Y692556D01*
X34062961Y682954D01*
X34070459Y675160D01*
X34072066Y673689D01*
X34110622Y647115D01*
X34146491Y638326D01*
X34176182Y647997D01*
X34181441Y652571D01*
X34188517Y664347D01*
X34191485Y684315D01*
X34190535Y717007D01*
X34186084Y764812D01*
X34184805Y812929D01*
X34289562Y812929D01*
X34291535Y759195D01*
X34298392Y713350D01*
X34311320Y668450D01*
X34331505Y617554D01*
X34339561Y599159D01*
X34359030Y555328D01*
X34366445Y621074D01*
X34370976Y659142D01*
X34377519Y711448D01*
X34385126Y770517D01*
X34388883Y798976D01*
X34497501Y798976D01*
X34498538Y765936D01*
X34505684Y746119D01*
X34522986Y730928D01*
X34532291Y725053D01*
X34573500Y706723D01*
X34607178Y705516D01*
X34625177Y715605D01*
X34631690Y735097D01*
X34633569Y775753D01*
X34631782Y822443D01*
X34630382Y872721D01*
X34631843Y920933D01*
X34635835Y958203D01*
X34637045Y964161D01*
X34642968Y993765D01*
X34641111Y1009399D01*
X34629300Y1018279D01*
X34619552Y1022225D01*
X34586814Y1029235D01*
X34557596Y1029786D01*
X34540934Y1027280D01*
X34530181Y1020706D01*
X34523005Y1005491D01*
X34517073Y977060D01*
X34511232Y938848D01*
X34504777Y888943D01*
X34499888Y839767D01*
X34497550Y801350D01*
X34497501Y798976D01*
X34388883Y798976D01*
X34391435Y818313D01*
X34402147Y898440D01*
X34410091Y959676D01*
X34415278Y1004868D01*
X34417720Y1036864D01*
X34417425Y1058511D01*
X34414406Y1072657D01*
X34408672Y1082149D01*
X34400234Y1089834D01*
X34392467Y1095866D01*
X34368266Y1111985D01*
X34349580Y1119567D01*
X34348301Y1119651D01*
X34333074Y1109134D01*
X34319223Y1079319D01*
X34307373Y1032811D01*
X34298146Y972214D01*
X34292166Y900134D01*
X34291286Y881491D01*
X34289562Y812929D01*
X34184805Y812929D01*
X34182747Y890332D01*
X34198314Y1017717D01*
X34229442Y1132564D01*
X34257965Y1213475D01*
X34226786Y1265094D01*
X34208250Y1293355D01*
X34191744Y1307849D01*
X34171816Y1309264D01*
X34143017Y1298288D01*
X34108152Y1280089D01*
X34076337Y1257163D01*
X34058198Y1232256D01*
X34057195Y1229228D01*
X34054966Y1210658D01*
X34052898Y1173683D01*
X34051101Y1121814D01*
X34049684Y1058563D01*
X34048755Y987439D01*
X34048504Y948977D01*
X34048215Y868209D01*
X33943191Y868209D01*
X33944814Y908322D01*
X33946504Y990066D01*
X33946399Y1064868D01*
X33946329Y1068980D01*
X33943313Y1234124D01*
X33895447Y1242284D01*
X33823710Y1262213D01*
X33765418Y1296310D01*
X33718510Y1346513D01*
X33680925Y1414760D01*
X33663628Y1460249D01*
X33648232Y1504094D01*
X33635259Y1531977D01*
X33620577Y1548849D01*
X33600059Y1559663D01*
X33573620Y1568180D01*
X33513689Y1591612D01*
X33453794Y1624846D01*
X33402253Y1662857D01*
X33378772Y1685896D01*
X33338661Y1740752D01*
X33314488Y1798397D01*
X33304251Y1865006D01*
X33304128Y1916177D01*
X33307765Y2005930D01*
X33223868Y2083253D01*
X33184306Y2121773D01*
X33147499Y2161220D01*
X33118900Y2195592D01*
X33108811Y2209895D01*
X33090003Y2237489D01*
X33075158Y2255397D01*
X33069657Y2259234D01*
X33060288Y2250390D01*
X33046067Y2228085D01*
X33039772Y2216346D01*
X33006504Y2169723D01*
X32963741Y2137177D01*
X32916008Y2120847D01*
X32867831Y2122872D01*
X32852666Y2127908D01*
X32820059Y2151945D01*
X32790332Y2193814D01*
X32765954Y2249435D01*
X32754283Y2290439D01*
X32746030Y2371381D01*
X32753830Y2417277D01*
X33148463Y2417277D01*
X33154641Y2362054D01*
X33171963Y2317106D01*
X33200228Y2271162D01*
X33241721Y2219399D01*
X33291142Y2167700D01*
X33343189Y2121949D01*
X33358012Y2110637D01*
X33396081Y2080883D01*
X33418059Y2056150D01*
X33426441Y2029846D01*
X33423722Y1995379D01*
X33415520Y1958673D01*
X33405989Y1914175D01*
X33403508Y1881833D01*
X33407709Y1853181D01*
X33410509Y1843062D01*
X33439815Y1783204D01*
X33489302Y1731622D01*
X33558805Y1688450D01*
X33644369Y1654989D01*
X33691192Y1639010D01*
X33720308Y1624709D01*
X33735483Y1609388D01*
X33740484Y1590345D01*
X33740595Y1586001D01*
X33747567Y1538168D01*
X33765912Y1484185D01*
X33791775Y1433661D01*
X33813619Y1404003D01*
X33853936Y1370001D01*
X33899476Y1348357D01*
X33943672Y1341677D01*
X33963028Y1344709D01*
X34001597Y1357644D01*
X34048651Y1375771D01*
X34096525Y1395893D01*
X34137553Y1414812D01*
X34160628Y1427134D01*
X34196804Y1445222D01*
X34225450Y1448341D01*
X34249864Y1434852D01*
X34273346Y1403113D01*
X34295185Y1360239D01*
X34329760Y1304140D01*
X34378719Y1248784D01*
X34435335Y1200794D01*
X34490579Y1167835D01*
X34556762Y1143117D01*
X34626379Y1129254D01*
X34705119Y1125541D01*
X34791054Y1130532D01*
X34839560Y1134260D01*
X34880425Y1135824D01*
X34908422Y1135114D01*
X34917592Y1133189D01*
X34932434Y1122757D01*
X34958881Y1103155D01*
X34991210Y1078625D01*
X34991222Y1078615D01*
X35029400Y1051905D01*
X35068020Y1028963D01*
X35094796Y1016380D01*
X35160410Y1002074D01*
X35233958Y1002109D01*
X35307010Y1016254D01*
X35326314Y1022745D01*
X35376502Y1045323D01*
X35406360Y1058755D01*
X35477178Y1105307D01*
X35525860Y1146849D01*
X35564738Y1181803D01*
X35593558Y1202452D01*
X35618019Y1209723D01*
X35643816Y1204546D01*
X35676647Y1187851D01*
X35698305Y1174977D01*
X35754321Y1144359D01*
X35802233Y1126789D01*
X35849880Y1120279D01*
X35904245Y1122753D01*
X35976678Y1140045D01*
X36053124Y1177575D01*
X36134206Y1235697D01*
X36189002Y1284036D01*
X36227075Y1318644D01*
X36260589Y1346806D01*
X36285756Y1365483D01*
X36298333Y1371678D01*
X36315033Y1366803D01*
X36345352Y1353814D01*
X36383713Y1335169D01*
X36397843Y1327848D01*
X36446581Y1303966D01*
X36484635Y1290317D01*
X36519305Y1284610D01*
X36537354Y1284017D01*
X36607455Y1294392D01*
X36670415Y1325260D01*
X36725744Y1376230D01*
X36772956Y1446913D01*
X36792492Y1487500D01*
X36814458Y1537336D01*
X36831322Y1571165D01*
X36846530Y1593160D01*
X36863533Y1607491D01*
X36885780Y1618332D01*
X36907377Y1626462D01*
X36987137Y1664834D01*
X37051329Y1715588D01*
X37098259Y1776992D01*
X37126235Y1847316D01*
X37127116Y1851079D01*
X37135181Y1886691D01*
X37043911Y1886691D01*
X36926931Y1895271D01*
X36814759Y1920103D01*
X36711079Y1959831D01*
X36619577Y2013097D01*
X36555492Y2066643D01*
X36485751Y2151097D01*
X36430185Y2251334D01*
X36389017Y2366235D01*
X36362471Y2494680D01*
X36350772Y2635552D01*
X36350964Y2644211D01*
X36450396Y2644211D01*
X36460150Y2534759D01*
X36480488Y2429328D01*
X36510345Y2333254D01*
X36548657Y2251870D01*
X36553883Y2243164D01*
X36593238Y2189220D01*
X36642585Y2135655D01*
X36694171Y2090513D01*
X36715617Y2075368D01*
X36757419Y2052565D01*
X36808353Y2030675D01*
X36861055Y2012313D01*
X36908165Y2000096D01*
X36937511Y1996500D01*
X36973123Y1996269D01*
X36973123Y2068375D01*
X36973123Y2140482D01*
X36926553Y2158576D01*
X36888306Y2174668D01*
X36844495Y2194810D01*
X36825194Y2204265D01*
X36792995Y2222175D01*
X36776446Y2237442D01*
X36770735Y2255272D01*
X36770405Y2263539D01*
X36776628Y2294856D01*
X36795918Y2309771D01*
X36829210Y2308651D01*
X36860487Y2298853D01*
X36902197Y2283164D01*
X36950330Y2265563D01*
X36974817Y2256812D01*
X37036779Y2234925D01*
X37128225Y2275709D01*
X37185995Y2300498D01*
X37227716Y2315659D01*
X37256678Y2321882D01*
X37276166Y2319857D01*
X37289469Y2310273D01*
X37290005Y2309639D01*
X37301907Y2286729D01*
X37297801Y2263828D01*
X37276370Y2239312D01*
X37236294Y2211555D01*
X37189424Y2185667D01*
X37088179Y2133240D01*
X37088179Y2067494D01*
X37088179Y2001747D01*
X37151206Y2004588D01*
X37242638Y2019260D01*
X37331491Y2053420D01*
X37414219Y2104660D01*
X37487278Y2170573D01*
X37547121Y2248754D01*
X37569399Y2288500D01*
X37595834Y2344218D01*
X37615582Y2394218D01*
X37629709Y2443617D01*
X37639280Y2497531D01*
X37645362Y2561077D01*
X37649020Y2639373D01*
X37650035Y2675647D01*
X37651447Y2754311D01*
X37651092Y2817565D01*
X37648596Y2871874D01*
X37643586Y2923700D01*
X37635689Y2979506D01*
X37630719Y3009858D01*
X37613589Y3102503D01*
X37593413Y3196974D01*
X37571532Y3287802D01*
X37549289Y3369518D01*
X37528025Y3436654D01*
X37521843Y3453646D01*
X37504782Y3497688D01*
X37491743Y3524008D01*
X37478753Y3535290D01*
X37461839Y3534217D01*
X37437028Y3523472D01*
X37426275Y3518185D01*
X37366303Y3498623D01*
X37292363Y3490529D01*
X37209119Y3493837D01*
X37121235Y3508477D01*
X37065682Y3523458D01*
X37018990Y3537706D01*
X36986837Y3545831D01*
X36962882Y3548374D01*
X36940786Y3545872D01*
X36914209Y3538864D01*
X36907546Y3536894D01*
X36839957Y3523080D01*
X36773098Y3520534D01*
X36714497Y3529292D01*
X36695391Y3535829D01*
X36668630Y3546379D01*
X36651461Y3551987D01*
X36649619Y3552265D01*
X36640618Y3542358D01*
X36626809Y3515026D01*
X36609622Y3473852D01*
X36590489Y3422421D01*
X36570841Y3364315D01*
X36557614Y3321815D01*
X36539551Y3254563D01*
X36520537Y3171741D01*
X36501725Y3079590D01*
X36484271Y2984356D01*
X36469329Y2892280D01*
X36458054Y2809605D01*
X36452289Y2752351D01*
X36450396Y2644211D01*
X36350964Y2644211D01*
X36354144Y2787730D01*
X36372810Y2950096D01*
X36375390Y2966027D01*
X36386593Y3031867D01*
X36398009Y3096034D01*
X36408577Y3152770D01*
X36417241Y3196315D01*
X36420337Y3210516D01*
X36430871Y3258864D01*
X36434828Y3287864D01*
X36431081Y3299395D01*
X36418504Y3295335D01*
X36395969Y3277565D01*
X36385564Y3268491D01*
X36346694Y3238463D01*
X36299957Y3208110D01*
X36268758Y3190855D01*
X36224130Y3171084D01*
X36184505Y3161031D01*
X36137693Y3157850D01*
X36127264Y3157787D01*
X36058491Y3164724D01*
X35998897Y3184344D01*
X35952611Y3214863D01*
X35929400Y3243335D01*
X35913612Y3281567D01*
X35913295Y3320362D01*
X35928527Y3366777D01*
X35930821Y3371916D01*
X35967653Y3426861D01*
X36023977Y3473567D01*
X36098726Y3511400D01*
X36190837Y3539723D01*
X36222936Y3546508D01*
X36272456Y3558444D01*
X36322631Y3574689D01*
X36368616Y3593179D01*
X36405564Y3611852D01*
X36428631Y3628647D01*
X36433596Y3636165D01*
X36427167Y3648552D01*
X36406593Y3665410D01*
X36393333Y3673572D01*
X36353963Y3705325D01*
X36326550Y3746640D01*
X36316133Y3788677D01*
X36428885Y3788677D01*
X36447973Y3767500D01*
X36487070Y3748601D01*
X36544322Y3732748D01*
X36580290Y3726021D01*
X36623756Y3717944D01*
X36653167Y3708477D01*
X36676258Y3693875D01*
X36700764Y3670397D01*
X36705425Y3665469D01*
X36732231Y3639628D01*
X36757194Y3624318D01*
X36785425Y3618906D01*
X36822037Y3622758D01*
X36872140Y3635238D01*
X36895144Y3641923D01*
X36976052Y3665904D01*
X37060869Y3635768D01*
X37141515Y3610204D01*
X37210206Y3596079D01*
X37273222Y3592678D01*
X37336846Y3599286D01*
X37353703Y3602443D01*
X37377335Y3612646D01*
X37406069Y3631988D01*
X37413971Y3638507D01*
X37435248Y3654717D01*
X37457800Y3664912D01*
X37488306Y3671080D01*
X37533442Y3675206D01*
X37538503Y3675549D01*
X37587532Y3681189D01*
X37632552Y3690561D01*
X37668740Y3702210D01*
X37691271Y3714683D01*
X37696333Y3723112D01*
X37689649Y3741995D01*
X37672257Y3770789D01*
X37648143Y3803144D01*
X37639937Y3812892D01*
X37616431Y3847364D01*
X37611141Y3879375D01*
X37624151Y3914364D01*
X37641849Y3940477D01*
X37660953Y3968605D01*
X37672670Y3991405D01*
X37674417Y3998564D01*
X37663955Y4016006D01*
X37634171Y4029945D01*
X37587469Y4039754D01*
X37526253Y4044807D01*
X37494861Y4045363D01*
X37391304Y4045363D01*
X37367887Y4083252D01*
X37328879Y4135339D01*
X37288866Y4165725D01*
X37246544Y4174623D01*
X37200607Y4162247D01*
X37149751Y4128809D01*
X37139847Y4120460D01*
X37114836Y4101172D01*
X37095133Y4090173D01*
X37090759Y4089194D01*
X37075967Y4093903D01*
X37046527Y4106605D01*
X37007222Y4125155D01*
X36977352Y4139990D01*
X36902371Y4173702D01*
X36838971Y4193325D01*
X36788502Y4198608D01*
X36752312Y4189300D01*
X36744090Y4183311D01*
X36729726Y4160960D01*
X36719255Y4128260D01*
X36717726Y4119265D01*
X36706460Y4078301D01*
X36684389Y4055364D01*
X36648720Y4048367D01*
X36625215Y4050153D01*
X36566924Y4057649D01*
X36526422Y4062122D01*
X36499818Y4063757D01*
X36483222Y4062738D01*
X36472745Y4059250D01*
X36469880Y4057531D01*
X36462871Y4048216D01*
X36468132Y4033732D01*
X36487487Y4009324D01*
X36489056Y4007531D01*
X36514152Y3972856D01*
X36522279Y3941874D01*
X36512947Y3909972D01*
X36485666Y3872534D01*
X36473279Y3858860D01*
X36445567Y3825902D01*
X36430472Y3800569D01*
X36428885Y3788677D01*
X36316133Y3788677D01*
X36315686Y3790479D01*
X36315660Y3792604D01*
X36321938Y3826550D01*
X36337848Y3867271D01*
X36359002Y3904700D01*
X36371295Y3920250D01*
X36383609Y3934687D01*
X36386750Y3947251D01*
X36380124Y3965158D01*
X36365425Y3991625D01*
X36348899Y4027429D01*
X36338975Y4062217D01*
X36337707Y4074590D01*
X36335432Y4096189D01*
X36325257Y4110409D01*
X36301847Y4122850D01*
X36285526Y4129379D01*
X36219992Y4145625D01*
X36141690Y4150365D01*
X36056340Y4143863D01*
X35969664Y4126381D01*
X35925360Y4112828D01*
X35879622Y4097764D01*
X35839725Y4086019D01*
X35811502Y4079245D01*
X35803279Y4078236D01*
X35783495Y4084972D01*
X35754462Y4102477D01*
X35727875Y4122612D01*
X35692661Y4148423D01*
X35645980Y4177919D01*
X35596359Y4205806D01*
X35582282Y4213014D01*
X35537392Y4234777D01*
X35503794Y4248288D01*
X35473371Y4255475D01*
X35438008Y4258267D01*
X35390522Y4258598D01*
X35331674Y4256192D01*
X35283256Y4247957D01*
X35239449Y4231486D01*
X35194432Y4204374D01*
X35142384Y4164215D01*
X35123131Y4148079D01*
X35089924Y4120937D01*
X35062456Y4100408D01*
X35045358Y4089890D01*
X35042864Y4089194D01*
X35028871Y4094468D01*
X35001483Y4108465D01*
X34965985Y4128439D01*
X34956431Y4134064D01*
X34891814Y4168016D01*
X34825324Y4195225D01*
X34763218Y4213503D01*
X34711752Y4220658D01*
X34708941Y4220686D01*
X34652353Y4210069D01*
X34597691Y4179572D01*
X34547363Y4131222D01*
X34503776Y4067050D01*
X34487057Y4033672D01*
X34464655Y3986332D01*
X34446100Y3957082D01*
X34426759Y3943802D01*
X34401997Y3944376D01*
X34367178Y3956684D01*
X34342375Y3967548D01*
X34234870Y4008385D01*
X34137830Y4030011D01*
X34051112Y4032393D01*
X33974575Y4015496D01*
X33908075Y3979288D01*
X33851469Y3923734D01*
X33804614Y3848801D01*
X33800021Y3839313D01*
X33780734Y3798583D01*
X33764356Y3764230D01*
X33753662Y3742068D01*
X33751917Y3738546D01*
X33743355Y3730787D01*
X33724601Y3725738D01*
X33691994Y3722892D01*
X33641871Y3721744D01*
X33629791Y3721675D01*
X33544250Y3716927D01*
X33476605Y3702578D01*
X33424486Y3677381D01*
X33385528Y3640089D01*
X33357364Y3589453D01*
X33351966Y3575230D01*
X33340766Y3534139D01*
X33336059Y3489335D01*
X33337755Y3435426D01*
X33345767Y3367022D01*
X33348241Y3350324D01*
X33361467Y3263440D01*
X33329137Y3240825D01*
X33272339Y3194914D01*
X33223243Y3143397D01*
X33186060Y3091273D01*
X33166027Y3047189D01*
X33151818Y2967387D01*
X33152988Y2882243D01*
X33168717Y2799183D01*
X33198185Y2725632D01*
X33202322Y2718283D01*
X33219323Y2681342D01*
X33231018Y2642440D01*
X33231408Y2640401D01*
X33233838Y2616587D01*
X33229757Y2594776D01*
X33216890Y2568419D01*
X33193860Y2532314D01*
X33161385Y2472547D01*
X33148463Y2417277D01*
X32753830Y2417277D01*
X32759178Y2448741D01*
X32793408Y2521864D01*
X32848399Y2590095D01*
X32923834Y2652777D01*
X32933868Y2659642D01*
X32971334Y2684878D01*
X33007576Y2709441D01*
X33026101Y2722087D01*
X33062210Y2746873D01*
X33054439Y2823577D01*
X33048608Y2933141D01*
X33055583Y3026974D01*
X33076121Y3107646D01*
X33110978Y3177730D01*
X33160910Y3239799D01*
X33182926Y3260861D01*
X33240102Y3312266D01*
X33241060Y3456921D01*
X33241752Y3516955D01*
X33243408Y3560094D01*
X33246795Y3591359D01*
X33252680Y3615767D01*
X33261830Y3638340D01*
X33271775Y3657994D01*
X33311700Y3717745D01*
X33361938Y3762913D01*
X33424972Y3794832D01*
X33503281Y3814837D01*
X33578764Y3823171D01*
X33674440Y3829225D01*
X33714128Y3909547D01*
X33765108Y3991624D01*
X33828027Y4056485D01*
X33901648Y4102859D01*
X33902554Y4103281D01*
X33927696Y4113638D01*
X33953484Y4120507D01*
X33985153Y4124534D01*
X34027937Y4126368D01*
X34087071Y4126657D01*
X34091242Y4126639D01*
X34154939Y4125637D01*
X34202598Y4122824D01*
X34240071Y4117491D01*
X34273208Y4108925D01*
X34292936Y4102126D01*
X34329242Y4089540D01*
X34358435Y4080885D01*
X34372286Y4078236D01*
X34384894Y4087121D01*
X34403256Y4110286D01*
X34421189Y4138970D01*
X34464641Y4204535D01*
X34512941Y4253105D01*
X34571174Y4289597D01*
X34582596Y4295031D01*
X34614916Y4308439D01*
X34644011Y4315976D01*
X34677623Y4318762D01*
X34723493Y4317917D01*
X34736738Y4317320D01*
X34784420Y4314087D01*
X34822200Y4308240D01*
X34858151Y4297624D01*
X34900343Y4280080D01*
X34932928Y4264897D01*
X35033633Y4217039D01*
X35074711Y4249318D01*
X35166680Y4309284D01*
X35262263Y4347709D01*
X35361036Y4364594D01*
X35462576Y4359938D01*
G37*
D13*
%TO.C,J3*%
X27100000Y3835000D02*
X27735000Y3835000D01*
X27735000Y3835000D02*
X27735000Y3200000D01*
D14*
%TO.C,G\u002A\u002A\u002A*%
G36*
X7312459Y6269290D02*
G01*
X7312459Y6237056D01*
X7206968Y6237056D01*
X7101476Y6237056D01*
X7101476Y5970397D01*
X7101476Y5703738D01*
X7069243Y5703738D01*
X7037009Y5703738D01*
X7037009Y5970397D01*
X7037009Y6237056D01*
X6928587Y6237056D01*
X6820166Y6237056D01*
X6820166Y6269290D01*
X6820166Y6301523D01*
X7066312Y6301523D01*
X7312459Y6301523D01*
X7312459Y6269290D01*
G37*
G36*
X9965668Y10523740D02*
G01*
X9981535Y10516978D01*
X9993359Y10511984D01*
X9995166Y10511232D01*
X10001717Y10506139D01*
X10002169Y10504438D01*
X9999606Y10498557D01*
X9992398Y10483223D01*
X9981063Y10459508D01*
X9966117Y10428484D01*
X9948077Y10391220D01*
X9927461Y10348789D01*
X9904786Y10302262D01*
X9885757Y10263314D01*
X9769667Y10025958D01*
X9864102Y9979073D01*
X9894426Y9964023D01*
X9920903Y9950893D01*
X9941836Y9940523D01*
X9955529Y9933754D01*
X9960270Y9931431D01*
X9959707Y9926119D01*
X9954615Y9914611D01*
X9946986Y9900450D01*
X9938809Y9887183D01*
X9932073Y9878355D01*
X9929531Y9876664D01*
X9923076Y9879187D01*
X9907254Y9886323D01*
X9883221Y9897525D01*
X9852132Y9912242D01*
X9815145Y9929927D01*
X9773415Y9950031D01*
X9728098Y9972006D01*
X9712390Y9979655D01*
X9666148Y10002252D01*
X9623167Y10023366D01*
X9584599Y10042421D01*
X9551595Y10058846D01*
X9525304Y10072066D01*
X9506878Y10081509D01*
X9497468Y10086600D01*
X9496537Y10087228D01*
X9496645Y10094040D01*
X9500614Y10107297D01*
X9506900Y10123043D01*
X9513959Y10137324D01*
X9519081Y10144985D01*
X9524558Y10143074D01*
X9538807Y10136661D01*
X9560149Y10126541D01*
X9586900Y10113512D01*
X9615319Y10099402D01*
X9709974Y10052004D01*
X9804151Y10244103D01*
X9826847Y10290467D01*
X9848868Y10335578D01*
X9869440Y10377843D01*
X9887791Y10415672D01*
X9903150Y10447474D01*
X9914743Y10471657D01*
X9920912Y10484713D01*
X9943496Y10533223D01*
X9965668Y10523740D01*
G37*
G36*
X4841956Y9621664D02*
G01*
X4856523Y9613535D01*
X4879183Y9600702D01*
X4908908Y9583751D01*
X4944674Y9563269D01*
X4985455Y9539841D01*
X5030225Y9514052D01*
X5068213Y9492123D01*
X5115381Y9464932D01*
X5159345Y9439708D01*
X5199087Y9417027D01*
X5233590Y9397464D01*
X5261833Y9381596D01*
X5282798Y9369999D01*
X5295466Y9363247D01*
X5298945Y9361724D01*
X5302251Y9367218D01*
X5310374Y9381171D01*
X5322321Y9401864D01*
X5337098Y9427576D01*
X5349191Y9448685D01*
X5365659Y9477306D01*
X5380303Y9502450D01*
X5392055Y9522310D01*
X5399848Y9535075D01*
X5402395Y9538844D01*
X5409123Y9538897D01*
X5421562Y9534268D01*
X5436155Y9526888D01*
X5449340Y9518685D01*
X5457559Y9511588D01*
X5458523Y9508427D01*
X5447642Y9489053D01*
X5432772Y9462885D01*
X5414668Y9431225D01*
X5394084Y9395376D01*
X5371774Y9356640D01*
X5348495Y9316321D01*
X5325000Y9275721D01*
X5302044Y9236143D01*
X5280381Y9198889D01*
X5260768Y9165262D01*
X5243957Y9136565D01*
X5230705Y9114100D01*
X5221765Y9099170D01*
X5217893Y9093078D01*
X5217874Y9093057D01*
X5211098Y9090279D01*
X5199718Y9093773D01*
X5186188Y9101170D01*
X5170095Y9112440D01*
X5164088Y9121452D01*
X5164530Y9125519D01*
X5168596Y9133613D01*
X5177476Y9149852D01*
X5190067Y9172264D01*
X5205265Y9198876D01*
X5214671Y9215166D01*
X5230543Y9242848D01*
X5244092Y9267051D01*
X5254312Y9285933D01*
X5260200Y9297655D01*
X5261236Y9300488D01*
X5256318Y9304356D01*
X5242245Y9313432D01*
X5220034Y9327105D01*
X5190707Y9344764D01*
X5155282Y9365800D01*
X5114779Y9389602D01*
X5070218Y9415561D01*
X5034137Y9436429D01*
X4987112Y9463559D01*
X4943281Y9488875D01*
X4903674Y9511778D01*
X4869321Y9531673D01*
X4841251Y9547963D01*
X4820494Y9560051D01*
X4808081Y9567340D01*
X4804860Y9569304D01*
X4806330Y9574834D01*
X4812110Y9586581D01*
X4820128Y9600932D01*
X4828312Y9614273D01*
X4834590Y9622990D01*
X4836505Y9624504D01*
X4841956Y9621664D01*
G37*
G36*
X7101476Y10714583D02*
G01*
X7101476Y10532903D01*
X7239201Y10532903D01*
X7376926Y10532903D01*
X7376926Y10500782D01*
X7376926Y10468660D01*
X7248669Y10467083D01*
X7120412Y10465506D01*
X7248669Y10243356D01*
X7275469Y10196892D01*
X7300371Y10153633D01*
X7322779Y10114618D01*
X7342100Y10080887D01*
X7357740Y10053478D01*
X7369103Y10033429D01*
X7375596Y10021780D01*
X7376926Y10019186D01*
X7371335Y10018618D01*
X7355641Y10018112D01*
X7331462Y10017691D01*
X7300416Y10017379D01*
X7264122Y10017201D01*
X7239127Y10017167D01*
X7101328Y10017167D01*
X7102867Y9808341D01*
X7104407Y9599514D01*
X7171804Y9560405D01*
X7200520Y9543773D01*
X7228933Y9527370D01*
X7253772Y9513081D01*
X7271764Y9502792D01*
X7271813Y9502764D01*
X7304426Y9484232D01*
X7341083Y9548508D01*
X7355139Y9572791D01*
X7367157Y9592873D01*
X7375954Y9606823D01*
X7380343Y9612710D01*
X7380518Y9612783D01*
X7385757Y9609956D01*
X7400127Y9601867D01*
X7422600Y9589105D01*
X7452150Y9572261D01*
X7487750Y9551923D01*
X7528375Y9528681D01*
X7572997Y9503125D01*
X7620590Y9475843D01*
X7670127Y9447425D01*
X7720583Y9418460D01*
X7770930Y9389539D01*
X7820142Y9361249D01*
X7867193Y9334182D01*
X7911056Y9308925D01*
X7950705Y9286069D01*
X7985113Y9266203D01*
X8013254Y9249916D01*
X8034101Y9237798D01*
X8046627Y9230438D01*
X8049905Y9228425D01*
X8047903Y9223121D01*
X8041031Y9209706D01*
X8030354Y9190175D01*
X8016936Y9166525D01*
X8016206Y9165259D01*
X8002442Y9140993D01*
X7991148Y9120281D01*
X7983476Y9105290D01*
X7980573Y9098185D01*
X7980572Y9098133D01*
X7985390Y9093833D01*
X7998590Y9084965D01*
X8018290Y9072625D01*
X8042611Y9057907D01*
X8069670Y9041906D01*
X8097588Y9025716D01*
X8124482Y9010433D01*
X8148471Y8997150D01*
X8167676Y8986964D01*
X8180213Y8980967D01*
X8183838Y8979834D01*
X8191076Y8981568D01*
X8207645Y8986400D01*
X8231738Y8993775D01*
X8261548Y9003140D01*
X8295267Y9013940D01*
X8299666Y9015363D01*
X8341314Y9029239D01*
X8373138Y9040689D01*
X8394718Y9049547D01*
X8405634Y9055647D01*
X8406915Y9057853D01*
X8399039Y9081321D01*
X8390884Y9107533D01*
X8383127Y9134048D01*
X8377882Y9153182D01*
X8445104Y9153182D01*
X8446526Y9147664D01*
X8450997Y9133075D01*
X8457850Y9111460D01*
X8466415Y9084863D01*
X8476024Y9055330D01*
X8486009Y9024906D01*
X8495702Y8995635D01*
X8504433Y8969562D01*
X8511536Y8948732D01*
X8516341Y8935190D01*
X8516450Y8934898D01*
X8517085Y8933567D01*
X8518405Y8932668D01*
X8521178Y8932433D01*
X8526174Y8933097D01*
X8534160Y8934892D01*
X8545907Y8938052D01*
X8562183Y8942810D01*
X8583757Y8949400D01*
X8611398Y8958055D01*
X8645875Y8969008D01*
X8687957Y8982492D01*
X8738413Y8998741D01*
X8798012Y9017989D01*
X8867524Y9040468D01*
X8915343Y9055939D01*
X8962218Y9071182D01*
X9005612Y9085446D01*
X9044252Y9098298D01*
X9076861Y9109308D01*
X9102164Y9118045D01*
X9118885Y9124078D01*
X9125749Y9126977D01*
X9125781Y9127004D01*
X9125622Y9133534D01*
X9122288Y9148882D01*
X9116416Y9171044D01*
X9108639Y9198012D01*
X9099594Y9227781D01*
X9089917Y9258344D01*
X9080242Y9287694D01*
X9071205Y9313826D01*
X9063443Y9334733D01*
X9057589Y9348408D01*
X9054281Y9352846D01*
X9054250Y9352830D01*
X9048051Y9350612D01*
X9031735Y9345123D01*
X9006333Y9336701D01*
X8972880Y9325685D01*
X8932407Y9312415D01*
X8885949Y9297229D01*
X8834537Y9280467D01*
X8779207Y9262467D01*
X8748315Y9252434D01*
X8691416Y9233950D01*
X8637966Y9216558D01*
X8588987Y9200592D01*
X8545499Y9186385D01*
X8508523Y9174273D01*
X8479080Y9164589D01*
X8458191Y9157668D01*
X8446875Y9153843D01*
X8445104Y9153182D01*
X8377882Y9153182D01*
X8376445Y9158424D01*
X8371513Y9178221D01*
X8369009Y9190999D01*
X8369059Y9194456D01*
X8375464Y9197185D01*
X8391860Y9203065D01*
X8417104Y9211728D01*
X8450059Y9222807D01*
X8489584Y9235934D01*
X8534539Y9250742D01*
X8583785Y9266862D01*
X8636181Y9283927D01*
X8690588Y9301569D01*
X8745866Y9319420D01*
X8800875Y9337113D01*
X8854475Y9354281D01*
X8905526Y9370554D01*
X8952890Y9385566D01*
X8995425Y9398950D01*
X9031992Y9410336D01*
X9061451Y9419358D01*
X9082663Y9425648D01*
X9094487Y9428838D01*
X9096560Y9429145D01*
X9100733Y9422923D01*
X9107460Y9407763D01*
X9115822Y9385923D01*
X9124899Y9359660D01*
X9125158Y9358873D01*
X9135877Y9328126D01*
X9144750Y9306590D01*
X9151415Y9295076D01*
X9154461Y9293373D01*
X9162066Y9295849D01*
X9178922Y9301312D01*
X9203123Y9309146D01*
X9232767Y9318734D01*
X9264051Y9328846D01*
X9297125Y9339769D01*
X9326535Y9349926D01*
X9350372Y9358620D01*
X9366724Y9365157D01*
X9373561Y9368709D01*
X9377566Y9375281D01*
X9385933Y9390989D01*
X9397992Y9414462D01*
X9413069Y9444327D01*
X9430495Y9479213D01*
X9449596Y9517748D01*
X9469702Y9558560D01*
X9490142Y9600277D01*
X9510242Y9641527D01*
X9529333Y9680939D01*
X9546741Y9717140D01*
X9561797Y9748759D01*
X9573827Y9774425D01*
X9582161Y9792764D01*
X9586127Y9802406D01*
X9586364Y9803400D01*
X9581374Y9807820D01*
X9567508Y9816389D01*
X9546448Y9828165D01*
X9519875Y9842202D01*
X9493194Y9855713D01*
X9400001Y9902018D01*
X9412493Y9928824D01*
X9419862Y9944548D01*
X9424928Y9955192D01*
X9426164Y9957669D01*
X9431432Y9955591D01*
X9445892Y9949000D01*
X9468211Y9938541D01*
X9497057Y9924859D01*
X9531095Y9908600D01*
X9568993Y9890408D01*
X9609418Y9870929D01*
X9651036Y9850809D01*
X9692515Y9830691D01*
X9732522Y9811222D01*
X9769724Y9793047D01*
X9802786Y9776810D01*
X9830378Y9763158D01*
X9851165Y9752735D01*
X9863814Y9746187D01*
X9867133Y9744234D01*
X9866676Y9737542D01*
X9861752Y9724897D01*
X9854346Y9710133D01*
X9846441Y9697082D01*
X9840023Y9689578D01*
X9838518Y9688971D01*
X9831571Y9691475D01*
X9815996Y9698414D01*
X9793623Y9708931D01*
X9766284Y9722169D01*
X9742009Y9734170D01*
X9712324Y9748757D01*
X9686421Y9761070D01*
X9666044Y9770314D01*
X9652934Y9775693D01*
X9648827Y9776660D01*
X9644888Y9769956D01*
X9636718Y9754155D01*
X9624968Y9730621D01*
X9610288Y9700719D01*
X9593328Y9665813D01*
X9574738Y9627269D01*
X9555168Y9586450D01*
X9535268Y9544722D01*
X9515688Y9503449D01*
X9497079Y9463996D01*
X9480091Y9427727D01*
X9465373Y9396006D01*
X9453577Y9370200D01*
X9445351Y9351671D01*
X9441346Y9341785D01*
X9441069Y9340566D01*
X9444959Y9333643D01*
X9454400Y9319412D01*
X9468096Y9299661D01*
X9484747Y9276174D01*
X9503057Y9250738D01*
X9521727Y9225137D01*
X9539460Y9201158D01*
X9554957Y9180587D01*
X9566922Y9165209D01*
X9574055Y9156810D01*
X9575363Y9155782D01*
X9581247Y9158985D01*
X9594575Y9167800D01*
X9613362Y9180873D01*
X9635383Y9196678D01*
X9657705Y9212647D01*
X9676635Y9225685D01*
X9690155Y9234434D01*
X9696221Y9237542D01*
X9700234Y9232923D01*
X9710400Y9219757D01*
X9726020Y9199007D01*
X9746392Y9171633D01*
X9770818Y9138597D01*
X9798596Y9100862D01*
X9829026Y9059389D01*
X9861408Y9015140D01*
X9895041Y8969076D01*
X9929226Y8922160D01*
X9963261Y8875353D01*
X9996447Y8829616D01*
X10028083Y8785912D01*
X10057469Y8745202D01*
X10083904Y8708448D01*
X10106689Y8676612D01*
X10125122Y8650656D01*
X10138504Y8631540D01*
X10146134Y8620228D01*
X10147656Y8617599D01*
X10144018Y8611900D01*
X10132556Y8601001D01*
X10115034Y8586446D01*
X10093213Y8569779D01*
X10092245Y8569067D01*
X10069972Y8552716D01*
X10051405Y8539068D01*
X10038435Y8529515D01*
X10032953Y8525447D01*
X10032917Y8525419D01*
X10035691Y8520487D01*
X10044455Y8507437D01*
X10058272Y8487604D01*
X10076205Y8462326D01*
X10097317Y8432939D01*
X10110913Y8414176D01*
X10136242Y8378777D01*
X10157230Y8348324D01*
X10173214Y8323841D01*
X10183532Y8306350D01*
X10187523Y8296874D01*
X10187462Y8295897D01*
X10182525Y8287274D01*
X10171840Y8271265D01*
X10156478Y8249306D01*
X10137510Y8222837D01*
X10116005Y8193296D01*
X10093033Y8162121D01*
X10069664Y8130751D01*
X10046969Y8100624D01*
X10026017Y8073178D01*
X10007879Y8049852D01*
X9993625Y8032084D01*
X9984324Y8021312D01*
X9981233Y8018690D01*
X9971575Y8023061D01*
X9969888Y8025148D01*
X9962152Y8031576D01*
X9948404Y8038884D01*
X9946100Y8039879D01*
X9930561Y8044884D01*
X9917390Y8043843D01*
X9906180Y8039742D01*
X9886640Y8026249D01*
X9873806Y8006723D01*
X9869724Y7984753D01*
X9870667Y7977483D01*
X9877344Y7963257D01*
X9889713Y7947577D01*
X9895220Y7942277D01*
X9906850Y7930905D01*
X9911514Y7921194D01*
X9909029Y7910110D01*
X9899210Y7894619D01*
X9891722Y7884574D01*
X9881111Y7870601D01*
X9858392Y7886039D01*
X9833996Y7898470D01*
X9812324Y7900032D01*
X9791752Y7890737D01*
X9786528Y7886667D01*
X9770452Y7866651D01*
X9764846Y7844178D01*
X9769514Y7821652D01*
X9784258Y7801472D01*
X9794139Y7793791D01*
X9805249Y7784691D01*
X9808045Y7775387D01*
X9802528Y7762864D01*
X9794141Y7751119D01*
X9782026Y7737094D01*
X9772208Y7732509D01*
X9761067Y7736686D01*
X9752083Y7743240D01*
X9730770Y7753541D01*
X9708358Y7754074D01*
X9687545Y7746163D01*
X9671032Y7731127D01*
X9661519Y7710289D01*
X9660230Y7698276D01*
X9661898Y7683801D01*
X9668441Y7671554D01*
X9682165Y7657468D01*
X9684629Y7655261D01*
X9709027Y7633609D01*
X9691155Y7609306D01*
X9680496Y7595532D01*
X9672664Y7586724D01*
X9670298Y7585003D01*
X9663963Y7588065D01*
X9652554Y7595519D01*
X9651401Y7596334D01*
X9626784Y7609432D01*
X9604237Y7611611D01*
X9587191Y7605931D01*
X9568895Y7592513D01*
X9559427Y7574359D01*
X9557083Y7552477D01*
X9558868Y7537436D01*
X9565780Y7524642D01*
X9580154Y7509797D01*
X9580365Y7509603D01*
X9603648Y7488302D01*
X9510131Y7359368D01*
X9485149Y7325287D01*
X9462040Y7294448D01*
X9441786Y7268105D01*
X9425365Y7247511D01*
X9413758Y7233920D01*
X9407944Y7228586D01*
X9407872Y7228567D01*
X9399810Y7229742D01*
X9382490Y7234119D01*
X9357764Y7241165D01*
X9327487Y7250350D01*
X9293509Y7261144D01*
X9289101Y7262577D01*
X9254138Y7273977D01*
X9222082Y7284428D01*
X9194952Y7293272D01*
X9174768Y7299849D01*
X9163547Y7303503D01*
X9163101Y7303649D01*
X9147131Y7308841D01*
X9125007Y7239001D01*
X9113963Y7205988D01*
X9105123Y7183808D01*
X9098213Y7171839D01*
X9094093Y7169188D01*
X9086197Y7170980D01*
X9068516Y7176090D01*
X9042184Y7184145D01*
X9008335Y7194769D01*
X8968102Y7207588D01*
X8922621Y7222227D01*
X8873026Y7238313D01*
X8820451Y7255471D01*
X8766030Y7273326D01*
X8710898Y7291504D01*
X8656188Y7309631D01*
X8603035Y7327333D01*
X8552574Y7344233D01*
X8505938Y7359960D01*
X8464262Y7374137D01*
X8428680Y7386391D01*
X8400326Y7396348D01*
X8380335Y7403632D01*
X8369841Y7407869D01*
X8368513Y7408695D01*
X8369443Y7416474D01*
X8373554Y7432875D01*
X8378555Y7449931D01*
X8451155Y7449931D01*
X8451545Y7444663D01*
X8460393Y7441557D01*
X8478756Y7435393D01*
X8505396Y7426572D01*
X8539076Y7415495D01*
X8578559Y7402565D01*
X8622609Y7388180D01*
X8669988Y7372744D01*
X8719461Y7356657D01*
X8769789Y7340321D01*
X8819737Y7324136D01*
X8868067Y7308504D01*
X8913542Y7293827D01*
X8954926Y7280504D01*
X8990981Y7268939D01*
X9020472Y7259531D01*
X9042160Y7252683D01*
X9054810Y7248795D01*
X9057624Y7248049D01*
X9059889Y7253731D01*
X9065265Y7268854D01*
X9073172Y7291733D01*
X9083028Y7320684D01*
X9094254Y7354025D01*
X9096720Y7361393D01*
X9134191Y7473472D01*
X9106816Y7481687D01*
X9095851Y7485111D01*
X9074944Y7491766D01*
X9045303Y7501264D01*
X9008134Y7513216D01*
X8964645Y7527234D01*
X8916042Y7542929D01*
X8863531Y7559912D01*
X8808321Y7577795D01*
X8803991Y7579199D01*
X8749543Y7596830D01*
X8698454Y7613336D01*
X8651812Y7628367D01*
X8610707Y7641573D01*
X8576228Y7652607D01*
X8549465Y7661118D01*
X8531508Y7666757D01*
X8523444Y7669175D01*
X8523155Y7669238D01*
X8519360Y7664278D01*
X8513074Y7650110D01*
X8504949Y7628774D01*
X8495634Y7602308D01*
X8485779Y7572750D01*
X8476034Y7542139D01*
X8467049Y7512514D01*
X8459475Y7485911D01*
X8453960Y7464371D01*
X8451155Y7449931D01*
X8378555Y7449931D01*
X8380173Y7455447D01*
X8388111Y7480185D01*
X8397831Y7510710D01*
X8403352Y7531635D01*
X8404936Y7544201D01*
X8402883Y7549625D01*
X8395331Y7552670D01*
X8378453Y7558584D01*
X8354113Y7566743D01*
X8324173Y7576524D01*
X8290497Y7587302D01*
X8288874Y7587816D01*
X8181802Y7621719D01*
X8078307Y7561829D01*
X7974812Y7501938D01*
X7988962Y7477538D01*
X7999032Y7460142D01*
X8012218Y7437321D01*
X8025786Y7413809D01*
X8026701Y7412222D01*
X8050290Y7371305D01*
X8034478Y7361639D01*
X8016039Y7350571D01*
X7989942Y7335201D01*
X7957233Y7316125D01*
X7918957Y7293939D01*
X7876162Y7269241D01*
X7829892Y7242626D01*
X7781195Y7214691D01*
X7731115Y7186033D01*
X7680699Y7157249D01*
X7630994Y7128934D01*
X7583044Y7101685D01*
X7537897Y7076100D01*
X7496597Y7052773D01*
X7460192Y7032303D01*
X7429727Y7015285D01*
X7406248Y7002316D01*
X7390801Y6993992D01*
X7384432Y6990910D01*
X7384394Y6990905D01*
X7376711Y6995753D01*
X7364646Y7010838D01*
X7348560Y7035679D01*
X7340782Y7048754D01*
X7326883Y7072028D01*
X7314806Y7091224D01*
X7305905Y7104252D01*
X7301670Y7109004D01*
X7295292Y7106711D01*
X7280455Y7099351D01*
X7258803Y7087802D01*
X7231980Y7072942D01*
X7201628Y7055649D01*
X7199108Y7054194D01*
X7101476Y6997740D01*
X7101476Y6755123D01*
X7101476Y6512506D01*
X7206968Y6512506D01*
X7312459Y6512506D01*
X7312459Y6480273D01*
X7312459Y6448039D01*
X7066312Y6448039D01*
X6820166Y6448039D01*
X6820166Y6480273D01*
X6820166Y6512506D01*
X6928587Y6512506D01*
X7037009Y6512506D01*
X7037009Y6755112D01*
X7037009Y6997718D01*
X6935913Y7056472D01*
X6901259Y7076497D01*
X6875280Y7091131D01*
X6856593Y7100997D01*
X6843815Y7106718D01*
X6835561Y7108918D01*
X6830446Y7108219D01*
X6827229Y7105433D01*
X6821273Y7096382D01*
X6811218Y7079726D01*
X6798639Y7058112D01*
X6789135Y7041380D01*
X6773786Y7015245D01*
X6762443Y6998819D01*
X6754339Y6991105D01*
X6749838Y6990468D01*
X6742246Y6994340D01*
X6725810Y7003403D01*
X6701556Y7017061D01*
X6670512Y7034719D01*
X6633706Y7055778D01*
X6592166Y7079644D01*
X6546918Y7105720D01*
X6498991Y7133408D01*
X6449412Y7162114D01*
X6399209Y7191239D01*
X6349408Y7220189D01*
X6301038Y7248366D01*
X6255127Y7275174D01*
X6212701Y7300017D01*
X6174789Y7322297D01*
X6142417Y7341420D01*
X6116614Y7356787D01*
X6098407Y7367804D01*
X6088823Y7373873D01*
X6087586Y7374865D01*
X6090345Y7381150D01*
X6097757Y7395268D01*
X6176084Y7395268D01*
X6181459Y7392049D01*
X6196058Y7383521D01*
X6218946Y7370223D01*
X6249191Y7352698D01*
X6285858Y7331485D01*
X6328014Y7307124D01*
X6374724Y7280156D01*
X6425056Y7251121D01*
X6453876Y7234505D01*
X6517100Y7198156D01*
X6570873Y7167455D01*
X6615822Y7142065D01*
X6652574Y7121650D01*
X6681756Y7105872D01*
X6703994Y7094394D01*
X6719915Y7086878D01*
X6730147Y7082988D01*
X6735315Y7082386D01*
X6735937Y7082757D01*
X6740864Y7089911D01*
X6750521Y7105502D01*
X6763854Y7127773D01*
X6779811Y7154967D01*
X6796130Y7183219D01*
X6815649Y7217681D01*
X6829586Y7243422D01*
X6838519Y7261694D01*
X6843022Y7273747D01*
X6843674Y7280834D01*
X6842264Y7283408D01*
X6835773Y7287662D01*
X6820387Y7296970D01*
X6797245Y7310678D01*
X6767485Y7328130D01*
X6732247Y7348672D01*
X6692667Y7371649D01*
X6649885Y7396406D01*
X6605039Y7422287D01*
X6559267Y7448639D01*
X6513709Y7474806D01*
X6469502Y7500134D01*
X6427785Y7523967D01*
X6389696Y7545650D01*
X6356374Y7564530D01*
X6328957Y7579950D01*
X6308584Y7591256D01*
X6296393Y7597793D01*
X6293325Y7599180D01*
X6289374Y7594234D01*
X6280876Y7580989D01*
X6268900Y7561306D01*
X6254516Y7537044D01*
X6238793Y7510064D01*
X6222802Y7482226D01*
X6207611Y7455389D01*
X6194289Y7431414D01*
X6183907Y7412162D01*
X6177534Y7399491D01*
X6176084Y7395268D01*
X6097757Y7395268D01*
X6097865Y7395473D01*
X6109017Y7415739D01*
X6122668Y7439856D01*
X6123411Y7441150D01*
X6136940Y7465146D01*
X6147774Y7485165D01*
X6154862Y7499207D01*
X6157155Y7505271D01*
X6157109Y7505345D01*
X6151609Y7508686D01*
X6137543Y7516953D01*
X6116504Y7529219D01*
X6090082Y7544556D01*
X6059867Y7562038D01*
X6056780Y7563821D01*
X6022416Y7583530D01*
X5996618Y7597889D01*
X5977894Y7607562D01*
X5964752Y7613219D01*
X5955701Y7615526D01*
X5949248Y7615149D01*
X5945428Y7613621D01*
X5937864Y7609397D01*
X5921921Y7600325D01*
X5899029Y7587229D01*
X5870617Y7570930D01*
X5838112Y7552254D01*
X5802944Y7532022D01*
X5766542Y7511058D01*
X5730334Y7490185D01*
X5695749Y7470227D01*
X5664217Y7452006D01*
X5637166Y7436347D01*
X5616024Y7424072D01*
X5602221Y7416005D01*
X5597192Y7412975D01*
X5599695Y7407863D01*
X5607279Y7394090D01*
X5619116Y7373117D01*
X5634378Y7346408D01*
X5652237Y7315423D01*
X5660765Y7300707D01*
X5679801Y7267818D01*
X5696888Y7238116D01*
X5711128Y7213176D01*
X5721626Y7194570D01*
X5727482Y7183874D01*
X5728332Y7182145D01*
X5726723Y7180325D01*
X5719741Y7178778D01*
X5706561Y7177476D01*
X5686357Y7176392D01*
X5658306Y7175496D01*
X5621581Y7174761D01*
X5575357Y7174157D01*
X5518810Y7173656D01*
X5473100Y7173354D01*
X5214905Y7171828D01*
X5279042Y7060476D01*
X5297743Y7027880D01*
X5314297Y6998784D01*
X5327862Y6974686D01*
X5337596Y6957087D01*
X5342657Y6947487D01*
X5343187Y6946193D01*
X5338557Y6941701D01*
X5327235Y6934325D01*
X5313090Y6926266D01*
X5299992Y6919723D01*
X5291809Y6916895D01*
X5291640Y6916890D01*
X5287330Y6921765D01*
X5278175Y6935436D01*
X5265056Y6956473D01*
X5248855Y6983443D01*
X5230454Y7014917D01*
X5219543Y7033929D01*
X5200325Y7067299D01*
X5182861Y7096979D01*
X5168027Y7121536D01*
X5156694Y7139540D01*
X5149736Y7149556D01*
X5148078Y7151142D01*
X5141996Y7148358D01*
X5127075Y7140397D01*
X5104603Y7127980D01*
X5075870Y7111829D01*
X5042165Y7092664D01*
X5004777Y7071208D01*
X4991261Y7063406D01*
X4953010Y7041344D01*
X4918112Y7021309D01*
X4887834Y7004023D01*
X4863445Y6990205D01*
X4846212Y6980576D01*
X4837403Y6975855D01*
X4836543Y6975497D01*
X4832238Y6980024D01*
X4824862Y6991200D01*
X4816487Y7005414D01*
X4809186Y7019058D01*
X4805032Y7028523D01*
X4804860Y7030657D01*
X4810297Y7033952D01*
X4824613Y7042353D01*
X4846532Y7055118D01*
X4874775Y7071504D01*
X4908063Y7090769D01*
X4945120Y7112172D01*
X4956483Y7118727D01*
X4994562Y7140746D01*
X5029376Y7160994D01*
X5059619Y7178699D01*
X5083982Y7193092D01*
X5101158Y7203404D01*
X5109840Y7208865D01*
X5110568Y7209418D01*
X5109078Y7215545D01*
X5102384Y7230298D01*
X5100825Y7233365D01*
X5224915Y7233365D01*
X5424489Y7233365D01*
X5624063Y7233365D01*
X5538727Y7381346D01*
X5516275Y7420284D01*
X5495153Y7456926D01*
X5476237Y7489751D01*
X5460402Y7517239D01*
X5448523Y7537870D01*
X5441478Y7550125D01*
X5440828Y7551259D01*
X5432381Y7564679D01*
X5426014Y7572458D01*
X5424622Y7573236D01*
X5420893Y7568366D01*
X5412106Y7554567D01*
X5399012Y7533089D01*
X5382363Y7505183D01*
X5362909Y7472102D01*
X5341401Y7435095D01*
X5334059Y7422370D01*
X5311515Y7383237D01*
X5290385Y7346574D01*
X5271514Y7313846D01*
X5255748Y7286520D01*
X5243934Y7266062D01*
X5236915Y7253939D01*
X5236027Y7252412D01*
X5224915Y7233365D01*
X5100825Y7233365D01*
X5091246Y7252208D01*
X5076423Y7279811D01*
X5058676Y7311640D01*
X5046845Y7332322D01*
X5027617Y7365845D01*
X5010666Y7395823D01*
X4996780Y7420828D01*
X4986744Y7439434D01*
X4981348Y7450213D01*
X4980670Y7452335D01*
X4990694Y7458677D01*
X5005006Y7466645D01*
X5019488Y7474081D01*
X5030020Y7478824D01*
X5032511Y7479511D01*
X5036774Y7474651D01*
X5045883Y7461051D01*
X5058928Y7440179D01*
X5074998Y7413507D01*
X5093183Y7382503D01*
X5100908Y7369107D01*
X5164275Y7258703D01*
X5292386Y7480459D01*
X5319273Y7526839D01*
X5344431Y7569930D01*
X5367246Y7608699D01*
X5387103Y7642117D01*
X5403387Y7669154D01*
X5415483Y7688779D01*
X5422776Y7699960D01*
X5424674Y7702215D01*
X5428656Y7697354D01*
X5437547Y7683720D01*
X5450473Y7662741D01*
X5466567Y7635842D01*
X5484956Y7604451D01*
X5495955Y7585402D01*
X5563059Y7468588D01*
X5592362Y7485594D01*
X5604990Y7492893D01*
X5626187Y7505111D01*
X5654360Y7521333D01*
X5687915Y7540639D01*
X5725257Y7562113D01*
X5764792Y7584837D01*
X5772423Y7589221D01*
X5923180Y7675843D01*
X5923334Y7794521D01*
X5923488Y7913198D01*
X5850230Y7913198D01*
X5776972Y7913198D01*
X5776972Y8300000D01*
X5835579Y8300000D01*
X5835579Y7977665D01*
X5955722Y7977665D01*
X6075865Y7977665D01*
X6075865Y8300000D01*
X6075865Y8622335D01*
X5955722Y8622335D01*
X5835579Y8622335D01*
X5835579Y8300000D01*
X5776972Y8300000D01*
X5776972Y8622335D01*
X5776972Y8686802D01*
X5850230Y8686802D01*
X5923488Y8686802D01*
X5987713Y8686802D01*
X6064022Y8686802D01*
X6140332Y8686802D01*
X6140332Y8300000D01*
X6140332Y7913198D01*
X6064022Y7913198D01*
X5987713Y7913198D01*
X5989299Y7795071D01*
X5990886Y7676944D01*
X6090516Y7619372D01*
X6124862Y7599634D01*
X6150530Y7585257D01*
X6168922Y7575617D01*
X6181440Y7570093D01*
X6189487Y7568064D01*
X6194464Y7568907D01*
X6197666Y7571854D01*
X6203606Y7581015D01*
X6213668Y7597755D01*
X6226272Y7619412D01*
X6235760Y7636068D01*
X6248650Y7658110D01*
X6259715Y7675568D01*
X6267595Y7686387D01*
X6270654Y7688895D01*
X6277519Y7685442D01*
X6293314Y7676749D01*
X6317016Y7663410D01*
X6347598Y7646021D01*
X6384037Y7625176D01*
X6425307Y7601469D01*
X6470383Y7575497D01*
X6518241Y7547852D01*
X6567855Y7519131D01*
X6618202Y7489929D01*
X6668255Y7460839D01*
X6716991Y7432457D01*
X6763384Y7405377D01*
X6806410Y7380195D01*
X6845043Y7357505D01*
X6878259Y7337903D01*
X6905033Y7321982D01*
X6924340Y7310337D01*
X6935156Y7303564D01*
X6937148Y7302067D01*
X6934441Y7295516D01*
X6926894Y7281012D01*
X6915656Y7260679D01*
X6901871Y7236642D01*
X6901451Y7235921D01*
X6887893Y7212010D01*
X6877217Y7191885D01*
X6870461Y7177599D01*
X6868664Y7171208D01*
X6868717Y7171138D01*
X6874567Y7167349D01*
X6888973Y7158684D01*
X6910322Y7146092D01*
X6937001Y7130527D01*
X6967395Y7112937D01*
X6970507Y7111144D01*
X7069102Y7054344D01*
X7169486Y7112295D01*
X7269869Y7170247D01*
X7232711Y7235364D01*
X7219077Y7260069D01*
X7211228Y7275452D01*
X7289253Y7275452D01*
X7293753Y7262329D01*
X7304640Y7241047D01*
X7310678Y7230363D01*
X7338379Y7182402D01*
X7360732Y7144088D01*
X7378092Y7114831D01*
X7390818Y7094039D01*
X7399266Y7081122D01*
X7403793Y7075489D01*
X7404491Y7075127D01*
X7410070Y7077973D01*
X7424861Y7086155D01*
X7447928Y7099141D01*
X7478338Y7116399D01*
X7515154Y7137395D01*
X7557444Y7161597D01*
X7604272Y7188473D01*
X7654703Y7217490D01*
X7684782Y7234830D01*
X7961635Y7394532D01*
X7948104Y7417975D01*
X7940390Y7431343D01*
X7928239Y7452403D01*
X7913073Y7478693D01*
X7896311Y7507752D01*
X7888710Y7520930D01*
X7842847Y7600443D01*
X7570327Y7442994D01*
X7518526Y7413064D01*
X7469690Y7384842D01*
X7424776Y7358883D01*
X7384746Y7335743D01*
X7350558Y7315975D01*
X7323171Y7300134D01*
X7303546Y7288775D01*
X7292640Y7282452D01*
X7290770Y7281361D01*
X7289253Y7275452D01*
X7211228Y7275452D01*
X7208370Y7281052D01*
X7201558Y7296293D01*
X7199609Y7303772D01*
X7199795Y7304099D01*
X7207455Y7309220D01*
X7224030Y7319318D01*
X7248483Y7333803D01*
X7279776Y7352087D01*
X7316874Y7373583D01*
X7358740Y7397701D01*
X7404337Y7423853D01*
X7452629Y7451451D01*
X7502580Y7479906D01*
X7553152Y7508630D01*
X7603308Y7537035D01*
X7652014Y7564531D01*
X7698231Y7590531D01*
X7740923Y7614446D01*
X7779054Y7635688D01*
X7811588Y7653669D01*
X7837487Y7667799D01*
X7855714Y7677491D01*
X7865234Y7682156D01*
X7866371Y7682483D01*
X7871900Y7676539D01*
X7881612Y7662413D01*
X7894124Y7642238D01*
X7907642Y7618877D01*
X7941749Y7558019D01*
X8043209Y7616592D01*
X8144670Y7675165D01*
X8144670Y7680840D01*
X8144670Y7829346D01*
X8144670Y7983526D01*
X8162440Y7983526D01*
X8190346Y7987824D01*
X8212364Y7999403D01*
X8227498Y8016295D01*
X8234751Y8036529D01*
X8233127Y8058137D01*
X8221631Y8079149D01*
X8214521Y8086518D01*
X8202205Y8093028D01*
X8183684Y8098036D01*
X8174032Y8099409D01*
X8144670Y8102230D01*
X8144670Y8133718D01*
X8144670Y8165206D01*
X8170593Y8165206D01*
X8196028Y8169642D01*
X8216606Y8181563D01*
X8230533Y8198889D01*
X8236015Y8219539D01*
X8232948Y8237494D01*
X8219436Y8259719D01*
X8199067Y8272617D01*
X8172868Y8276558D01*
X8144670Y8276558D01*
X8144670Y8308791D01*
X8144670Y8341025D01*
X8166647Y8341047D01*
X8192661Y8345469D01*
X8214005Y8357323D01*
X8228940Y8374571D01*
X8235724Y8395175D01*
X8232619Y8417098D01*
X8232292Y8417906D01*
X8218108Y8437903D01*
X8196277Y8452014D01*
X8170251Y8458120D01*
X8166647Y8458216D01*
X8144670Y8458238D01*
X8144670Y8490471D01*
X8144670Y8522705D01*
X8172868Y8522705D01*
X8200262Y8527077D01*
X8220273Y8540435D01*
X8232948Y8561768D01*
X8235732Y8583591D01*
X8228598Y8603797D01*
X8213342Y8620303D01*
X8191758Y8631031D01*
X8170593Y8634057D01*
X8144670Y8634057D01*
X8144551Y8779108D01*
X8144437Y8918844D01*
X8209137Y8918844D01*
X8209349Y8807219D01*
X8209561Y8695593D01*
X8233957Y8683872D01*
X8253314Y8671477D01*
X8271666Y8654943D01*
X8275971Y8649956D01*
X8286635Y8634212D01*
X8292612Y8617821D01*
X8295593Y8595749D01*
X8295963Y8590464D01*
X8295247Y8553615D01*
X8288215Y8524243D01*
X8275205Y8503697D01*
X8273831Y8502398D01*
X8267830Y8496119D01*
X8266603Y8489893D01*
X8270703Y8480362D01*
X8279912Y8465378D01*
X8289832Y8447669D01*
X8295036Y8431167D01*
X8296915Y8410541D01*
X8297046Y8399631D01*
X8296131Y8375767D01*
X8292461Y8358215D01*
X8284647Y8341647D01*
X8279912Y8333884D01*
X8270300Y8318180D01*
X8266533Y8308940D01*
X8268059Y8302804D01*
X8273831Y8296864D01*
X8287311Y8277182D01*
X8294885Y8248625D01*
X8296185Y8212651D01*
X8295994Y8209284D01*
X8293044Y8184363D01*
X8286962Y8166117D01*
X8277743Y8151618D01*
X8268753Y8137497D01*
X8266709Y8128546D01*
X8267803Y8127074D01*
X8273909Y8119943D01*
X8282342Y8106263D01*
X8286016Y8099384D01*
X8293173Y8082032D01*
X8296309Y8063636D01*
X8296209Y8039239D01*
X8296043Y8036132D01*
X8289807Y7998479D01*
X8275482Y7968896D01*
X8252523Y7946483D01*
X8235896Y7936828D01*
X8209137Y7923874D01*
X8209137Y7802357D01*
X8209137Y7680840D01*
X8319024Y7645659D01*
X8428910Y7610478D01*
X8453088Y7681254D01*
X8462547Y7707770D01*
X8471103Y7729613D01*
X8477894Y7744725D01*
X8482055Y7751047D01*
X8482392Y7751111D01*
X8489990Y7748951D01*
X8507431Y7743544D01*
X8533575Y7735262D01*
X8567283Y7724476D01*
X8607415Y7711558D01*
X8652833Y7696880D01*
X8702398Y7680814D01*
X8754971Y7663731D01*
X8809413Y7646003D01*
X8864584Y7628003D01*
X8919346Y7610101D01*
X8972560Y7592670D01*
X9023086Y7576082D01*
X9069786Y7560707D01*
X9111520Y7546919D01*
X9147150Y7535088D01*
X9175537Y7525587D01*
X9195540Y7518787D01*
X9206023Y7515060D01*
X9207321Y7514494D01*
X9207504Y7507627D01*
X9204493Y7491939D01*
X9198818Y7469726D01*
X9191006Y7443281D01*
X9190556Y7441849D01*
X9182517Y7415357D01*
X9176343Y7393124D01*
X9172619Y7377400D01*
X9171931Y7370438D01*
X9171992Y7370355D01*
X9178942Y7367056D01*
X9194739Y7361241D01*
X9217273Y7353568D01*
X9244431Y7344695D01*
X9274102Y7335278D01*
X9304174Y7325977D01*
X9332534Y7317448D01*
X9357072Y7310350D01*
X9375675Y7305341D01*
X9386232Y7303077D01*
X9387800Y7303135D01*
X9392251Y7308794D01*
X9402401Y7322371D01*
X9417087Y7342289D01*
X9435141Y7366965D01*
X9453524Y7392236D01*
X9515642Y7477849D01*
X9503756Y7500658D01*
X9495124Y7527434D01*
X9492969Y7558820D01*
X9497049Y7590204D01*
X9507122Y7616969D01*
X9510104Y7621758D01*
X9525688Y7639659D01*
X9545426Y7655779D01*
X9565740Y7667663D01*
X9583053Y7672855D01*
X9584629Y7672912D01*
X9592590Y7674022D01*
X9596599Y7679315D01*
X9597984Y7691736D01*
X9598108Y7702795D01*
X9603475Y7738523D01*
X9618660Y7769880D01*
X9642283Y7794976D01*
X9672965Y7811916D01*
X9679074Y7813936D01*
X9692655Y7818681D01*
X9699373Y7824783D01*
X9701784Y7836096D01*
X9702272Y7848927D01*
X9708602Y7884820D01*
X9725000Y7916196D01*
X9750142Y7941301D01*
X9782704Y7958383D01*
X9785648Y7959369D01*
X9797956Y7964119D01*
X9804082Y7970514D01*
X9806303Y7982365D01*
X9806726Y7994674D01*
X9812658Y8027060D01*
X9827765Y8057581D01*
X9849907Y8082432D01*
X9860319Y8089973D01*
X9875890Y8097852D01*
X9893585Y8102338D01*
X9917564Y8104355D01*
X9926303Y8104610D01*
X9970258Y8105552D01*
X10041570Y8203242D01*
X10112883Y8300933D01*
X10047431Y8391144D01*
X10026746Y8419314D01*
X10008216Y8443907D01*
X9992989Y8463451D01*
X9982214Y8476474D01*
X9977038Y8481503D01*
X9976945Y8481518D01*
X9970448Y8478306D01*
X9956706Y8469476D01*
X9937850Y8456447D01*
X9919711Y8443366D01*
X9897902Y8427593D01*
X9879157Y8414465D01*
X9865725Y8405533D01*
X9860278Y8402436D01*
X9855879Y8406639D01*
X9845342Y8419403D01*
X9829371Y8439769D01*
X9808667Y8466780D01*
X9783933Y8499478D01*
X9755872Y8536905D01*
X9725186Y8578103D01*
X9692579Y8622114D01*
X9658753Y8667981D01*
X9624410Y8714745D01*
X9590253Y8761450D01*
X9556984Y8807136D01*
X9525307Y8850846D01*
X9495925Y8891623D01*
X9469539Y8928508D01*
X9446852Y8960543D01*
X9428567Y8986772D01*
X9415387Y9006235D01*
X9410047Y9014738D01*
X9496269Y9014738D01*
X9498460Y9009133D01*
X9506918Y8995220D01*
X9520887Y8974041D01*
X9539607Y8946638D01*
X9562321Y8914053D01*
X9588269Y8877327D01*
X9616694Y8837502D01*
X9646837Y8795619D01*
X9677940Y8752720D01*
X9709243Y8709848D01*
X9739990Y8668043D01*
X9769421Y8628348D01*
X9796779Y8591803D01*
X9821304Y8559452D01*
X9842238Y8532335D01*
X9858823Y8511494D01*
X9870301Y8497970D01*
X9875913Y8492807D01*
X9876231Y8492836D01*
X9882751Y8497640D01*
X9897160Y8508122D01*
X9917836Y8523108D01*
X9943158Y8541423D01*
X9970258Y8560991D01*
X9998162Y8581127D01*
X10022646Y8598798D01*
X10042181Y8612901D01*
X10055240Y8622334D01*
X10060286Y8625986D01*
X10057254Y8630763D01*
X10048097Y8643979D01*
X10033573Y8664584D01*
X10014436Y8691525D01*
X9991445Y8723754D01*
X9965355Y8760219D01*
X9936923Y8799869D01*
X9906905Y8841655D01*
X9876057Y8884526D01*
X9845136Y8927431D01*
X9814899Y8969319D01*
X9786101Y9009140D01*
X9759499Y9045843D01*
X9735850Y9078379D01*
X9715910Y9105695D01*
X9700435Y9126743D01*
X9690181Y9140470D01*
X9686306Y9145408D01*
X9680961Y9143202D01*
X9667879Y9135353D01*
X9648828Y9123075D01*
X9625575Y9107584D01*
X9599888Y9090096D01*
X9573535Y9071825D01*
X9548283Y9053988D01*
X9525899Y9037799D01*
X9508152Y9024475D01*
X9496809Y9015230D01*
X9496269Y9014738D01*
X9410047Y9014738D01*
X9408014Y9017975D01*
X9406697Y9020757D01*
X9410548Y9028414D01*
X9423934Y9041495D01*
X9446283Y9059483D01*
X9463215Y9072024D01*
X9521794Y9114398D01*
X9454031Y9207335D01*
X9386269Y9300271D01*
X9276131Y9264996D01*
X9165994Y9229722D01*
X9189330Y9159962D01*
X9197804Y9133150D01*
X9204074Y9110368D01*
X9207583Y9093878D01*
X9207775Y9085942D01*
X9207590Y9085706D01*
X9201268Y9083161D01*
X9184741Y9077337D01*
X9158962Y9068550D01*
X9124882Y9057115D01*
X9083455Y9043350D01*
X9035631Y9027570D01*
X8982363Y9010091D01*
X8924603Y8991228D01*
X8863303Y8971299D01*
X8846051Y8965706D01*
X8783900Y8945561D01*
X8724979Y8926452D01*
X8670246Y8908690D01*
X8620658Y8892585D01*
X8577174Y8878450D01*
X8540751Y8866596D01*
X8512347Y8857334D01*
X8492920Y8850976D01*
X8483427Y8847833D01*
X8482691Y8847576D01*
X8477891Y8851834D01*
X8470713Y8866852D01*
X8461436Y8891973D01*
X8453196Y8917275D01*
X8430597Y8989600D01*
X8319867Y8954222D01*
X8209137Y8918844D01*
X8144437Y8918844D01*
X8144433Y8924158D01*
X8044361Y8981717D01*
X8013636Y8999254D01*
X7986566Y9014446D01*
X7964711Y9026440D01*
X7949630Y9034381D01*
X7942882Y9037416D01*
X7942682Y9037393D01*
X7939294Y9031893D01*
X7931215Y9018254D01*
X7919628Y8998482D01*
X7905713Y8974583D01*
X7904568Y8972612D01*
X7889226Y8946470D01*
X7878332Y8929074D01*
X7870599Y8918948D01*
X7864738Y8914618D01*
X7859462Y8914607D01*
X7855454Y8916364D01*
X7845912Y8921648D01*
X7827706Y8931969D01*
X7801876Y8946725D01*
X7769462Y8965315D01*
X7731504Y8987137D01*
X7689042Y9011590D01*
X7643116Y9038072D01*
X7594766Y9065982D01*
X7545032Y9094718D01*
X7494953Y9123679D01*
X7445571Y9152264D01*
X7397924Y9179871D01*
X7353054Y9205898D01*
X7311999Y9229744D01*
X7275800Y9250808D01*
X7245497Y9268488D01*
X7222129Y9282182D01*
X7206737Y9291290D01*
X7200362Y9295209D01*
X7200261Y9295292D01*
X7201613Y9301548D01*
X7208021Y9315801D01*
X7210361Y9320323D01*
X7284453Y9320323D01*
X7563650Y9159167D01*
X7615906Y9129112D01*
X7665101Y9101024D01*
X7710307Y9075421D01*
X7750596Y9052817D01*
X7785039Y9033730D01*
X7812708Y9018674D01*
X7832674Y9008165D01*
X7844009Y9002720D01*
X7846292Y9002109D01*
X7850160Y9008254D01*
X7858889Y9022937D01*
X7871520Y9044519D01*
X7887096Y9071362D01*
X7904657Y9101828D01*
X7906130Y9104391D01*
X7925528Y9138243D01*
X7939673Y9163380D01*
X7949154Y9181247D01*
X7954562Y9193291D01*
X7956489Y9200956D01*
X7955524Y9205687D01*
X7952258Y9208930D01*
X7949570Y9210682D01*
X7937014Y9218275D01*
X7916352Y9230451D01*
X7888715Y9246565D01*
X7855233Y9265969D01*
X7817038Y9288016D01*
X7775262Y9312059D01*
X7731035Y9337452D01*
X7685490Y9363548D01*
X7639756Y9389700D01*
X7594966Y9415261D01*
X7552251Y9439585D01*
X7512742Y9462025D01*
X7477570Y9481933D01*
X7447866Y9498663D01*
X7424762Y9511568D01*
X7409389Y9520002D01*
X7402879Y9523318D01*
X7402738Y9523336D01*
X7399330Y9517887D01*
X7390987Y9503852D01*
X7378627Y9482799D01*
X7363172Y9456296D01*
X7345540Y9425911D01*
X7342605Y9420839D01*
X7284453Y9320323D01*
X7210361Y9320323D01*
X7218480Y9336014D01*
X7231986Y9360152D01*
X7233837Y9363340D01*
X7247808Y9387560D01*
X7259184Y9407747D01*
X7266894Y9421964D01*
X7269866Y9428277D01*
X7269847Y9428417D01*
X7262032Y9433314D01*
X7246415Y9442523D01*
X7224905Y9454964D01*
X7199407Y9469559D01*
X7171829Y9485229D01*
X7144078Y9500896D01*
X7118061Y9515481D01*
X7095685Y9527906D01*
X7078856Y9537091D01*
X7069483Y9541958D01*
X7068230Y9542455D01*
X7061972Y9539666D01*
X7047209Y9531895D01*
X7025573Y9520040D01*
X6998701Y9504997D01*
X6968225Y9487663D01*
X6965106Y9485875D01*
X6925773Y9462833D01*
X6896877Y9444820D01*
X6878308Y9431762D01*
X6869951Y9423583D01*
X6869508Y9421432D01*
X6873544Y9413370D01*
X6882143Y9397616D01*
X6893956Y9376602D01*
X6904952Y9357405D01*
X6917992Y9334445D01*
X6928477Y9315271D01*
X6935217Y9302105D01*
X6937114Y9297310D01*
X6932171Y9293991D01*
X6918090Y9285425D01*
X6895897Y9272205D01*
X6866617Y9254926D01*
X6831274Y9234181D01*
X6790893Y9210566D01*
X6746499Y9184673D01*
X6699117Y9157097D01*
X6649773Y9128431D01*
X6599489Y9099271D01*
X6549293Y9070209D01*
X6500207Y9041840D01*
X6453258Y9014758D01*
X6409470Y8989557D01*
X6369868Y8966830D01*
X6335477Y8947173D01*
X6307321Y8931179D01*
X6286426Y8919442D01*
X6273816Y8912555D01*
X6270582Y8910974D01*
X6266161Y8915145D01*
X6257504Y8927571D01*
X6245964Y8946200D01*
X6235829Y8963719D01*
X6222405Y8987274D01*
X6210402Y9007794D01*
X6201401Y9022606D01*
X6197735Y9028143D01*
X6194410Y9031244D01*
X6189457Y9032110D01*
X6181468Y9030121D01*
X6169037Y9024657D01*
X6150754Y9015098D01*
X6125213Y9000824D01*
X6091005Y8981216D01*
X6090516Y8980935D01*
X5990886Y8923512D01*
X5989299Y8805157D01*
X5987713Y8686802D01*
X5923488Y8686802D01*
X5923319Y8805480D01*
X5923150Y8924158D01*
X5839805Y8971853D01*
X5809633Y8989149D01*
X5772157Y9010677D01*
X5730222Y9034802D01*
X5686670Y9059888D01*
X5644344Y9084298D01*
X5629269Y9093001D01*
X5502078Y9166455D01*
X5450954Y9077540D01*
X5434239Y9048521D01*
X5419581Y9023171D01*
X5407961Y9003181D01*
X5400362Y8990242D01*
X5397802Y8986055D01*
X5391518Y8986410D01*
X5379288Y8991380D01*
X5364830Y8998948D01*
X5351861Y9007096D01*
X5344099Y9013804D01*
X5343285Y9015651D01*
X5346115Y9021970D01*
X5354097Y9037082D01*
X5366470Y9059660D01*
X5382474Y9088377D01*
X5401348Y9121905D01*
X5422331Y9158918D01*
X5444662Y9198088D01*
X5467581Y9238088D01*
X5490327Y9277591D01*
X5512140Y9315270D01*
X5532257Y9349797D01*
X5549920Y9379845D01*
X5564366Y9404087D01*
X5574836Y9421195D01*
X5580568Y9429843D01*
X5580973Y9430330D01*
X5587194Y9434389D01*
X5596070Y9433009D01*
X5610981Y9425600D01*
X5612311Y9424855D01*
X5626505Y9415785D01*
X5635120Y9408171D01*
X5636317Y9405753D01*
X5633531Y9399054D01*
X5625807Y9383993D01*
X5614101Y9362341D01*
X5599367Y9335872D01*
X5586017Y9312374D01*
X5569875Y9283503D01*
X5556450Y9258122D01*
X5546593Y9237959D01*
X5541158Y9224740D01*
X5540597Y9220291D01*
X5546408Y9216663D01*
X5561047Y9207971D01*
X5583179Y9194991D01*
X5611466Y9178493D01*
X5644572Y9159250D01*
X5681159Y9138035D01*
X5719890Y9115620D01*
X5759430Y9092778D01*
X5798441Y9070281D01*
X5835585Y9048902D01*
X5869527Y9029413D01*
X5898930Y9012586D01*
X5922455Y8999195D01*
X5938768Y8990011D01*
X5945428Y8986369D01*
X5950945Y8984499D01*
X5958008Y8984841D01*
X5968109Y8988063D01*
X5982739Y8994831D01*
X6003390Y9005813D01*
X6031554Y9021675D01*
X6056780Y9036180D01*
X6087288Y9053829D01*
X6114167Y9069431D01*
X6135823Y9082059D01*
X6150663Y9090783D01*
X6157095Y9094674D01*
X6157212Y9094759D01*
X6155300Y9100219D01*
X6148457Y9113744D01*
X6137748Y9133328D01*
X6124240Y9156965D01*
X6123514Y9158210D01*
X6109651Y9182336D01*
X6098740Y9201988D01*
X6175611Y9201988D01*
X6178339Y9196216D01*
X6185856Y9182252D01*
X6197057Y9162036D01*
X6210840Y9137509D01*
X6226100Y9110610D01*
X6241734Y9083281D01*
X6256637Y9057461D01*
X6269705Y9035091D01*
X6279836Y9018112D01*
X6284328Y9010877D01*
X6287106Y9007042D01*
X6290540Y9004832D01*
X6295875Y9004804D01*
X6304356Y9007516D01*
X6317229Y9013522D01*
X6335738Y9023381D01*
X6361129Y9037648D01*
X6394647Y9056881D01*
X6420133Y9071587D01*
X6463134Y9096412D01*
X6512839Y9125100D01*
X6565797Y9155661D01*
X6618559Y9186104D01*
X6667673Y9214438D01*
X6688301Y9226337D01*
X6725578Y9247896D01*
X6759893Y9267852D01*
X6789823Y9285371D01*
X6813946Y9299614D01*
X6830839Y9309747D01*
X6839077Y9314932D01*
X6839272Y9315073D01*
X6842415Y9318378D01*
X6843335Y9323261D01*
X6841410Y9331126D01*
X6836017Y9343382D01*
X6826533Y9361432D01*
X6812336Y9386683D01*
X6792802Y9420541D01*
X6791774Y9422312D01*
X6773492Y9453131D01*
X6756891Y9479820D01*
X6742956Y9500898D01*
X6732670Y9514882D01*
X6727016Y9520292D01*
X6726708Y9520298D01*
X6720042Y9517066D01*
X6704531Y9508652D01*
X6681306Y9495709D01*
X6651497Y9478889D01*
X6616234Y9458846D01*
X6576647Y9436232D01*
X6533867Y9411700D01*
X6489024Y9385903D01*
X6443247Y9359493D01*
X6397668Y9333124D01*
X6353416Y9307448D01*
X6311621Y9283118D01*
X6273414Y9260787D01*
X6239924Y9241107D01*
X6212283Y9224731D01*
X6191619Y9212312D01*
X6179064Y9204504D01*
X6175611Y9201988D01*
X6098740Y9201988D01*
X6098273Y9202829D01*
X6090533Y9217558D01*
X6087588Y9224394D01*
X6087586Y9224450D01*
X6092497Y9227941D01*
X6106543Y9236673D01*
X6128698Y9250049D01*
X6157933Y9267472D01*
X6193221Y9288343D01*
X6233534Y9312067D01*
X6277844Y9338045D01*
X6325124Y9365680D01*
X6374345Y9394375D01*
X6424481Y9423532D01*
X6474504Y9452554D01*
X6523385Y9480844D01*
X6570096Y9507805D01*
X6613612Y9532838D01*
X6652902Y9555348D01*
X6686941Y9574735D01*
X6714700Y9590404D01*
X6735151Y9601757D01*
X6747266Y9608195D01*
X6749838Y9609372D01*
X6755893Y9607317D01*
X6764953Y9597214D01*
X6777671Y9578194D01*
X6794109Y9550423D01*
X6808178Y9526607D01*
X6820557Y9507104D01*
X6829942Y9493871D01*
X6835031Y9488864D01*
X6835133Y9488863D01*
X6841726Y9491810D01*
X6856796Y9499731D01*
X6878682Y9511716D01*
X6905726Y9526854D01*
X6936265Y9544235D01*
X6938844Y9545715D01*
X7037009Y9602083D01*
X7037009Y9809625D01*
X7037009Y10017167D01*
X6898657Y10017167D01*
X6853204Y10017295D01*
X6818365Y10017720D01*
X6793039Y10018500D01*
X6776120Y10019695D01*
X6766506Y10021366D01*
X6763092Y10023572D01*
X6763162Y10024493D01*
X6766617Y10030976D01*
X6775327Y10046520D01*
X6788675Y10070045D01*
X6796706Y10084113D01*
X6872911Y10084113D01*
X6878546Y10083525D01*
X6894549Y10082987D01*
X6919566Y10082515D01*
X6952243Y10082128D01*
X6991226Y10081841D01*
X7035163Y10081673D01*
X7069822Y10081634D01*
X7266732Y10081634D01*
X7255620Y10100681D01*
X7249903Y10110545D01*
X7239182Y10129102D01*
X7224302Y10154888D01*
X7206107Y10186439D01*
X7185443Y10222289D01*
X7163154Y10260976D01*
X7157434Y10270906D01*
X7135418Y10308726D01*
X7115147Y10342779D01*
X7097373Y10371860D01*
X7082849Y10394766D01*
X7072328Y10410293D01*
X7066563Y10417237D01*
X7065812Y10417421D01*
X7061927Y10411458D01*
X7053134Y10396896D01*
X7040280Y10375200D01*
X7024211Y10347832D01*
X7005774Y10316256D01*
X6985817Y10281935D01*
X6965185Y10246333D01*
X6944728Y10210913D01*
X6925290Y10177139D01*
X6907719Y10146474D01*
X6892862Y10120381D01*
X6881567Y10100324D01*
X6874679Y10087767D01*
X6872911Y10084113D01*
X6796706Y10084113D01*
X6806041Y10100467D01*
X6826808Y10136706D01*
X6850358Y10177679D01*
X6876072Y10222306D01*
X6892132Y10250127D01*
X7018245Y10468436D01*
X6886972Y10468436D01*
X6755699Y10468436D01*
X6755699Y10500670D01*
X6755699Y10532903D01*
X6896354Y10532903D01*
X7037009Y10532903D01*
X7037009Y10714583D01*
X7037009Y10896263D01*
X7069243Y10896263D01*
X7101476Y10896263D01*
X7101476Y10714583D01*
G37*
D15*
%TO.C,REF\u002A\u002A*%
X17352600Y6341248D02*
X17369948Y6333666D01*
X17411356Y6300872D01*
X17446765Y6253453D01*
X17468664Y6202849D01*
X17472229Y6177902D01*
X17460279Y6143073D01*
X17434067Y6124643D01*
X17405964Y6113484D01*
X17393095Y6111428D01*
X17386829Y6126351D01*
X17374456Y6158825D01*
X17369028Y6173498D01*
X17338590Y6224256D01*
X17294520Y6249573D01*
X17238010Y6248794D01*
X17233825Y6247797D01*
X17203655Y6233493D01*
X17181476Y6205607D01*
X17166327Y6160713D01*
X17157250Y6095385D01*
X17153286Y6006196D01*
X17152914Y5958739D01*
X17152730Y5883929D01*
X17151522Y5832931D01*
X17148309Y5800529D01*
X17142109Y5781505D01*
X17131940Y5770644D01*
X17116819Y5762728D01*
X17115946Y5762330D01*
X17086828Y5750019D01*
X17072403Y5745486D01*
X17070186Y5759191D01*
X17068289Y5797075D01*
X17066847Y5854285D01*
X17065998Y5925973D01*
X17065829Y5978435D01*
X17066692Y6079953D01*
X17070070Y6156968D01*
X17077142Y6213977D01*
X17089088Y6255474D01*
X17107090Y6285957D01*
X17132327Y6309920D01*
X17157247Y6326645D01*
X17217171Y6348903D01*
X17286911Y6353924D01*
X17352600Y6341248D01*
G36*
X17352600Y6341248D02*
G01*
X17369948Y6333666D01*
X17411356Y6300872D01*
X17446765Y6253453D01*
X17468664Y6202849D01*
X17472229Y6177902D01*
X17460279Y6143073D01*
X17434067Y6124643D01*
X17405964Y6113484D01*
X17393095Y6111428D01*
X17386829Y6126351D01*
X17374456Y6158825D01*
X17369028Y6173498D01*
X17338590Y6224256D01*
X17294520Y6249573D01*
X17238010Y6248794D01*
X17233825Y6247797D01*
X17203655Y6233493D01*
X17181476Y6205607D01*
X17166327Y6160713D01*
X17157250Y6095385D01*
X17153286Y6006196D01*
X17152914Y5958739D01*
X17152730Y5883929D01*
X17151522Y5832931D01*
X17148309Y5800529D01*
X17142109Y5781505D01*
X17131940Y5770644D01*
X17116819Y5762728D01*
X17115946Y5762330D01*
X17086828Y5750019D01*
X17072403Y5745486D01*
X17070186Y5759191D01*
X17068289Y5797075D01*
X17066847Y5854285D01*
X17065998Y5925973D01*
X17065829Y5978435D01*
X17066692Y6079953D01*
X17070070Y6156968D01*
X17077142Y6213977D01*
X17089088Y6255474D01*
X17107090Y6285957D01*
X17132327Y6309920D01*
X17157247Y6326645D01*
X17217171Y6348903D01*
X17286911Y6353924D01*
X17352600Y6341248D01*
G37*
X13416093Y6372220D02*
X13462672Y6345277D01*
X13495057Y6318534D01*
X13518742Y6290516D01*
X13535059Y6256252D01*
X13545339Y6210773D01*
X13550914Y6149108D01*
X13553116Y6066289D01*
X13553371Y6006754D01*
X13553371Y5787609D01*
X13491686Y5759956D01*
X13430000Y5732303D01*
X13422743Y5972330D01*
X13419744Y6061972D01*
X13416598Y6127038D01*
X13412701Y6171974D01*
X13407447Y6201230D01*
X13400231Y6219252D01*
X13390450Y6230489D01*
X13387312Y6232921D01*
X13339761Y6251917D01*
X13291697Y6244400D01*
X13263086Y6224457D01*
X13251447Y6210325D01*
X13243391Y6191780D01*
X13238271Y6163666D01*
X13235441Y6120827D01*
X13234256Y6058105D01*
X13234057Y5992739D01*
X13234018Y5910732D01*
X13232614Y5852684D01*
X13227914Y5813535D01*
X13217987Y5788220D01*
X13200903Y5771677D01*
X13174732Y5758844D01*
X13139775Y5745509D01*
X13101596Y5730993D01*
X13106141Y5988611D01*
X13107971Y6081481D01*
X13110112Y6150111D01*
X13113181Y6199289D01*
X13117794Y6233802D01*
X13124568Y6258438D01*
X13134119Y6277984D01*
X13145634Y6295230D01*
X13201190Y6350320D01*
X13268980Y6382178D01*
X13342713Y6389809D01*
X13416093Y6372220D01*
G36*
X13416093Y6372220D02*
G01*
X13462672Y6345277D01*
X13495057Y6318534D01*
X13518742Y6290516D01*
X13535059Y6256252D01*
X13545339Y6210773D01*
X13550914Y6149108D01*
X13553116Y6066289D01*
X13553371Y6006754D01*
X13553371Y5787609D01*
X13491686Y5759956D01*
X13430000Y5732303D01*
X13422743Y5972330D01*
X13419744Y6061972D01*
X13416598Y6127038D01*
X13412701Y6171974D01*
X13407447Y6201230D01*
X13400231Y6219252D01*
X13390450Y6230489D01*
X13387312Y6232921D01*
X13339761Y6251917D01*
X13291697Y6244400D01*
X13263086Y6224457D01*
X13251447Y6210325D01*
X13243391Y6191780D01*
X13238271Y6163666D01*
X13235441Y6120827D01*
X13234256Y6058105D01*
X13234057Y5992739D01*
X13234018Y5910732D01*
X13232614Y5852684D01*
X13227914Y5813535D01*
X13217987Y5788220D01*
X13200903Y5771677D01*
X13174732Y5758844D01*
X13139775Y5745509D01*
X13101596Y5730993D01*
X13106141Y5988611D01*
X13107971Y6081481D01*
X13110112Y6150111D01*
X13113181Y6199289D01*
X13117794Y6233802D01*
X13124568Y6258438D01*
X13134119Y6277984D01*
X13145634Y6295230D01*
X13201190Y6350320D01*
X13268980Y6382178D01*
X13342713Y6389809D01*
X13416093Y6372220D01*
G37*
X15229926Y6350245D02*
X15295858Y6325916D01*
X15349273Y6282883D01*
X15370164Y6252591D01*
X15392939Y6197006D01*
X15392466Y6156814D01*
X15368562Y6129783D01*
X15359717Y6125187D01*
X15321530Y6110856D01*
X15302028Y6114528D01*
X15295422Y6138593D01*
X15295086Y6151886D01*
X15282992Y6200790D01*
X15251471Y6235001D01*
X15207659Y6251524D01*
X15158695Y6247366D01*
X15118894Y6225773D01*
X15105450Y6213456D01*
X15095921Y6198513D01*
X15089485Y6175925D01*
X15085317Y6140672D01*
X15082597Y6087734D01*
X15080502Y6012093D01*
X15079960Y5988143D01*
X15077981Y5906210D01*
X15075731Y5848545D01*
X15072357Y5810392D01*
X15067006Y5786996D01*
X15058824Y5773602D01*
X15046959Y5765455D01*
X15039362Y5761856D01*
X15007102Y5749548D01*
X14988111Y5745486D01*
X14981836Y5759052D01*
X14978006Y5800066D01*
X14976600Y5869001D01*
X14977598Y5966331D01*
X14977908Y5981343D01*
X14980101Y6070141D01*
X14982693Y6134981D01*
X14986382Y6180933D01*
X14991864Y6213065D01*
X14999835Y6236447D01*
X15010993Y6256148D01*
X15016830Y6264590D01*
X15050296Y6301943D01*
X15087727Y6330997D01*
X15092309Y6333533D01*
X15159426Y6353557D01*
X15229926Y6350245D01*
G36*
X15229926Y6350245D02*
G01*
X15295858Y6325916D01*
X15349273Y6282883D01*
X15370164Y6252591D01*
X15392939Y6197006D01*
X15392466Y6156814D01*
X15368562Y6129783D01*
X15359717Y6125187D01*
X15321530Y6110856D01*
X15302028Y6114528D01*
X15295422Y6138593D01*
X15295086Y6151886D01*
X15282992Y6200790D01*
X15251471Y6235001D01*
X15207659Y6251524D01*
X15158695Y6247366D01*
X15118894Y6225773D01*
X15105450Y6213456D01*
X15095921Y6198513D01*
X15089485Y6175925D01*
X15085317Y6140672D01*
X15082597Y6087734D01*
X15080502Y6012093D01*
X15079960Y5988143D01*
X15077981Y5906210D01*
X15075731Y5848545D01*
X15072357Y5810392D01*
X15067006Y5786996D01*
X15058824Y5773602D01*
X15046959Y5765455D01*
X15039362Y5761856D01*
X15007102Y5749548D01*
X14988111Y5745486D01*
X14981836Y5759052D01*
X14978006Y5800066D01*
X14976600Y5869001D01*
X14977598Y5966331D01*
X14977908Y5981343D01*
X14980101Y6070141D01*
X14982693Y6134981D01*
X14986382Y6180933D01*
X14991864Y6213065D01*
X14999835Y6236447D01*
X15010993Y6256148D01*
X15016830Y6264590D01*
X15050296Y6301943D01*
X15087727Y6330997D01*
X15092309Y6333533D01*
X15159426Y6353557D01*
X15229926Y6350245D01*
G37*
X14075886Y6448711D02*
X14080139Y6389387D01*
X14085025Y6354428D01*
X14091795Y6339180D01*
X14101702Y6338985D01*
X14104914Y6340805D01*
X14147644Y6353985D01*
X14203227Y6353215D01*
X14259737Y6339667D01*
X14295082Y6322139D01*
X14331321Y6294139D01*
X14357813Y6262451D01*
X14375999Y6222187D01*
X14387322Y6168457D01*
X14393222Y6096374D01*
X14395143Y6001049D01*
X14395177Y5982763D01*
X14395200Y5777354D01*
X14349491Y5761420D01*
X14317027Y5750580D01*
X14299215Y5745532D01*
X14298691Y5745486D01*
X14296937Y5759172D01*
X14295444Y5796924D01*
X14294326Y5853776D01*
X14293697Y5924766D01*
X14293600Y5967927D01*
X14293398Y6053027D01*
X14292358Y6114019D01*
X14289831Y6155823D01*
X14285164Y6183358D01*
X14277707Y6201544D01*
X14266811Y6215302D01*
X14260007Y6221927D01*
X14213272Y6248625D01*
X14162272Y6250625D01*
X14116001Y6228045D01*
X14107444Y6219893D01*
X14094893Y6204564D01*
X14086188Y6186382D01*
X14080631Y6160091D01*
X14077526Y6120438D01*
X14076176Y6062168D01*
X14075886Y5981827D01*
X14075886Y5777354D01*
X14030177Y5761420D01*
X13997713Y5750580D01*
X13979901Y5745532D01*
X13979377Y5745486D01*
X13978037Y5759377D01*
X13976828Y5798561D01*
X13975801Y5859300D01*
X13975002Y5937859D01*
X13974481Y6030502D01*
X13974286Y6133491D01*
X13974286Y6530658D01*
X14021457Y6550556D01*
X14068629Y6570453D01*
X14075886Y6448711D01*
G36*
X14075886Y6448711D02*
G01*
X14080139Y6389387D01*
X14085025Y6354428D01*
X14091795Y6339180D01*
X14101702Y6338985D01*
X14104914Y6340805D01*
X14147644Y6353985D01*
X14203227Y6353215D01*
X14259737Y6339667D01*
X14295082Y6322139D01*
X14331321Y6294139D01*
X14357813Y6262451D01*
X14375999Y6222187D01*
X14387322Y6168457D01*
X14393222Y6096374D01*
X14395143Y6001049D01*
X14395177Y5982763D01*
X14395200Y5777354D01*
X14349491Y5761420D01*
X14317027Y5750580D01*
X14299215Y5745532D01*
X14298691Y5745486D01*
X14296937Y5759172D01*
X14295444Y5796924D01*
X14294326Y5853776D01*
X14293697Y5924766D01*
X14293600Y5967927D01*
X14293398Y6053027D01*
X14292358Y6114019D01*
X14289831Y6155823D01*
X14285164Y6183358D01*
X14277707Y6201544D01*
X14266811Y6215302D01*
X14260007Y6221927D01*
X14213272Y6248625D01*
X14162272Y6250625D01*
X14116001Y6228045D01*
X14107444Y6219893D01*
X14094893Y6204564D01*
X14086188Y6186382D01*
X14080631Y6160091D01*
X14077526Y6120438D01*
X14076176Y6062168D01*
X14075886Y5981827D01*
X14075886Y5777354D01*
X14030177Y5761420D01*
X13997713Y5750580D01*
X13979901Y5745532D01*
X13979377Y5745486D01*
X13978037Y5759377D01*
X13976828Y5798561D01*
X13975801Y5859300D01*
X13975002Y5937859D01*
X13974481Y6030502D01*
X13974286Y6133491D01*
X13974286Y6530658D01*
X14021457Y6550556D01*
X14068629Y6570453D01*
X14075886Y6448711D01*
G37*
X16479833Y6341337D02*
X16482048Y6303150D01*
X16483784Y6245114D01*
X16484899Y6171820D01*
X16485257Y6094945D01*
X16485257Y5834804D01*
X16439326Y5788873D01*
X16407675Y5760571D01*
X16379890Y5749107D01*
X16341915Y5749832D01*
X16326840Y5751679D01*
X16279726Y5757052D01*
X16240756Y5760131D01*
X16231257Y5760415D01*
X16199233Y5758555D01*
X16153432Y5753886D01*
X16135674Y5751679D01*
X16092057Y5748265D01*
X16062745Y5755680D01*
X16033680Y5778573D01*
X16023188Y5788873D01*
X15977257Y5834804D01*
X15977257Y6321398D01*
X16014226Y6338242D01*
X16046059Y6350718D01*
X16064683Y6355086D01*
X16069458Y6341282D01*
X16073921Y6302714D01*
X16077775Y6243644D01*
X16080722Y6168337D01*
X16082143Y6104714D01*
X16086114Y5854343D01*
X16120759Y5849444D01*
X16152268Y5852869D01*
X16167708Y5863959D01*
X16172023Y5884692D01*
X16175708Y5928855D01*
X16178469Y5990854D01*
X16180012Y6065091D01*
X16180235Y6103294D01*
X16180457Y6323217D01*
X16226166Y6339151D01*
X16258518Y6349985D01*
X16276115Y6355038D01*
X16276623Y6355086D01*
X16278388Y6341352D01*
X16280329Y6303270D01*
X16282282Y6245518D01*
X16284084Y6172773D01*
X16285343Y6104714D01*
X16289314Y5854343D01*
X16376400Y5854343D01*
X16380396Y6082760D01*
X16384392Y6311178D01*
X16426847Y6333132D01*
X16458192Y6348207D01*
X16476744Y6355049D01*
X16477279Y6355086D01*
X16479833Y6341337D01*
G36*
X16479833Y6341337D02*
G01*
X16482048Y6303150D01*
X16483784Y6245114D01*
X16484899Y6171820D01*
X16485257Y6094945D01*
X16485257Y5834804D01*
X16439326Y5788873D01*
X16407675Y5760571D01*
X16379890Y5749107D01*
X16341915Y5749832D01*
X16326840Y5751679D01*
X16279726Y5757052D01*
X16240756Y5760131D01*
X16231257Y5760415D01*
X16199233Y5758555D01*
X16153432Y5753886D01*
X16135674Y5751679D01*
X16092057Y5748265D01*
X16062745Y5755680D01*
X16033680Y5778573D01*
X16023188Y5788873D01*
X15977257Y5834804D01*
X15977257Y6321398D01*
X16014226Y6338242D01*
X16046059Y6350718D01*
X16064683Y6355086D01*
X16069458Y6341282D01*
X16073921Y6302714D01*
X16077775Y6243644D01*
X16080722Y6168337D01*
X16082143Y6104714D01*
X16086114Y5854343D01*
X16120759Y5849444D01*
X16152268Y5852869D01*
X16167708Y5863959D01*
X16172023Y5884692D01*
X16175708Y5928855D01*
X16178469Y5990854D01*
X16180012Y6065091D01*
X16180235Y6103294D01*
X16180457Y6323217D01*
X16226166Y6339151D01*
X16258518Y6349985D01*
X16276115Y6355038D01*
X16276623Y6355086D01*
X16278388Y6341352D01*
X16280329Y6303270D01*
X16282282Y6245518D01*
X16284084Y6172773D01*
X16285343Y6104714D01*
X16289314Y5854343D01*
X16376400Y5854343D01*
X16380396Y6082760D01*
X16384392Y6311178D01*
X16426847Y6333132D01*
X16458192Y6348207D01*
X16476744Y6355049D01*
X16477279Y6355086D01*
X16479833Y6341337D01*
G37*
X11741115Y6378038D02*
X11809145Y6342267D01*
X11859351Y6284699D01*
X11877185Y6247688D01*
X11891063Y6192118D01*
X11898167Y6121904D01*
X11898840Y6045273D01*
X11893427Y5970448D01*
X11882270Y5905658D01*
X11865714Y5859127D01*
X11860626Y5851113D01*
X11800355Y5791293D01*
X11728769Y5755465D01*
X11651092Y5744980D01*
X11572548Y5761190D01*
X11550689Y5770908D01*
X11508122Y5800857D01*
X11470763Y5840567D01*
X11467232Y5845603D01*
X11452881Y5869876D01*
X11443394Y5895822D01*
X11437790Y5929978D01*
X11435086Y5978881D01*
X11434299Y6049065D01*
X11434286Y6064800D01*
X11434322Y6069808D01*
X11579429Y6069808D01*
X11580273Y6003570D01*
X11583596Y5959614D01*
X11590583Y5931221D01*
X11602416Y5911675D01*
X11608457Y5905143D01*
X11643186Y5880320D01*
X11676903Y5881452D01*
X11710995Y5902984D01*
X11731329Y5925971D01*
X11743371Y5959522D01*
X11750134Y6012431D01*
X11750598Y6018601D01*
X11751752Y6114487D01*
X11739688Y6185701D01*
X11714570Y6231806D01*
X11676560Y6252365D01*
X11662992Y6253486D01*
X11627364Y6247848D01*
X11602994Y6228314D01*
X11588093Y6190958D01*
X11580875Y6131850D01*
X11579429Y6069808D01*
X11434322Y6069808D01*
X11434826Y6139587D01*
X11437096Y6191841D01*
X11442068Y6228051D01*
X11450713Y6254701D01*
X11464005Y6278278D01*
X11466943Y6282662D01*
X11516313Y6341751D01*
X11570109Y6376053D01*
X11635602Y6389669D01*
X11657842Y6390335D01*
X11741115Y6378038D01*
G36*
X11741115Y6378038D02*
G01*
X11809145Y6342267D01*
X11859351Y6284699D01*
X11877185Y6247688D01*
X11891063Y6192118D01*
X11898167Y6121904D01*
X11898840Y6045273D01*
X11893427Y5970448D01*
X11882270Y5905658D01*
X11865714Y5859127D01*
X11860626Y5851113D01*
X11800355Y5791293D01*
X11728769Y5755465D01*
X11651092Y5744980D01*
X11572548Y5761190D01*
X11550689Y5770908D01*
X11508122Y5800857D01*
X11470763Y5840567D01*
X11467232Y5845603D01*
X11452881Y5869876D01*
X11443394Y5895822D01*
X11437790Y5929978D01*
X11435086Y5978881D01*
X11434299Y6049065D01*
X11434286Y6064800D01*
X11434322Y6069808D01*
X11579429Y6069808D01*
X11580273Y6003570D01*
X11583596Y5959614D01*
X11590583Y5931221D01*
X11602416Y5911675D01*
X11608457Y5905143D01*
X11643186Y5880320D01*
X11676903Y5881452D01*
X11710995Y5902984D01*
X11731329Y5925971D01*
X11743371Y5959522D01*
X11750134Y6012431D01*
X11750598Y6018601D01*
X11751752Y6114487D01*
X11739688Y6185701D01*
X11714570Y6231806D01*
X11676560Y6252365D01*
X11662992Y6253486D01*
X11627364Y6247848D01*
X11602994Y6228314D01*
X11588093Y6190958D01*
X11580875Y6131850D01*
X11579429Y6069808D01*
X11434322Y6069808D01*
X11434826Y6139587D01*
X11437096Y6191841D01*
X11442068Y6228051D01*
X11450713Y6254701D01*
X11464005Y6278278D01*
X11466943Y6282662D01*
X11516313Y6341751D01*
X11570109Y6376053D01*
X11635602Y6389669D01*
X11657842Y6390335D01*
X11741115Y6378038D01*
G37*
X17853595Y6333034D02*
X17911021Y6295503D01*
X17938719Y6261904D01*
X17960662Y6200936D01*
X17962405Y6152692D01*
X17958457Y6088184D01*
X17809686Y6023066D01*
X17737349Y5989798D01*
X17690084Y5963036D01*
X17665507Y5939856D01*
X17661237Y5917333D01*
X17674889Y5892545D01*
X17689943Y5876114D01*
X17733746Y5849765D01*
X17781389Y5847919D01*
X17825145Y5868454D01*
X17857289Y5909248D01*
X17863038Y5923653D01*
X17890576Y5968644D01*
X17922258Y5987818D01*
X17965714Y6004221D01*
X17965714Y5942034D01*
X17961872Y5899717D01*
X17946823Y5864031D01*
X17915280Y5823057D01*
X17910592Y5817733D01*
X17875506Y5781280D01*
X17845347Y5761717D01*
X17807615Y5752717D01*
X17776335Y5749770D01*
X17720385Y5749035D01*
X17680555Y5758340D01*
X17655708Y5772154D01*
X17616656Y5802533D01*
X17589625Y5835387D01*
X17572517Y5876706D01*
X17563238Y5932479D01*
X17559693Y6008695D01*
X17559410Y6047378D01*
X17560372Y6093753D01*
X17648007Y6093753D01*
X17649023Y6068874D01*
X17651556Y6064800D01*
X17668274Y6070335D01*
X17704249Y6084983D01*
X17752331Y6105810D01*
X17762386Y6110286D01*
X17823152Y6141186D01*
X17856632Y6168343D01*
X17863990Y6193780D01*
X17846391Y6219519D01*
X17831856Y6230891D01*
X17779410Y6253636D01*
X17730322Y6249878D01*
X17689227Y6222116D01*
X17660758Y6172848D01*
X17651631Y6133743D01*
X17648007Y6093753D01*
X17560372Y6093753D01*
X17561285Y6137751D01*
X17568196Y6204616D01*
X17581884Y6253305D01*
X17604096Y6289151D01*
X17636574Y6317487D01*
X17650733Y6326645D01*
X17715053Y6350493D01*
X17785473Y6351994D01*
X17853595Y6333034D01*
G36*
X17853595Y6333034D02*
G01*
X17911021Y6295503D01*
X17938719Y6261904D01*
X17960662Y6200936D01*
X17962405Y6152692D01*
X17958457Y6088184D01*
X17809686Y6023066D01*
X17737349Y5989798D01*
X17690084Y5963036D01*
X17665507Y5939856D01*
X17661237Y5917333D01*
X17674889Y5892545D01*
X17689943Y5876114D01*
X17733746Y5849765D01*
X17781389Y5847919D01*
X17825145Y5868454D01*
X17857289Y5909248D01*
X17863038Y5923653D01*
X17890576Y5968644D01*
X17922258Y5987818D01*
X17965714Y6004221D01*
X17965714Y5942034D01*
X17961872Y5899717D01*
X17946823Y5864031D01*
X17915280Y5823057D01*
X17910592Y5817733D01*
X17875506Y5781280D01*
X17845347Y5761717D01*
X17807615Y5752717D01*
X17776335Y5749770D01*
X17720385Y5749035D01*
X17680555Y5758340D01*
X17655708Y5772154D01*
X17616656Y5802533D01*
X17589625Y5835387D01*
X17572517Y5876706D01*
X17563238Y5932479D01*
X17559693Y6008695D01*
X17559410Y6047378D01*
X17560372Y6093753D01*
X17648007Y6093753D01*
X17649023Y6068874D01*
X17651556Y6064800D01*
X17668274Y6070335D01*
X17704249Y6084983D01*
X17752331Y6105810D01*
X17762386Y6110286D01*
X17823152Y6141186D01*
X17856632Y6168343D01*
X17863990Y6193780D01*
X17846391Y6219519D01*
X17831856Y6230891D01*
X17779410Y6253636D01*
X17730322Y6249878D01*
X17689227Y6222116D01*
X17660758Y6172848D01*
X17651631Y6133743D01*
X17648007Y6093753D01*
X17560372Y6093753D01*
X17561285Y6137751D01*
X17568196Y6204616D01*
X17581884Y6253305D01*
X17604096Y6289151D01*
X17636574Y6317487D01*
X17650733Y6326645D01*
X17715053Y6350493D01*
X17785473Y6351994D01*
X17853595Y6333034D01*
G37*
X15890117Y6234642D02*
X15889933Y6126163D01*
X15889219Y6042713D01*
X15887675Y5980296D01*
X15885001Y5934915D01*
X15880894Y5902571D01*
X15875055Y5879267D01*
X15867182Y5861005D01*
X15861221Y5850582D01*
X15811855Y5794055D01*
X15749264Y5758623D01*
X15680013Y5745910D01*
X15610668Y5757537D01*
X15569375Y5778432D01*
X15526025Y5814578D01*
X15496481Y5858724D01*
X15478655Y5916538D01*
X15470463Y5993687D01*
X15469302Y6050286D01*
X15469458Y6054353D01*
X15570857Y6054353D01*
X15571476Y5989450D01*
X15574314Y5946486D01*
X15580840Y5918378D01*
X15592523Y5898047D01*
X15606483Y5882712D01*
X15653365Y5853110D01*
X15703701Y5850581D01*
X15751276Y5875295D01*
X15754979Y5878644D01*
X15770783Y5896065D01*
X15780693Y5916791D01*
X15786058Y5947638D01*
X15788228Y5995423D01*
X15788571Y6048252D01*
X15787827Y6114619D01*
X15784748Y6158894D01*
X15778061Y6187991D01*
X15766496Y6208827D01*
X15757013Y6219893D01*
X15712960Y6247802D01*
X15662224Y6251157D01*
X15613796Y6229841D01*
X15604450Y6221927D01*
X15588540Y6204353D01*
X15578610Y6183413D01*
X15573278Y6152218D01*
X15571163Y6103878D01*
X15570857Y6054353D01*
X15469458Y6054353D01*
X15472810Y6141432D01*
X15484726Y6209914D01*
X15507135Y6261400D01*
X15542124Y6301557D01*
X15569375Y6322139D01*
X15618907Y6344375D01*
X15676316Y6354696D01*
X15729682Y6351933D01*
X15759543Y6340788D01*
X15771261Y6337617D01*
X15779037Y6349443D01*
X15784465Y6381134D01*
X15788571Y6429407D01*
X15793067Y6483171D01*
X15799313Y6515518D01*
X15810676Y6534015D01*
X15830528Y6546230D01*
X15843000Y6551638D01*
X15890171Y6571399D01*
X15890117Y6234642D01*
G36*
X15890117Y6234642D02*
G01*
X15889933Y6126163D01*
X15889219Y6042713D01*
X15887675Y5980296D01*
X15885001Y5934915D01*
X15880894Y5902571D01*
X15875055Y5879267D01*
X15867182Y5861005D01*
X15861221Y5850582D01*
X15811855Y5794055D01*
X15749264Y5758623D01*
X15680013Y5745910D01*
X15610668Y5757537D01*
X15569375Y5778432D01*
X15526025Y5814578D01*
X15496481Y5858724D01*
X15478655Y5916538D01*
X15470463Y5993687D01*
X15469302Y6050286D01*
X15469458Y6054353D01*
X15570857Y6054353D01*
X15571476Y5989450D01*
X15574314Y5946486D01*
X15580840Y5918378D01*
X15592523Y5898047D01*
X15606483Y5882712D01*
X15653365Y5853110D01*
X15703701Y5850581D01*
X15751276Y5875295D01*
X15754979Y5878644D01*
X15770783Y5896065D01*
X15780693Y5916791D01*
X15786058Y5947638D01*
X15788228Y5995423D01*
X15788571Y6048252D01*
X15787827Y6114619D01*
X15784748Y6158894D01*
X15778061Y6187991D01*
X15766496Y6208827D01*
X15757013Y6219893D01*
X15712960Y6247802D01*
X15662224Y6251157D01*
X15613796Y6229841D01*
X15604450Y6221927D01*
X15588540Y6204353D01*
X15578610Y6183413D01*
X15573278Y6152218D01*
X15571163Y6103878D01*
X15570857Y6054353D01*
X15469458Y6054353D01*
X15472810Y6141432D01*
X15484726Y6209914D01*
X15507135Y6261400D01*
X15542124Y6301557D01*
X15569375Y6322139D01*
X15618907Y6344375D01*
X15676316Y6354696D01*
X15729682Y6351933D01*
X15759543Y6340788D01*
X15771261Y6337617D01*
X15779037Y6349443D01*
X15784465Y6381134D01*
X15788571Y6429407D01*
X15793067Y6483171D01*
X15799313Y6515518D01*
X15810676Y6534015D01*
X15830528Y6546230D01*
X15843000Y6551638D01*
X15890171Y6571399D01*
X15890117Y6234642D01*
G37*
X12868303Y6368761D02*
X12925527Y6330265D01*
X12969749Y6274665D01*
X12996167Y6203914D01*
X13001510Y6151838D01*
X13000903Y6130107D01*
X12995822Y6113469D01*
X12981855Y6098563D01*
X12954589Y6082027D01*
X12909612Y6060502D01*
X12842511Y6030626D01*
X12842171Y6030476D01*
X12780407Y6002187D01*
X12729759Y5977067D01*
X12695404Y5957821D01*
X12682518Y5947152D01*
X12682514Y5947066D01*
X12693872Y5923834D01*
X12720431Y5898226D01*
X12750923Y5879779D01*
X12766370Y5876114D01*
X12808515Y5888788D01*
X12844808Y5920529D01*
X12862517Y5955428D01*
X12879552Y5981155D01*
X12912922Y6010454D01*
X12952149Y6035765D01*
X12986756Y6049529D01*
X12993993Y6050286D01*
X13002139Y6037840D01*
X13002630Y6006028D01*
X12996643Y5963134D01*
X12985357Y5917442D01*
X12969950Y5877239D01*
X12969171Y5875678D01*
X12922804Y5810938D01*
X12862711Y5766903D01*
X12794465Y5745289D01*
X12723638Y5747815D01*
X12655804Y5776196D01*
X12652788Y5778192D01*
X12599427Y5826552D01*
X12564340Y5889648D01*
X12544922Y5972613D01*
X12542316Y5995922D01*
X12537701Y6105945D01*
X12543233Y6157252D01*
X12682514Y6157252D01*
X12684324Y6125247D01*
X12694222Y6115907D01*
X12718898Y6122895D01*
X12757795Y6139413D01*
X12801275Y6160119D01*
X12802356Y6160667D01*
X12839209Y6180051D01*
X12854000Y6192987D01*
X12850353Y6206549D01*
X12834995Y6224368D01*
X12795923Y6250155D01*
X12753846Y6252050D01*
X12716103Y6233283D01*
X12690034Y6197085D01*
X12682514Y6157252D01*
X12543233Y6157252D01*
X12547194Y6193973D01*
X12571550Y6263788D01*
X12605456Y6312698D01*
X12666653Y6362122D01*
X12734063Y6386641D01*
X12802880Y6388203D01*
X12868303Y6368761D01*
G36*
X12868303Y6368761D02*
G01*
X12925527Y6330265D01*
X12969749Y6274665D01*
X12996167Y6203914D01*
X13001510Y6151838D01*
X13000903Y6130107D01*
X12995822Y6113469D01*
X12981855Y6098563D01*
X12954589Y6082027D01*
X12909612Y6060502D01*
X12842511Y6030626D01*
X12842171Y6030476D01*
X12780407Y6002187D01*
X12729759Y5977067D01*
X12695404Y5957821D01*
X12682518Y5947152D01*
X12682514Y5947066D01*
X12693872Y5923834D01*
X12720431Y5898226D01*
X12750923Y5879779D01*
X12766370Y5876114D01*
X12808515Y5888788D01*
X12844808Y5920529D01*
X12862517Y5955428D01*
X12879552Y5981155D01*
X12912922Y6010454D01*
X12952149Y6035765D01*
X12986756Y6049529D01*
X12993993Y6050286D01*
X13002139Y6037840D01*
X13002630Y6006028D01*
X12996643Y5963134D01*
X12985357Y5917442D01*
X12969950Y5877239D01*
X12969171Y5875678D01*
X12922804Y5810938D01*
X12862711Y5766903D01*
X12794465Y5745289D01*
X12723638Y5747815D01*
X12655804Y5776196D01*
X12652788Y5778192D01*
X12599427Y5826552D01*
X12564340Y5889648D01*
X12544922Y5972613D01*
X12542316Y5995922D01*
X12537701Y6105945D01*
X12543233Y6157252D01*
X12682514Y6157252D01*
X12684324Y6125247D01*
X12694222Y6115907D01*
X12718898Y6122895D01*
X12757795Y6139413D01*
X12801275Y6160119D01*
X12802356Y6160667D01*
X12839209Y6180051D01*
X12854000Y6192987D01*
X12850353Y6206549D01*
X12834995Y6224368D01*
X12795923Y6250155D01*
X12753846Y6252050D01*
X12716103Y6233283D01*
X12690034Y6197085D01*
X12682514Y6157252D01*
X12543233Y6157252D01*
X12547194Y6193973D01*
X12571550Y6263788D01*
X12605456Y6312698D01*
X12666653Y6362122D01*
X12734063Y6386641D01*
X12802880Y6388203D01*
X12868303Y6368761D01*
G37*
X14739744Y6349032D02*
X14796616Y6327913D01*
X14797267Y6327507D01*
X14832440Y6301620D01*
X14858407Y6271367D01*
X14876670Y6231942D01*
X14888732Y6178538D01*
X14896096Y6106349D01*
X14900264Y6010568D01*
X14900629Y5996922D01*
X14905876Y5791158D01*
X14861716Y5768322D01*
X14829763Y5752890D01*
X14810470Y5745577D01*
X14809578Y5745486D01*
X14806239Y5758978D01*
X14803587Y5795374D01*
X14801956Y5848548D01*
X14801600Y5891607D01*
X14801592Y5961359D01*
X14798403Y6005163D01*
X14787288Y6026056D01*
X14763501Y6027075D01*
X14722296Y6011259D01*
X14660086Y5982185D01*
X14614341Y5958037D01*
X14590813Y5937087D01*
X14583896Y5914253D01*
X14583886Y5913123D01*
X14595299Y5873788D01*
X14629092Y5852538D01*
X14680809Y5849461D01*
X14718061Y5849994D01*
X14737703Y5839265D01*
X14749952Y5813495D01*
X14757002Y5780663D01*
X14746842Y5762034D01*
X14743017Y5759368D01*
X14707001Y5748660D01*
X14656566Y5747144D01*
X14604626Y5754241D01*
X14567822Y5767212D01*
X14516938Y5810415D01*
X14488014Y5870554D01*
X14482286Y5917538D01*
X14486657Y5959918D01*
X14502475Y5994512D01*
X14533797Y6025237D01*
X14584678Y6056010D01*
X14659176Y6090748D01*
X14663714Y6092712D01*
X14730821Y6123713D01*
X14772232Y6149138D01*
X14789981Y6171986D01*
X14786107Y6195255D01*
X14762643Y6221944D01*
X14755627Y6228086D01*
X14708630Y6251900D01*
X14659933Y6250897D01*
X14617522Y6227549D01*
X14589384Y6184325D01*
X14586769Y6175840D01*
X14561308Y6134692D01*
X14529001Y6114872D01*
X14482286Y6095230D01*
X14482286Y6146050D01*
X14496496Y6219918D01*
X14538675Y6287673D01*
X14560624Y6310339D01*
X14610517Y6339431D01*
X14673967Y6352600D01*
X14739744Y6349032D01*
G36*
X14739744Y6349032D02*
G01*
X14796616Y6327913D01*
X14797267Y6327507D01*
X14832440Y6301620D01*
X14858407Y6271367D01*
X14876670Y6231942D01*
X14888732Y6178538D01*
X14896096Y6106349D01*
X14900264Y6010568D01*
X14900629Y5996922D01*
X14905876Y5791158D01*
X14861716Y5768322D01*
X14829763Y5752890D01*
X14810470Y5745577D01*
X14809578Y5745486D01*
X14806239Y5758978D01*
X14803587Y5795374D01*
X14801956Y5848548D01*
X14801600Y5891607D01*
X14801592Y5961359D01*
X14798403Y6005163D01*
X14787288Y6026056D01*
X14763501Y6027075D01*
X14722296Y6011259D01*
X14660086Y5982185D01*
X14614341Y5958037D01*
X14590813Y5937087D01*
X14583896Y5914253D01*
X14583886Y5913123D01*
X14595299Y5873788D01*
X14629092Y5852538D01*
X14680809Y5849461D01*
X14718061Y5849994D01*
X14737703Y5839265D01*
X14749952Y5813495D01*
X14757002Y5780663D01*
X14746842Y5762034D01*
X14743017Y5759368D01*
X14707001Y5748660D01*
X14656566Y5747144D01*
X14604626Y5754241D01*
X14567822Y5767212D01*
X14516938Y5810415D01*
X14488014Y5870554D01*
X14482286Y5917538D01*
X14486657Y5959918D01*
X14502475Y5994512D01*
X14533797Y6025237D01*
X14584678Y6056010D01*
X14659176Y6090748D01*
X14663714Y6092712D01*
X14730821Y6123713D01*
X14772232Y6149138D01*
X14789981Y6171986D01*
X14786107Y6195255D01*
X14762643Y6221944D01*
X14755627Y6228086D01*
X14708630Y6251900D01*
X14659933Y6250897D01*
X14617522Y6227549D01*
X14589384Y6184325D01*
X14586769Y6175840D01*
X14561308Y6134692D01*
X14529001Y6114872D01*
X14482286Y6095230D01*
X14482286Y6146050D01*
X14496496Y6219918D01*
X14538675Y6287673D01*
X14560624Y6310339D01*
X14610517Y6339431D01*
X14673967Y6352600D01*
X14739744Y6349032D01*
G37*
X12299744Y6380082D02*
X12355201Y6352432D01*
X12404148Y6301520D01*
X12417629Y6282662D01*
X12432314Y6257985D01*
X12441842Y6231184D01*
X12447293Y6195413D01*
X12449747Y6143831D01*
X12450286Y6075733D01*
X12447852Y5982412D01*
X12439394Y5912343D01*
X12423174Y5860069D01*
X12397454Y5820131D01*
X12360497Y5787071D01*
X12357782Y5785114D01*
X12321360Y5765092D01*
X12277502Y5755185D01*
X12221724Y5752743D01*
X12131048Y5752743D01*
X12131010Y5664717D01*
X12130166Y5615692D01*
X12125024Y5586935D01*
X12111587Y5569689D01*
X12085858Y5555192D01*
X12079679Y5552231D01*
X12050764Y5538352D01*
X12028376Y5529586D01*
X12011729Y5528829D01*
X12000036Y5538977D01*
X11992510Y5562927D01*
X11988366Y5603574D01*
X11986815Y5663814D01*
X11987071Y5746545D01*
X11988349Y5854661D01*
X11988748Y5887000D01*
X11990185Y5998476D01*
X11991472Y6071397D01*
X12130971Y6071397D01*
X12131755Y6009501D01*
X12135240Y5969003D01*
X12143124Y5942292D01*
X12157105Y5921756D01*
X12166597Y5911740D01*
X12205404Y5882433D01*
X12239763Y5880048D01*
X12275216Y5904250D01*
X12276114Y5905143D01*
X12290539Y5923847D01*
X12299313Y5949268D01*
X12303739Y5988416D01*
X12305118Y6048303D01*
X12305143Y6061570D01*
X12301812Y6144099D01*
X12290969Y6201309D01*
X12271340Y6236234D01*
X12241650Y6251906D01*
X12224491Y6253486D01*
X12183766Y6246074D01*
X12155832Y6221670D01*
X12139017Y6177020D01*
X12131650Y6108870D01*
X12130971Y6071397D01*
X11991472Y6071397D01*
X11991708Y6084755D01*
X11993677Y6149667D01*
X11996450Y6197042D01*
X12000388Y6230710D01*
X12005849Y6254502D01*
X12013192Y6272247D01*
X12022777Y6287776D01*
X12026887Y6293619D01*
X12081405Y6348815D01*
X12150336Y6380110D01*
X12230072Y6388835D01*
X12299744Y6380082D01*
G36*
X12299744Y6380082D02*
G01*
X12355201Y6352432D01*
X12404148Y6301520D01*
X12417629Y6282662D01*
X12432314Y6257985D01*
X12441842Y6231184D01*
X12447293Y6195413D01*
X12449747Y6143831D01*
X12450286Y6075733D01*
X12447852Y5982412D01*
X12439394Y5912343D01*
X12423174Y5860069D01*
X12397454Y5820131D01*
X12360497Y5787071D01*
X12357782Y5785114D01*
X12321360Y5765092D01*
X12277502Y5755185D01*
X12221724Y5752743D01*
X12131048Y5752743D01*
X12131010Y5664717D01*
X12130166Y5615692D01*
X12125024Y5586935D01*
X12111587Y5569689D01*
X12085858Y5555192D01*
X12079679Y5552231D01*
X12050764Y5538352D01*
X12028376Y5529586D01*
X12011729Y5528829D01*
X12000036Y5538977D01*
X11992510Y5562927D01*
X11988366Y5603574D01*
X11986815Y5663814D01*
X11987071Y5746545D01*
X11988349Y5854661D01*
X11988748Y5887000D01*
X11990185Y5998476D01*
X11991472Y6071397D01*
X12130971Y6071397D01*
X12131755Y6009501D01*
X12135240Y5969003D01*
X12143124Y5942292D01*
X12157105Y5921756D01*
X12166597Y5911740D01*
X12205404Y5882433D01*
X12239763Y5880048D01*
X12275216Y5904250D01*
X12276114Y5905143D01*
X12290539Y5923847D01*
X12299313Y5949268D01*
X12303739Y5988416D01*
X12305118Y6048303D01*
X12305143Y6061570D01*
X12301812Y6144099D01*
X12290969Y6201309D01*
X12271340Y6236234D01*
X12241650Y6251906D01*
X12224491Y6253486D01*
X12183766Y6246074D01*
X12155832Y6221670D01*
X12139017Y6177020D01*
X12131650Y6108870D01*
X12130971Y6071397D01*
X11991472Y6071397D01*
X11991708Y6084755D01*
X11993677Y6149667D01*
X11996450Y6197042D01*
X12000388Y6230710D01*
X12005849Y6254502D01*
X12013192Y6272247D01*
X12022777Y6287776D01*
X12026887Y6293619D01*
X12081405Y6348815D01*
X12150336Y6380110D01*
X12230072Y6388835D01*
X12299744Y6380082D01*
G37*
X16844876Y6343665D02*
X16886667Y6324656D01*
X16919469Y6301622D01*
X16943503Y6275867D01*
X16960097Y6242642D01*
X16970577Y6197200D01*
X16976271Y6134793D01*
X16978507Y6050673D01*
X16978743Y5995279D01*
X16978743Y5779174D01*
X16941774Y5762330D01*
X16912656Y5750019D01*
X16898231Y5745486D01*
X16895472Y5758975D01*
X16893282Y5795347D01*
X16891942Y5848458D01*
X16891657Y5890628D01*
X16890434Y5951553D01*
X16887136Y5999885D01*
X16882321Y6029482D01*
X16878496Y6035771D01*
X16852783Y6029348D01*
X16812418Y6012875D01*
X16765679Y5990542D01*
X16720845Y5966543D01*
X16686193Y5945070D01*
X16670002Y5930315D01*
X16669938Y5930155D01*
X16671330Y5902848D01*
X16683818Y5876781D01*
X16705743Y5855608D01*
X16737743Y5848526D01*
X16765092Y5849351D01*
X16803826Y5849958D01*
X16824158Y5840884D01*
X16836369Y5816908D01*
X16837909Y5812387D01*
X16843203Y5778194D01*
X16829047Y5757432D01*
X16792148Y5747538D01*
X16752289Y5745708D01*
X16680562Y5759273D01*
X16643432Y5778645D01*
X16597576Y5824155D01*
X16573256Y5880017D01*
X16571073Y5939043D01*
X16591629Y5994047D01*
X16622549Y6028514D01*
X16653420Y6047811D01*
X16701942Y6072241D01*
X16758485Y6097015D01*
X16767910Y6100801D01*
X16830019Y6128209D01*
X16865822Y6152366D01*
X16877337Y6176381D01*
X16866580Y6203365D01*
X16848114Y6224457D01*
X16804469Y6250428D01*
X16756446Y6252376D01*
X16712406Y6232363D01*
X16680709Y6192449D01*
X16676549Y6182152D01*
X16652327Y6144276D01*
X16616965Y6116158D01*
X16572343Y6093083D01*
X16572343Y6158515D01*
X16574969Y6198494D01*
X16586230Y6230003D01*
X16611199Y6263622D01*
X16635169Y6289516D01*
X16672441Y6326183D01*
X16701401Y6345879D01*
X16732505Y6353780D01*
X16767713Y6355086D01*
X16844876Y6343665D01*
G36*
X16844876Y6343665D02*
G01*
X16886667Y6324656D01*
X16919469Y6301622D01*
X16943503Y6275867D01*
X16960097Y6242642D01*
X16970577Y6197200D01*
X16976271Y6134793D01*
X16978507Y6050673D01*
X16978743Y5995279D01*
X16978743Y5779174D01*
X16941774Y5762330D01*
X16912656Y5750019D01*
X16898231Y5745486D01*
X16895472Y5758975D01*
X16893282Y5795347D01*
X16891942Y5848458D01*
X16891657Y5890628D01*
X16890434Y5951553D01*
X16887136Y5999885D01*
X16882321Y6029482D01*
X16878496Y6035771D01*
X16852783Y6029348D01*
X16812418Y6012875D01*
X16765679Y5990542D01*
X16720845Y5966543D01*
X16686193Y5945070D01*
X16670002Y5930315D01*
X16669938Y5930155D01*
X16671330Y5902848D01*
X16683818Y5876781D01*
X16705743Y5855608D01*
X16737743Y5848526D01*
X16765092Y5849351D01*
X16803826Y5849958D01*
X16824158Y5840884D01*
X16836369Y5816908D01*
X16837909Y5812387D01*
X16843203Y5778194D01*
X16829047Y5757432D01*
X16792148Y5747538D01*
X16752289Y5745708D01*
X16680562Y5759273D01*
X16643432Y5778645D01*
X16597576Y5824155D01*
X16573256Y5880017D01*
X16571073Y5939043D01*
X16591629Y5994047D01*
X16622549Y6028514D01*
X16653420Y6047811D01*
X16701942Y6072241D01*
X16758485Y6097015D01*
X16767910Y6100801D01*
X16830019Y6128209D01*
X16865822Y6152366D01*
X16877337Y6176381D01*
X16866580Y6203365D01*
X16848114Y6224457D01*
X16804469Y6250428D01*
X16756446Y6252376D01*
X16712406Y6232363D01*
X16680709Y6192449D01*
X16676549Y6182152D01*
X16652327Y6144276D01*
X16616965Y6116158D01*
X16572343Y6093083D01*
X16572343Y6158515D01*
X16574969Y6198494D01*
X16586230Y6230003D01*
X16611199Y6263622D01*
X16635169Y6289516D01*
X16672441Y6326183D01*
X16701401Y6345879D01*
X16732505Y6353780D01*
X16767713Y6355086D01*
X16844876Y6343665D01*
G37*
X14803910Y11057652D02*
X14882454Y11057222D01*
X14939298Y11056058D01*
X14978105Y11053793D01*
X15002538Y11050060D01*
X15016262Y11044494D01*
X15022940Y11036727D01*
X15026236Y11026395D01*
X15026556Y11025057D01*
X15031562Y11000921D01*
X15040829Y10953299D01*
X15053392Y10887259D01*
X15068287Y10807872D01*
X15084551Y10720204D01*
X15085119Y10717125D01*
X15101410Y10631211D01*
X15116652Y10555304D01*
X15129861Y10493955D01*
X15140054Y10451718D01*
X15146248Y10433145D01*
X15146543Y10432816D01*
X15164788Y10423747D01*
X15202405Y10408633D01*
X15251271Y10390738D01*
X15251543Y10390642D01*
X15313093Y10367507D01*
X15385657Y10338035D01*
X15454057Y10308403D01*
X15457294Y10306938D01*
X15568702Y10256374D01*
X15815399Y10424840D01*
X15891077Y10476197D01*
X15959631Y10522111D01*
X16017088Y10559970D01*
X16059476Y10587163D01*
X16082825Y10601079D01*
X16085042Y10602111D01*
X16102010Y10597516D01*
X16133701Y10575345D01*
X16181352Y10534553D01*
X16246198Y10474095D01*
X16312397Y10409773D01*
X16376214Y10346388D01*
X16433329Y10288549D01*
X16480305Y10239825D01*
X16513703Y10203790D01*
X16530085Y10184016D01*
X16530694Y10182998D01*
X16532505Y10169428D01*
X16525683Y10147267D01*
X16508540Y10113522D01*
X16479393Y10065200D01*
X16436555Y9999308D01*
X16379448Y9914483D01*
X16328766Y9839823D01*
X16283461Y9772860D01*
X16246150Y9717484D01*
X16219452Y9677580D01*
X16205985Y9657038D01*
X16205137Y9655644D01*
X16206781Y9635962D01*
X16219245Y9597707D01*
X16240048Y9548111D01*
X16247462Y9532272D01*
X16279814Y9461710D01*
X16314328Y9381647D01*
X16342365Y9312371D01*
X16362568Y9260955D01*
X16378615Y9221881D01*
X16387888Y9201459D01*
X16389041Y9199886D01*
X16406096Y9197279D01*
X16446298Y9190137D01*
X16504302Y9179477D01*
X16574763Y9166315D01*
X16652335Y9151667D01*
X16731672Y9136551D01*
X16807431Y9121982D01*
X16874264Y9108978D01*
X16926828Y9098555D01*
X16959776Y9091730D01*
X16967857Y9089801D01*
X16976205Y9085038D01*
X16982506Y9074282D01*
X16987045Y9053902D01*
X16990104Y9020266D01*
X16991967Y8969745D01*
X16992918Y8898708D01*
X16993240Y8803524D01*
X16993257Y8764508D01*
X16993257Y8447201D01*
X16917057Y8432161D01*
X16874663Y8424005D01*
X16811400Y8412101D01*
X16734962Y8397884D01*
X16653043Y8382790D01*
X16630400Y8378645D01*
X16554806Y8363947D01*
X16488953Y8349495D01*
X16438366Y8336625D01*
X16408574Y8326678D01*
X16403612Y8323713D01*
X16391426Y8302717D01*
X16373953Y8262033D01*
X16354577Y8209678D01*
X16350734Y8198400D01*
X16325339Y8128477D01*
X16293817Y8049582D01*
X16262969Y7978734D01*
X16262817Y7978405D01*
X16211447Y7867267D01*
X16380399Y7618747D01*
X16549352Y7370228D01*
X16332429Y7152942D01*
X16266819Y7088274D01*
X16206979Y7031267D01*
X16156267Y6984967D01*
X16118046Y6952416D01*
X16095675Y6936657D01*
X16092466Y6935657D01*
X16073626Y6943531D01*
X16035180Y6965422D01*
X15981330Y6998733D01*
X15916276Y7040869D01*
X15845940Y7088057D01*
X15774555Y7136190D01*
X15710908Y7178072D01*
X15659041Y7211129D01*
X15622995Y7232782D01*
X15606867Y7240457D01*
X15587189Y7233963D01*
X15549875Y7216850D01*
X15502621Y7192674D01*
X15497612Y7189987D01*
X15433977Y7158073D01*
X15390341Y7142421D01*
X15363202Y7142255D01*
X15349057Y7156796D01*
X15348975Y7157000D01*
X15341905Y7174221D01*
X15325042Y7215101D01*
X15299695Y7276475D01*
X15267171Y7355181D01*
X15228778Y7448053D01*
X15185822Y7551928D01*
X15144222Y7652498D01*
X15098504Y7763484D01*
X15056526Y7866297D01*
X15019548Y7957785D01*
X14988827Y8034799D01*
X14965622Y8094185D01*
X14951190Y8132791D01*
X14946743Y8147200D01*
X14957896Y8163728D01*
X14987069Y8190070D01*
X15025971Y8219113D01*
X15136757Y8310961D01*
X15223351Y8416241D01*
X15284716Y8532734D01*
X15319815Y8658224D01*
X15327608Y8790493D01*
X15321943Y8851543D01*
X15291078Y8978205D01*
X15237920Y9090059D01*
X15165767Y9185999D01*
X15077917Y9264924D01*
X14977665Y9325730D01*
X14868310Y9367313D01*
X14753147Y9388572D01*
X14635475Y9388401D01*
X14518590Y9365699D01*
X14405789Y9319362D01*
X14300369Y9248287D01*
X14256368Y9208089D01*
X14171979Y9104871D01*
X14113222Y8992075D01*
X14079704Y8872990D01*
X14071035Y8750905D01*
X14086823Y8629107D01*
X14126678Y8510884D01*
X14190207Y8399525D01*
X14277021Y8298316D01*
X14374029Y8219113D01*
X14414437Y8188838D01*
X14442982Y8162781D01*
X14453257Y8147175D01*
X14447877Y8130157D01*
X14432575Y8089500D01*
X14408612Y8028358D01*
X14377244Y7949881D01*
X14339732Y7857220D01*
X14297333Y7753528D01*
X14255663Y7652474D01*
X14209690Y7541393D01*
X14167107Y7438459D01*
X14129221Y7346835D01*
X14097340Y7269684D01*
X14072771Y7210169D01*
X14056820Y7171456D01*
X14050910Y7157000D01*
X14036948Y7142315D01*
X14009940Y7142358D01*
X13966413Y7157901D01*
X13902890Y7189716D01*
X13902388Y7189987D01*
X13854560Y7214677D01*
X13815897Y7232662D01*
X13794095Y7240386D01*
X13793133Y7240457D01*
X13776721Y7232622D01*
X13740487Y7210835D01*
X13688474Y7177672D01*
X13624725Y7135709D01*
X13554060Y7088057D01*
X13482116Y7039809D01*
X13417274Y6997849D01*
X13363735Y6964773D01*
X13325697Y6943179D01*
X13307533Y6935657D01*
X13290808Y6945543D01*
X13257180Y6973174D01*
X13210010Y7015505D01*
X13152658Y7069495D01*
X13088484Y7132101D01*
X13067497Y7153017D01*
X12850499Y7370377D01*
X13015668Y7612780D01*
X13065864Y7687219D01*
X13109919Y7754028D01*
X13145362Y7809335D01*
X13169719Y7849271D01*
X13180522Y7869964D01*
X13180838Y7871437D01*
X13175143Y7890942D01*
X13159826Y7930178D01*
X13137537Y7982570D01*
X13121893Y8017645D01*
X13092641Y8084799D01*
X13065094Y8152642D01*
X13043737Y8209966D01*
X13037935Y8227428D01*
X13021452Y8274062D01*
X13005340Y8310095D01*
X12996490Y8323713D01*
X12976960Y8332048D01*
X12934334Y8343863D01*
X12874145Y8357819D01*
X12801922Y8372578D01*
X12769600Y8378645D01*
X12687522Y8393727D01*
X12608795Y8408331D01*
X12541109Y8421020D01*
X12492160Y8430358D01*
X12482943Y8432161D01*
X12406743Y8447201D01*
X12406743Y8764508D01*
X12406914Y8868846D01*
X12407616Y8947787D01*
X12409134Y9004962D01*
X12411749Y9044001D01*
X12415746Y9068535D01*
X12421409Y9082195D01*
X12429020Y9088611D01*
X12432143Y9089801D01*
X12450978Y9094020D01*
X12492588Y9102438D01*
X12551630Y9114039D01*
X12622757Y9127805D01*
X12700625Y9142720D01*
X12779887Y9157768D01*
X12855198Y9171931D01*
X12921213Y9184194D01*
X12972587Y9193539D01*
X13003975Y9198950D01*
X13010959Y9199886D01*
X13017285Y9212404D01*
X13031290Y9245754D01*
X13050355Y9293623D01*
X13057634Y9312371D01*
X13086996Y9384805D01*
X13121571Y9464830D01*
X13152537Y9532272D01*
X13175323Y9583841D01*
X13190482Y9626215D01*
X13195542Y9652166D01*
X13194736Y9655644D01*
X13184041Y9672064D01*
X13159620Y9708583D01*
X13124095Y9761313D01*
X13080087Y9826365D01*
X13030217Y9899849D01*
X13020356Y9914355D01*
X12962492Y10000296D01*
X12919956Y10065739D01*
X12891054Y10113696D01*
X12874090Y10147180D01*
X12867367Y10169205D01*
X12869190Y10182783D01*
X12869236Y10182869D01*
X12883586Y10200703D01*
X12915323Y10235183D01*
X12961010Y10282732D01*
X13017204Y10339778D01*
X13080468Y10402745D01*
X13087602Y10409773D01*
X13167330Y10486980D01*
X13228857Y10543670D01*
X13273421Y10580890D01*
X13302257Y10599685D01*
X13314958Y10602111D01*
X13333494Y10591529D01*
X13371961Y10567084D01*
X13426386Y10531388D01*
X13492798Y10487053D01*
X13567225Y10436689D01*
X13584601Y10424840D01*
X13831297Y10256374D01*
X13942706Y10306938D01*
X14010457Y10336405D01*
X14083183Y10366041D01*
X14145703Y10389670D01*
X14148457Y10390642D01*
X14197360Y10408543D01*
X14235057Y10423680D01*
X14253425Y10432790D01*
X14253456Y10432816D01*
X14259285Y10449283D01*
X14269192Y10489781D01*
X14282195Y10549758D01*
X14297309Y10624660D01*
X14313552Y10709936D01*
X14314881Y10717125D01*
X14331175Y10804986D01*
X14346133Y10884740D01*
X14358791Y10951319D01*
X14368186Y10999653D01*
X14373354Y11024675D01*
X14373444Y11025057D01*
X14376589Y11035701D01*
X14382704Y11043738D01*
X14395453Y11049533D01*
X14418500Y11053453D01*
X14455509Y11055865D01*
X14510144Y11057135D01*
X14586067Y11057629D01*
X14686944Y11057714D01*
X14700000Y11057714D01*
X14803910Y11057652D01*
G36*
X14803910Y11057652D02*
G01*
X14882454Y11057222D01*
X14939298Y11056058D01*
X14978105Y11053793D01*
X15002538Y11050060D01*
X15016262Y11044494D01*
X15022940Y11036727D01*
X15026236Y11026395D01*
X15026556Y11025057D01*
X15031562Y11000921D01*
X15040829Y10953299D01*
X15053392Y10887259D01*
X15068287Y10807872D01*
X15084551Y10720204D01*
X15085119Y10717125D01*
X15101410Y10631211D01*
X15116652Y10555304D01*
X15129861Y10493955D01*
X15140054Y10451718D01*
X15146248Y10433145D01*
X15146543Y10432816D01*
X15164788Y10423747D01*
X15202405Y10408633D01*
X15251271Y10390738D01*
X15251543Y10390642D01*
X15313093Y10367507D01*
X15385657Y10338035D01*
X15454057Y10308403D01*
X15457294Y10306938D01*
X15568702Y10256374D01*
X15815399Y10424840D01*
X15891077Y10476197D01*
X15959631Y10522111D01*
X16017088Y10559970D01*
X16059476Y10587163D01*
X16082825Y10601079D01*
X16085042Y10602111D01*
X16102010Y10597516D01*
X16133701Y10575345D01*
X16181352Y10534553D01*
X16246198Y10474095D01*
X16312397Y10409773D01*
X16376214Y10346388D01*
X16433329Y10288549D01*
X16480305Y10239825D01*
X16513703Y10203790D01*
X16530085Y10184016D01*
X16530694Y10182998D01*
X16532505Y10169428D01*
X16525683Y10147267D01*
X16508540Y10113522D01*
X16479393Y10065200D01*
X16436555Y9999308D01*
X16379448Y9914483D01*
X16328766Y9839823D01*
X16283461Y9772860D01*
X16246150Y9717484D01*
X16219452Y9677580D01*
X16205985Y9657038D01*
X16205137Y9655644D01*
X16206781Y9635962D01*
X16219245Y9597707D01*
X16240048Y9548111D01*
X16247462Y9532272D01*
X16279814Y9461710D01*
X16314328Y9381647D01*
X16342365Y9312371D01*
X16362568Y9260955D01*
X16378615Y9221881D01*
X16387888Y9201459D01*
X16389041Y9199886D01*
X16406096Y9197279D01*
X16446298Y9190137D01*
X16504302Y9179477D01*
X16574763Y9166315D01*
X16652335Y9151667D01*
X16731672Y9136551D01*
X16807431Y9121982D01*
X16874264Y9108978D01*
X16926828Y9098555D01*
X16959776Y9091730D01*
X16967857Y9089801D01*
X16976205Y9085038D01*
X16982506Y9074282D01*
X16987045Y9053902D01*
X16990104Y9020266D01*
X16991967Y8969745D01*
X16992918Y8898708D01*
X16993240Y8803524D01*
X16993257Y8764508D01*
X16993257Y8447201D01*
X16917057Y8432161D01*
X16874663Y8424005D01*
X16811400Y8412101D01*
X16734962Y8397884D01*
X16653043Y8382790D01*
X16630400Y8378645D01*
X16554806Y8363947D01*
X16488953Y8349495D01*
X16438366Y8336625D01*
X16408574Y8326678D01*
X16403612Y8323713D01*
X16391426Y8302717D01*
X16373953Y8262033D01*
X16354577Y8209678D01*
X16350734Y8198400D01*
X16325339Y8128477D01*
X16293817Y8049582D01*
X16262969Y7978734D01*
X16262817Y7978405D01*
X16211447Y7867267D01*
X16380399Y7618747D01*
X16549352Y7370228D01*
X16332429Y7152942D01*
X16266819Y7088274D01*
X16206979Y7031267D01*
X16156267Y6984967D01*
X16118046Y6952416D01*
X16095675Y6936657D01*
X16092466Y6935657D01*
X16073626Y6943531D01*
X16035180Y6965422D01*
X15981330Y6998733D01*
X15916276Y7040869D01*
X15845940Y7088057D01*
X15774555Y7136190D01*
X15710908Y7178072D01*
X15659041Y7211129D01*
X15622995Y7232782D01*
X15606867Y7240457D01*
X15587189Y7233963D01*
X15549875Y7216850D01*
X15502621Y7192674D01*
X15497612Y7189987D01*
X15433977Y7158073D01*
X15390341Y7142421D01*
X15363202Y7142255D01*
X15349057Y7156796D01*
X15348975Y7157000D01*
X15341905Y7174221D01*
X15325042Y7215101D01*
X15299695Y7276475D01*
X15267171Y7355181D01*
X15228778Y7448053D01*
X15185822Y7551928D01*
X15144222Y7652498D01*
X15098504Y7763484D01*
X15056526Y7866297D01*
X15019548Y7957785D01*
X14988827Y8034799D01*
X14965622Y8094185D01*
X14951190Y8132791D01*
X14946743Y8147200D01*
X14957896Y8163728D01*
X14987069Y8190070D01*
X15025971Y8219113D01*
X15136757Y8310961D01*
X15223351Y8416241D01*
X15284716Y8532734D01*
X15319815Y8658224D01*
X15327608Y8790493D01*
X15321943Y8851543D01*
X15291078Y8978205D01*
X15237920Y9090059D01*
X15165767Y9185999D01*
X15077917Y9264924D01*
X14977665Y9325730D01*
X14868310Y9367313D01*
X14753147Y9388572D01*
X14635475Y9388401D01*
X14518590Y9365699D01*
X14405789Y9319362D01*
X14300369Y9248287D01*
X14256368Y9208089D01*
X14171979Y9104871D01*
X14113222Y8992075D01*
X14079704Y8872990D01*
X14071035Y8750905D01*
X14086823Y8629107D01*
X14126678Y8510884D01*
X14190207Y8399525D01*
X14277021Y8298316D01*
X14374029Y8219113D01*
X14414437Y8188838D01*
X14442982Y8162781D01*
X14453257Y8147175D01*
X14447877Y8130157D01*
X14432575Y8089500D01*
X14408612Y8028358D01*
X14377244Y7949881D01*
X14339732Y7857220D01*
X14297333Y7753528D01*
X14255663Y7652474D01*
X14209690Y7541393D01*
X14167107Y7438459D01*
X14129221Y7346835D01*
X14097340Y7269684D01*
X14072771Y7210169D01*
X14056820Y7171456D01*
X14050910Y7157000D01*
X14036948Y7142315D01*
X14009940Y7142358D01*
X13966413Y7157901D01*
X13902890Y7189716D01*
X13902388Y7189987D01*
X13854560Y7214677D01*
X13815897Y7232662D01*
X13794095Y7240386D01*
X13793133Y7240457D01*
X13776721Y7232622D01*
X13740487Y7210835D01*
X13688474Y7177672D01*
X13624725Y7135709D01*
X13554060Y7088057D01*
X13482116Y7039809D01*
X13417274Y6997849D01*
X13363735Y6964773D01*
X13325697Y6943179D01*
X13307533Y6935657D01*
X13290808Y6945543D01*
X13257180Y6973174D01*
X13210010Y7015505D01*
X13152658Y7069495D01*
X13088484Y7132101D01*
X13067497Y7153017D01*
X12850499Y7370377D01*
X13015668Y7612780D01*
X13065864Y7687219D01*
X13109919Y7754028D01*
X13145362Y7809335D01*
X13169719Y7849271D01*
X13180522Y7869964D01*
X13180838Y7871437D01*
X13175143Y7890942D01*
X13159826Y7930178D01*
X13137537Y7982570D01*
X13121893Y8017645D01*
X13092641Y8084799D01*
X13065094Y8152642D01*
X13043737Y8209966D01*
X13037935Y8227428D01*
X13021452Y8274062D01*
X13005340Y8310095D01*
X12996490Y8323713D01*
X12976960Y8332048D01*
X12934334Y8343863D01*
X12874145Y8357819D01*
X12801922Y8372578D01*
X12769600Y8378645D01*
X12687522Y8393727D01*
X12608795Y8408331D01*
X12541109Y8421020D01*
X12492160Y8430358D01*
X12482943Y8432161D01*
X12406743Y8447201D01*
X12406743Y8764508D01*
X12406914Y8868846D01*
X12407616Y8947787D01*
X12409134Y9004962D01*
X12411749Y9044001D01*
X12415746Y9068535D01*
X12421409Y9082195D01*
X12429020Y9088611D01*
X12432143Y9089801D01*
X12450978Y9094020D01*
X12492588Y9102438D01*
X12551630Y9114039D01*
X12622757Y9127805D01*
X12700625Y9142720D01*
X12779887Y9157768D01*
X12855198Y9171931D01*
X12921213Y9184194D01*
X12972587Y9193539D01*
X13003975Y9198950D01*
X13010959Y9199886D01*
X13017285Y9212404D01*
X13031290Y9245754D01*
X13050355Y9293623D01*
X13057634Y9312371D01*
X13086996Y9384805D01*
X13121571Y9464830D01*
X13152537Y9532272D01*
X13175323Y9583841D01*
X13190482Y9626215D01*
X13195542Y9652166D01*
X13194736Y9655644D01*
X13184041Y9672064D01*
X13159620Y9708583D01*
X13124095Y9761313D01*
X13080087Y9826365D01*
X13030217Y9899849D01*
X13020356Y9914355D01*
X12962492Y10000296D01*
X12919956Y10065739D01*
X12891054Y10113696D01*
X12874090Y10147180D01*
X12867367Y10169205D01*
X12869190Y10182783D01*
X12869236Y10182869D01*
X12883586Y10200703D01*
X12915323Y10235183D01*
X12961010Y10282732D01*
X13017204Y10339778D01*
X13080468Y10402745D01*
X13087602Y10409773D01*
X13167330Y10486980D01*
X13228857Y10543670D01*
X13273421Y10580890D01*
X13302257Y10599685D01*
X13314958Y10602111D01*
X13333494Y10591529D01*
X13371961Y10567084D01*
X13426386Y10531388D01*
X13492798Y10487053D01*
X13567225Y10436689D01*
X13584601Y10424840D01*
X13831297Y10256374D01*
X13942706Y10306938D01*
X14010457Y10336405D01*
X14083183Y10366041D01*
X14145703Y10389670D01*
X14148457Y10390642D01*
X14197360Y10408543D01*
X14235057Y10423680D01*
X14253425Y10432790D01*
X14253456Y10432816D01*
X14259285Y10449283D01*
X14269192Y10489781D01*
X14282195Y10549758D01*
X14297309Y10624660D01*
X14313552Y10709936D01*
X14314881Y10717125D01*
X14331175Y10804986D01*
X14346133Y10884740D01*
X14358791Y10951319D01*
X14368186Y10999653D01*
X14373354Y11024675D01*
X14373444Y11025057D01*
X14376589Y11035701D01*
X14382704Y11043738D01*
X14395453Y11049533D01*
X14418500Y11053453D01*
X14455509Y11055865D01*
X14510144Y11057135D01*
X14586067Y11057629D01*
X14686944Y11057714D01*
X14700000Y11057714D01*
X14803910Y11057652D01*
G37*
D13*
%TO.C,SW1*%
X29900000Y9300000D02*
X30800000Y10200000D01*
X29900000Y6900000D02*
X29900000Y9300000D01*
X30900000Y5900000D02*
X29900000Y6900000D01*
X31300000Y10700000D02*
X33700000Y10700000D01*
X33700000Y5500000D02*
X31300000Y5500000D01*
X34100000Y10300000D02*
X35100000Y9300000D01*
X34100000Y5900000D02*
X35100000Y6900000D01*
X35100000Y6900000D02*
X35100000Y9300000D01*
X33500000Y8100000D02*
G75*
G02*
X31500000Y8100000I-1000000J0D01*
G01*
X31500000Y8100000D02*
G75*
G02*
X33500000Y8100000I1000000J0D01*
G01*
%TD*%
%LPC*%
D16*
%TO.C,J4*%
X25600000Y15065000D03*
D17*
X26600000Y15065000D03*
X27600000Y15065000D03*
X28600000Y15065000D03*
%TD*%
D18*
%TO.C,J3*%
X28370000Y2565000D03*
X23290000Y1549000D03*
X23290000Y3581000D03*
D19*
X27100000Y3200000D03*
X27100000Y1930000D03*
X25830000Y3200000D03*
X25830000Y1930000D03*
X24560000Y3200000D03*
X24560000Y1930000D03*
%TD*%
D20*
%TO.C,SW1*%
X30650000Y5200000D03*
X30650000Y11000000D03*
X34350000Y5200000D03*
X34350000Y11000000D03*
%TD*%
D21*
%TO.C,J2*%
X9390000Y14275000D03*
D22*
X6850000Y14275000D03*
X4310000Y14275000D03*
X1770000Y14275000D03*
%TD*%
D21*
%TO.C,J1*%
X22550000Y14325000D03*
D22*
X20010000Y14325000D03*
%TD*%
D23*
%TO.C,C2*%
X15982380Y14300000D03*
D24*
X13482380Y14300000D03*
%TD*%
%LPD*%
M02*
