%TF.GenerationSoftware,KiCad,Pcbnew,8.0.6*%
%TF.CreationDate,2024-11-27T12:45:58+01:00*%
%TF.ProjectId,Caffeinated-AFTONSPARV,43616666-6569-46e6-9174-65642d414654,rev?*%
%TF.SameCoordinates,Original*%
%TF.FileFunction,Copper,L4,Bot*%
%TF.FilePolarity,Positive*%
%FSLAX46Y46*%
G04 Gerber Fmt 4.6, Leading zero omitted, Abs format (unit mm)*
G04 Created by KiCad (PCBNEW 8.0.6) date 2024-11-27 12:45:58*
%MOMM*%
%LPD*%
G01*
G04 APERTURE LIST*
G04 Aperture macros list*
%AMRoundRect*
0 Rectangle with rounded corners*
0 $1 Rounding radius*
0 $2 $3 $4 $5 $6 $7 $8 $9 X,Y pos of 4 corners*
0 Add a 4 corners polygon primitive as box body*
4,1,4,$2,$3,$4,$5,$6,$7,$8,$9,$2,$3,0*
0 Add four circle primitives for the rounded corners*
1,1,$1+$1,$2,$3*
1,1,$1+$1,$4,$5*
1,1,$1+$1,$6,$7*
1,1,$1+$1,$8,$9*
0 Add four rect primitives between the rounded corners*
20,1,$1+$1,$2,$3,$4,$5,0*
20,1,$1+$1,$4,$5,$6,$7,0*
20,1,$1+$1,$6,$7,$8,$9,0*
20,1,$1+$1,$8,$9,$2,$3,0*%
%AMFreePoly0*
4,1,6,0.725000,-0.725000,-0.125000,-0.725000,-0.725000,-0.125000,-0.725000,0.725000,0.725000,0.725000,0.725000,-0.725000,0.725000,-0.725000,$1*%
G04 Aperture macros list end*
%TA.AperFunction,ComponentPad*%
%ADD10R,0.850000X0.850000*%
%TD*%
%TA.AperFunction,ComponentPad*%
%ADD11O,0.850000X0.850000*%
%TD*%
%TA.AperFunction,SMDPad,CuDef*%
%ADD12RoundRect,0.250000X0.325000X0.650000X-0.325000X0.650000X-0.325000X-0.650000X0.325000X-0.650000X0*%
%TD*%
%TA.AperFunction,SMDPad,CuDef*%
%ADD13RoundRect,0.150000X0.587500X0.150000X-0.587500X0.150000X-0.587500X-0.150000X0.587500X-0.150000X0*%
%TD*%
%TA.AperFunction,SMDPad,CuDef*%
%ADD14RoundRect,0.135000X-0.185000X0.135000X-0.185000X-0.135000X0.185000X-0.135000X0.185000X0.135000X0*%
%TD*%
%TA.AperFunction,SMDPad,CuDef*%
%ADD15RoundRect,0.140000X-0.170000X0.140000X-0.170000X-0.140000X0.170000X-0.140000X0.170000X0.140000X0*%
%TD*%
%TA.AperFunction,SMDPad,CuDef*%
%ADD16RoundRect,0.135000X-0.135000X-0.185000X0.135000X-0.185000X0.135000X0.185000X-0.135000X0.185000X0*%
%TD*%
%TA.AperFunction,ComponentPad*%
%ADD17R,1.700000X1.700000*%
%TD*%
%TA.AperFunction,ComponentPad*%
%ADD18O,1.700000X1.700000*%
%TD*%
%TA.AperFunction,SMDPad,CuDef*%
%ADD19R,0.400000X0.800000*%
%TD*%
%TA.AperFunction,SMDPad,CuDef*%
%ADD20R,0.800000X0.400000*%
%TD*%
%TA.AperFunction,SMDPad,CuDef*%
%ADD21R,1.450000X1.450000*%
%TD*%
%TA.AperFunction,SMDPad,CuDef*%
%ADD22FreePoly0,90.000000*%
%TD*%
%TA.AperFunction,SMDPad,CuDef*%
%ADD23R,0.700000X0.700000*%
%TD*%
%TA.AperFunction,SMDPad,CuDef*%
%ADD24RoundRect,0.250000X0.650000X-0.325000X0.650000X0.325000X-0.650000X0.325000X-0.650000X-0.325000X0*%
%TD*%
%TA.AperFunction,SMDPad,CuDef*%
%ADD25RoundRect,0.140000X-0.140000X-0.170000X0.140000X-0.170000X0.140000X0.170000X-0.140000X0.170000X0*%
%TD*%
%TA.AperFunction,SMDPad,CuDef*%
%ADD26RoundRect,0.135000X0.135000X0.185000X-0.135000X0.185000X-0.135000X-0.185000X0.135000X-0.185000X0*%
%TD*%
%TA.AperFunction,SMDPad,CuDef*%
%ADD27RoundRect,0.200000X-0.275000X0.200000X-0.275000X-0.200000X0.275000X-0.200000X0.275000X0.200000X0*%
%TD*%
%TA.AperFunction,SMDPad,CuDef*%
%ADD28R,1.100000X3.700000*%
%TD*%
%TA.AperFunction,SMDPad,CuDef*%
%ADD29RoundRect,0.135000X0.185000X-0.135000X0.185000X0.135000X-0.185000X0.135000X-0.185000X-0.135000X0*%
%TD*%
%TA.AperFunction,SMDPad,CuDef*%
%ADD30RoundRect,0.140000X0.140000X0.170000X-0.140000X0.170000X-0.140000X-0.170000X0.140000X-0.170000X0*%
%TD*%
%TA.AperFunction,SMDPad,CuDef*%
%ADD31RoundRect,0.250000X-0.650000X0.325000X-0.650000X-0.325000X0.650000X-0.325000X0.650000X0.325000X0*%
%TD*%
%TA.AperFunction,SMDPad,CuDef*%
%ADD32RoundRect,0.150000X-0.512500X-0.150000X0.512500X-0.150000X0.512500X0.150000X-0.512500X0.150000X0*%
%TD*%
%TA.AperFunction,ComponentPad*%
%ADD33R,1.600000X1.600000*%
%TD*%
%TA.AperFunction,ComponentPad*%
%ADD34C,1.600000*%
%TD*%
%TA.AperFunction,ViaPad*%
%ADD35C,0.450000*%
%TD*%
%TA.AperFunction,Conductor*%
%ADD36C,0.500000*%
%TD*%
%TA.AperFunction,Conductor*%
%ADD37C,0.250000*%
%TD*%
%TA.AperFunction,Conductor*%
%ADD38C,0.200000*%
%TD*%
%TA.AperFunction,Conductor*%
%ADD39C,0.400000*%
%TD*%
G04 APERTURE END LIST*
D10*
%TO.P,J4,1,Pin_1*%
%TO.N,GND*%
X25600000Y15065000D03*
D11*
%TO.P,J4,2,Pin_2*%
%TO.N,USB-D+*%
X26600000Y15065000D03*
%TO.P,J4,3,Pin_3*%
%TO.N,USB-D-*%
X27600000Y15065000D03*
%TO.P,J4,4,Pin_4*%
%TO.N,+3.3V*%
X28600000Y15065000D03*
%TD*%
D12*
%TO.P,C9,1*%
%TO.N,+3.3V*%
X11225000Y5925000D03*
%TO.P,C9,2*%
%TO.N,GND*%
X8275000Y5925000D03*
%TD*%
D13*
%TO.P,Q2,1,G*%
%TO.N,Net-(Q2-G)*%
X3837500Y8250000D03*
%TO.P,Q2,2,S*%
%TO.N,GND*%
X3837500Y6350000D03*
%TO.P,Q2,3,D*%
%TO.N,Net-(J2-Pin_3)*%
X1962500Y7300000D03*
%TD*%
D14*
%TO.P,R7,1*%
%TO.N,+3.3V*%
X26850000Y3135000D03*
%TO.P,R7,2*%
%TO.N,IO9*%
X26850000Y2115000D03*
%TD*%
D15*
%TO.P,C5,1*%
%TO.N,Net-(U2-FB)*%
X9750000Y9005000D03*
%TO.P,C5,2*%
%TO.N,+3.3V*%
X9750000Y8045000D03*
%TD*%
D16*
%TO.P,R13,1*%
%TO.N,Net-(U2-FB)*%
X10840000Y10025000D03*
%TO.P,R13,2*%
%TO.N,Net-(R13-Pad2)*%
X11860000Y10025000D03*
%TD*%
D17*
%TO.P,J2,1,Pin_1*%
%TO.N,+24V*%
X9390000Y14275000D03*
D18*
%TO.P,J2,2,Pin_2*%
%TO.N,Net-(J2-Pin_2)*%
X6850000Y14275000D03*
%TO.P,J2,3,Pin_3*%
%TO.N,Net-(J2-Pin_3)*%
X4310000Y14275000D03*
%TO.P,J2,4,Pin_4*%
%TO.N,Net-(J2-Pin_4)*%
X1770000Y14275000D03*
%TD*%
D19*
%TO.P,U1,1,GND*%
%TO.N,GND*%
X39400000Y2200000D03*
%TO.P,U1,2,GND*%
X38600000Y2200000D03*
%TO.P,U1,3,3V3*%
%TO.N,+3.3V*%
X37800000Y2200000D03*
%TO.P,U1,4,NC*%
%TO.N,unconnected-(U1-NC-Pad4)*%
X37000000Y2200000D03*
%TO.P,U1,5,GPIO2/ADC1_CH2*%
%TO.N,Net-(U1-GPIO2{slash}ADC1_CH2)*%
X36200000Y2200000D03*
%TO.P,U1,6,GPIO3/ADC1_CH3*%
%TO.N,unconnected-(U1-GPIO3{slash}ADC1_CH3-Pad6)*%
X35400000Y2200000D03*
%TO.P,U1,7,NC*%
%TO.N,unconnected-(U1-NC-Pad7)*%
X34600000Y2200000D03*
%TO.P,U1,8,EN/CHIP_PU*%
%TO.N,EN*%
X33800000Y2200000D03*
%TO.P,U1,9,NC*%
%TO.N,unconnected-(U1-NC-Pad9)*%
X33000000Y2200000D03*
%TO.P,U1,10,NC*%
%TO.N,unconnected-(U1-NC-Pad10)*%
X32200000Y2200000D03*
%TO.P,U1,11,GND*%
%TO.N,GND*%
X31400000Y2200000D03*
D20*
%TO.P,U1,12,GPIO0/ADC1_CH0/XTAL_32K_P*%
%TO.N,unconnected-(U1-GPIO0{slash}ADC1_CH0{slash}XTAL_32K_P-Pad12)*%
X30500000Y3300000D03*
%TO.P,U1,13,GPIO1/ADC1_CH1/XTAL_32K_N*%
%TO.N,unconnected-(U1-GPIO1{slash}ADC1_CH1{slash}XTAL_32K_N-Pad13)*%
X30500000Y4100000D03*
%TO.P,U1,14,GND*%
%TO.N,GND*%
X30500000Y4900000D03*
%TO.P,U1,15,NC*%
%TO.N,unconnected-(U1-NC-Pad15)*%
X30500000Y5700000D03*
%TO.P,U1,16,GPIO10*%
%TO.N,unconnected-(U1-GPIO10-Pad16)*%
X30500000Y6500000D03*
%TO.P,U1,17,NC*%
%TO.N,unconnected-(U1-NC-Pad17)*%
X30500000Y7300000D03*
%TO.P,U1,18,GPIO4/ADC1_CH4*%
%TO.N,LED-R*%
X30500000Y8100000D03*
%TO.P,U1,19,GPIO5/ADC2_CH0*%
%TO.N,LED-G*%
X30500000Y8900000D03*
%TO.P,U1,20,GPIO6*%
%TO.N,LED-B*%
X30500000Y9700000D03*
%TO.P,U1,21,GPIO7*%
%TO.N,unconnected-(U1-GPIO7-Pad21)*%
X30500000Y10500000D03*
%TO.P,U1,22,GPIO8*%
%TO.N,Net-(U1-GPIO8)*%
X30500000Y11300000D03*
%TO.P,U1,23,GPIO9*%
%TO.N,IO9*%
X30500000Y12100000D03*
%TO.P,U1,24,NC*%
%TO.N,unconnected-(U1-NC-Pad24)*%
X30500000Y12900000D03*
D19*
%TO.P,U1,25,NC*%
%TO.N,unconnected-(U1-NC-Pad25)*%
X31400000Y14000000D03*
%TO.P,U1,26,GPIO18/USB_D-*%
%TO.N,USB-D-*%
X32200000Y14000000D03*
%TO.P,U1,27,GPIO19/USB_D+*%
%TO.N,USB-D+*%
X33000000Y14000000D03*
%TO.P,U1,28,NC*%
%TO.N,unconnected-(U1-NC-Pad28)*%
X33800000Y14000000D03*
%TO.P,U1,29,NC*%
%TO.N,unconnected-(U1-NC-Pad29)*%
X34600000Y14000000D03*
%TO.P,U1,30,GPIO20/U0RXD*%
%TO.N,RX*%
X35400000Y14000000D03*
%TO.P,U1,31,GPIO21/U0TXD*%
%TO.N,TX*%
X36200000Y14000000D03*
%TO.P,U1,32,NC*%
%TO.N,unconnected-(U1-NC-Pad32)*%
X37000000Y14000000D03*
%TO.P,U1,33,NC*%
%TO.N,unconnected-(U1-NC-Pad33)*%
X37800000Y14000000D03*
%TO.P,U1,34,NC*%
%TO.N,unconnected-(U1-NC-Pad34)*%
X38600000Y14000000D03*
%TO.P,U1,35,NC*%
%TO.N,unconnected-(U1-NC-Pad35)*%
X39400000Y14000000D03*
D20*
%TO.P,U1,36,GND*%
%TO.N,GND*%
X40300000Y12900000D03*
%TO.P,U1,37,GND*%
X40300000Y12100000D03*
%TO.P,U1,38,GND*%
X40300000Y11300000D03*
%TO.P,U1,39,GND*%
X40300000Y10500000D03*
%TO.P,U1,40,GND*%
X40300000Y9700000D03*
%TO.P,U1,41,GND*%
X40300000Y8900000D03*
%TO.P,U1,42,GND*%
X40300000Y8100000D03*
%TO.P,U1,43,GND*%
X40300000Y7300000D03*
%TO.P,U1,44,GND*%
X40300000Y6500000D03*
%TO.P,U1,45,GND*%
X40300000Y5700000D03*
%TO.P,U1,46,GND*%
X40300000Y4900000D03*
%TO.P,U1,47,GND*%
X40300000Y4100000D03*
%TO.P,U1,48,GND*%
X40300000Y3300000D03*
D21*
%TO.P,U1,49,GND*%
X33425000Y6125000D03*
X35400000Y6125000D03*
D22*
X37375000Y6125000D03*
D21*
X33425000Y8100000D03*
X35400000Y8100000D03*
X37375000Y8100000D03*
X33425000Y10075000D03*
X35400000Y10075000D03*
X37375000Y10075000D03*
D23*
%TO.P,U1,50,GND*%
X40350000Y14050000D03*
%TO.P,U1,51,GND*%
X30450000Y14050000D03*
%TO.P,U1,52,GND*%
X30450000Y2150000D03*
%TO.P,U1,53,GND*%
X40350000Y2150000D03*
%TD*%
D14*
%TO.P,R8,1*%
%TO.N,+3.3V*%
X27200000Y12610000D03*
%TO.P,R8,2*%
%TO.N,Net-(U1-GPIO2{slash}ADC1_CH2)*%
X27200000Y11590000D03*
%TD*%
%TO.P,R3,1*%
%TO.N,LED-R*%
X5450000Y3535000D03*
%TO.P,R3,2*%
%TO.N,GND*%
X5450000Y2515000D03*
%TD*%
D24*
%TO.P,C6,1*%
%TO.N,+3.3V*%
X27750000Y5950000D03*
%TO.P,C6,2*%
%TO.N,GND*%
X27750000Y8900000D03*
%TD*%
D14*
%TO.P,R9,1*%
%TO.N,+3.3V*%
X28700000Y12610000D03*
%TO.P,R9,2*%
%TO.N,Net-(U1-GPIO8)*%
X28700000Y11590000D03*
%TD*%
D25*
%TO.P,C7,1*%
%TO.N,+3.3V*%
X27270000Y4525000D03*
%TO.P,C7,2*%
%TO.N,GND*%
X28230000Y4525000D03*
%TD*%
D26*
%TO.P,R5,1*%
%TO.N,LED-B*%
X6360000Y11725000D03*
%TO.P,R5,2*%
%TO.N,Net-(Q3-G)*%
X5340000Y11725000D03*
%TD*%
D27*
%TO.P,R11,1*%
%TO.N,+24V*%
X18850000Y9650000D03*
%TO.P,R11,2*%
%TO.N,Net-(U2-IN)*%
X18850000Y8000000D03*
%TD*%
D14*
%TO.P,R2,1*%
%TO.N,LED-G*%
X5450000Y7535000D03*
%TO.P,R2,2*%
%TO.N,GND*%
X5450000Y6515000D03*
%TD*%
D26*
%TO.P,R1,1*%
%TO.N,LED-B*%
X6360000Y10725000D03*
%TO.P,R1,2*%
%TO.N,GND*%
X5340000Y10725000D03*
%TD*%
D17*
%TO.P,J1,1,Pin_1*%
%TO.N,GND*%
X22550000Y14325000D03*
D18*
%TO.P,J1,2,Pin_2*%
%TO.N,+24V*%
X20010000Y14325000D03*
%TD*%
D28*
%TO.P,L1,1,1*%
%TO.N,Net-(U2-LX)*%
X15925000Y4800000D03*
%TO.P,L1,2,2*%
%TO.N,+3.3V*%
X12925000Y4800000D03*
%TD*%
D29*
%TO.P,R14,1*%
%TO.N,Net-(U2-IN)*%
X17450000Y8815000D03*
%TO.P,R14,2*%
%TO.N,Net-(U2-EN)*%
X17450000Y9835000D03*
%TD*%
D30*
%TO.P,C4,1*%
%TO.N,Net-(U2-LX)*%
X15180000Y1800000D03*
%TO.P,C4,2*%
%TO.N,Net-(U2-BS)*%
X14220000Y1800000D03*
%TD*%
D29*
%TO.P,R4,1*%
%TO.N,LED-G*%
X5450000Y8515000D03*
%TO.P,R4,2*%
%TO.N,Net-(Q2-G)*%
X5450000Y9535000D03*
%TD*%
D31*
%TO.P,C3,1*%
%TO.N,Net-(U2-IN)*%
X18050000Y6400000D03*
%TO.P,C3,2*%
%TO.N,GND*%
X18050000Y3450000D03*
%TD*%
D13*
%TO.P,Q3,1,G*%
%TO.N,Net-(Q3-G)*%
X3837500Y11750000D03*
%TO.P,Q3,2,S*%
%TO.N,GND*%
X3837500Y9850000D03*
%TO.P,Q3,3,D*%
%TO.N,Net-(J2-Pin_4)*%
X1962500Y10800000D03*
%TD*%
D14*
%TO.P,R10,1*%
%TO.N,+3.3V*%
X25750000Y3135000D03*
%TO.P,R10,2*%
%TO.N,EN*%
X25750000Y2115000D03*
%TD*%
D25*
%TO.P,C1,1*%
%TO.N,+24V*%
X20920000Y11750000D03*
%TO.P,C1,2*%
%TO.N,GND*%
X21880000Y11750000D03*
%TD*%
D29*
%TO.P,R6,1*%
%TO.N,LED-R*%
X5450000Y4515000D03*
%TO.P,R6,2*%
%TO.N,Net-(Q1-G)*%
X5450000Y5535000D03*
%TD*%
D13*
%TO.P,Q1,1,G*%
%TO.N,Net-(Q1-G)*%
X3837500Y4800000D03*
%TO.P,Q1,2,S*%
%TO.N,GND*%
X3837500Y2900000D03*
%TO.P,Q1,3,D*%
%TO.N,Net-(J2-Pin_2)*%
X1962500Y3850000D03*
%TD*%
D12*
%TO.P,C10,1*%
%TO.N,+3.3V*%
X11225000Y3525000D03*
%TO.P,C10,2*%
%TO.N,GND*%
X8275000Y3525000D03*
%TD*%
D32*
%TO.P,U2,1,BS*%
%TO.N,Net-(U2-BS)*%
X13637500Y7900000D03*
%TO.P,U2,2,GND*%
%TO.N,GND*%
X13637500Y8850000D03*
%TO.P,U2,3,FB*%
%TO.N,Net-(U2-FB)*%
X13637500Y9800000D03*
%TO.P,U2,4,EN*%
%TO.N,Net-(U2-EN)*%
X15912500Y9800000D03*
%TO.P,U2,5,IN*%
%TO.N,Net-(U2-IN)*%
X15912500Y8850000D03*
%TO.P,U2,6,LX*%
%TO.N,Net-(U2-LX)*%
X15912500Y7900000D03*
%TD*%
D33*
%TO.P,C2,1*%
%TO.N,+24V*%
X15982380Y14300000D03*
D34*
%TO.P,C2,2*%
%TO.N,GND*%
X13482380Y14300000D03*
%TD*%
D14*
%TO.P,R15,1*%
%TO.N,Net-(R13-Pad2)*%
X11950000Y9035000D03*
%TO.P,R15,2*%
%TO.N,GND*%
X11950000Y8015000D03*
%TD*%
D29*
%TO.P,R12,1*%
%TO.N,+3.3V*%
X10850000Y8015000D03*
%TO.P,R12,2*%
%TO.N,Net-(U2-FB)*%
X10850000Y9035000D03*
%TD*%
D30*
%TO.P,C11,1*%
%TO.N,+3.3V*%
X11030000Y1525000D03*
%TO.P,C11,2*%
%TO.N,GND*%
X10070000Y1525000D03*
%TD*%
D35*
%TO.N,GND*%
X39400000Y3300000D03*
X40350000Y1300000D03*
X33400000Y10100000D03*
X4825000Y2900000D03*
X2750000Y2900000D03*
X31400000Y2900000D03*
X39400000Y11300000D03*
X2750000Y9850000D03*
X9325000Y3100000D03*
X2750000Y6350000D03*
X9325000Y7050000D03*
X37400000Y10100000D03*
X18350000Y5350000D03*
X9325000Y5075000D03*
X39400000Y9700000D03*
X33400000Y8100000D03*
X40350000Y15500000D03*
X33400000Y6100000D03*
X29400000Y12000000D03*
X35400000Y8100000D03*
X24560000Y3950000D03*
X12725000Y8850000D03*
X37400000Y6100000D03*
X17425000Y5350000D03*
X14775000Y8850000D03*
X4825000Y6350000D03*
X39400000Y6500000D03*
X35400000Y10100000D03*
X35400000Y6100000D03*
X37400000Y8100000D03*
X40350000Y14750000D03*
X39400000Y4900000D03*
X39400000Y12900000D03*
X40350000Y600000D03*
%TO.N,+24V*%
X20150000Y8700000D03*
%TO.N,Net-(J2-Pin_2)*%
X3050000Y3850000D03*
X4050000Y3850000D03*
%TO.N,Net-(J2-Pin_3)*%
X4050000Y7300000D03*
X3050000Y7300000D03*
%TO.N,+3.3V*%
X12050000Y1900000D03*
X27950000Y12525000D03*
X26550000Y5225000D03*
X10600000Y2225000D03*
%TO.N,IO9*%
X31400000Y12100000D03*
X28192500Y1367500D03*
%TO.N,TX*%
X33100000Y11300000D03*
%TO.N,Net-(U1-GPIO2{slash}ADC1_CH2)*%
X31400000Y9000000D03*
X27950000Y10250000D03*
%TO.N,RX*%
X25250000Y4000000D03*
X32300000Y11300000D03*
X25295000Y1325000D03*
%TO.N,EN*%
X33800000Y2950000D03*
X25850000Y1025000D03*
%TO.N,USB-D+*%
X33000000Y14700000D03*
%TO.N,LED-B*%
X7125000Y11700000D03*
X29450000Y9700000D03*
%TO.N,LED-G*%
X7037500Y8112500D03*
X29450000Y8900000D03*
%TO.N,LED-R*%
X29450000Y8125000D03*
X7125000Y4750000D03*
%TO.N,USB-D-*%
X32200000Y14675000D03*
%TO.N,Net-(J2-Pin_4)*%
X4050000Y10800000D03*
X3050000Y10800000D03*
%TD*%
D36*
%TO.N,GND*%
X30500000Y4900000D02*
X31050000Y4900000D01*
X5065000Y2900000D02*
X5450000Y2515000D01*
X18350000Y4875000D02*
X17875000Y4400000D01*
X38600000Y2200000D02*
X40300000Y2200000D01*
X9325000Y7050000D02*
X9325000Y4100000D01*
X2750000Y2900000D02*
X5065000Y2900000D01*
X9325000Y4100000D02*
X9325000Y2765000D01*
X40300000Y2200000D02*
X40350000Y2150000D01*
X30450000Y2150000D02*
X31350000Y2150000D01*
X31350000Y2150000D02*
X31400000Y2200000D01*
X40350000Y2150000D02*
X40350000Y14050000D01*
X31400000Y4550000D02*
X31400000Y3050000D01*
X13637500Y8850000D02*
X14775000Y8850000D01*
X17425000Y5350000D02*
X17425000Y4850000D01*
X31400000Y2200000D02*
X31400000Y3050000D01*
X13637500Y8850000D02*
X12725000Y8850000D01*
X17425000Y4850000D02*
X17875000Y4400000D01*
X18350000Y5350000D02*
X18350000Y4875000D01*
X9325000Y2765000D02*
X9720000Y2370000D01*
X2750000Y6350000D02*
X5425000Y6350000D01*
X31050000Y4900000D02*
X31400000Y4550000D01*
X13637500Y8850000D02*
X13587500Y8900000D01*
%TO.N,+24V*%
X18850000Y9650000D02*
X18875000Y9650000D01*
X20150000Y8700000D02*
X19200000Y9650000D01*
X20920000Y13415000D02*
X20010000Y14325000D01*
X20920000Y11695000D02*
X20920000Y13415000D01*
X18875000Y9650000D02*
X20920000Y11695000D01*
X19200000Y9650000D02*
X18850000Y9650000D01*
%TO.N,Net-(J2-Pin_2)*%
X4050000Y3850000D02*
X1962500Y3850000D01*
%TO.N,Net-(J2-Pin_3)*%
X1962500Y7300000D02*
X4050000Y7300000D01*
D37*
%TO.N,Net-(Q1-G)*%
X4715000Y4800000D02*
X5450000Y5535000D01*
X3837500Y4800000D02*
X4715000Y4800000D01*
%TO.N,Net-(Q2-G)*%
X4165000Y8250000D02*
X5263000Y9348000D01*
X3837500Y8250000D02*
X4165000Y8250000D01*
X5263000Y9348000D02*
X5450000Y9348000D01*
%TO.N,Net-(Q3-G)*%
X3837500Y11750000D02*
X5425000Y11750000D01*
D38*
%TO.N,Net-(U1-GPIO8)*%
X28700000Y11590000D02*
X28990000Y11300000D01*
X28990000Y11300000D02*
X30500000Y11300000D01*
D36*
%TO.N,+3.3V*%
X26550000Y5225000D02*
X26950000Y5625000D01*
D38*
X26850000Y3135000D02*
X26960000Y3135000D01*
D39*
X29075000Y3725000D02*
X29450000Y3350000D01*
X27550000Y3725000D02*
X29075000Y3725000D01*
D36*
X37450000Y1150000D02*
X37800000Y1500000D01*
D38*
X25750000Y3135000D02*
X26850000Y3135000D01*
D39*
X27270000Y4525000D02*
X27270000Y4005000D01*
D36*
X29450000Y1600000D02*
X29900000Y1150000D01*
X37800000Y1500000D02*
X37800000Y2200000D01*
D39*
X27750000Y5950000D02*
X27270000Y5470000D01*
X27270000Y5470000D02*
X27270000Y4525000D01*
D36*
X27865000Y12610000D02*
X27200000Y12610000D01*
D39*
X27270000Y4005000D02*
X27550000Y3725000D01*
D36*
X27950000Y12525000D02*
X27865000Y12610000D01*
X29900000Y1150000D02*
X37450000Y1150000D01*
X28035000Y12610000D02*
X28700000Y12610000D01*
X26950000Y5625000D02*
X28325000Y5625000D01*
X27950000Y12525000D02*
X28035000Y12610000D01*
D38*
X26960000Y3135000D02*
X27550000Y3725000D01*
D36*
X29450000Y3350000D02*
X29450000Y1600000D01*
D38*
%TO.N,IO9*%
X27445000Y2115000D02*
X28192500Y1367500D01*
X26850000Y2115000D02*
X27445000Y2115000D01*
X31400000Y12100000D02*
X30500000Y12100000D01*
%TO.N,TX*%
X33100000Y12100000D02*
X33450000Y12450000D01*
X36200000Y13025000D02*
X36200000Y14000000D01*
X33100000Y11300000D02*
X33100000Y12100000D01*
X35625000Y12450000D02*
X36200000Y13025000D01*
X33450000Y12450000D02*
X35625000Y12450000D01*
%TO.N,Net-(U1-GPIO2{slash}ADC1_CH2)*%
X31400000Y9000000D02*
X31400000Y5400000D01*
X27950000Y10840000D02*
X27200000Y11590000D01*
X32100000Y4700000D02*
X35900000Y4700000D01*
X31400000Y5400000D02*
X32100000Y4700000D01*
X35900000Y4700000D02*
X36200000Y4400000D01*
X36200000Y4400000D02*
X36200000Y2200000D01*
X27950000Y10250000D02*
X27950000Y10840000D01*
%TO.N,RX*%
X32650000Y12850000D02*
X32300000Y12500000D01*
X25150000Y3900000D02*
X25250000Y4000000D01*
X25150000Y1470000D02*
X25150000Y3900000D01*
X35400000Y13300000D02*
X35400000Y14000000D01*
X34950000Y12850000D02*
X32650000Y12850000D01*
X25295000Y1325000D02*
X25150000Y1470000D01*
X35400000Y13300000D02*
X34950000Y12850000D01*
X32300000Y12500000D02*
X32300000Y11300000D01*
D36*
%TO.N,Net-(U2-IN)*%
X17350000Y8650000D02*
X18000000Y8000000D01*
X18000000Y7775000D02*
X18050000Y7725000D01*
X18050000Y7725000D02*
X18050000Y6400000D01*
X18000000Y8000000D02*
X18000000Y7775000D01*
X18800000Y8000000D02*
X18000000Y8000000D01*
X15912500Y8850000D02*
X17150000Y8850000D01*
X17150000Y8850000D02*
X17350000Y8650000D01*
%TO.N,Net-(U2-BS)*%
X14050000Y1970000D02*
X14220000Y1800000D01*
X13637500Y7900000D02*
X14050000Y7487500D01*
X14050000Y7487500D02*
X14050000Y1970000D01*
D38*
%TO.N,Net-(U2-FB)*%
X11387000Y10572000D02*
X10840000Y10025000D01*
X12865500Y10572000D02*
X11387000Y10572000D01*
X10850000Y9035000D02*
X9780000Y9035000D01*
X13637500Y9800000D02*
X12865500Y10572000D01*
X9780000Y9035000D02*
X9750000Y9005000D01*
X10840000Y10025000D02*
X10840000Y9045000D01*
X10840000Y9045000D02*
X10850000Y9035000D01*
D37*
%TO.N,Net-(U2-EN)*%
X17450000Y9835000D02*
X17415000Y9800000D01*
X17415000Y9800000D02*
X15912500Y9800000D01*
D38*
%TO.N,EN*%
X25850000Y2015000D02*
X25750000Y2115000D01*
X33800000Y2950000D02*
X33800000Y2200000D01*
X25850000Y1025000D02*
X25850000Y2015000D01*
D37*
%TO.N,USB-D+*%
X33000000Y14700000D02*
X33000000Y14000000D01*
%TO.N,LED-B*%
X7100000Y11725000D02*
X7125000Y11700000D01*
X6360000Y11725000D02*
X6360000Y10725000D01*
X6360000Y11725000D02*
X7100000Y11725000D01*
X29450000Y9700000D02*
X30500000Y9700000D01*
%TO.N,LED-G*%
X29450000Y8900000D02*
X30500000Y8900000D01*
X7037500Y8112500D02*
X6460000Y7535000D01*
X6460000Y7535000D02*
X5450000Y7535000D01*
X5450000Y7535000D02*
X5450000Y8515000D01*
%TO.N,LED-R*%
X5450000Y4515000D02*
X5450000Y3535000D01*
X29450000Y8125000D02*
X29475000Y8100000D01*
X29475000Y8100000D02*
X30500000Y8100000D01*
X7125000Y4750000D02*
X6890000Y4515000D01*
X6890000Y4515000D02*
X5450000Y4515000D01*
%TO.N,USB-D-*%
X32200000Y14675000D02*
X32200000Y14000000D01*
D38*
%TO.N,Net-(R13-Pad2)*%
X11860000Y9125000D02*
X11950000Y9035000D01*
X11860000Y10025000D02*
X11860000Y9125000D01*
D36*
%TO.N,Net-(J2-Pin_4)*%
X1962500Y10800000D02*
X4050000Y10800000D01*
%TD*%
%TA.AperFunction,Conductor*%
%TO.N,GND*%
G36*
X26281454Y15930315D02*
G01*
X26327209Y15877511D01*
X26337153Y15808353D01*
X26308128Y15744797D01*
X26280387Y15721006D01*
X26144795Y15635808D01*
X26029192Y15520205D01*
X25942210Y15381775D01*
X25888212Y15227456D01*
X25869909Y15065004D01*
X25869909Y15064997D01*
X25888212Y14902545D01*
X25942210Y14748226D01*
X26001904Y14653224D01*
X26029192Y14609796D01*
X26144796Y14494192D01*
X26283225Y14407211D01*
X26437539Y14353214D01*
X26437542Y14353214D01*
X26437544Y14353213D01*
X26599996Y14334909D01*
X26600000Y14334909D01*
X26600004Y14334909D01*
X26762455Y14353213D01*
X26762456Y14353214D01*
X26762461Y14353214D01*
X26916775Y14407211D01*
X27034028Y14480887D01*
X27101264Y14499887D01*
X27165971Y14480887D01*
X27283225Y14407211D01*
X27437539Y14353214D01*
X27437542Y14353214D01*
X27437544Y14353213D01*
X27599996Y14334909D01*
X27600000Y14334909D01*
X27600004Y14334909D01*
X27762455Y14353213D01*
X27762456Y14353214D01*
X27762461Y14353214D01*
X27916775Y14407211D01*
X28034028Y14480887D01*
X28101264Y14499887D01*
X28165971Y14480887D01*
X28283225Y14407211D01*
X28437539Y14353214D01*
X28437542Y14353214D01*
X28437544Y14353213D01*
X28599996Y14334909D01*
X28600000Y14334909D01*
X28600004Y14334909D01*
X28762455Y14353213D01*
X28762456Y14353214D01*
X28762461Y14353214D01*
X28916775Y14407211D01*
X29055204Y14494192D01*
X29170808Y14609796D01*
X29257789Y14748225D01*
X29311786Y14902539D01*
X29316009Y14940017D01*
X29330091Y15064997D01*
X29330091Y15065004D01*
X29311787Y15227456D01*
X29311786Y15227458D01*
X29311786Y15227461D01*
X29257789Y15381775D01*
X29170808Y15520204D01*
X29055204Y15635808D01*
X28919613Y15721006D01*
X28873322Y15773341D01*
X28862674Y15842395D01*
X28891049Y15906243D01*
X28949439Y15944615D01*
X28985585Y15950000D01*
X40876000Y15950000D01*
X40943039Y15930315D01*
X40988794Y15877511D01*
X41000000Y15826000D01*
X41000000Y274000D01*
X40980315Y206961D01*
X40927511Y161206D01*
X40876000Y150000D01*
X274000Y150000D01*
X206961Y169685D01*
X161206Y222489D01*
X150000Y274000D01*
X150000Y4054270D01*
X924500Y4054270D01*
X924500Y3645731D01*
X927353Y3615301D01*
X927353Y3615299D01*
X972206Y3487120D01*
X972207Y3487118D01*
X1052850Y3377850D01*
X1162118Y3297207D01*
X1175453Y3292541D01*
X1290299Y3252354D01*
X1320730Y3249500D01*
X1320734Y3249500D01*
X2604270Y3249500D01*
X2634699Y3252354D01*
X2673025Y3265765D01*
X2749549Y3292541D01*
X2790504Y3299500D01*
X4122472Y3299500D01*
X4122475Y3299500D01*
X4262485Y3337016D01*
X4388015Y3409491D01*
X4490509Y3511985D01*
X4562984Y3637515D01*
X4585726Y3722389D01*
X4613973Y3768733D01*
X4600500Y3819363D01*
X4600500Y3922473D01*
X4600500Y3922475D01*
X4562984Y4062485D01*
X4561680Y4064743D01*
X4561159Y4066891D01*
X4559872Y4069999D01*
X4560356Y4070200D01*
X4545205Y4132641D01*
X4568054Y4198669D01*
X4622973Y4241862D01*
X4628070Y4243774D01*
X4637882Y4247207D01*
X4671341Y4271901D01*
X4736968Y4295871D01*
X4805138Y4280556D01*
X4854206Y4230816D01*
X4862014Y4213086D01*
X4866218Y4201073D01*
X4875619Y4174206D01*
X4929166Y4101653D01*
X4931394Y4098634D01*
X4955365Y4033005D01*
X4940050Y3964834D01*
X4931394Y3951368D01*
X4922348Y3939109D01*
X4875619Y3875794D01*
X4841541Y3778407D01*
X4814356Y3740507D01*
X4829465Y3693245D01*
X4829500Y3690294D01*
X4829500Y3347547D01*
X4832258Y3318126D01*
X4832260Y3318116D01*
X4875618Y3194208D01*
X4953576Y3088577D01*
X4979639Y3069342D01*
X5059206Y3010619D01*
X5084698Y3001699D01*
X5183119Y2967259D01*
X5190796Y2966540D01*
X5212543Y2964500D01*
X5687456Y2964501D01*
X5716879Y2967259D01*
X5840794Y3010619D01*
X5946423Y3088577D01*
X6024381Y3194206D01*
X6046061Y3256164D01*
X6067741Y3318119D01*
X6067741Y3318121D01*
X6068367Y3324793D01*
X6070500Y3347543D01*
X6070499Y3722456D01*
X6067741Y3751879D01*
X6061843Y3768733D01*
X6040402Y3830009D01*
X6024381Y3875794D01*
X6012518Y3891867D01*
X5988548Y3957495D01*
X6003863Y4025665D01*
X6053603Y4074734D01*
X6112289Y4089500D01*
X6946016Y4089500D01*
X6946018Y4089500D01*
X7054237Y4118497D01*
X7151263Y4174515D01*
X7177822Y4201075D01*
X7239141Y4234559D01*
X7249290Y4236329D01*
X7262183Y4238026D01*
X7390018Y4290976D01*
X7499791Y4375209D01*
X7584024Y4484982D01*
X7636974Y4612817D01*
X7655035Y4750000D01*
X7636974Y4887183D01*
X7586548Y5008924D01*
X7584025Y5015015D01*
X7584024Y5015016D01*
X7584024Y5015017D01*
X7499791Y5124791D01*
X7499789Y5124792D01*
X7499789Y5124793D01*
X7433220Y5175873D01*
X7390018Y5209024D01*
X7390017Y5209025D01*
X7390015Y5209026D01*
X7262186Y5261973D01*
X7262184Y5261974D01*
X7262183Y5261974D01*
X7170727Y5274015D01*
X7125001Y5280035D01*
X7124999Y5280035D01*
X7065109Y5272150D01*
X6987817Y5261974D01*
X6987816Y5261974D01*
X6987813Y5261973D01*
X6859985Y5209026D01*
X6750209Y5124791D01*
X6665973Y5015014D01*
X6661910Y5007975D01*
X6660268Y5008924D01*
X6622984Y4962649D01*
X6556691Y4940579D01*
X6552256Y4940500D01*
X6082768Y4940500D01*
X6015729Y4960185D01*
X5969974Y5012989D01*
X5960030Y5082147D01*
X5982998Y5138133D01*
X6024380Y5194205D01*
X6024381Y5194206D01*
X6060516Y5297472D01*
X6067741Y5318119D01*
X6067741Y5318121D01*
X6070500Y5347543D01*
X6070499Y5722456D01*
X6067741Y5751879D01*
X6024381Y5875794D01*
X5957285Y5966706D01*
X5946423Y5981424D01*
X5853620Y6049915D01*
X5840794Y6059381D01*
X5840792Y6059382D01*
X5716880Y6102742D01*
X5687461Y6105500D01*
X5212546Y6105500D01*
X5183125Y6102742D01*
X5183115Y6102740D01*
X5059207Y6059382D01*
X4953576Y5981424D01*
X4875618Y5875793D01*
X4832258Y5751882D01*
X4832258Y5751880D01*
X4829500Y5722462D01*
X4829500Y5567611D01*
X4809815Y5500572D01*
X4793185Y5479935D01*
X4753367Y5440116D01*
X4713837Y5400586D01*
X4652513Y5367102D01*
X4585201Y5371227D01*
X4509700Y5397647D01*
X4479270Y5400500D01*
X4479266Y5400500D01*
X3195734Y5400500D01*
X3195730Y5400500D01*
X3165300Y5397647D01*
X3165298Y5397647D01*
X3037119Y5352794D01*
X3037117Y5352793D01*
X2927850Y5272150D01*
X2847207Y5162883D01*
X2847206Y5162881D01*
X2802353Y5034702D01*
X2802353Y5034700D01*
X2799500Y5004270D01*
X2799500Y4595739D01*
X2801401Y4575463D01*
X2788060Y4506879D01*
X2739758Y4456395D01*
X2671830Y4440039D01*
X2636995Y4446844D01*
X2634704Y4447646D01*
X2634699Y4447647D01*
X2604270Y4450500D01*
X2604266Y4450500D01*
X1320734Y4450500D01*
X1320730Y4450500D01*
X1290300Y4447647D01*
X1290298Y4447647D01*
X1162119Y4402794D01*
X1162117Y4402793D01*
X1052850Y4322150D01*
X972207Y4212883D01*
X972206Y4212881D01*
X927353Y4084702D01*
X927353Y4084700D01*
X924500Y4054270D01*
X150000Y4054270D01*
X150000Y11004270D01*
X924500Y11004270D01*
X924500Y10595731D01*
X927353Y10565301D01*
X927353Y10565299D01*
X972206Y10437120D01*
X972207Y10437118D01*
X1052850Y10327850D01*
X1162118Y10247207D01*
X1175453Y10242541D01*
X1290299Y10202354D01*
X1320730Y10199500D01*
X1320734Y10199500D01*
X2604270Y10199500D01*
X2634699Y10202354D01*
X2673025Y10215765D01*
X2749549Y10242541D01*
X2790504Y10249500D01*
X4122472Y10249500D01*
X4122475Y10249500D01*
X4262485Y10287016D01*
X4388015Y10359491D01*
X4490509Y10461985D01*
X4562984Y10587515D01*
X4600500Y10727525D01*
X4600500Y10872475D01*
X4562984Y11012485D01*
X4561680Y11014743D01*
X4561159Y11016891D01*
X4559872Y11019999D01*
X4560356Y11020200D01*
X4545205Y11082641D01*
X4568054Y11148669D01*
X4622973Y11191862D01*
X4628070Y11193774D01*
X4637882Y11197207D01*
X4718634Y11256805D01*
X4784258Y11280774D01*
X4852429Y11265459D01*
X4886968Y11235117D01*
X4887003Y11235151D01*
X4887532Y11234622D01*
X4892033Y11230668D01*
X4893572Y11228582D01*
X4893575Y11228580D01*
X4893577Y11228577D01*
X4999206Y11150619D01*
X5019331Y11143577D01*
X5123119Y11107259D01*
X5130796Y11106540D01*
X5152543Y11104500D01*
X5527456Y11104501D01*
X5556879Y11107259D01*
X5629573Y11132697D01*
X5699351Y11136259D01*
X5759979Y11101530D01*
X5792206Y11039537D01*
X5791783Y10999503D01*
X5792963Y10999392D01*
X5789500Y10962462D01*
X5789500Y10487547D01*
X5792258Y10458126D01*
X5792260Y10458116D01*
X5832160Y10344091D01*
X5835619Y10334206D01*
X5860098Y10301038D01*
X5868550Y10289586D01*
X5892520Y10223957D01*
X5877204Y10155787D01*
X5827464Y10106719D01*
X5759091Y10092332D01*
X5727824Y10098912D01*
X5716880Y10102742D01*
X5687461Y10105500D01*
X5212546Y10105500D01*
X5183125Y10102742D01*
X5183115Y10102740D01*
X5059207Y10059382D01*
X4953576Y9981424D01*
X4875618Y9875793D01*
X4832258Y9751882D01*
X4832258Y9751880D01*
X4829500Y9722462D01*
X4829500Y9567611D01*
X4809815Y9500572D01*
X4793181Y9479930D01*
X4200071Y8886819D01*
X4138748Y8853334D01*
X4112390Y8850500D01*
X3195730Y8850500D01*
X3165300Y8847647D01*
X3165298Y8847647D01*
X3037119Y8802794D01*
X3037117Y8802793D01*
X2927850Y8722150D01*
X2847207Y8612883D01*
X2847206Y8612881D01*
X2802353Y8484702D01*
X2802353Y8484700D01*
X2799500Y8454270D01*
X2799500Y8045739D01*
X2801401Y8025463D01*
X2788060Y7956879D01*
X2739758Y7906395D01*
X2671830Y7890039D01*
X2636995Y7896844D01*
X2634704Y7897646D01*
X2634699Y7897647D01*
X2604270Y7900500D01*
X2604266Y7900500D01*
X1320734Y7900500D01*
X1320730Y7900500D01*
X1290300Y7897647D01*
X1290298Y7897647D01*
X1162119Y7852794D01*
X1162117Y7852793D01*
X1052850Y7772150D01*
X972207Y7662883D01*
X972206Y7662881D01*
X927353Y7534702D01*
X927353Y7534700D01*
X924500Y7504270D01*
X924500Y7095731D01*
X927353Y7065301D01*
X927353Y7065299D01*
X972206Y6937120D01*
X972207Y6937118D01*
X1052850Y6827850D01*
X1162118Y6747207D01*
X1175453Y6742541D01*
X1290299Y6702354D01*
X1320730Y6699500D01*
X1320734Y6699500D01*
X2604270Y6699500D01*
X2634699Y6702354D01*
X2684057Y6719625D01*
X2749549Y6742541D01*
X2790504Y6749500D01*
X4122472Y6749500D01*
X4122475Y6749500D01*
X4262485Y6787016D01*
X4388015Y6859491D01*
X4490509Y6961985D01*
X4562984Y7087515D01*
X4600500Y7227525D01*
X4600500Y7250639D01*
X4620185Y7317678D01*
X4672989Y7363433D01*
X4742147Y7373377D01*
X4805703Y7344352D01*
X4841541Y7291594D01*
X4873338Y7200723D01*
X4875619Y7194206D01*
X4892900Y7170791D01*
X4953576Y7088577D01*
X4985117Y7065299D01*
X5059206Y7010619D01*
X5094766Y6998176D01*
X5183119Y6967259D01*
X5190796Y6966540D01*
X5212543Y6964500D01*
X5687456Y6964501D01*
X5716879Y6967259D01*
X5840794Y7010619D01*
X5941942Y7085271D01*
X6007571Y7109241D01*
X6015576Y7109500D01*
X6516016Y7109500D01*
X6516018Y7109500D01*
X6624237Y7138497D01*
X6721263Y7194515D01*
X7090323Y7563577D01*
X7151644Y7597060D01*
X7161789Y7598829D01*
X7174683Y7600526D01*
X7302518Y7653476D01*
X7412291Y7737709D01*
X7496524Y7847482D01*
X7549474Y7975317D01*
X7567535Y8112500D01*
X7549474Y8249683D01*
X7514174Y8334906D01*
X7496525Y8377515D01*
X7496524Y8377516D01*
X7496524Y8377517D01*
X7420955Y8476000D01*
X8969500Y8476000D01*
X8969500Y7569318D01*
X8972307Y7528002D01*
X8976843Y7494770D01*
X8976845Y7494760D01*
X8979380Y7479194D01*
X9020198Y7374614D01*
X9020203Y7374603D01*
X9047898Y7330125D01*
X9057131Y7315297D01*
X9094720Y7266635D01*
X9094722Y7266633D01*
X9116776Y7250639D01*
X9185605Y7200721D01*
X9243538Y7173258D01*
X9248742Y7170791D01*
X9248745Y7170790D01*
X9336045Y7143797D01*
X9335386Y7141667D01*
X9388376Y7111821D01*
X9421052Y7050063D01*
X9422023Y7044701D01*
X9425287Y7024096D01*
X9426813Y7004264D01*
X9426791Y6998176D01*
X9426792Y6998169D01*
X9426792Y6998167D01*
X9426911Y6997342D01*
X9436735Y6929010D01*
X9451565Y6869344D01*
X9451567Y6869340D01*
X9508240Y6772437D01*
X9508245Y6772429D01*
X9554001Y6719624D01*
X9554011Y6719613D01*
X9598727Y6677452D01*
X9598729Y6677451D01*
X9598733Y6677447D01*
X9651702Y6650514D01*
X9702538Y6602582D01*
X9719500Y6539982D01*
X9719500Y3224000D01*
X9719501Y3223991D01*
X9726481Y3159065D01*
X9726483Y3159053D01*
X9737688Y3107547D01*
X9748644Y3069346D01*
X9748646Y3069342D01*
X9788206Y3001699D01*
X9805325Y2972429D01*
X9840016Y2932393D01*
X9851081Y2919624D01*
X9851091Y2919613D01*
X9895807Y2877452D01*
X9895809Y2877451D01*
X9895813Y2877447D01*
X9995889Y2826561D01*
X9995890Y2826561D01*
X10000999Y2823963D01*
X9999840Y2821686D01*
X10046292Y2785381D01*
X10069341Y2719423D01*
X10069500Y2713152D01*
X10069500Y1967076D01*
X10071250Y1934433D01*
X10071254Y1934375D01*
X10074079Y1908107D01*
X10074919Y1901061D01*
X10074921Y1901052D01*
X10109699Y1794316D01*
X10109701Y1794312D01*
X10109702Y1794309D01*
X10119971Y1775502D01*
X10125843Y1764748D01*
X10131013Y1754100D01*
X10142056Y1728288D01*
X10151102Y1714750D01*
X10171980Y1648072D01*
X10172000Y1645859D01*
X10172000Y1376358D01*
X10163791Y1331991D01*
X10151907Y1300978D01*
X10151898Y1300951D01*
X10147796Y1287515D01*
X10139498Y1260339D01*
X10135871Y1174000D01*
X10134785Y1148163D01*
X10144729Y1079009D01*
X10159558Y1019344D01*
X10159560Y1019340D01*
X10188590Y969702D01*
X10216238Y922429D01*
X10246002Y888079D01*
X10261994Y869624D01*
X10262004Y869613D01*
X10306720Y827452D01*
X10306722Y827451D01*
X10306726Y827447D01*
X10406802Y776561D01*
X10473841Y756876D01*
X10559913Y744500D01*
X10559916Y744500D01*
X12150990Y744500D01*
X12151000Y744500D01*
X12215941Y751482D01*
X12267452Y762688D01*
X12305658Y773646D01*
X12402571Y830325D01*
X12455375Y876080D01*
X12455382Y876088D01*
X12455387Y876092D01*
X12497548Y920808D01*
X12497553Y920813D01*
X12548439Y1020889D01*
X12568124Y1087928D01*
X12580500Y1174000D01*
X12580500Y2120500D01*
X12600185Y2187539D01*
X12652989Y2233294D01*
X12704500Y2244500D01*
X13375500Y2244500D01*
X13442539Y2224815D01*
X13488294Y2172011D01*
X13499500Y2120500D01*
X13499500Y1897526D01*
X13532196Y1775502D01*
X13537015Y1757518D01*
X13537016Y1757515D01*
X13609490Y1631985D01*
X13609492Y1631983D01*
X13614436Y1625540D01*
X13612091Y1623741D01*
X13638789Y1574848D01*
X13641081Y1560068D01*
X13642289Y1547186D01*
X13642291Y1547174D01*
X13686147Y1421845D01*
X13686148Y1421843D01*
X13765001Y1315001D01*
X13871843Y1236148D01*
X13906551Y1224003D01*
X13997173Y1192292D01*
X13997177Y1192292D01*
X13997181Y1192290D01*
X14012057Y1190895D01*
X14026930Y1189500D01*
X14026934Y1189500D01*
X14275987Y1189500D01*
X14343026Y1169815D01*
X14388781Y1117011D01*
X14394964Y1100435D01*
X14433351Y969702D01*
X14435467Y962496D01*
X14461212Y922437D01*
X14513251Y841463D01*
X14513259Y841452D01*
X14559003Y788660D01*
X14559006Y788657D01*
X14559010Y788653D01*
X14667744Y694433D01*
X14667747Y694432D01*
X14667748Y694431D01*
X14793466Y637016D01*
X14798621Y634662D01*
X14865660Y614977D01*
X14865664Y614976D01*
X15008080Y594500D01*
X15008083Y594500D01*
X16800990Y594500D01*
X16801000Y594500D01*
X16908456Y606053D01*
X16959967Y617259D01*
X16994197Y628653D01*
X17062497Y651384D01*
X17062501Y651387D01*
X17062504Y651387D01*
X17183543Y729175D01*
X17236347Y774930D01*
X17330567Y883664D01*
X17390338Y1014541D01*
X17410023Y1081580D01*
X17410024Y1081584D01*
X17430500Y1224000D01*
X17430500Y1622460D01*
X22544200Y1622460D01*
X22544200Y1475541D01*
X22572858Y1331466D01*
X22572861Y1331456D01*
X22629078Y1195734D01*
X22629083Y1195725D01*
X22710698Y1073581D01*
X22710701Y1073577D01*
X22814576Y969702D01*
X22814580Y969699D01*
X22936724Y888084D01*
X22936730Y888081D01*
X22936731Y888080D01*
X23072458Y831860D01*
X23206797Y805139D01*
X23216540Y803201D01*
X23216544Y803200D01*
X23216545Y803200D01*
X23363456Y803200D01*
X23363457Y803201D01*
X23507542Y831860D01*
X23643269Y888080D01*
X23765420Y969699D01*
X23869301Y1073580D01*
X23950920Y1195731D01*
X24007140Y1331458D01*
X24035800Y1475545D01*
X24035800Y1622455D01*
X24007140Y1766542D01*
X23951424Y1901052D01*
X23950921Y1902267D01*
X23950916Y1902276D01*
X23869301Y2024420D01*
X23869298Y2024424D01*
X23765423Y2128299D01*
X23765419Y2128302D01*
X23643275Y2209917D01*
X23643266Y2209922D01*
X23507544Y2266139D01*
X23507545Y2266139D01*
X23507542Y2266140D01*
X23507538Y2266141D01*
X23507534Y2266142D01*
X23363459Y2294800D01*
X23363455Y2294800D01*
X23216545Y2294800D01*
X23216540Y2294800D01*
X23072465Y2266142D01*
X23072455Y2266139D01*
X22936733Y2209922D01*
X22936724Y2209917D01*
X22814580Y2128302D01*
X22814576Y2128299D01*
X22710701Y2024424D01*
X22710698Y2024420D01*
X22629083Y1902276D01*
X22629078Y1902267D01*
X22572861Y1766545D01*
X22572858Y1766535D01*
X22544200Y1622460D01*
X17430500Y1622460D01*
X17430500Y2487270D01*
X17430416Y2488829D01*
X17429683Y2502493D01*
X17427603Y2541310D01*
X17424769Y2567668D01*
X17416114Y2621080D01*
X17365832Y2755889D01*
X17332347Y2817212D01*
X17246123Y2932393D01*
X17216758Y2961758D01*
X17198904Y2984338D01*
X17196571Y2988121D01*
X17184050Y3008420D01*
X17171885Y3034507D01*
X17161525Y3065770D01*
X17155871Y3092208D01*
X17155636Y3094508D01*
X17155000Y3107058D01*
X17155000Y3654460D01*
X22544200Y3654460D01*
X22544200Y3507541D01*
X22572858Y3363466D01*
X22572861Y3363456D01*
X22629078Y3227734D01*
X22629083Y3227725D01*
X22710698Y3105581D01*
X22710701Y3105577D01*
X22814576Y3001702D01*
X22814580Y3001699D01*
X22936724Y2920084D01*
X22936733Y2920079D01*
X22937858Y2919613D01*
X23072458Y2863860D01*
X23216540Y2835201D01*
X23216544Y2835200D01*
X23216545Y2835200D01*
X23363456Y2835200D01*
X23363457Y2835201D01*
X23507542Y2863860D01*
X23643269Y2920080D01*
X23765420Y3001699D01*
X23869301Y3105580D01*
X23950920Y3227731D01*
X24007140Y3363458D01*
X24035800Y3507545D01*
X24035800Y3654455D01*
X24007140Y3798542D01*
X23959331Y3913963D01*
X23950921Y3934267D01*
X23950916Y3934276D01*
X23907000Y4000000D01*
X24719965Y4000000D01*
X24737674Y3865488D01*
X24738026Y3862819D01*
X24738026Y3862817D01*
X24740061Y3857905D01*
X24749500Y3810452D01*
X24749500Y1417268D01*
X24761631Y1371994D01*
X24764182Y1333125D01*
X24764965Y1333125D01*
X24764965Y1325000D01*
X24782804Y1189500D01*
X24783026Y1187819D01*
X24783027Y1187814D01*
X24835974Y1059985D01*
X24835975Y1059983D01*
X24835976Y1059982D01*
X24920209Y950209D01*
X25029982Y865976D01*
X25029983Y865976D01*
X25029984Y865975D01*
X25055211Y855526D01*
X25157817Y813026D01*
X25295000Y794965D01*
X25302983Y794965D01*
X25370022Y775280D01*
X25401355Y746455D01*
X25475209Y650209D01*
X25584982Y565976D01*
X25712817Y513026D01*
X25835702Y496848D01*
X25849999Y494965D01*
X25850000Y494965D01*
X25850001Y494965D01*
X25862947Y496670D01*
X25987183Y513026D01*
X26115018Y565976D01*
X26224791Y650209D01*
X26309024Y759982D01*
X26361974Y887817D01*
X26380035Y1025000D01*
X26361974Y1162183D01*
X26333752Y1230317D01*
X26309024Y1290018D01*
X26276124Y1332894D01*
X26250930Y1398063D01*
X26250500Y1408380D01*
X26250500Y1499021D01*
X26270185Y1566060D01*
X26322989Y1611815D01*
X26392147Y1621759D01*
X26448132Y1598792D01*
X26459206Y1590619D01*
X26498315Y1576934D01*
X26583119Y1547259D01*
X26590796Y1546540D01*
X26612543Y1544500D01*
X27087456Y1544501D01*
X27116879Y1547259D01*
X27240794Y1590619D01*
X27248254Y1596126D01*
X27313883Y1620097D01*
X27382053Y1604782D01*
X27409570Y1584037D01*
X27638213Y1355395D01*
X27671698Y1294072D01*
X27673471Y1283901D01*
X27680526Y1230316D01*
X27733474Y1102485D01*
X27733475Y1102483D01*
X27733476Y1102482D01*
X27817709Y992709D01*
X27927482Y908476D01*
X28055317Y855526D01*
X28178202Y839348D01*
X28192499Y837465D01*
X28192500Y837465D01*
X28192501Y837465D01*
X28205447Y839170D01*
X28329683Y855526D01*
X28457518Y908476D01*
X28567291Y992709D01*
X28651524Y1102482D01*
X28704474Y1230317D01*
X28716827Y1324146D01*
X28745092Y1388040D01*
X28803417Y1426511D01*
X28873281Y1427343D01*
X28932505Y1390270D01*
X28947152Y1369958D01*
X29009487Y1261989D01*
X29009489Y1261986D01*
X29009490Y1261985D01*
X29561985Y709490D01*
X29664664Y650209D01*
X29687515Y637016D01*
X29827525Y599500D01*
X29827526Y599500D01*
X29827528Y599500D01*
X37522472Y599500D01*
X37522474Y599500D01*
X37522475Y599500D01*
X37662485Y637016D01*
X37685336Y650209D01*
X37788015Y709490D01*
X38240510Y1161985D01*
X38312984Y1287515D01*
X38323028Y1325000D01*
X38335078Y1369966D01*
X38345370Y1408380D01*
X38350500Y1427525D01*
X38350500Y2272475D01*
X38312984Y2412485D01*
X38312982Y2412488D01*
X38312982Y2412490D01*
X38309937Y2419842D01*
X38300499Y2467292D01*
X38300499Y2644857D01*
X38300499Y2644863D01*
X38300499Y2644864D01*
X38300497Y2644883D01*
X38297586Y2669988D01*
X38297585Y2669990D01*
X38297585Y2669991D01*
X38252206Y2772765D01*
X38172765Y2852206D01*
X38149913Y2862296D01*
X38069992Y2897585D01*
X38044865Y2900500D01*
X37555143Y2900500D01*
X37555117Y2900498D01*
X37530013Y2897587D01*
X37509286Y2888436D01*
X37450083Y2862295D01*
X37380808Y2853224D01*
X37349913Y2862296D01*
X37346366Y2863862D01*
X37315602Y2877446D01*
X37269992Y2897585D01*
X37244865Y2900500D01*
X36755143Y2900500D01*
X36755124Y2900498D01*
X36738780Y2898603D01*
X36669920Y2910436D01*
X36618388Y2957620D01*
X36600500Y3021778D01*
X36600500Y4452725D01*
X36600499Y4452730D01*
X36600135Y4454087D01*
X36590851Y4488737D01*
X36573207Y4554588D01*
X36520480Y4645913D01*
X36145913Y5020480D01*
X36056369Y5072179D01*
X36054589Y5073207D01*
X35997225Y5088577D01*
X35952727Y5100500D01*
X35952726Y5100500D01*
X32317255Y5100500D01*
X32250216Y5120185D01*
X32229574Y5136819D01*
X31836819Y5529574D01*
X31803334Y5590897D01*
X31800500Y5617255D01*
X31800500Y8616621D01*
X31820185Y8683660D01*
X31826119Y8692101D01*
X31859024Y8734982D01*
X31911974Y8862817D01*
X31930035Y9000000D01*
X31911974Y9137183D01*
X31874428Y9227827D01*
X31859025Y9265015D01*
X31859024Y9265016D01*
X31859024Y9265017D01*
X31774791Y9374791D01*
X31774789Y9374792D01*
X31774789Y9374793D01*
X31665015Y9459026D01*
X31537186Y9511973D01*
X31537184Y9511974D01*
X31537183Y9511974D01*
X31421974Y9527142D01*
X31400001Y9530035D01*
X31399999Y9530035D01*
X31340685Y9522226D01*
X31271649Y9532991D01*
X31219393Y9579371D01*
X31200499Y9645165D01*
X31200499Y9944857D01*
X31200499Y9944864D01*
X31199036Y9957483D01*
X31197586Y9969988D01*
X31197585Y9969989D01*
X31197585Y9969991D01*
X31162294Y10049917D01*
X31153223Y10119191D01*
X31162291Y10150078D01*
X31197585Y10230009D01*
X31200500Y10255135D01*
X31200499Y10744864D01*
X31200497Y10744883D01*
X31197586Y10769988D01*
X31197585Y10769989D01*
X31197585Y10769991D01*
X31162294Y10849917D01*
X31153223Y10919191D01*
X31162291Y10950078D01*
X31197585Y11030009D01*
X31200500Y11055135D01*
X31200499Y11454837D01*
X31220183Y11521875D01*
X31272987Y11567630D01*
X31340682Y11577775D01*
X31400000Y11569965D01*
X31537183Y11588026D01*
X31638826Y11630128D01*
X31708293Y11637596D01*
X31770772Y11606321D01*
X31806424Y11546232D01*
X31803930Y11476407D01*
X31800838Y11468116D01*
X31788027Y11437187D01*
X31788026Y11437184D01*
X31788026Y11437183D01*
X31779592Y11373121D01*
X31773191Y11324500D01*
X31769965Y11300000D01*
X31788017Y11162882D01*
X31788026Y11162819D01*
X31788027Y11162814D01*
X31840974Y11034985D01*
X31840975Y11034983D01*
X31840976Y11034982D01*
X31925209Y10925209D01*
X32034982Y10840976D01*
X32162817Y10788026D01*
X32285702Y10771848D01*
X32299999Y10769965D01*
X32300000Y10769965D01*
X32300001Y10769965D01*
X32312947Y10771670D01*
X32437183Y10788026D01*
X32565018Y10840976D01*
X32624514Y10886631D01*
X32689681Y10911824D01*
X32758126Y10897786D01*
X32775480Y10886635D01*
X32834982Y10840976D01*
X32962817Y10788026D01*
X33085702Y10771848D01*
X33099999Y10769965D01*
X33100000Y10769965D01*
X33100001Y10769965D01*
X33112947Y10771670D01*
X33237183Y10788026D01*
X33365018Y10840976D01*
X33474791Y10925209D01*
X33559024Y11034982D01*
X33611974Y11162817D01*
X33630035Y11300000D01*
X33611974Y11437183D01*
X33574800Y11526930D01*
X33559024Y11565018D01*
X33526124Y11607894D01*
X33500930Y11673063D01*
X33500500Y11683380D01*
X33500500Y11882746D01*
X33520185Y11949785D01*
X33536819Y11970427D01*
X33579573Y12013181D01*
X33640896Y12046666D01*
X33667254Y12049500D01*
X35677725Y12049500D01*
X35677727Y12049500D01*
X35779588Y12076793D01*
X35870913Y12129520D01*
X36520480Y12779087D01*
X36573207Y12870412D01*
X36600500Y12972273D01*
X36600500Y13077727D01*
X36600500Y13178223D01*
X36620185Y13245262D01*
X36672989Y13291017D01*
X36738794Y13301396D01*
X36755135Y13299500D01*
X37244864Y13299501D01*
X37244879Y13299503D01*
X37244882Y13299503D01*
X37269986Y13302414D01*
X37269987Y13302415D01*
X37269991Y13302415D01*
X37349917Y13337706D01*
X37419190Y13346777D01*
X37450081Y13337707D01*
X37530009Y13302415D01*
X37555135Y13299500D01*
X38044864Y13299501D01*
X38044879Y13299503D01*
X38044882Y13299503D01*
X38069986Y13302414D01*
X38069987Y13302415D01*
X38069991Y13302415D01*
X38149917Y13337706D01*
X38219190Y13346777D01*
X38250081Y13337707D01*
X38330009Y13302415D01*
X38355135Y13299500D01*
X38844864Y13299501D01*
X38844879Y13299503D01*
X38844882Y13299503D01*
X38869986Y13302414D01*
X38869987Y13302415D01*
X38869991Y13302415D01*
X38949917Y13337706D01*
X39019190Y13346777D01*
X39050081Y13337707D01*
X39130009Y13302415D01*
X39155135Y13299500D01*
X39644864Y13299501D01*
X39644879Y13299503D01*
X39644882Y13299503D01*
X39669987Y13302414D01*
X39669988Y13302415D01*
X39669991Y13302415D01*
X39772765Y13347794D01*
X39852206Y13427235D01*
X39897585Y13530009D01*
X39900500Y13555135D01*
X39900499Y14444864D01*
X39900497Y14444883D01*
X39897586Y14469988D01*
X39897585Y14469990D01*
X39897585Y14469991D01*
X39852206Y14572765D01*
X39772765Y14652206D01*
X39749913Y14662296D01*
X39669992Y14697585D01*
X39644865Y14700500D01*
X39155143Y14700500D01*
X39155117Y14700498D01*
X39130013Y14697587D01*
X39118250Y14692393D01*
X39050083Y14662295D01*
X38980808Y14653224D01*
X38949913Y14662296D01*
X38869992Y14697585D01*
X38844865Y14700500D01*
X38355143Y14700500D01*
X38355117Y14700498D01*
X38330013Y14697587D01*
X38318250Y14692393D01*
X38250083Y14662295D01*
X38180808Y14653224D01*
X38149913Y14662296D01*
X38069992Y14697585D01*
X38044865Y14700500D01*
X37555143Y14700500D01*
X37555117Y14700498D01*
X37530013Y14697587D01*
X37518250Y14692393D01*
X37450083Y14662295D01*
X37380808Y14653224D01*
X37349913Y14662296D01*
X37269992Y14697585D01*
X37244865Y14700500D01*
X36755143Y14700500D01*
X36755117Y14700498D01*
X36730013Y14697587D01*
X36718250Y14692393D01*
X36650083Y14662295D01*
X36580808Y14653224D01*
X36549913Y14662296D01*
X36469992Y14697585D01*
X36444865Y14700500D01*
X35955143Y14700500D01*
X35955117Y14700498D01*
X35930013Y14697587D01*
X35918250Y14692393D01*
X35850083Y14662295D01*
X35780808Y14653224D01*
X35749913Y14662296D01*
X35669992Y14697585D01*
X35644865Y14700500D01*
X35155143Y14700500D01*
X35155117Y14700498D01*
X35130013Y14697587D01*
X35118250Y14692393D01*
X35050083Y14662295D01*
X34980808Y14653224D01*
X34949913Y14662296D01*
X34869992Y14697585D01*
X34844865Y14700500D01*
X34355143Y14700500D01*
X34355117Y14700498D01*
X34330013Y14697587D01*
X34318250Y14692393D01*
X34250083Y14662295D01*
X34180808Y14653224D01*
X34149913Y14662296D01*
X34069992Y14697585D01*
X34044868Y14700500D01*
X33638713Y14700500D01*
X33571674Y14720185D01*
X33525919Y14772989D01*
X33515774Y14808313D01*
X33511974Y14837183D01*
X33459024Y14965017D01*
X33374791Y15074791D01*
X33374789Y15074792D01*
X33374789Y15074793D01*
X33297597Y15134025D01*
X33265018Y15159024D01*
X33265017Y15159025D01*
X33265015Y15159026D01*
X33137186Y15211973D01*
X33137184Y15211974D01*
X33137183Y15211974D01*
X33019551Y15227461D01*
X33000001Y15230035D01*
X32999999Y15230035D01*
X32931408Y15221005D01*
X32862817Y15211974D01*
X32862816Y15211974D01*
X32862813Y15211973D01*
X32734984Y15159026D01*
X32734982Y15159024D01*
X32659196Y15100871D01*
X32594027Y15075677D01*
X32525582Y15089716D01*
X32508224Y15100871D01*
X32465018Y15134024D01*
X32465016Y15134025D01*
X32337186Y15186973D01*
X32337184Y15186974D01*
X32337183Y15186974D01*
X32245727Y15199015D01*
X32200001Y15205035D01*
X32199999Y15205035D01*
X32139372Y15197053D01*
X32062817Y15186974D01*
X32062816Y15186974D01*
X32062813Y15186973D01*
X31934985Y15134026D01*
X31825209Y15049791D01*
X31740974Y14940015D01*
X31688025Y14812183D01*
X31688025Y14812182D01*
X31687515Y14808307D01*
X31686176Y14805283D01*
X31685922Y14804332D01*
X31685773Y14804372D01*
X31659244Y14744412D01*
X31600918Y14705945D01*
X31564577Y14700500D01*
X31155143Y14700500D01*
X31155117Y14700498D01*
X31130012Y14697587D01*
X31130008Y14697585D01*
X31027235Y14652207D01*
X30947794Y14572766D01*
X30902415Y14469994D01*
X30902415Y14469992D01*
X30899500Y14444869D01*
X30899500Y13555144D01*
X30899502Y13555125D01*
X30901397Y13538780D01*
X30889564Y13469920D01*
X30842380Y13418388D01*
X30778222Y13400500D01*
X30055143Y13400500D01*
X30055117Y13400498D01*
X30030012Y13397587D01*
X30030008Y13397585D01*
X29927235Y13352207D01*
X29847794Y13272766D01*
X29802415Y13169994D01*
X29802415Y13169992D01*
X29799500Y13144869D01*
X29799500Y12655144D01*
X29799502Y12655118D01*
X29802413Y12630013D01*
X29802414Y12630012D01*
X29802414Y12630010D01*
X29802415Y12630009D01*
X29837704Y12550087D01*
X29846776Y12480809D01*
X29837705Y12449915D01*
X29802415Y12369991D01*
X29799500Y12344869D01*
X29799500Y11855144D01*
X29799502Y11855123D01*
X29801397Y11838786D01*
X29789567Y11769925D01*
X29742387Y11718391D01*
X29678223Y11700500D01*
X29440633Y11700500D01*
X29373594Y11720185D01*
X29327839Y11772989D01*
X29320684Y11799795D01*
X29319352Y11799503D01*
X29317741Y11806875D01*
X29317741Y11806879D01*
X29274381Y11930794D01*
X29203844Y12026368D01*
X29179874Y12091995D01*
X29195189Y12160165D01*
X29203842Y12173630D01*
X29274381Y12269206D01*
X29300113Y12342742D01*
X29317741Y12393119D01*
X29317741Y12393121D01*
X29317741Y12393126D01*
X29320500Y12422543D01*
X29320499Y12797456D01*
X29317741Y12826879D01*
X29274381Y12950794D01*
X29235402Y13003609D01*
X29196423Y13056424D01*
X29104182Y13124500D01*
X29090794Y13134381D01*
X29090792Y13134382D01*
X28966880Y13177742D01*
X28937461Y13180500D01*
X28462546Y13180500D01*
X28433125Y13177742D01*
X28433117Y13177741D01*
X28403732Y13167458D01*
X28362779Y13160500D01*
X27954398Y13160500D01*
X27954398Y13160982D01*
X27945602Y13160982D01*
X27945602Y13160500D01*
X27537221Y13160500D01*
X27496267Y13167458D01*
X27466878Y13177742D01*
X27437461Y13180500D01*
X26962546Y13180500D01*
X26933125Y13177742D01*
X26933115Y13177740D01*
X26809207Y13134382D01*
X26703576Y13056424D01*
X26625618Y12950793D01*
X26582258Y12826882D01*
X26582258Y12826880D01*
X26579500Y12797462D01*
X26579500Y12422547D01*
X26582258Y12393126D01*
X26582260Y12393116D01*
X26625619Y12269206D01*
X26625619Y12269205D01*
X26696154Y12173633D01*
X26720125Y12108004D01*
X26704809Y12039834D01*
X26696154Y12026367D01*
X26625619Y11930796D01*
X26625619Y11930795D01*
X26582258Y11806882D01*
X26582258Y11806880D01*
X26579500Y11777462D01*
X26579500Y11402547D01*
X26582258Y11373126D01*
X26582260Y11373116D01*
X26625618Y11249208D01*
X26703576Y11143577D01*
X26752785Y11107260D01*
X26809206Y11065619D01*
X26839176Y11055132D01*
X26933119Y11022259D01*
X26940796Y11021540D01*
X26962543Y11019500D01*
X27152743Y11019501D01*
X27219783Y10999817D01*
X27240425Y10983182D01*
X27508563Y10715044D01*
X27542048Y10653721D01*
X27537064Y10584029D01*
X27519259Y10551879D01*
X27490977Y10515021D01*
X27490975Y10515018D01*
X27438027Y10387187D01*
X27438026Y10387184D01*
X27438026Y10387183D01*
X27419965Y10250000D01*
X27431434Y10162883D01*
X27438026Y10112819D01*
X27438027Y10112814D01*
X27490974Y9984985D01*
X27490975Y9984983D01*
X27490976Y9984982D01*
X27575209Y9875209D01*
X27684982Y9790976D01*
X27684983Y9790976D01*
X27684984Y9790975D01*
X27693270Y9787543D01*
X27812817Y9738026D01*
X27931034Y9722462D01*
X27949999Y9719965D01*
X27950000Y9719965D01*
X27950001Y9719965D01*
X27968966Y9722462D01*
X28087183Y9738026D01*
X28215018Y9790976D01*
X28324791Y9875209D01*
X28409024Y9984982D01*
X28461974Y10112817D01*
X28480035Y10250000D01*
X28461974Y10387183D01*
X28420404Y10487544D01*
X28409024Y10515018D01*
X28376124Y10557894D01*
X28350930Y10623063D01*
X28350500Y10633380D01*
X28350500Y10895501D01*
X28370185Y10962540D01*
X28422989Y11008295D01*
X28474495Y11019501D01*
X28652744Y11019501D01*
X28719783Y10999816D01*
X28740425Y10983182D01*
X28744087Y10979520D01*
X28835412Y10926793D01*
X28937273Y10899500D01*
X29678222Y10899500D01*
X29745261Y10879815D01*
X29791016Y10827011D01*
X29801396Y10761210D01*
X29799500Y10744872D01*
X29799500Y10309609D01*
X29779815Y10242570D01*
X29727011Y10196815D01*
X29657853Y10186871D01*
X29628049Y10195047D01*
X29610408Y10202354D01*
X29587183Y10211974D01*
X29484446Y10225500D01*
X29450001Y10230035D01*
X29449999Y10230035D01*
X29415554Y10225500D01*
X29312817Y10211974D01*
X29312816Y10211974D01*
X29312813Y10211973D01*
X29184985Y10159026D01*
X29075209Y10074791D01*
X28990974Y9965015D01*
X28938027Y9837187D01*
X28938026Y9837182D01*
X28919965Y9700001D01*
X28919965Y9700000D01*
X28938026Y9562819D01*
X28938027Y9562814D01*
X28990974Y9434985D01*
X28990975Y9434983D01*
X28990976Y9434982D01*
X29032945Y9380288D01*
X29036629Y9375487D01*
X29061823Y9310317D01*
X29047785Y9241873D01*
X29036629Y9224514D01*
X28990976Y9165018D01*
X28990974Y9165016D01*
X28938027Y9037187D01*
X28938026Y9037184D01*
X28938026Y9037183D01*
X28919965Y8900000D01*
X28936563Y8773926D01*
X28938026Y8762819D01*
X28938027Y8762814D01*
X28990975Y8634984D01*
X28990976Y8634982D01*
X29027037Y8587987D01*
X29052232Y8522818D01*
X29038194Y8454373D01*
X29027038Y8437014D01*
X28990976Y8390018D01*
X28990974Y8390016D01*
X28938027Y8262187D01*
X28938026Y8262184D01*
X28938026Y8262183D01*
X28936381Y8249687D01*
X28923191Y8149500D01*
X28919965Y8125000D01*
X28927393Y8068577D01*
X28938026Y7987819D01*
X28938027Y7987814D01*
X28990974Y7859985D01*
X28990975Y7859983D01*
X28990976Y7859982D01*
X29075209Y7750209D01*
X29184982Y7665976D01*
X29184983Y7665976D01*
X29184984Y7665975D01*
X29192454Y7662881D01*
X29312817Y7613026D01*
X29434087Y7597060D01*
X29449999Y7594965D01*
X29450000Y7594965D01*
X29450001Y7594965D01*
X29462947Y7596670D01*
X29587183Y7613026D01*
X29628049Y7629954D01*
X29697516Y7637422D01*
X29759995Y7606147D01*
X29795648Y7546059D01*
X29799500Y7515392D01*
X29799500Y7055144D01*
X29799502Y7055118D01*
X29802413Y7030013D01*
X29802414Y7030012D01*
X29802414Y7030010D01*
X29802415Y7030009D01*
X29837704Y6950087D01*
X29846776Y6880809D01*
X29837705Y6849917D01*
X29822234Y6814877D01*
X29802415Y6769991D01*
X29799500Y6744869D01*
X29799500Y6255144D01*
X29799502Y6255118D01*
X29802413Y6230013D01*
X29802414Y6230012D01*
X29802414Y6230010D01*
X29802415Y6230009D01*
X29837704Y6150087D01*
X29846776Y6080809D01*
X29837705Y6049915D01*
X29802415Y5969991D01*
X29799500Y5944869D01*
X29799500Y5455144D01*
X29799502Y5455118D01*
X29802413Y5430013D01*
X29802415Y5430009D01*
X29847793Y5327236D01*
X29847794Y5327235D01*
X29927235Y5247794D01*
X30030009Y5202415D01*
X30055135Y5199500D01*
X30944864Y5199501D01*
X30966663Y5202029D01*
X31035524Y5190200D01*
X31073252Y5159314D01*
X31073773Y5159834D01*
X31078991Y5154616D01*
X31079322Y5154345D01*
X31079519Y5154088D01*
X31079520Y5154087D01*
X31779519Y4454088D01*
X31779520Y4454087D01*
X31854087Y4379520D01*
X31945413Y4326793D01*
X32047273Y4299500D01*
X32152726Y4299500D01*
X35675500Y4299500D01*
X35742539Y4279815D01*
X35788294Y4227011D01*
X35799500Y4175500D01*
X35799500Y3021778D01*
X35779815Y2954739D01*
X35727011Y2908984D01*
X35661210Y2898604D01*
X35644867Y2900500D01*
X35155143Y2900500D01*
X35155117Y2900498D01*
X35130013Y2897587D01*
X35109286Y2888436D01*
X35050083Y2862295D01*
X34980808Y2853224D01*
X34949913Y2862296D01*
X34946366Y2863862D01*
X34915602Y2877446D01*
X34869992Y2897585D01*
X34844868Y2900500D01*
X34445296Y2900500D01*
X34378257Y2920185D01*
X34332502Y2972989D01*
X34322357Y3008315D01*
X34322343Y3008418D01*
X34311974Y3087183D01*
X34259024Y3215017D01*
X34174791Y3324791D01*
X34174789Y3324792D01*
X34174789Y3324793D01*
X34065015Y3409026D01*
X33937186Y3461973D01*
X33937184Y3461974D01*
X33937183Y3461974D01*
X33845727Y3474015D01*
X33800001Y3480035D01*
X33799999Y3480035D01*
X33731408Y3471005D01*
X33662817Y3461974D01*
X33662816Y3461974D01*
X33662813Y3461973D01*
X33534985Y3409026D01*
X33425209Y3324791D01*
X33340974Y3215015D01*
X33288027Y3087187D01*
X33288026Y3087183D01*
X33277642Y3008313D01*
X33249375Y2944417D01*
X33191050Y2905947D01*
X33154703Y2900500D01*
X32755143Y2900500D01*
X32755117Y2900498D01*
X32730013Y2897587D01*
X32709286Y2888436D01*
X32650083Y2862295D01*
X32580808Y2853224D01*
X32549913Y2862296D01*
X32546366Y2863862D01*
X32515602Y2877446D01*
X32469992Y2897585D01*
X32444865Y2900500D01*
X31955143Y2900500D01*
X31955117Y2900498D01*
X31930012Y2897587D01*
X31930008Y2897585D01*
X31827235Y2852207D01*
X31747794Y2772766D01*
X31702415Y2669994D01*
X31702415Y2669992D01*
X31702415Y2669991D01*
X31699500Y2644865D01*
X31699500Y2209917D01*
X31699501Y1824500D01*
X31679817Y1757461D01*
X31627013Y1711706D01*
X31575501Y1700500D01*
X30179387Y1700500D01*
X30112348Y1720185D01*
X30091706Y1736819D01*
X30036819Y1791706D01*
X30003334Y1853029D01*
X30000500Y1879387D01*
X30000500Y2675501D01*
X30020185Y2742540D01*
X30072989Y2788295D01*
X30124495Y2799501D01*
X30944864Y2799501D01*
X30944879Y2799503D01*
X30944882Y2799503D01*
X30969987Y2802414D01*
X30969988Y2802415D01*
X30969991Y2802415D01*
X31072765Y2847794D01*
X31152206Y2927235D01*
X31197585Y3030009D01*
X31200500Y3055135D01*
X31200499Y3544864D01*
X31200497Y3544883D01*
X31197586Y3569988D01*
X31197585Y3569989D01*
X31197585Y3569991D01*
X31162294Y3649917D01*
X31153223Y3719191D01*
X31162291Y3750078D01*
X31197585Y3830009D01*
X31200500Y3855135D01*
X31200499Y4344864D01*
X31200497Y4344883D01*
X31197586Y4369988D01*
X31197585Y4369990D01*
X31197585Y4369991D01*
X31152206Y4472765D01*
X31072765Y4552206D01*
X31020093Y4575463D01*
X30969992Y4597585D01*
X30944865Y4600500D01*
X30055143Y4600500D01*
X30055117Y4600498D01*
X30030012Y4597587D01*
X30030008Y4597585D01*
X29927235Y4552207D01*
X29847794Y4472766D01*
X29802415Y4369994D01*
X29802415Y4369992D01*
X29799500Y4344869D01*
X29799500Y4007676D01*
X29779815Y3940637D01*
X29727011Y3894882D01*
X29657853Y3884938D01*
X29594297Y3913963D01*
X29587819Y3919995D01*
X29382316Y4125498D01*
X29382314Y4125500D01*
X29297953Y4174206D01*
X29268187Y4191392D01*
X29187983Y4212882D01*
X29140892Y4225500D01*
X29140891Y4225500D01*
X27974500Y4225500D01*
X27907461Y4245185D01*
X27861706Y4297989D01*
X27850500Y4349500D01*
X27850500Y4748071D01*
X27847710Y4777815D01*
X27847710Y4777819D01*
X27847708Y4777823D01*
X27847708Y4777827D01*
X27801617Y4909545D01*
X27798054Y4979323D01*
X27832783Y5039951D01*
X27894776Y5072179D01*
X27918658Y5074500D01*
X28443097Y5074500D01*
X28443102Y5074500D01*
X28531564Y5085123D01*
X28672342Y5140639D01*
X28792922Y5232078D01*
X28884361Y5352658D01*
X28939877Y5493436D01*
X28950500Y5581898D01*
X28950500Y6318102D01*
X28939877Y6406564D01*
X28884361Y6547342D01*
X28884360Y6547343D01*
X28884360Y6547344D01*
X28792922Y6667923D01*
X28672343Y6759361D01*
X28531561Y6814878D01*
X28485926Y6820358D01*
X28443102Y6825500D01*
X27056898Y6825500D01*
X27017853Y6820812D01*
X26968438Y6814878D01*
X26827656Y6759361D01*
X26707077Y6667923D01*
X26615639Y6547344D01*
X26560122Y6406562D01*
X26554188Y6357147D01*
X26549500Y6318102D01*
X26549500Y6318097D01*
X26549500Y6054387D01*
X26529815Y5987348D01*
X26513181Y5966706D01*
X26109491Y5563017D01*
X26109489Y5563014D01*
X26037016Y5437486D01*
X26037016Y5437485D01*
X25999500Y5297474D01*
X25999500Y5152526D01*
X26037016Y5012515D01*
X26109490Y4886985D01*
X26211985Y4784490D01*
X26337515Y4712016D01*
X26477526Y4674500D01*
X26477529Y4674500D01*
X26565500Y4674500D01*
X26632539Y4654815D01*
X26678294Y4602011D01*
X26689500Y4550500D01*
X26689500Y4301930D01*
X26692289Y4272186D01*
X26692291Y4272174D01*
X26736147Y4146844D01*
X26736148Y4146843D01*
X26743277Y4137183D01*
X26745269Y4134485D01*
X26769241Y4068856D01*
X26769500Y4060850D01*
X26769500Y3939108D01*
X26789226Y3865488D01*
X26790270Y3861593D01*
X26788607Y3791743D01*
X26749444Y3733881D01*
X26685216Y3706377D01*
X26670497Y3705500D01*
X26612546Y3705500D01*
X26583125Y3702742D01*
X26583115Y3702740D01*
X26459207Y3659382D01*
X26373634Y3596226D01*
X26308005Y3572255D01*
X26239834Y3587571D01*
X26226366Y3596226D01*
X26159285Y3645734D01*
X26140794Y3659381D01*
X26140792Y3659382D01*
X26016880Y3702742D01*
X25987461Y3705500D01*
X25987457Y3705500D01*
X25881421Y3705500D01*
X25814382Y3725185D01*
X25768627Y3777989D01*
X25758683Y3847147D01*
X25761645Y3861589D01*
X25761971Y3862813D01*
X25761974Y3862817D01*
X25780035Y4000000D01*
X25779952Y4000627D01*
X25778152Y4014298D01*
X25761974Y4137183D01*
X25709024Y4265017D01*
X25624791Y4374791D01*
X25624789Y4374792D01*
X25624789Y4374793D01*
X25529846Y4447646D01*
X25515018Y4459024D01*
X25515017Y4459025D01*
X25515015Y4459026D01*
X25387186Y4511973D01*
X25387184Y4511974D01*
X25387183Y4511974D01*
X25295727Y4524015D01*
X25250001Y4530035D01*
X25249999Y4530035D01*
X25181408Y4521005D01*
X25112817Y4511974D01*
X25112816Y4511974D01*
X25112813Y4511973D01*
X24984985Y4459026D01*
X24875209Y4374791D01*
X24790974Y4265015D01*
X24738027Y4137187D01*
X24738026Y4137184D01*
X24738026Y4137183D01*
X24737416Y4132552D01*
X24720048Y4000627D01*
X24719965Y4000000D01*
X23907000Y4000000D01*
X23869301Y4056420D01*
X23869298Y4056424D01*
X23765423Y4160299D01*
X23765419Y4160302D01*
X23643275Y4241917D01*
X23643266Y4241922D01*
X23513020Y4295871D01*
X23507542Y4298140D01*
X23507538Y4298141D01*
X23507534Y4298142D01*
X23363459Y4326800D01*
X23363455Y4326800D01*
X23216545Y4326800D01*
X23216540Y4326800D01*
X23072465Y4298142D01*
X23072455Y4298139D01*
X22936733Y4241922D01*
X22936724Y4241917D01*
X22814580Y4160302D01*
X22814576Y4160299D01*
X22710701Y4056424D01*
X22710698Y4056420D01*
X22629083Y3934276D01*
X22629078Y3934267D01*
X22572861Y3798545D01*
X22572858Y3798535D01*
X22544200Y3654460D01*
X17155000Y3654460D01*
X17155000Y3792942D01*
X17155641Y3805531D01*
X17155875Y3807824D01*
X17161526Y3834232D01*
X17171885Y3865493D01*
X17184047Y3891577D01*
X17220309Y3950366D01*
X17224264Y3956376D01*
X17255284Y4000629D01*
X17312709Y4132553D01*
X17331194Y4199933D01*
X17349126Y4342684D01*
X17326113Y4484712D01*
X17305236Y4551390D01*
X17305235Y4551393D01*
X17303706Y4554588D01*
X17260013Y4645916D01*
X17243140Y4681184D01*
X17214663Y4723802D01*
X17203209Y4745232D01*
X17194083Y4767266D01*
X17187031Y4790514D01*
X17182381Y4813892D01*
X17180000Y4838075D01*
X17180000Y5361923D01*
X17182382Y5386110D01*
X17187033Y5409493D01*
X17194086Y5432743D01*
X17197136Y5440105D01*
X17197428Y5441053D01*
X17197536Y5441217D01*
X17198121Y5442837D01*
X17198248Y5442792D01*
X17198250Y5442796D01*
X17198352Y5442754D01*
X17198515Y5442695D01*
X17235984Y5499320D01*
X17299922Y5527493D01*
X17330708Y5527645D01*
X17356898Y5524500D01*
X17356900Y5524500D01*
X18743097Y5524500D01*
X18743102Y5524500D01*
X18831564Y5535123D01*
X18972342Y5590639D01*
X19092922Y5682078D01*
X19184361Y5802658D01*
X19239877Y5943436D01*
X19250500Y6031898D01*
X19250500Y6768102D01*
X19239877Y6856564D01*
X19184361Y6997342D01*
X19184360Y6997343D01*
X19184360Y6997344D01*
X19104165Y7103097D01*
X19079342Y7168408D01*
X19093770Y7236772D01*
X19142868Y7286483D01*
X19189715Y7301312D01*
X19232483Y7305909D01*
X19367331Y7356204D01*
X19482546Y7442454D01*
X19568796Y7557669D01*
X19619091Y7692517D01*
X19625500Y7752127D01*
X19625499Y8100004D01*
X21694448Y8100004D01*
X21694448Y8099997D01*
X21714583Y7831311D01*
X21714583Y7831310D01*
X21774536Y7568636D01*
X21774542Y7568617D01*
X21872976Y7317811D01*
X21872979Y7317803D01*
X21962793Y7162242D01*
X22007701Y7084460D01*
X22105372Y6961985D01*
X22175699Y6873797D01*
X22341858Y6719625D01*
X22373212Y6690533D01*
X22595836Y6538750D01*
X22595841Y6538748D01*
X22595842Y6538747D01*
X22595843Y6538746D01*
X22724771Y6476658D01*
X22838592Y6421845D01*
X22838593Y6421845D01*
X22838596Y6421843D01*
X23096069Y6342423D01*
X23096070Y6342423D01*
X23096073Y6342422D01*
X23362494Y6302266D01*
X23362499Y6302266D01*
X23362502Y6302265D01*
X23362503Y6302265D01*
X23631945Y6302265D01*
X23631946Y6302265D01*
X23631953Y6302266D01*
X23898374Y6342422D01*
X23898375Y6342423D01*
X23898379Y6342423D01*
X24155852Y6421843D01*
X24398612Y6538750D01*
X24621236Y6690533D01*
X24800175Y6856564D01*
X24818748Y6873797D01*
X24818748Y6873799D01*
X24818752Y6873801D01*
X24986747Y7084460D01*
X25121469Y7317805D01*
X25219908Y7568622D01*
X25279864Y7831310D01*
X25291593Y7987819D01*
X25300000Y8099997D01*
X25300000Y8100004D01*
X25279864Y8368690D01*
X25279864Y8368691D01*
X25219911Y8631365D01*
X25219910Y8631366D01*
X25219908Y8631378D01*
X25121469Y8882195D01*
X25121468Y8882198D01*
X25053454Y9000000D01*
X24986747Y9115540D01*
X24818752Y9326199D01*
X24818751Y9326200D01*
X24818748Y9326204D01*
X24621236Y9509467D01*
X24611289Y9516249D01*
X24398612Y9661250D01*
X24398608Y9661252D01*
X24398605Y9661254D01*
X24398604Y9661255D01*
X24155854Y9778156D01*
X24155856Y9778156D01*
X23898380Y9857577D01*
X23898374Y9857579D01*
X23631953Y9897735D01*
X23631946Y9897735D01*
X23362502Y9897735D01*
X23362494Y9897735D01*
X23096073Y9857579D01*
X23096067Y9857577D01*
X22838592Y9778156D01*
X22595843Y9661255D01*
X22595842Y9661254D01*
X22373211Y9509467D01*
X22175699Y9326204D01*
X22007701Y9115540D01*
X21872979Y8882198D01*
X21872976Y8882190D01*
X21774542Y8631384D01*
X21774536Y8631365D01*
X21714583Y8368691D01*
X21714583Y8368690D01*
X21694448Y8100004D01*
X19625499Y8100004D01*
X19625499Y8152385D01*
X19645183Y8219423D01*
X19697987Y8265178D01*
X19767146Y8275122D01*
X19811499Y8259771D01*
X19811984Y8259491D01*
X19811985Y8259490D01*
X19937515Y8187016D01*
X20077526Y8149500D01*
X20077529Y8149500D01*
X20222471Y8149500D01*
X20222474Y8149500D01*
X20362485Y8187016D01*
X20488015Y8259490D01*
X20590510Y8361985D01*
X20662984Y8487515D01*
X20700500Y8627526D01*
X20700500Y8772474D01*
X20662984Y8912485D01*
X20590510Y9038015D01*
X19903705Y9724820D01*
X19870220Y9786143D01*
X19875204Y9855835D01*
X19903701Y9900177D01*
X21127415Y11123892D01*
X21174134Y11153249D01*
X21268157Y11186148D01*
X21374999Y11265001D01*
X21453852Y11371843D01*
X21492588Y11482542D01*
X21497708Y11497174D01*
X21497708Y11497177D01*
X21497710Y11497181D01*
X21500500Y11526934D01*
X21500500Y11973066D01*
X21497710Y12002819D01*
X21494084Y12013181D01*
X21477458Y12060697D01*
X21470500Y12101651D01*
X21470500Y13487473D01*
X21470500Y13487475D01*
X21432984Y13627485D01*
X21418131Y13653211D01*
X21360510Y13753015D01*
X21165182Y13948343D01*
X21131697Y14009666D01*
X21133596Y14069957D01*
X21145756Y14112690D01*
X21165429Y14325000D01*
X21145756Y14537310D01*
X21087405Y14742389D01*
X21087403Y14742394D01*
X21087403Y14742395D01*
X20992367Y14933254D01*
X20863872Y15103407D01*
X20818395Y15144865D01*
X20706302Y15247052D01*
X20525019Y15359298D01*
X20525017Y15359299D01*
X20361655Y15422585D01*
X20326198Y15436321D01*
X20116610Y15475500D01*
X19903390Y15475500D01*
X19693802Y15436321D01*
X19693799Y15436321D01*
X19693799Y15436320D01*
X19494982Y15359299D01*
X19494980Y15359298D01*
X19313699Y15247053D01*
X19156127Y15103407D01*
X19027632Y14933254D01*
X18932596Y14742395D01*
X18932596Y14742393D01*
X18874244Y14537311D01*
X18861161Y14396114D01*
X18854571Y14325000D01*
X18874244Y14112690D01*
X18888470Y14062690D01*
X18932596Y13907608D01*
X18932596Y13907606D01*
X19027632Y13716747D01*
X19149685Y13555125D01*
X19156128Y13546593D01*
X19313698Y13402948D01*
X19494981Y13290702D01*
X19693802Y13213679D01*
X19903390Y13174500D01*
X19903392Y13174500D01*
X20116608Y13174500D01*
X20116610Y13174500D01*
X20222716Y13194335D01*
X20292230Y13187304D01*
X20346909Y13143806D01*
X20369391Y13077653D01*
X20369500Y13072446D01*
X20369500Y12101651D01*
X20362542Y12060697D01*
X20342290Y12002823D01*
X20342289Y12002815D01*
X20339500Y11973071D01*
X20339500Y11944388D01*
X20319815Y11877349D01*
X20303181Y11856707D01*
X18833292Y10386819D01*
X18771969Y10353334D01*
X18745612Y10350500D01*
X18527130Y10350500D01*
X18527123Y10350499D01*
X18467516Y10344092D01*
X18332671Y10293798D01*
X18332664Y10293794D01*
X18217455Y10207548D01*
X18217453Y10207546D01*
X18208403Y10195456D01*
X18152468Y10153586D01*
X18082777Y10148603D01*
X18021454Y10182090D01*
X18009368Y10196136D01*
X17946424Y10281423D01*
X17861511Y10344091D01*
X17840794Y10359381D01*
X17840792Y10359382D01*
X17716880Y10402742D01*
X17687461Y10405500D01*
X17212546Y10405500D01*
X17183125Y10402742D01*
X17183115Y10402740D01*
X17059207Y10359382D01*
X16953579Y10281426D01*
X16953575Y10281422D01*
X16949475Y10275865D01*
X16893827Y10233615D01*
X16849706Y10225500D01*
X16844177Y10225500D01*
X16777138Y10245185D01*
X16754524Y10266383D01*
X16753721Y10265579D01*
X16747151Y10272149D01*
X16720416Y10291880D01*
X16637882Y10352793D01*
X16637880Y10352794D01*
X16509700Y10397647D01*
X16479270Y10400500D01*
X16479266Y10400500D01*
X15345734Y10400500D01*
X15345730Y10400500D01*
X15315300Y10397647D01*
X15315298Y10397647D01*
X15187119Y10352794D01*
X15187117Y10352793D01*
X15077850Y10272150D01*
X14997207Y10162883D01*
X14997206Y10162881D01*
X14952353Y10034702D01*
X14952353Y10034700D01*
X14949500Y10004270D01*
X14949500Y9595731D01*
X14952353Y9565301D01*
X14952353Y9565299D01*
X14997206Y9437120D01*
X14997207Y9437118D01*
X15018085Y9408829D01*
X15025610Y9398633D01*
X15049580Y9333003D01*
X15034264Y9264833D01*
X15025610Y9251367D01*
X14997207Y9212882D01*
X14997206Y9212881D01*
X14952353Y9084702D01*
X14952353Y9084700D01*
X14949500Y9054270D01*
X14949500Y8736676D01*
X14929815Y8669637D01*
X14877011Y8623882D01*
X14849694Y8615059D01*
X14801685Y8605509D01*
X14744951Y8590757D01*
X14717628Y8581933D01*
X14662994Y8560718D01*
X14541962Y8482935D01*
X14541959Y8482932D01*
X14515800Y8460265D01*
X14452244Y8431241D01*
X14383085Y8441185D01*
X14367629Y8450285D01*
X14362882Y8452793D01*
X14234700Y8497647D01*
X14204270Y8500500D01*
X14204266Y8500500D01*
X13070734Y8500500D01*
X13070730Y8500500D01*
X13040300Y8497647D01*
X13040298Y8497647D01*
X12912119Y8452794D01*
X12912117Y8452793D01*
X12802850Y8372150D01*
X12722207Y8262883D01*
X12722206Y8262881D01*
X12677353Y8134702D01*
X12677353Y8134700D01*
X12674500Y8104270D01*
X12674500Y7695731D01*
X12677353Y7665301D01*
X12677353Y7665299D01*
X12710542Y7570455D01*
X12714105Y7500677D01*
X12679376Y7440049D01*
X12617383Y7407822D01*
X12593501Y7405500D01*
X11654500Y7405500D01*
X11587461Y7425185D01*
X11541706Y7477989D01*
X11530500Y7529500D01*
X11530500Y8346587D01*
X11550185Y8413626D01*
X11602989Y8459381D01*
X11672147Y8469325D01*
X11680963Y8467730D01*
X11683121Y8467259D01*
X11712543Y8464500D01*
X12187456Y8464501D01*
X12216879Y8467259D01*
X12340794Y8510619D01*
X12446423Y8588577D01*
X12524381Y8694206D01*
X12551768Y8772472D01*
X12567741Y8818119D01*
X12567741Y8818121D01*
X12570500Y8847543D01*
X12570499Y9222456D01*
X12567741Y9251879D01*
X12567037Y9259395D01*
X12570305Y9259702D01*
X12574176Y9314610D01*
X12615990Y9370586D01*
X12681430Y9395070D01*
X12749718Y9380288D01*
X12790170Y9345031D01*
X12802850Y9327850D01*
X12912118Y9247207D01*
X12927362Y9241873D01*
X13040299Y9202354D01*
X13070730Y9199500D01*
X13070734Y9199500D01*
X14204270Y9199500D01*
X14234699Y9202354D01*
X14234701Y9202354D01*
X14298790Y9224781D01*
X14362882Y9247207D01*
X14472150Y9327850D01*
X14552793Y9437118D01*
X14581711Y9519761D01*
X14597646Y9565299D01*
X14597646Y9565301D01*
X14600500Y9595731D01*
X14600500Y10004270D01*
X14597646Y10034700D01*
X14597646Y10034702D01*
X14556046Y10153586D01*
X14552793Y10162882D01*
X14472150Y10272150D01*
X14362882Y10352793D01*
X14362880Y10352794D01*
X14234700Y10397647D01*
X14204270Y10400500D01*
X14204266Y10400500D01*
X13654755Y10400500D01*
X13587716Y10420185D01*
X13567074Y10436819D01*
X13111415Y10892478D01*
X13111413Y10892480D01*
X13051216Y10927235D01*
X13020089Y10945207D01*
X12955720Y10962454D01*
X12918227Y10972500D01*
X11439727Y10972500D01*
X11334273Y10972500D01*
X11232410Y10945207D01*
X11141087Y10892481D01*
X10930424Y10681818D01*
X10869101Y10648334D01*
X10842744Y10645500D01*
X10652546Y10645500D01*
X10623125Y10642742D01*
X10623115Y10642740D01*
X10499207Y10599382D01*
X10393576Y10521424D01*
X10315618Y10415793D01*
X10272258Y10291882D01*
X10272258Y10291880D01*
X10269500Y10262462D01*
X10269500Y9787547D01*
X10272258Y9758126D01*
X10272259Y9758121D01*
X10294752Y9693839D01*
X10298313Y9624060D01*
X10263584Y9563433D01*
X10201590Y9531206D01*
X10136755Y9535844D01*
X10002826Y9582709D01*
X10002814Y9582711D01*
X9973070Y9585500D01*
X9973066Y9585500D01*
X9526934Y9585500D01*
X9526930Y9585500D01*
X9497185Y9582711D01*
X9497173Y9582709D01*
X9371844Y9538853D01*
X9265001Y9459999D01*
X9186147Y9353156D01*
X9142291Y9227827D01*
X9142289Y9227815D01*
X9139500Y9198071D01*
X9139500Y8869434D01*
X9119815Y8802395D01*
X9096711Y8775729D01*
X9094639Y8773934D01*
X9094631Y8773926D01*
X9094626Y8773922D01*
X9094625Y8773920D01*
X9052448Y8729188D01*
X9052445Y8729184D01*
X9001560Y8629110D01*
X8981877Y8562079D01*
X8981876Y8562072D01*
X8969500Y8476000D01*
X7420955Y8476000D01*
X7412291Y8487291D01*
X7412289Y8487292D01*
X7412289Y8487293D01*
X7302515Y8571526D01*
X7174686Y8624473D01*
X7174684Y8624474D01*
X7174683Y8624474D01*
X7083227Y8636515D01*
X7037501Y8642535D01*
X7037499Y8642535D01*
X6980511Y8635032D01*
X6900317Y8624474D01*
X6900316Y8624474D01*
X6900313Y8624473D01*
X6772485Y8571526D01*
X6662709Y8487291D01*
X6578474Y8377515D01*
X6525526Y8249686D01*
X6525524Y8249678D01*
X6523830Y8236811D01*
X6495560Y8172916D01*
X6488574Y8165323D01*
X6320069Y7996818D01*
X6258749Y7963334D01*
X6232390Y7960500D01*
X6112289Y7960500D01*
X6045250Y7980185D01*
X5999495Y8032989D01*
X5989551Y8102147D01*
X6012519Y8158134D01*
X6024381Y8174206D01*
X6050790Y8249678D01*
X6067741Y8298119D01*
X6067741Y8298121D01*
X6068619Y8307483D01*
X6070500Y8327543D01*
X6070499Y8702456D01*
X6067741Y8731879D01*
X6066062Y8736676D01*
X6042927Y8802793D01*
X6024381Y8855794D01*
X5953844Y8951368D01*
X5929874Y9016995D01*
X5945189Y9085165D01*
X5953845Y9098634D01*
X6024381Y9194206D01*
X6052579Y9274791D01*
X6067741Y9318119D01*
X6067741Y9318121D01*
X6068406Y9325209D01*
X6070500Y9347543D01*
X6070499Y9722456D01*
X6067741Y9751879D01*
X6024381Y9875794D01*
X6008188Y9897735D01*
X5991450Y9920415D01*
X5967479Y9986044D01*
X5982795Y10054214D01*
X6032535Y10103282D01*
X6100907Y10117669D01*
X6132177Y10111089D01*
X6143121Y10107259D01*
X6172543Y10104500D01*
X6547456Y10104501D01*
X6576879Y10107259D01*
X6700794Y10150619D01*
X6806423Y10228577D01*
X6884381Y10334206D01*
X6914467Y10420185D01*
X6927741Y10458119D01*
X6927741Y10458121D01*
X6928104Y10461989D01*
X6930500Y10487543D01*
X6930499Y10962456D01*
X6927741Y10991879D01*
X6919442Y11015594D01*
X6915880Y11085372D01*
X6950609Y11146000D01*
X7012602Y11178227D01*
X7052668Y11179488D01*
X7103095Y11172849D01*
X7124999Y11169965D01*
X7125000Y11169965D01*
X7125001Y11169965D01*
X7137947Y11171670D01*
X7262183Y11188026D01*
X7390018Y11240976D01*
X7499791Y11325209D01*
X7584024Y11434982D01*
X7636974Y11562817D01*
X7655035Y11700000D01*
X7636974Y11837183D01*
X7598200Y11930793D01*
X7584025Y11965015D01*
X7584024Y11965016D01*
X7584024Y11965017D01*
X7499791Y12074791D01*
X7499789Y12074792D01*
X7499789Y12074793D01*
X7428468Y12129520D01*
X7390018Y12159024D01*
X7390017Y12159025D01*
X7390015Y12159026D01*
X7262186Y12211973D01*
X7262184Y12211974D01*
X7262183Y12211974D01*
X7170727Y12224015D01*
X7125001Y12230035D01*
X7124999Y12230035D01*
X7065109Y12222150D01*
X6987817Y12211974D01*
X6942779Y12193319D01*
X6873310Y12185852D01*
X6810831Y12217127D01*
X6807652Y12220194D01*
X6806424Y12221422D01*
X6805511Y12222096D01*
X6700794Y12299381D01*
X6700792Y12299382D01*
X6576880Y12342742D01*
X6547461Y12345500D01*
X6172546Y12345500D01*
X6143125Y12342742D01*
X6143115Y12342740D01*
X6019205Y12299381D01*
X6019204Y12299381D01*
X5923633Y12228846D01*
X5858004Y12204875D01*
X5789834Y12220191D01*
X5776367Y12228846D01*
X5680794Y12299381D01*
X5556880Y12342742D01*
X5527461Y12345500D01*
X5152546Y12345500D01*
X5123125Y12342742D01*
X5123115Y12342740D01*
X4999207Y12299382D01*
X4894488Y12222096D01*
X4828859Y12198126D01*
X4760689Y12213442D01*
X4747221Y12222097D01*
X4747150Y12222149D01*
X4747150Y12222150D01*
X4637882Y12302793D01*
X4637880Y12302794D01*
X4509700Y12347647D01*
X4479270Y12350500D01*
X4479266Y12350500D01*
X3195734Y12350500D01*
X3195730Y12350500D01*
X3165300Y12347647D01*
X3165298Y12347647D01*
X3037119Y12302794D01*
X3037117Y12302793D01*
X2927850Y12222150D01*
X2847207Y12112883D01*
X2847206Y12112881D01*
X2802353Y11984702D01*
X2802353Y11984700D01*
X2799500Y11954270D01*
X2799500Y11545739D01*
X2801401Y11525463D01*
X2788060Y11456879D01*
X2739758Y11406395D01*
X2671830Y11390039D01*
X2636995Y11396844D01*
X2634704Y11397646D01*
X2634699Y11397647D01*
X2604270Y11400500D01*
X2604266Y11400500D01*
X1320734Y11400500D01*
X1320730Y11400500D01*
X1290300Y11397647D01*
X1290298Y11397647D01*
X1162119Y11352794D01*
X1162117Y11352793D01*
X1052850Y11272150D01*
X972207Y11162883D01*
X972206Y11162881D01*
X927353Y11034702D01*
X927353Y11034700D01*
X924500Y11004270D01*
X150000Y11004270D01*
X150000Y14275001D01*
X614571Y14275001D01*
X614571Y14275000D01*
X634244Y14062690D01*
X692596Y13857608D01*
X692596Y13857606D01*
X787632Y13666747D01*
X916127Y13496594D01*
X916128Y13496593D01*
X1073698Y13352948D01*
X1254981Y13240702D01*
X1453802Y13163679D01*
X1663390Y13124500D01*
X1663392Y13124500D01*
X1876608Y13124500D01*
X1876610Y13124500D01*
X2086198Y13163679D01*
X2285019Y13240702D01*
X2466302Y13352948D01*
X2623872Y13496593D01*
X2752366Y13666745D01*
X2847405Y13857611D01*
X2905756Y14062690D01*
X2916529Y14178953D01*
X2942315Y14243889D01*
X2984622Y14274196D01*
X3093130Y14274196D01*
X3129503Y14253332D01*
X3161693Y14191319D01*
X3163471Y14178952D01*
X3174244Y14062690D01*
X3232596Y13857608D01*
X3232596Y13857606D01*
X3327632Y13666747D01*
X3456127Y13496594D01*
X3456128Y13496593D01*
X3613698Y13352948D01*
X3794981Y13240702D01*
X3993802Y13163679D01*
X4203390Y13124500D01*
X4203392Y13124500D01*
X4416608Y13124500D01*
X4416610Y13124500D01*
X4626198Y13163679D01*
X4825019Y13240702D01*
X5006302Y13352948D01*
X5163872Y13496593D01*
X5292366Y13666745D01*
X5387405Y13857611D01*
X5445756Y14062690D01*
X5456529Y14178953D01*
X5482315Y14243889D01*
X5524622Y14274196D01*
X5633130Y14274196D01*
X5669503Y14253332D01*
X5701693Y14191319D01*
X5703471Y14178952D01*
X5714244Y14062690D01*
X5772596Y13857608D01*
X5772596Y13857606D01*
X5867632Y13666747D01*
X5996127Y13496594D01*
X5996128Y13496593D01*
X6153698Y13352948D01*
X6334981Y13240702D01*
X6533802Y13163679D01*
X6743390Y13124500D01*
X6743392Y13124500D01*
X6956608Y13124500D01*
X6956610Y13124500D01*
X7166198Y13163679D01*
X7365019Y13240702D01*
X7546302Y13352948D01*
X7703872Y13496593D01*
X7832366Y13666745D01*
X7927405Y13857611D01*
X7985756Y14062690D01*
X7992029Y14130395D01*
X8017814Y14195331D01*
X8074614Y14236019D01*
X8144395Y14239539D01*
X8205002Y14204775D01*
X8237193Y14142762D01*
X8239500Y14118953D01*
X8239500Y13380144D01*
X8239502Y13380118D01*
X8242413Y13355013D01*
X8242415Y13355009D01*
X8287793Y13252236D01*
X8287794Y13252235D01*
X8367235Y13172794D01*
X8470009Y13127415D01*
X8495135Y13124500D01*
X10284864Y13124501D01*
X10284879Y13124503D01*
X10284882Y13124503D01*
X10309987Y13127414D01*
X10309988Y13127415D01*
X10309991Y13127415D01*
X10412765Y13172794D01*
X10492206Y13252235D01*
X10537585Y13355009D01*
X10540500Y13380135D01*
X10540499Y15144869D01*
X14881880Y15144869D01*
X14881880Y13455144D01*
X14881882Y13455118D01*
X14884793Y13430013D01*
X14884795Y13430009D01*
X14930173Y13327236D01*
X14930174Y13327235D01*
X15009615Y13247794D01*
X15112389Y13202415D01*
X15137515Y13199500D01*
X16827244Y13199501D01*
X16827259Y13199503D01*
X16827262Y13199503D01*
X16852367Y13202414D01*
X16852368Y13202415D01*
X16852371Y13202415D01*
X16955145Y13247794D01*
X17034586Y13327235D01*
X17079965Y13430009D01*
X17082880Y13455135D01*
X17082879Y15144864D01*
X17079980Y15169865D01*
X17079966Y15169988D01*
X17079965Y15169990D01*
X17079965Y15169991D01*
X17034586Y15272765D01*
X16955145Y15352206D01*
X16939081Y15359299D01*
X16852372Y15397585D01*
X16827245Y15400500D01*
X15137523Y15400500D01*
X15137497Y15400498D01*
X15112392Y15397587D01*
X15112388Y15397585D01*
X15009615Y15352207D01*
X14930174Y15272766D01*
X14884795Y15169994D01*
X14884795Y15169992D01*
X14881880Y15144869D01*
X10540499Y15144869D01*
X10540499Y15169864D01*
X10538515Y15186974D01*
X10537586Y15194988D01*
X10537585Y15194990D01*
X10537585Y15194991D01*
X10492206Y15297765D01*
X10412765Y15377206D01*
X10392124Y15386320D01*
X10309992Y15422585D01*
X10284865Y15425500D01*
X8495143Y15425500D01*
X8495117Y15425498D01*
X8470012Y15422587D01*
X8470008Y15422585D01*
X8367235Y15377207D01*
X8287794Y15297766D01*
X8242415Y15194994D01*
X8242415Y15194992D01*
X8239500Y15169869D01*
X8239500Y14431049D01*
X8219815Y14364010D01*
X8167011Y14318255D01*
X8097853Y14308311D01*
X8034297Y14337336D01*
X7996523Y14396114D01*
X7992029Y14419609D01*
X7985756Y14487311D01*
X7971052Y14538988D01*
X7927405Y14692389D01*
X7927403Y14692394D01*
X7927403Y14692395D01*
X7832367Y14883254D01*
X7703872Y15053407D01*
X7649025Y15103407D01*
X7546302Y15197052D01*
X7365019Y15309298D01*
X7365017Y15309299D01*
X7235950Y15359299D01*
X7166198Y15386321D01*
X6956610Y15425500D01*
X6743390Y15425500D01*
X6533802Y15386321D01*
X6533799Y15386321D01*
X6533799Y15386320D01*
X6334982Y15309299D01*
X6334980Y15309298D01*
X6153699Y15197053D01*
X5996127Y15053407D01*
X5867632Y14883254D01*
X5772596Y14692395D01*
X5772596Y14692393D01*
X5714244Y14487311D01*
X5703471Y14371049D01*
X5677685Y14306112D01*
X5633130Y14274196D01*
X5524622Y14274196D01*
X5526869Y14275806D01*
X5490497Y14296669D01*
X5458307Y14358682D01*
X5456529Y14371049D01*
X5450969Y14431049D01*
X5445756Y14487310D01*
X5387405Y14692389D01*
X5387403Y14692394D01*
X5387403Y14692395D01*
X5292367Y14883254D01*
X5163872Y15053407D01*
X5109025Y15103407D01*
X5006302Y15197052D01*
X4825019Y15309298D01*
X4825017Y15309299D01*
X4695950Y15359299D01*
X4626198Y15386321D01*
X4416610Y15425500D01*
X4203390Y15425500D01*
X3993802Y15386321D01*
X3993799Y15386321D01*
X3993799Y15386320D01*
X3794982Y15309299D01*
X3794980Y15309298D01*
X3613699Y15197053D01*
X3456127Y15053407D01*
X3327632Y14883254D01*
X3232596Y14692395D01*
X3232596Y14692393D01*
X3174244Y14487311D01*
X3163471Y14371049D01*
X3137685Y14306112D01*
X3093130Y14274196D01*
X2984622Y14274196D01*
X2986869Y14275806D01*
X2950497Y14296669D01*
X2918307Y14358682D01*
X2916529Y14371049D01*
X2910969Y14431049D01*
X2905756Y14487310D01*
X2847405Y14692389D01*
X2847403Y14692394D01*
X2847403Y14692395D01*
X2752367Y14883254D01*
X2623872Y15053407D01*
X2569025Y15103407D01*
X2466302Y15197052D01*
X2285019Y15309298D01*
X2285017Y15309299D01*
X2155950Y15359299D01*
X2086198Y15386321D01*
X1876610Y15425500D01*
X1663390Y15425500D01*
X1453802Y15386321D01*
X1453799Y15386321D01*
X1453799Y15386320D01*
X1254982Y15309299D01*
X1254980Y15309298D01*
X1073699Y15197053D01*
X916127Y15053407D01*
X787632Y14883254D01*
X692596Y14692395D01*
X692596Y14692393D01*
X634244Y14487311D01*
X614571Y14275001D01*
X150000Y14275001D01*
X150000Y15826000D01*
X169685Y15893039D01*
X222489Y15938794D01*
X274000Y15950000D01*
X26214415Y15950000D01*
X26281454Y15930315D01*
G37*
%TD.AperFunction*%
%TD*%
%TA.AperFunction,Conductor*%
%TO.N,Net-(U2-LX)*%
G36*
X15103000Y8119903D02*
G01*
X15139602Y8098256D01*
X15139605Y8098256D01*
X15139607Y8098254D01*
X15297426Y8052403D01*
X15297429Y8052403D01*
X15297431Y8052402D01*
X15334306Y8049500D01*
X15334314Y8049500D01*
X16490686Y8049500D01*
X16490694Y8049500D01*
X16527569Y8052402D01*
X16527571Y8052403D01*
X16527573Y8052403D01*
X16672733Y8094576D01*
X16707328Y8099500D01*
X16787770Y8099500D01*
X16854809Y8079815D01*
X16875451Y8063181D01*
X16888681Y8049951D01*
X16922166Y7988628D01*
X16925000Y7962270D01*
X16925000Y7362730D01*
X16905315Y7295691D01*
X16888681Y7275049D01*
X16807289Y7193658D01*
X16715187Y7044337D01*
X16715186Y7044334D01*
X16660001Y6877797D01*
X16660001Y6877796D01*
X16660000Y6877796D01*
X16649500Y6775017D01*
X16649500Y6024999D01*
X16649501Y6024981D01*
X16660000Y5922204D01*
X16660001Y5922201D01*
X16715185Y5755669D01*
X16715186Y5755666D01*
X16715188Y5755662D01*
X16715191Y5755657D01*
X16721091Y5746091D01*
X16739530Y5678698D01*
X16730113Y5633546D01*
X16703342Y5568913D01*
X16703340Y5568908D01*
X16674500Y5423921D01*
X16674500Y5423918D01*
X16674500Y4776082D01*
X16674500Y4776080D01*
X16674499Y4776080D01*
X16703340Y4631093D01*
X16703343Y4631083D01*
X16759913Y4494510D01*
X16759914Y4494509D01*
X16759916Y4494505D01*
X16783095Y4459816D01*
X16783096Y4459814D01*
X16822829Y4400348D01*
X16843706Y4333670D01*
X16825221Y4266290D01*
X16807416Y4243785D01*
X16807292Y4243662D01*
X16715187Y4094337D01*
X16715186Y4094334D01*
X16660001Y3927797D01*
X16660001Y3927796D01*
X16660000Y3927796D01*
X16649500Y3825017D01*
X16649500Y3074999D01*
X16649501Y3074981D01*
X16660000Y2972204D01*
X16660001Y2972201D01*
X16715185Y2805669D01*
X16715187Y2805664D01*
X16807289Y2656343D01*
X16888681Y2574951D01*
X16922166Y2513628D01*
X16925000Y2487270D01*
X16925000Y1224000D01*
X16905315Y1156961D01*
X16852511Y1111206D01*
X16801000Y1100000D01*
X15008080Y1100000D01*
X14941041Y1119685D01*
X14895286Y1172489D01*
X14885342Y1241647D01*
X14901348Y1287121D01*
X14915631Y1311274D01*
X14952494Y1373605D01*
X14997643Y1529007D01*
X15000500Y1565310D01*
X15000500Y2034690D01*
X14997643Y2070993D01*
X14952494Y2226395D01*
X14870117Y2365687D01*
X14870115Y2365689D01*
X14870112Y2365693D01*
X14836819Y2398986D01*
X14803334Y2460309D01*
X14800500Y2486667D01*
X14800500Y7561418D01*
X14795073Y7588699D01*
X14797338Y7641037D01*
X14796460Y7641197D01*
X14797597Y7647428D01*
X14797596Y7647428D01*
X14797598Y7647431D01*
X14800500Y7684306D01*
X14800500Y7988105D01*
X14820185Y8055144D01*
X14872989Y8100899D01*
X14900308Y8109722D01*
X14960893Y8121774D01*
X14993913Y8128342D01*
X14993920Y8128346D01*
X14999740Y8130110D01*
X15000209Y8128563D01*
X15061884Y8135201D01*
X15103000Y8119903D01*
G37*
%TD.AperFunction*%
%TD*%
%TA.AperFunction,Conductor*%
%TO.N,+3.3V*%
G36*
X9553063Y8597618D02*
G01*
X9553652Y8597500D01*
X9946348Y8597500D01*
X9946936Y8597618D01*
X9971130Y8600000D01*
X11101000Y8600000D01*
X11168039Y8580315D01*
X11213794Y8527511D01*
X11225000Y8476000D01*
X11225000Y7100000D01*
X13501000Y7100000D01*
X13568039Y7080315D01*
X13613794Y7027511D01*
X13625000Y6976000D01*
X13625000Y2674000D01*
X13605315Y2606961D01*
X13552511Y2561206D01*
X13501000Y2550000D01*
X12275000Y2550000D01*
X12275000Y1174000D01*
X12255315Y1106961D01*
X12202511Y1061206D01*
X12151000Y1050000D01*
X10559913Y1050000D01*
X10492874Y1069685D01*
X10447119Y1122489D01*
X10437175Y1191647D01*
X10456810Y1242889D01*
X10458166Y1244921D01*
X10461980Y1250627D01*
X10477500Y1328652D01*
X10477500Y1721348D01*
X10474146Y1738210D01*
X10461981Y1799371D01*
X10461980Y1799372D01*
X10461980Y1799373D01*
X10402857Y1887857D01*
X10402856Y1887858D01*
X10396072Y1898011D01*
X10399795Y1900499D01*
X10377834Y1940718D01*
X10375000Y1967076D01*
X10375000Y3100000D01*
X10149000Y3100000D01*
X10081961Y3119685D01*
X10036206Y3172489D01*
X10025000Y3224000D01*
X10025000Y6900000D01*
X9851920Y6900000D01*
X9784881Y6919685D01*
X9739126Y6972489D01*
X9729182Y7041647D01*
X9729446Y7043396D01*
X9730492Y7050002D01*
X9730492Y7050004D01*
X9710647Y7175301D01*
X9710647Y7175302D01*
X9710646Y7175304D01*
X9653050Y7288342D01*
X9653046Y7288346D01*
X9653045Y7288348D01*
X9563347Y7378046D01*
X9563344Y7378048D01*
X9563342Y7378050D01*
X9450304Y7435646D01*
X9450303Y7435647D01*
X9450300Y7435648D01*
X9379602Y7446845D01*
X9316467Y7476774D01*
X9279536Y7536086D01*
X9275000Y7569318D01*
X9275000Y8476000D01*
X9294685Y8543039D01*
X9347489Y8588794D01*
X9399000Y8600000D01*
X9528870Y8600000D01*
X9553063Y8597618D01*
G37*
%TD.AperFunction*%
%TD*%
M02*
