%TF.GenerationSoftware,KiCad,Pcbnew,8.0.6*%
%TF.CreationDate,2024-11-27T12:45:58+01:00*%
%TF.ProjectId,Caffeinated-AFTONSPARV,43616666-6569-46e6-9174-65642d414654,rev?*%
%TF.SameCoordinates,Original*%
%TF.FileFunction,Soldermask,Bot*%
%TF.FilePolarity,Negative*%
%FSLAX46Y46*%
G04 Gerber Fmt 4.6, Leading zero omitted, Abs format (unit mm)*
G04 Created by KiCad (PCBNEW 8.0.6) date 2024-11-27 12:45:58*
%MOMM*%
%LPD*%
G01*
G04 APERTURE LIST*
G04 Aperture macros list*
%AMRoundRect*
0 Rectangle with rounded corners*
0 $1 Rounding radius*
0 $2 $3 $4 $5 $6 $7 $8 $9 X,Y pos of 4 corners*
0 Add a 4 corners polygon primitive as box body*
4,1,4,$2,$3,$4,$5,$6,$7,$8,$9,$2,$3,0*
0 Add four circle primitives for the rounded corners*
1,1,$1+$1,$2,$3*
1,1,$1+$1,$4,$5*
1,1,$1+$1,$6,$7*
1,1,$1+$1,$8,$9*
0 Add four rect primitives between the rounded corners*
20,1,$1+$1,$2,$3,$4,$5,0*
20,1,$1+$1,$4,$5,$6,$7,0*
20,1,$1+$1,$6,$7,$8,$9,0*
20,1,$1+$1,$8,$9,$2,$3,0*%
%AMFreePoly0*
4,1,6,0.725000,-0.725000,-0.125000,-0.725000,-0.725000,-0.125000,-0.725000,0.725000,0.725000,0.725000,0.725000,-0.725000,0.725000,-0.725000,$1*%
G04 Aperture macros list end*
%ADD10R,0.850000X0.850000*%
%ADD11O,0.850000X0.850000*%
%ADD12C,0.990600*%
%ADD13RoundRect,0.250000X0.325000X0.650000X-0.325000X0.650000X-0.325000X-0.650000X0.325000X-0.650000X0*%
%ADD14RoundRect,0.150000X0.587500X0.150000X-0.587500X0.150000X-0.587500X-0.150000X0.587500X-0.150000X0*%
%ADD15RoundRect,0.135000X-0.185000X0.135000X-0.185000X-0.135000X0.185000X-0.135000X0.185000X0.135000X0*%
%ADD16RoundRect,0.140000X-0.170000X0.140000X-0.170000X-0.140000X0.170000X-0.140000X0.170000X0.140000X0*%
%ADD17RoundRect,0.135000X-0.135000X-0.185000X0.135000X-0.185000X0.135000X0.185000X-0.135000X0.185000X0*%
%ADD18R,1.700000X1.700000*%
%ADD19O,1.700000X1.700000*%
%ADD20R,0.400000X0.800000*%
%ADD21R,0.800000X0.400000*%
%ADD22R,1.450000X1.450000*%
%ADD23FreePoly0,90.000000*%
%ADD24R,0.700000X0.700000*%
%ADD25RoundRect,0.250000X0.650000X-0.325000X0.650000X0.325000X-0.650000X0.325000X-0.650000X-0.325000X0*%
%ADD26RoundRect,0.140000X-0.140000X-0.170000X0.140000X-0.170000X0.140000X0.170000X-0.140000X0.170000X0*%
%ADD27RoundRect,0.135000X0.135000X0.185000X-0.135000X0.185000X-0.135000X-0.185000X0.135000X-0.185000X0*%
%ADD28RoundRect,0.200000X-0.275000X0.200000X-0.275000X-0.200000X0.275000X-0.200000X0.275000X0.200000X0*%
%ADD29R,1.100000X3.700000*%
%ADD30RoundRect,0.135000X0.185000X-0.135000X0.185000X0.135000X-0.185000X0.135000X-0.185000X-0.135000X0*%
%ADD31RoundRect,0.140000X0.140000X0.170000X-0.140000X0.170000X-0.140000X-0.170000X0.140000X-0.170000X0*%
%ADD32RoundRect,0.250000X-0.650000X0.325000X-0.650000X-0.325000X0.650000X-0.325000X0.650000X0.325000X0*%
%ADD33RoundRect,0.150000X-0.512500X-0.150000X0.512500X-0.150000X0.512500X0.150000X-0.512500X0.150000X0*%
%ADD34R,1.600000X1.600000*%
%ADD35C,1.600000*%
G04 APERTURE END LIST*
D10*
%TO.C,J4*%
X25600000Y15065000D03*
D11*
X26600000Y15065000D03*
X27600000Y15065000D03*
X28600000Y15065000D03*
%TD*%
D12*
%TO.C,J3*%
X28370000Y2565000D03*
X23290000Y1549000D03*
X23290000Y3581000D03*
%TD*%
D13*
%TO.C,C9*%
X11225000Y5925000D03*
X8275000Y5925000D03*
%TD*%
D14*
%TO.C,Q2*%
X3837500Y8250000D03*
X3837500Y6350000D03*
X1962500Y7300000D03*
%TD*%
D15*
%TO.C,R7*%
X26850000Y3135000D03*
X26850000Y2115000D03*
%TD*%
D16*
%TO.C,C5*%
X9750000Y9005000D03*
X9750000Y8045000D03*
%TD*%
D17*
%TO.C,R13*%
X10840000Y10025000D03*
X11860000Y10025000D03*
%TD*%
D18*
%TO.C,J2*%
X9390000Y14275000D03*
D19*
X6850000Y14275000D03*
X4310000Y14275000D03*
X1770000Y14275000D03*
%TD*%
D20*
%TO.C,U1*%
X39400000Y2200000D03*
X38600000Y2200000D03*
X37800000Y2200000D03*
X37000000Y2200000D03*
X36200000Y2200000D03*
X35400000Y2200000D03*
X34600000Y2200000D03*
X33800000Y2200000D03*
X33000000Y2200000D03*
X32200000Y2200000D03*
X31400000Y2200000D03*
D21*
X30500000Y3300000D03*
X30500000Y4100000D03*
X30500000Y4900000D03*
X30500000Y5700000D03*
X30500000Y6500000D03*
X30500000Y7300000D03*
X30500000Y8100000D03*
X30500000Y8900000D03*
X30500000Y9700000D03*
X30500000Y10500000D03*
X30500000Y11300000D03*
X30500000Y12100000D03*
X30500000Y12900000D03*
D20*
X31400000Y14000000D03*
X32200000Y14000000D03*
X33000000Y14000000D03*
X33800000Y14000000D03*
X34600000Y14000000D03*
X35400000Y14000000D03*
X36200000Y14000000D03*
X37000000Y14000000D03*
X37800000Y14000000D03*
X38600000Y14000000D03*
X39400000Y14000000D03*
D21*
X40300000Y12900000D03*
X40300000Y12100000D03*
X40300000Y11300000D03*
X40300000Y10500000D03*
X40300000Y9700000D03*
X40300000Y8900000D03*
X40300000Y8100000D03*
X40300000Y7300000D03*
X40300000Y6500000D03*
X40300000Y5700000D03*
X40300000Y4900000D03*
X40300000Y4100000D03*
X40300000Y3300000D03*
D22*
X33425000Y6125000D03*
X35400000Y6125000D03*
D23*
X37375000Y6125000D03*
D22*
X33425000Y8100000D03*
X35400000Y8100000D03*
X37375000Y8100000D03*
X33425000Y10075000D03*
X35400000Y10075000D03*
X37375000Y10075000D03*
D24*
X40350000Y14050000D03*
X30450000Y14050000D03*
X30450000Y2150000D03*
X40350000Y2150000D03*
%TD*%
D15*
%TO.C,R8*%
X27200000Y12610000D03*
X27200000Y11590000D03*
%TD*%
%TO.C,R3*%
X5450000Y3535000D03*
X5450000Y2515000D03*
%TD*%
D25*
%TO.C,C6*%
X27750000Y5950000D03*
X27750000Y8900000D03*
%TD*%
D15*
%TO.C,R9*%
X28700000Y12610000D03*
X28700000Y11590000D03*
%TD*%
D26*
%TO.C,C7*%
X27270000Y4525000D03*
X28230000Y4525000D03*
%TD*%
D27*
%TO.C,R5*%
X6360000Y11725000D03*
X5340000Y11725000D03*
%TD*%
D28*
%TO.C,R11*%
X18850000Y9650000D03*
X18850000Y8000000D03*
%TD*%
D15*
%TO.C,R2*%
X5450000Y7535000D03*
X5450000Y6515000D03*
%TD*%
D27*
%TO.C,R1*%
X6360000Y10725000D03*
X5340000Y10725000D03*
%TD*%
D18*
%TO.C,J1*%
X22550000Y14325000D03*
D19*
X20010000Y14325000D03*
%TD*%
D29*
%TO.C,L1*%
X15925000Y4800000D03*
X12925000Y4800000D03*
%TD*%
D30*
%TO.C,R14*%
X17450000Y8815000D03*
X17450000Y9835000D03*
%TD*%
D31*
%TO.C,C4*%
X15180000Y1800000D03*
X14220000Y1800000D03*
%TD*%
D30*
%TO.C,R4*%
X5450000Y8515000D03*
X5450000Y9535000D03*
%TD*%
D32*
%TO.C,C3*%
X18050000Y6400000D03*
X18050000Y3450000D03*
%TD*%
D14*
%TO.C,Q3*%
X3837500Y11750000D03*
X3837500Y9850000D03*
X1962500Y10800000D03*
%TD*%
D15*
%TO.C,R10*%
X25750000Y3135000D03*
X25750000Y2115000D03*
%TD*%
D26*
%TO.C,C1*%
X20920000Y11750000D03*
X21880000Y11750000D03*
%TD*%
D30*
%TO.C,R6*%
X5450000Y4515000D03*
X5450000Y5535000D03*
%TD*%
D14*
%TO.C,Q1*%
X3837500Y4800000D03*
X3837500Y2900000D03*
X1962500Y3850000D03*
%TD*%
D13*
%TO.C,C10*%
X11225000Y3525000D03*
X8275000Y3525000D03*
%TD*%
D33*
%TO.C,U2*%
X13637500Y7900000D03*
X13637500Y8850000D03*
X13637500Y9800000D03*
X15912500Y9800000D03*
X15912500Y8850000D03*
X15912500Y7900000D03*
%TD*%
D34*
%TO.C,C2*%
X15982380Y14300000D03*
D35*
X13482380Y14300000D03*
%TD*%
D15*
%TO.C,R15*%
X11950000Y9035000D03*
X11950000Y8015000D03*
%TD*%
D30*
%TO.C,R12*%
X10850000Y8015000D03*
X10850000Y9035000D03*
%TD*%
D31*
%TO.C,C11*%
X11030000Y1525000D03*
X10070000Y1525000D03*
%TD*%
M02*
