%TF.GenerationSoftware,KiCad,Pcbnew,8.0.6*%
%TF.CreationDate,2024-11-27T12:45:58+01:00*%
%TF.ProjectId,Caffeinated-AFTONSPARV,43616666-6569-46e6-9174-65642d414654,rev?*%
%TF.SameCoordinates,Original*%
%TF.FileFunction,Copper,L2,Inr*%
%TF.FilePolarity,Positive*%
%FSLAX46Y46*%
G04 Gerber Fmt 4.6, Leading zero omitted, Abs format (unit mm)*
G04 Created by KiCad (PCBNEW 8.0.6) date 2024-11-27 12:45:58*
%MOMM*%
%LPD*%
G01*
G04 APERTURE LIST*
%TA.AperFunction,ComponentPad*%
%ADD10R,0.850000X0.850000*%
%TD*%
%TA.AperFunction,ComponentPad*%
%ADD11O,0.850000X0.850000*%
%TD*%
%TA.AperFunction,ComponentPad*%
%ADD12R,1.700000X1.700000*%
%TD*%
%TA.AperFunction,ComponentPad*%
%ADD13O,1.700000X1.700000*%
%TD*%
%TA.AperFunction,ComponentPad*%
%ADD14R,1.600000X1.600000*%
%TD*%
%TA.AperFunction,ComponentPad*%
%ADD15C,1.600000*%
%TD*%
%TA.AperFunction,ViaPad*%
%ADD16C,0.450000*%
%TD*%
G04 APERTURE END LIST*
D10*
%TO.N,GND*%
%TO.C,J4*%
X25600000Y15065000D03*
D11*
%TO.N,USB-D+*%
X26600000Y15065000D03*
%TO.N,USB-D-*%
X27600000Y15065000D03*
%TO.N,+3.3V*%
X28600000Y15065000D03*
%TD*%
D12*
%TO.N,+24V*%
%TO.C,J2*%
X9390000Y14275000D03*
D13*
%TO.N,Net-(J2-Pin_2)*%
X6850000Y14275000D03*
%TO.N,Net-(J2-Pin_3)*%
X4310000Y14275000D03*
%TO.N,Net-(J2-Pin_4)*%
X1770000Y14275000D03*
%TD*%
D12*
%TO.N,GND*%
%TO.C,J1*%
X22550000Y14325000D03*
D13*
%TO.N,+24V*%
X20010000Y14325000D03*
%TD*%
D14*
%TO.N,+24V*%
%TO.C,C2*%
X15982380Y14300000D03*
D15*
%TO.N,GND*%
X13482380Y14300000D03*
%TD*%
D16*
%TO.N,GND*%
X39400000Y3300000D03*
X40350000Y1300000D03*
X33400000Y10100000D03*
X4825000Y2900000D03*
X2750000Y2900000D03*
X31400000Y2900000D03*
X39400000Y11300000D03*
X2750000Y9850000D03*
X9325000Y3100000D03*
X2750000Y6350000D03*
X9325000Y7050000D03*
X37400000Y10100000D03*
X18350000Y5350000D03*
X9325000Y5075000D03*
X39400000Y9700000D03*
X33400000Y8100000D03*
X40350000Y15500000D03*
X33400000Y6100000D03*
X29400000Y12000000D03*
X35400000Y8100000D03*
X24560000Y3950000D03*
X12725000Y8850000D03*
X37400000Y6100000D03*
X17425000Y5350000D03*
X14775000Y8850000D03*
X4825000Y6350000D03*
X39400000Y6500000D03*
X35400000Y10100000D03*
X35400000Y6100000D03*
X37400000Y8100000D03*
X40350000Y14750000D03*
X39400000Y4900000D03*
X39400000Y12900000D03*
X40350000Y600000D03*
%TO.N,+24V*%
X20150000Y8700000D03*
%TO.N,Net-(J2-Pin_2)*%
X3050000Y3850000D03*
X4050000Y3850000D03*
%TO.N,Net-(J2-Pin_3)*%
X4050000Y7300000D03*
X3050000Y7300000D03*
%TO.N,+3.3V*%
X12050000Y1900000D03*
X27950000Y12525000D03*
X26550000Y5225000D03*
X10600000Y2225000D03*
%TO.N,IO9*%
X31400000Y12100000D03*
X28192500Y1367500D03*
%TO.N,TX*%
X33100000Y11300000D03*
%TO.N,Net-(U1-GPIO2{slash}ADC1_CH2)*%
X31400000Y9000000D03*
X27950000Y10250000D03*
%TO.N,RX*%
X25250000Y4000000D03*
X32300000Y11300000D03*
X25295000Y1325000D03*
%TO.N,EN*%
X33800000Y2950000D03*
X25850000Y1025000D03*
%TO.N,USB-D+*%
X33000000Y14700000D03*
%TO.N,LED-B*%
X7125000Y11700000D03*
X29450000Y9700000D03*
%TO.N,LED-G*%
X7037500Y8112500D03*
X29450000Y8900000D03*
%TO.N,LED-R*%
X29450000Y8125000D03*
X7125000Y4750000D03*
%TO.N,USB-D-*%
X32200000Y14675000D03*
%TO.N,Net-(J2-Pin_4)*%
X4050000Y10800000D03*
X3050000Y10800000D03*
%TD*%
%TA.AperFunction,Conductor*%
%TO.N,GND*%
G36*
X26281454Y15930315D02*
G01*
X26327209Y15877511D01*
X26337153Y15808353D01*
X26308128Y15744797D01*
X26280387Y15721006D01*
X26144795Y15635808D01*
X26029192Y15520205D01*
X25942210Y15381775D01*
X25888212Y15227456D01*
X25869909Y15065004D01*
X25869909Y15064997D01*
X25888212Y14902545D01*
X25942210Y14748226D01*
X25977295Y14692389D01*
X26029192Y14609796D01*
X26144796Y14494192D01*
X26283225Y14407211D01*
X26437539Y14353214D01*
X26437542Y14353214D01*
X26437544Y14353213D01*
X26599996Y14334909D01*
X26600000Y14334909D01*
X26600004Y14334909D01*
X26762455Y14353213D01*
X26762456Y14353214D01*
X26762461Y14353214D01*
X26916775Y14407211D01*
X27034028Y14480887D01*
X27101264Y14499887D01*
X27165971Y14480887D01*
X27283225Y14407211D01*
X27437539Y14353214D01*
X27437542Y14353214D01*
X27437544Y14353213D01*
X27599996Y14334909D01*
X27600000Y14334909D01*
X27600004Y14334909D01*
X27762455Y14353213D01*
X27762456Y14353214D01*
X27762461Y14353214D01*
X27916775Y14407211D01*
X28034028Y14480887D01*
X28101264Y14499887D01*
X28165971Y14480887D01*
X28283225Y14407211D01*
X28437539Y14353214D01*
X28437542Y14353214D01*
X28437544Y14353213D01*
X28599996Y14334909D01*
X28600000Y14334909D01*
X28600004Y14334909D01*
X28762455Y14353213D01*
X28762456Y14353214D01*
X28762461Y14353214D01*
X28916775Y14407211D01*
X29055204Y14494192D01*
X29170808Y14609796D01*
X29211779Y14675000D01*
X31669965Y14675000D01*
X31684734Y14562819D01*
X31688026Y14537819D01*
X31688027Y14537814D01*
X31740974Y14409985D01*
X31740975Y14409983D01*
X31740976Y14409982D01*
X31825209Y14300209D01*
X31934982Y14215976D01*
X32062817Y14163026D01*
X32185702Y14146848D01*
X32199999Y14144965D01*
X32200000Y14144965D01*
X32200001Y14144965D01*
X32212947Y14146670D01*
X32337183Y14163026D01*
X32465018Y14215976D01*
X32540803Y14274130D01*
X32605971Y14299324D01*
X32674416Y14285286D01*
X32691770Y14274134D01*
X32734982Y14240976D01*
X32862817Y14188026D01*
X32985702Y14171848D01*
X32999999Y14169965D01*
X33000000Y14169965D01*
X33000001Y14169965D01*
X33012947Y14171670D01*
X33137183Y14188026D01*
X33265018Y14240976D01*
X33374791Y14325209D01*
X33459024Y14434982D01*
X33511974Y14562817D01*
X33530035Y14700000D01*
X33511974Y14837183D01*
X33459024Y14965017D01*
X33374791Y15074791D01*
X33374789Y15074792D01*
X33374789Y15074793D01*
X33297597Y15134025D01*
X33265018Y15159024D01*
X33265017Y15159025D01*
X33265015Y15159026D01*
X33137186Y15211973D01*
X33137184Y15211974D01*
X33137183Y15211974D01*
X33019551Y15227461D01*
X33000001Y15230035D01*
X32999999Y15230035D01*
X32931408Y15221005D01*
X32862817Y15211974D01*
X32862816Y15211974D01*
X32862813Y15211973D01*
X32734984Y15159026D01*
X32734982Y15159024D01*
X32659196Y15100871D01*
X32594027Y15075677D01*
X32525582Y15089716D01*
X32508224Y15100871D01*
X32465018Y15134024D01*
X32465016Y15134025D01*
X32337186Y15186973D01*
X32337184Y15186974D01*
X32337183Y15186974D01*
X32245727Y15199015D01*
X32200001Y15205035D01*
X32199999Y15205035D01*
X32139372Y15197053D01*
X32062817Y15186974D01*
X32062816Y15186974D01*
X32062813Y15186973D01*
X31934985Y15134026D01*
X31825209Y15049791D01*
X31740974Y14940015D01*
X31688027Y14812187D01*
X31688026Y14812182D01*
X31673257Y14700001D01*
X31669965Y14675000D01*
X29211779Y14675000D01*
X29257789Y14748225D01*
X29311786Y14902539D01*
X29316009Y14940017D01*
X29330091Y15064997D01*
X29330091Y15065004D01*
X29311787Y15227456D01*
X29311786Y15227458D01*
X29311786Y15227461D01*
X29257789Y15381775D01*
X29170808Y15520204D01*
X29055204Y15635808D01*
X28919613Y15721006D01*
X28873322Y15773341D01*
X28862674Y15842395D01*
X28891049Y15906243D01*
X28949439Y15944615D01*
X28985585Y15950000D01*
X40876000Y15950000D01*
X40943039Y15930315D01*
X40988794Y15877511D01*
X41000000Y15826000D01*
X41000000Y274000D01*
X40980315Y206961D01*
X40927511Y161206D01*
X40876000Y150000D01*
X274000Y150000D01*
X206961Y169685D01*
X161206Y222489D01*
X150000Y274000D01*
X150000Y2225000D01*
X10069965Y2225000D01*
X10087794Y2089577D01*
X10088026Y2087819D01*
X10088027Y2087814D01*
X10140974Y1959985D01*
X10140975Y1959983D01*
X10140976Y1959982D01*
X10225209Y1850209D01*
X10334982Y1765976D01*
X10334983Y1765976D01*
X10334984Y1765975D01*
X10342616Y1762814D01*
X10462817Y1713026D01*
X10585702Y1696848D01*
X10599999Y1694965D01*
X10600000Y1694965D01*
X10600001Y1694965D01*
X10612947Y1696670D01*
X10737183Y1713026D01*
X10865018Y1765976D01*
X10974791Y1850209D01*
X11012998Y1900001D01*
X11519965Y1900001D01*
X11519965Y1900000D01*
X11538026Y1762819D01*
X11538027Y1762814D01*
X11590974Y1634985D01*
X11590975Y1634983D01*
X11590976Y1634982D01*
X11675209Y1525209D01*
X11784982Y1440976D01*
X11912817Y1388026D01*
X12035702Y1371848D01*
X12049999Y1369965D01*
X12050000Y1369965D01*
X12050001Y1369965D01*
X12062947Y1371670D01*
X12187183Y1388026D01*
X12315018Y1440976D01*
X12424791Y1525209D01*
X12499415Y1622460D01*
X22544200Y1622460D01*
X22544200Y1475541D01*
X22572858Y1331466D01*
X22572861Y1331456D01*
X22629078Y1195734D01*
X22629083Y1195725D01*
X22710698Y1073581D01*
X22710701Y1073577D01*
X22814576Y969702D01*
X22814580Y969699D01*
X22936724Y888084D01*
X22936730Y888081D01*
X22936731Y888080D01*
X23072458Y831860D01*
X23206797Y805139D01*
X23216540Y803201D01*
X23216544Y803200D01*
X23216545Y803200D01*
X23363456Y803200D01*
X23363457Y803201D01*
X23507542Y831860D01*
X23643269Y888080D01*
X23765420Y969699D01*
X23869301Y1073580D01*
X23950920Y1195731D01*
X24004465Y1325000D01*
X24764965Y1325000D01*
X24777430Y1230319D01*
X24783026Y1187819D01*
X24783027Y1187814D01*
X24835974Y1059985D01*
X24835975Y1059983D01*
X24835976Y1059982D01*
X24920209Y950209D01*
X25029982Y865976D01*
X25029983Y865976D01*
X25029984Y865975D01*
X25055211Y855526D01*
X25157817Y813026D01*
X25295000Y794965D01*
X25302983Y794965D01*
X25370022Y775280D01*
X25401355Y746455D01*
X25475209Y650209D01*
X25584982Y565976D01*
X25712817Y513026D01*
X25835702Y496848D01*
X25849999Y494965D01*
X25850000Y494965D01*
X25850001Y494965D01*
X25862947Y496670D01*
X25987183Y513026D01*
X26115018Y565976D01*
X26224791Y650209D01*
X26309024Y759982D01*
X26361974Y887817D01*
X26380035Y1025000D01*
X26361974Y1162183D01*
X26309024Y1290017D01*
X26224791Y1399791D01*
X26224789Y1399792D01*
X26224789Y1399793D01*
X26115015Y1484026D01*
X25987186Y1536973D01*
X25987184Y1536974D01*
X25987183Y1536974D01*
X25895727Y1549015D01*
X25850001Y1555035D01*
X25842017Y1555035D01*
X25774978Y1574720D01*
X25743642Y1603548D01*
X25669791Y1699791D01*
X25614403Y1742292D01*
X25560018Y1784024D01*
X25560017Y1784025D01*
X25560015Y1784026D01*
X25432186Y1836973D01*
X25432184Y1836974D01*
X25432183Y1836974D01*
X25331656Y1850209D01*
X25295001Y1855035D01*
X25294999Y1855035D01*
X25240502Y1847860D01*
X25157817Y1836974D01*
X25157816Y1836974D01*
X25157813Y1836973D01*
X25029985Y1784026D01*
X24920209Y1699791D01*
X24835974Y1590015D01*
X24783027Y1462187D01*
X24783026Y1462182D01*
X24770561Y1367501D01*
X24764965Y1325000D01*
X24004465Y1325000D01*
X24007140Y1331458D01*
X24035800Y1475545D01*
X24035800Y1622455D01*
X24007140Y1766542D01*
X23951860Y1900000D01*
X23950921Y1902267D01*
X23950916Y1902276D01*
X23869301Y2024420D01*
X23869298Y2024424D01*
X23765423Y2128299D01*
X23765419Y2128302D01*
X23643275Y2209917D01*
X23643266Y2209922D01*
X23507544Y2266139D01*
X23507545Y2266139D01*
X23507542Y2266140D01*
X23507538Y2266141D01*
X23507534Y2266142D01*
X23363459Y2294800D01*
X23363455Y2294800D01*
X23216545Y2294800D01*
X23216540Y2294800D01*
X23072465Y2266142D01*
X23072455Y2266139D01*
X22936733Y2209922D01*
X22936724Y2209917D01*
X22814580Y2128302D01*
X22814576Y2128299D01*
X22710701Y2024424D01*
X22710698Y2024420D01*
X22629083Y1902276D01*
X22629078Y1902267D01*
X22572861Y1766545D01*
X22572858Y1766535D01*
X22544200Y1622460D01*
X12499415Y1622460D01*
X12509024Y1634982D01*
X12561974Y1762817D01*
X12580035Y1900000D01*
X12561974Y2037183D01*
X12509024Y2165017D01*
X12424791Y2274791D01*
X12424789Y2274792D01*
X12424789Y2274793D01*
X12315015Y2359026D01*
X12187186Y2411973D01*
X12187184Y2411974D01*
X12187183Y2411974D01*
X12095727Y2424015D01*
X12050001Y2430035D01*
X12049999Y2430035D01*
X11981408Y2421005D01*
X11912817Y2411974D01*
X11912816Y2411974D01*
X11912813Y2411973D01*
X11784985Y2359026D01*
X11675209Y2274791D01*
X11590974Y2165015D01*
X11538027Y2037187D01*
X11538026Y2037182D01*
X11519965Y1900001D01*
X11012998Y1900001D01*
X11059024Y1959982D01*
X11111974Y2087817D01*
X11130035Y2225000D01*
X11111974Y2362183D01*
X11059024Y2490017D01*
X10974791Y2599791D01*
X10974789Y2599792D01*
X10974789Y2599793D01*
X10924397Y2638460D01*
X27624200Y2638460D01*
X27624200Y2491541D01*
X27652858Y2347466D01*
X27652861Y2347456D01*
X27709078Y2211734D01*
X27709083Y2211725D01*
X27790698Y2089581D01*
X27790701Y2089577D01*
X27898887Y1981391D01*
X27896766Y1979271D01*
X27929065Y1932404D01*
X27931316Y1862571D01*
X27895455Y1802606D01*
X27886763Y1795279D01*
X27817710Y1742292D01*
X27733474Y1632515D01*
X27680527Y1504687D01*
X27680526Y1504684D01*
X27680526Y1504683D01*
X27672139Y1440976D01*
X27662790Y1369965D01*
X27662465Y1367500D01*
X27672666Y1290015D01*
X27680526Y1230319D01*
X27680527Y1230314D01*
X27733474Y1102485D01*
X27733475Y1102483D01*
X27733476Y1102482D01*
X27817709Y992709D01*
X27927482Y908476D01*
X28055317Y855526D01*
X28178202Y839348D01*
X28192499Y837465D01*
X28192500Y837465D01*
X28192501Y837465D01*
X28205447Y839170D01*
X28329683Y855526D01*
X28457518Y908476D01*
X28567291Y992709D01*
X28651524Y1102482D01*
X28704474Y1230317D01*
X28722535Y1367500D01*
X28722210Y1369965D01*
X28718283Y1399793D01*
X28704474Y1504683D01*
X28669128Y1590017D01*
X28651525Y1632516D01*
X28651523Y1632519D01*
X28609082Y1687828D01*
X28583887Y1752997D01*
X28597925Y1821442D01*
X28646739Y1871432D01*
X28659986Y1877868D01*
X28723269Y1904080D01*
X28845420Y1985699D01*
X28949301Y2089580D01*
X29030920Y2211731D01*
X29087140Y2347458D01*
X29115800Y2491545D01*
X29115800Y2638455D01*
X29087140Y2782542D01*
X29030920Y2918269D01*
X29030919Y2918270D01*
X29030916Y2918276D01*
X29009718Y2950001D01*
X33269965Y2950001D01*
X33269965Y2950000D01*
X33288026Y2812819D01*
X33288027Y2812814D01*
X33340974Y2684985D01*
X33340975Y2684983D01*
X33340976Y2684982D01*
X33425209Y2575209D01*
X33534982Y2490976D01*
X33662817Y2438026D01*
X33785702Y2421848D01*
X33799999Y2419965D01*
X33800000Y2419965D01*
X33800001Y2419965D01*
X33812947Y2421670D01*
X33937183Y2438026D01*
X34065018Y2490976D01*
X34174791Y2575209D01*
X34259024Y2684982D01*
X34311974Y2812817D01*
X34330035Y2950000D01*
X34311974Y3087183D01*
X34259024Y3215017D01*
X34174791Y3324791D01*
X34174789Y3324792D01*
X34174789Y3324793D01*
X34108220Y3375873D01*
X34065018Y3409024D01*
X34065017Y3409025D01*
X34065015Y3409026D01*
X33937186Y3461973D01*
X33937184Y3461974D01*
X33937183Y3461974D01*
X33836656Y3475209D01*
X33800001Y3480035D01*
X33799999Y3480035D01*
X33731408Y3471005D01*
X33662817Y3461974D01*
X33662816Y3461974D01*
X33662813Y3461973D01*
X33534985Y3409026D01*
X33425209Y3324791D01*
X33340974Y3215015D01*
X33288027Y3087187D01*
X33288026Y3087182D01*
X33269965Y2950001D01*
X29009718Y2950001D01*
X28949301Y3040420D01*
X28949298Y3040424D01*
X28845423Y3144299D01*
X28845419Y3144302D01*
X28723275Y3225917D01*
X28723266Y3225922D01*
X28587544Y3282139D01*
X28587545Y3282139D01*
X28587542Y3282140D01*
X28587538Y3282141D01*
X28587534Y3282142D01*
X28443459Y3310800D01*
X28443455Y3310800D01*
X28296545Y3310800D01*
X28296540Y3310800D01*
X28152465Y3282142D01*
X28152455Y3282139D01*
X28016733Y3225922D01*
X28016724Y3225917D01*
X27894580Y3144302D01*
X27894576Y3144299D01*
X27790701Y3040424D01*
X27790698Y3040420D01*
X27709083Y2918276D01*
X27709078Y2918267D01*
X27652861Y2782545D01*
X27652858Y2782535D01*
X27624200Y2638460D01*
X10924397Y2638460D01*
X10865015Y2684026D01*
X10737186Y2736973D01*
X10737184Y2736974D01*
X10737183Y2736974D01*
X10645727Y2749015D01*
X10600001Y2755035D01*
X10599999Y2755035D01*
X10531408Y2746005D01*
X10462817Y2736974D01*
X10462816Y2736974D01*
X10462813Y2736973D01*
X10334985Y2684026D01*
X10225209Y2599791D01*
X10140974Y2490015D01*
X10088027Y2362187D01*
X10088026Y2362184D01*
X10088026Y2362183D01*
X10069965Y2225000D01*
X150000Y2225000D01*
X150000Y3850000D01*
X2519965Y3850000D01*
X2535107Y3734985D01*
X2538026Y3712819D01*
X2538027Y3712814D01*
X2590974Y3584985D01*
X2590975Y3584983D01*
X2590976Y3584982D01*
X2675209Y3475209D01*
X2784982Y3390976D01*
X2912817Y3338026D01*
X3035702Y3321848D01*
X3049999Y3319965D01*
X3050000Y3319965D01*
X3050001Y3319965D01*
X3062947Y3321670D01*
X3187183Y3338026D01*
X3315018Y3390976D01*
X3424791Y3475209D01*
X3451624Y3510179D01*
X3508052Y3551381D01*
X3577798Y3555536D01*
X3638718Y3521324D01*
X3648376Y3510178D01*
X3671505Y3480035D01*
X3675209Y3475209D01*
X3784982Y3390976D01*
X3912817Y3338026D01*
X4035702Y3321848D01*
X4049999Y3319965D01*
X4050000Y3319965D01*
X4050001Y3319965D01*
X4062947Y3321670D01*
X4187183Y3338026D01*
X4315018Y3390976D01*
X4424791Y3475209D01*
X4509024Y3584982D01*
X4537802Y3654460D01*
X22544200Y3654460D01*
X22544200Y3507541D01*
X22572858Y3363466D01*
X22572861Y3363456D01*
X22629078Y3227734D01*
X22629083Y3227725D01*
X22710698Y3105581D01*
X22710701Y3105577D01*
X22814576Y3001702D01*
X22814580Y3001699D01*
X22936724Y2920084D01*
X22936730Y2920081D01*
X22936731Y2920080D01*
X23072458Y2863860D01*
X23216540Y2835201D01*
X23216544Y2835200D01*
X23216545Y2835200D01*
X23363456Y2835200D01*
X23363457Y2835201D01*
X23507542Y2863860D01*
X23643269Y2920080D01*
X23765420Y3001699D01*
X23869301Y3105580D01*
X23950920Y3227731D01*
X24007140Y3363458D01*
X24035800Y3507545D01*
X24035800Y3654455D01*
X24007140Y3798542D01*
X23950920Y3934269D01*
X23950919Y3934270D01*
X23950916Y3934276D01*
X23906999Y4000001D01*
X24719965Y4000001D01*
X24719965Y4000000D01*
X24738026Y3862819D01*
X24738027Y3862814D01*
X24790974Y3734985D01*
X24790975Y3734983D01*
X24790976Y3734982D01*
X24875209Y3625209D01*
X24984982Y3540976D01*
X25112817Y3488026D01*
X25235702Y3471848D01*
X25249999Y3469965D01*
X25250000Y3469965D01*
X25250001Y3469965D01*
X25262947Y3471670D01*
X25387183Y3488026D01*
X25515018Y3540976D01*
X25624791Y3625209D01*
X25709024Y3734982D01*
X25761974Y3862817D01*
X25780035Y4000000D01*
X25761974Y4137183D01*
X25709024Y4265017D01*
X25624791Y4374791D01*
X25624789Y4374792D01*
X25624789Y4374793D01*
X25515015Y4459026D01*
X25387186Y4511973D01*
X25387184Y4511974D01*
X25387183Y4511974D01*
X25295727Y4524015D01*
X25250001Y4530035D01*
X25249999Y4530035D01*
X25181408Y4521005D01*
X25112817Y4511974D01*
X25112816Y4511974D01*
X25112813Y4511973D01*
X24984985Y4459026D01*
X24875209Y4374791D01*
X24790974Y4265015D01*
X24738027Y4137187D01*
X24738026Y4137184D01*
X24738026Y4137183D01*
X24728995Y4068592D01*
X24719965Y4000001D01*
X23906999Y4000001D01*
X23869301Y4056420D01*
X23869298Y4056424D01*
X23765423Y4160299D01*
X23765419Y4160302D01*
X23643275Y4241917D01*
X23643266Y4241922D01*
X23507544Y4298139D01*
X23507545Y4298139D01*
X23507542Y4298140D01*
X23507538Y4298141D01*
X23507534Y4298142D01*
X23363459Y4326800D01*
X23363455Y4326800D01*
X23216545Y4326800D01*
X23216540Y4326800D01*
X23072465Y4298142D01*
X23072455Y4298139D01*
X22936733Y4241922D01*
X22936724Y4241917D01*
X22814580Y4160302D01*
X22814576Y4160299D01*
X22710701Y4056424D01*
X22710698Y4056420D01*
X22629083Y3934276D01*
X22629078Y3934267D01*
X22572861Y3798545D01*
X22572858Y3798535D01*
X22544200Y3654460D01*
X4537802Y3654460D01*
X4561974Y3712817D01*
X4580035Y3850000D01*
X4561974Y3987183D01*
X4509024Y4115017D01*
X4424791Y4224791D01*
X4424789Y4224792D01*
X4424789Y4224793D01*
X4358220Y4275873D01*
X4315018Y4309024D01*
X4315017Y4309025D01*
X4315015Y4309026D01*
X4187186Y4361973D01*
X4187184Y4361974D01*
X4187183Y4361974D01*
X4086656Y4375209D01*
X4050001Y4380035D01*
X4049999Y4380035D01*
X4010184Y4374793D01*
X3912817Y4361974D01*
X3912816Y4361974D01*
X3912813Y4361973D01*
X3784985Y4309026D01*
X3675206Y4224789D01*
X3648375Y4189821D01*
X3591947Y4148618D01*
X3522201Y4144464D01*
X3461281Y4178677D01*
X3451625Y4189821D01*
X3424791Y4224791D01*
X3372368Y4265017D01*
X3315018Y4309024D01*
X3315017Y4309025D01*
X3315015Y4309026D01*
X3187186Y4361973D01*
X3187184Y4361974D01*
X3187183Y4361974D01*
X3086656Y4375209D01*
X3050001Y4380035D01*
X3049999Y4380035D01*
X3010184Y4374793D01*
X2912817Y4361974D01*
X2912816Y4361974D01*
X2912813Y4361973D01*
X2784985Y4309026D01*
X2675209Y4224791D01*
X2590974Y4115015D01*
X2538027Y3987187D01*
X2538026Y3987184D01*
X2538026Y3987183D01*
X2519965Y3850000D01*
X150000Y3850000D01*
X150000Y4750001D01*
X6594965Y4750001D01*
X6594965Y4750000D01*
X6613026Y4612819D01*
X6613027Y4612814D01*
X6665974Y4484985D01*
X6665975Y4484983D01*
X6665976Y4484982D01*
X6750209Y4375209D01*
X6859982Y4290976D01*
X6987817Y4238026D01*
X7110702Y4221848D01*
X7124999Y4219965D01*
X7125000Y4219965D01*
X7125001Y4219965D01*
X7137947Y4221670D01*
X7262183Y4238026D01*
X7390018Y4290976D01*
X7499791Y4375209D01*
X7584024Y4484982D01*
X7636974Y4612817D01*
X7655035Y4750000D01*
X7636974Y4887183D01*
X7584024Y5015017D01*
X7499791Y5124791D01*
X7499789Y5124792D01*
X7499789Y5124793D01*
X7390015Y5209026D01*
X7351447Y5225001D01*
X26019965Y5225001D01*
X26019965Y5225000D01*
X26038026Y5087819D01*
X26038027Y5087814D01*
X26090974Y4959985D01*
X26090975Y4959983D01*
X26090976Y4959982D01*
X26175209Y4850209D01*
X26284982Y4765976D01*
X26412817Y4713026D01*
X26535702Y4696848D01*
X26549999Y4694965D01*
X26550000Y4694965D01*
X26550001Y4694965D01*
X26562947Y4696670D01*
X26687183Y4713026D01*
X26815018Y4765976D01*
X26924791Y4850209D01*
X27009024Y4959982D01*
X27061974Y5087817D01*
X27080035Y5225000D01*
X27061974Y5362183D01*
X27009024Y5490017D01*
X26924791Y5599791D01*
X26924789Y5599792D01*
X26924789Y5599793D01*
X26815015Y5684026D01*
X26687186Y5736973D01*
X26687184Y5736974D01*
X26687183Y5736974D01*
X26595727Y5749015D01*
X26550001Y5755035D01*
X26549999Y5755035D01*
X26481408Y5746005D01*
X26412817Y5736974D01*
X26412816Y5736974D01*
X26412813Y5736973D01*
X26284985Y5684026D01*
X26175209Y5599791D01*
X26090974Y5490015D01*
X26038027Y5362187D01*
X26038026Y5362182D01*
X26019965Y5225001D01*
X7351447Y5225001D01*
X7262186Y5261973D01*
X7262184Y5261974D01*
X7262183Y5261974D01*
X7170727Y5274015D01*
X7125001Y5280035D01*
X7124999Y5280035D01*
X7056408Y5271005D01*
X6987817Y5261974D01*
X6987816Y5261974D01*
X6987813Y5261973D01*
X6859985Y5209026D01*
X6750209Y5124791D01*
X6665974Y5015015D01*
X6613027Y4887187D01*
X6613026Y4887182D01*
X6594965Y4750001D01*
X150000Y4750001D01*
X150000Y7300001D01*
X2519965Y7300001D01*
X2519965Y7300000D01*
X2538026Y7162819D01*
X2538027Y7162814D01*
X2590974Y7034985D01*
X2590975Y7034983D01*
X2590976Y7034982D01*
X2675209Y6925209D01*
X2784982Y6840976D01*
X2912817Y6788026D01*
X3035702Y6771848D01*
X3049999Y6769965D01*
X3050000Y6769965D01*
X3050001Y6769965D01*
X3062947Y6771670D01*
X3187183Y6788026D01*
X3315018Y6840976D01*
X3424791Y6925209D01*
X3451624Y6960179D01*
X3508052Y7001381D01*
X3577798Y7005536D01*
X3638718Y6971324D01*
X3648375Y6960179D01*
X3675209Y6925209D01*
X3784982Y6840976D01*
X3912817Y6788026D01*
X4035702Y6771848D01*
X4049999Y6769965D01*
X4050000Y6769965D01*
X4050001Y6769965D01*
X4062947Y6771670D01*
X4187183Y6788026D01*
X4315018Y6840976D01*
X4424791Y6925209D01*
X4509024Y7034982D01*
X4561974Y7162817D01*
X4580035Y7300000D01*
X4561974Y7437183D01*
X4509024Y7565017D01*
X4424791Y7674791D01*
X4424789Y7674792D01*
X4424789Y7674793D01*
X4342796Y7737709D01*
X4315018Y7759024D01*
X4315017Y7759025D01*
X4315015Y7759026D01*
X4187186Y7811973D01*
X4187184Y7811974D01*
X4187183Y7811974D01*
X4095727Y7824015D01*
X4050001Y7830035D01*
X4049999Y7830035D01*
X3981408Y7821005D01*
X3912817Y7811974D01*
X3912816Y7811974D01*
X3912813Y7811973D01*
X3784985Y7759026D01*
X3675206Y7674789D01*
X3648375Y7639821D01*
X3591947Y7598618D01*
X3522201Y7594464D01*
X3461281Y7628677D01*
X3451625Y7639821D01*
X3424791Y7674791D01*
X3342796Y7737709D01*
X3315018Y7759024D01*
X3315017Y7759025D01*
X3315015Y7759026D01*
X3187186Y7811973D01*
X3187184Y7811974D01*
X3187183Y7811974D01*
X3095727Y7824015D01*
X3050001Y7830035D01*
X3049999Y7830035D01*
X2981408Y7821005D01*
X2912817Y7811974D01*
X2912816Y7811974D01*
X2912813Y7811973D01*
X2784985Y7759026D01*
X2675209Y7674791D01*
X2590974Y7565015D01*
X2538027Y7437187D01*
X2538026Y7437182D01*
X2519965Y7300001D01*
X150000Y7300001D01*
X150000Y8112500D01*
X6507465Y8112500D01*
X6523880Y7987817D01*
X6525526Y7975319D01*
X6525527Y7975314D01*
X6578474Y7847485D01*
X6578475Y7847483D01*
X6578476Y7847482D01*
X6662709Y7737709D01*
X6772482Y7653476D01*
X6900317Y7600526D01*
X7023202Y7584348D01*
X7037499Y7582465D01*
X7037500Y7582465D01*
X7037501Y7582465D01*
X7050447Y7584170D01*
X7174683Y7600526D01*
X7302518Y7653476D01*
X7412291Y7737709D01*
X7496524Y7847482D01*
X7549474Y7975317D01*
X7565890Y8100004D01*
X21694448Y8100004D01*
X21694448Y8099997D01*
X21714583Y7831311D01*
X21714583Y7831310D01*
X21774536Y7568636D01*
X21774542Y7568617D01*
X21872976Y7317811D01*
X21872979Y7317803D01*
X21962460Y7162819D01*
X22007701Y7084460D01*
X22143388Y6914313D01*
X22175699Y6873797D01*
X22362153Y6700794D01*
X22373212Y6690533D01*
X22595836Y6538750D01*
X22595841Y6538748D01*
X22595842Y6538747D01*
X22595843Y6538746D01*
X22724771Y6476658D01*
X22838592Y6421845D01*
X22838593Y6421845D01*
X22838596Y6421843D01*
X23096069Y6342423D01*
X23096070Y6342423D01*
X23096073Y6342422D01*
X23362494Y6302266D01*
X23362499Y6302266D01*
X23362502Y6302265D01*
X23362503Y6302265D01*
X23631945Y6302265D01*
X23631946Y6302265D01*
X23631953Y6302266D01*
X23898374Y6342422D01*
X23898375Y6342423D01*
X23898379Y6342423D01*
X24155852Y6421843D01*
X24398612Y6538750D01*
X24621236Y6690533D01*
X24818752Y6873801D01*
X24986747Y7084460D01*
X25121469Y7317805D01*
X25219908Y7568622D01*
X25279864Y7831310D01*
X25300000Y8100000D01*
X25299063Y8112500D01*
X25279864Y8368690D01*
X25279864Y8368691D01*
X25219911Y8631365D01*
X25219910Y8631366D01*
X25219908Y8631378D01*
X25121469Y8882195D01*
X25121468Y8882198D01*
X25053454Y9000000D01*
X24986747Y9115540D01*
X24818752Y9326199D01*
X24818751Y9326200D01*
X24818748Y9326204D01*
X24621236Y9509467D01*
X24591068Y9530035D01*
X24398612Y9661250D01*
X24398608Y9661252D01*
X24398605Y9661254D01*
X24398604Y9661255D01*
X24318146Y9700001D01*
X28919965Y9700001D01*
X28919965Y9700000D01*
X28938026Y9562819D01*
X28938027Y9562814D01*
X28990974Y9434985D01*
X29036629Y9375487D01*
X29061823Y9310317D01*
X29047785Y9241873D01*
X29036629Y9224514D01*
X28990976Y9165018D01*
X28990974Y9165016D01*
X28938027Y9037187D01*
X28938026Y9037184D01*
X28938026Y9037183D01*
X28919965Y8900000D01*
X28928235Y8837182D01*
X28938026Y8762819D01*
X28938027Y8762814D01*
X28990975Y8634984D01*
X28990976Y8634982D01*
X29027037Y8587987D01*
X29052232Y8522818D01*
X29038194Y8454373D01*
X29027038Y8437014D01*
X28990976Y8390018D01*
X28990974Y8390016D01*
X28938027Y8262187D01*
X28938026Y8262182D01*
X28919965Y8125001D01*
X28919965Y8125000D01*
X28938026Y7987819D01*
X28938027Y7987814D01*
X28990974Y7859985D01*
X28990975Y7859983D01*
X28990976Y7859982D01*
X29075209Y7750209D01*
X29184982Y7665976D01*
X29312817Y7613026D01*
X29422254Y7598618D01*
X29449999Y7594965D01*
X29450000Y7594965D01*
X29450001Y7594965D01*
X29462947Y7596670D01*
X29587183Y7613026D01*
X29715018Y7665976D01*
X29824791Y7750209D01*
X29909024Y7859982D01*
X29961974Y7987817D01*
X29980035Y8125000D01*
X29961974Y8262183D01*
X29917858Y8368690D01*
X29909025Y8390016D01*
X29909023Y8390018D01*
X29872962Y8437014D01*
X29847768Y8502183D01*
X29861806Y8570628D01*
X29872963Y8587987D01*
X29874737Y8590300D01*
X29909024Y8634982D01*
X29961974Y8762817D01*
X29980035Y8900000D01*
X29966869Y9000000D01*
X30869965Y9000000D01*
X30885475Y8882190D01*
X30888026Y8862819D01*
X30888027Y8862814D01*
X30940974Y8734985D01*
X30940975Y8734983D01*
X30940976Y8734982D01*
X31025209Y8625209D01*
X31134982Y8540976D01*
X31262817Y8488026D01*
X31385702Y8471848D01*
X31399999Y8469965D01*
X31400000Y8469965D01*
X31400001Y8469965D01*
X31412947Y8471670D01*
X31537183Y8488026D01*
X31665018Y8540976D01*
X31774791Y8625209D01*
X31859024Y8734982D01*
X31911974Y8862817D01*
X31930035Y9000000D01*
X31911974Y9137183D01*
X31873514Y9230035D01*
X31859025Y9265015D01*
X31859024Y9265016D01*
X31859024Y9265017D01*
X31774791Y9374791D01*
X31774789Y9374792D01*
X31774789Y9374793D01*
X31665015Y9459026D01*
X31537186Y9511973D01*
X31537184Y9511974D01*
X31537183Y9511974D01*
X31445727Y9524015D01*
X31400001Y9530035D01*
X31399999Y9530035D01*
X31331408Y9521005D01*
X31262817Y9511974D01*
X31262816Y9511974D01*
X31262813Y9511973D01*
X31134985Y9459026D01*
X31025209Y9374791D01*
X30940974Y9265015D01*
X30888027Y9137187D01*
X30888026Y9137184D01*
X30888026Y9137183D01*
X30869965Y9000000D01*
X29966869Y9000000D01*
X29961974Y9037183D01*
X29920551Y9137187D01*
X29909025Y9165015D01*
X29909024Y9165016D01*
X29909024Y9165017D01*
X29863369Y9224516D01*
X29838176Y9289682D01*
X29852214Y9358127D01*
X29863365Y9375481D01*
X29909024Y9434982D01*
X29961974Y9562817D01*
X29980035Y9700000D01*
X29961974Y9837183D01*
X29909024Y9965017D01*
X29824791Y10074791D01*
X29824789Y10074792D01*
X29824789Y10074793D01*
X29715015Y10159026D01*
X29587186Y10211973D01*
X29587184Y10211974D01*
X29587183Y10211974D01*
X29495727Y10224015D01*
X29450001Y10230035D01*
X29449999Y10230035D01*
X29381408Y10221005D01*
X29312817Y10211974D01*
X29312816Y10211974D01*
X29312813Y10211973D01*
X29184985Y10159026D01*
X29075209Y10074791D01*
X28990974Y9965015D01*
X28938027Y9837187D01*
X28938026Y9837182D01*
X28919965Y9700001D01*
X24318146Y9700001D01*
X24155854Y9778156D01*
X24155856Y9778156D01*
X23898380Y9857577D01*
X23898374Y9857579D01*
X23631953Y9897735D01*
X23631946Y9897735D01*
X23362502Y9897735D01*
X23362494Y9897735D01*
X23096073Y9857579D01*
X23096067Y9857577D01*
X22838592Y9778156D01*
X22595843Y9661255D01*
X22595842Y9661254D01*
X22373211Y9509467D01*
X22175699Y9326204D01*
X22007701Y9115540D01*
X21872979Y8882198D01*
X21872976Y8882190D01*
X21774542Y8631384D01*
X21774536Y8631365D01*
X21714583Y8368691D01*
X21714583Y8368690D01*
X21694448Y8100004D01*
X7565890Y8100004D01*
X7567535Y8112500D01*
X7549474Y8249683D01*
X7496524Y8377517D01*
X7412291Y8487291D01*
X7412289Y8487292D01*
X7412289Y8487293D01*
X7313862Y8562819D01*
X7302518Y8571524D01*
X7302517Y8571525D01*
X7302515Y8571526D01*
X7174686Y8624473D01*
X7174684Y8624474D01*
X7174683Y8624474D01*
X7083227Y8636515D01*
X7037501Y8642535D01*
X7037499Y8642535D01*
X6980146Y8634984D01*
X6900317Y8624474D01*
X6900316Y8624474D01*
X6900313Y8624473D01*
X6772485Y8571526D01*
X6662709Y8487291D01*
X6578474Y8377515D01*
X6525527Y8249687D01*
X6525526Y8249684D01*
X6525526Y8249683D01*
X6507465Y8112500D01*
X150000Y8112500D01*
X150000Y8700000D01*
X19619965Y8700000D01*
X19636879Y8571526D01*
X19638026Y8562819D01*
X19638027Y8562814D01*
X19690974Y8434985D01*
X19690975Y8434983D01*
X19690976Y8434982D01*
X19775209Y8325209D01*
X19884982Y8240976D01*
X20012817Y8188026D01*
X20135702Y8171848D01*
X20149999Y8169965D01*
X20150000Y8169965D01*
X20150001Y8169965D01*
X20162947Y8171670D01*
X20287183Y8188026D01*
X20415018Y8240976D01*
X20524791Y8325209D01*
X20609024Y8434982D01*
X20661974Y8562817D01*
X20680035Y8700000D01*
X20661974Y8837183D01*
X20609024Y8965017D01*
X20524791Y9074791D01*
X20524789Y9074792D01*
X20524789Y9074793D01*
X20415015Y9159026D01*
X20287186Y9211973D01*
X20287184Y9211974D01*
X20287183Y9211974D01*
X20191935Y9224514D01*
X20150001Y9230035D01*
X20149999Y9230035D01*
X20108065Y9224514D01*
X20012817Y9211974D01*
X20012816Y9211974D01*
X20012813Y9211973D01*
X19884985Y9159026D01*
X19775209Y9074791D01*
X19690974Y8965015D01*
X19638027Y8837187D01*
X19638026Y8837184D01*
X19638026Y8837183D01*
X19619965Y8700000D01*
X150000Y8700000D01*
X150000Y10250000D01*
X27419965Y10250000D01*
X27424971Y10211973D01*
X27438026Y10112819D01*
X27438027Y10112814D01*
X27490974Y9984985D01*
X27490975Y9984983D01*
X27490976Y9984982D01*
X27575209Y9875209D01*
X27684982Y9790976D01*
X27812817Y9738026D01*
X27935702Y9721848D01*
X27949999Y9719965D01*
X27950000Y9719965D01*
X27950001Y9719965D01*
X27962947Y9721670D01*
X28087183Y9738026D01*
X28215018Y9790976D01*
X28324791Y9875209D01*
X28409024Y9984982D01*
X28461974Y10112817D01*
X28480035Y10250000D01*
X28461974Y10387183D01*
X28409024Y10515017D01*
X28324791Y10624791D01*
X28324789Y10624792D01*
X28324789Y10624793D01*
X28215015Y10709026D01*
X28087186Y10761973D01*
X28087184Y10761974D01*
X28087183Y10761974D01*
X27995727Y10774015D01*
X27950001Y10780035D01*
X27949999Y10780035D01*
X27881408Y10771005D01*
X27812817Y10761974D01*
X27812816Y10761974D01*
X27812813Y10761973D01*
X27684985Y10709026D01*
X27575209Y10624791D01*
X27490974Y10515015D01*
X27438027Y10387187D01*
X27438026Y10387182D01*
X27422594Y10269965D01*
X27419965Y10250000D01*
X150000Y10250000D01*
X150000Y10800000D01*
X2519965Y10800000D01*
X2524971Y10761973D01*
X2538026Y10662819D01*
X2538027Y10662814D01*
X2590974Y10534985D01*
X2590975Y10534983D01*
X2590976Y10534982D01*
X2675209Y10425209D01*
X2784982Y10340976D01*
X2912817Y10288026D01*
X3035702Y10271848D01*
X3049999Y10269965D01*
X3050000Y10269965D01*
X3050001Y10269965D01*
X3062947Y10271670D01*
X3187183Y10288026D01*
X3315018Y10340976D01*
X3424791Y10425209D01*
X3451624Y10460179D01*
X3508052Y10501381D01*
X3577798Y10505536D01*
X3638718Y10471324D01*
X3648375Y10460179D01*
X3675209Y10425209D01*
X3784982Y10340976D01*
X3912817Y10288026D01*
X4035702Y10271848D01*
X4049999Y10269965D01*
X4050000Y10269965D01*
X4050001Y10269965D01*
X4062947Y10271670D01*
X4187183Y10288026D01*
X4315018Y10340976D01*
X4424791Y10425209D01*
X4509024Y10534982D01*
X4561974Y10662817D01*
X4580035Y10800000D01*
X4561974Y10937183D01*
X4509024Y11065017D01*
X4424791Y11174791D01*
X4424789Y11174792D01*
X4424789Y11174793D01*
X4358220Y11225873D01*
X4315018Y11259024D01*
X4315017Y11259025D01*
X4315015Y11259026D01*
X4187186Y11311973D01*
X4187184Y11311974D01*
X4187183Y11311974D01*
X4086656Y11325209D01*
X4050001Y11330035D01*
X4049999Y11330035D01*
X3981408Y11321005D01*
X3912817Y11311974D01*
X3912816Y11311974D01*
X3912813Y11311973D01*
X3784985Y11259026D01*
X3675206Y11174789D01*
X3648375Y11139821D01*
X3591947Y11098618D01*
X3522201Y11094464D01*
X3461281Y11128677D01*
X3451625Y11139821D01*
X3424791Y11174791D01*
X3407540Y11188028D01*
X3315018Y11259024D01*
X3315017Y11259025D01*
X3315015Y11259026D01*
X3187186Y11311973D01*
X3187184Y11311974D01*
X3187183Y11311974D01*
X3086656Y11325209D01*
X3050001Y11330035D01*
X3049999Y11330035D01*
X2981408Y11321005D01*
X2912817Y11311974D01*
X2912816Y11311974D01*
X2912813Y11311973D01*
X2784985Y11259026D01*
X2675209Y11174791D01*
X2590974Y11065015D01*
X2538027Y10937187D01*
X2538026Y10937184D01*
X2538026Y10937183D01*
X2519965Y10800000D01*
X150000Y10800000D01*
X150000Y11700000D01*
X6594965Y11700000D01*
X6612736Y11565017D01*
X6613026Y11562819D01*
X6613027Y11562814D01*
X6665974Y11434985D01*
X6665975Y11434983D01*
X6665976Y11434982D01*
X6750209Y11325209D01*
X6859982Y11240976D01*
X6987817Y11188026D01*
X7110702Y11171848D01*
X7124999Y11169965D01*
X7125000Y11169965D01*
X7125001Y11169965D01*
X7137947Y11171670D01*
X7262183Y11188026D01*
X7390018Y11240976D01*
X7499791Y11325209D01*
X7584024Y11434982D01*
X7636974Y11562817D01*
X7655035Y11700000D01*
X7636974Y11837183D01*
X7584935Y11962817D01*
X7584025Y11965015D01*
X7584024Y11965016D01*
X7584024Y11965017D01*
X7499791Y12074791D01*
X7499789Y12074792D01*
X7499789Y12074793D01*
X7433220Y12125873D01*
X7390018Y12159024D01*
X7390017Y12159025D01*
X7390015Y12159026D01*
X7262186Y12211973D01*
X7262184Y12211974D01*
X7262183Y12211974D01*
X7170727Y12224015D01*
X7125001Y12230035D01*
X7124999Y12230035D01*
X7056408Y12221005D01*
X6987817Y12211974D01*
X6987816Y12211974D01*
X6987813Y12211973D01*
X6859985Y12159026D01*
X6750209Y12074791D01*
X6665974Y11965015D01*
X6613027Y11837187D01*
X6613026Y11837184D01*
X6613026Y11837183D01*
X6594965Y11700000D01*
X150000Y11700000D01*
X150000Y12525001D01*
X27419965Y12525001D01*
X27419965Y12525000D01*
X27438026Y12387819D01*
X27438027Y12387814D01*
X27490974Y12259985D01*
X27490975Y12259983D01*
X27490976Y12259982D01*
X27575209Y12150209D01*
X27684982Y12065976D01*
X27812817Y12013026D01*
X27935702Y11996848D01*
X27949999Y11994965D01*
X27950000Y11994965D01*
X27950001Y11994965D01*
X27962947Y11996670D01*
X28087183Y12013026D01*
X28215018Y12065976D01*
X28259358Y12100000D01*
X30869965Y12100000D01*
X30887736Y11965017D01*
X30888026Y11962819D01*
X30888027Y11962814D01*
X30940974Y11834985D01*
X30940975Y11834983D01*
X30940976Y11834982D01*
X31025209Y11725209D01*
X31134982Y11640976D01*
X31262817Y11588026D01*
X31385702Y11571848D01*
X31399999Y11569965D01*
X31400000Y11569965D01*
X31400001Y11569965D01*
X31412947Y11571670D01*
X31537183Y11588026D01*
X31638826Y11630128D01*
X31708293Y11637596D01*
X31770772Y11606321D01*
X31806424Y11546232D01*
X31803930Y11476407D01*
X31800838Y11468116D01*
X31788027Y11437187D01*
X31788026Y11437184D01*
X31788026Y11437183D01*
X31769965Y11300000D01*
X31786449Y11174793D01*
X31788026Y11162819D01*
X31788027Y11162814D01*
X31840974Y11034985D01*
X31840975Y11034983D01*
X31840976Y11034982D01*
X31925209Y10925209D01*
X32034982Y10840976D01*
X32162817Y10788026D01*
X32285702Y10771848D01*
X32299999Y10769965D01*
X32300000Y10769965D01*
X32300001Y10769965D01*
X32312947Y10771670D01*
X32437183Y10788026D01*
X32565018Y10840976D01*
X32624514Y10886631D01*
X32689681Y10911824D01*
X32758126Y10897786D01*
X32775480Y10886635D01*
X32834982Y10840976D01*
X32962817Y10788026D01*
X33085702Y10771848D01*
X33099999Y10769965D01*
X33100000Y10769965D01*
X33100001Y10769965D01*
X33112947Y10771670D01*
X33237183Y10788026D01*
X33365018Y10840976D01*
X33474791Y10925209D01*
X33559024Y11034982D01*
X33611974Y11162817D01*
X33630035Y11300000D01*
X33611974Y11437183D01*
X33559935Y11562817D01*
X33559025Y11565015D01*
X33559024Y11565016D01*
X33559024Y11565017D01*
X33474791Y11674791D01*
X33474789Y11674792D01*
X33474789Y11674793D01*
X33365015Y11759026D01*
X33237186Y11811973D01*
X33237184Y11811974D01*
X33237183Y11811974D01*
X33145727Y11824015D01*
X33100001Y11830035D01*
X33099999Y11830035D01*
X33031408Y11821005D01*
X32962817Y11811974D01*
X32962816Y11811974D01*
X32962813Y11811973D01*
X32834984Y11759026D01*
X32834982Y11759024D01*
X32775486Y11713371D01*
X32710317Y11688177D01*
X32641872Y11702216D01*
X32624513Y11713371D01*
X32609086Y11725209D01*
X32565018Y11759024D01*
X32565017Y11759025D01*
X32565015Y11759026D01*
X32437186Y11811973D01*
X32437184Y11811974D01*
X32437183Y11811974D01*
X32345727Y11824015D01*
X32300001Y11830035D01*
X32299999Y11830035D01*
X32231408Y11821005D01*
X32162817Y11811974D01*
X32061174Y11769873D01*
X31991705Y11762405D01*
X31929226Y11793681D01*
X31893574Y11853770D01*
X31896069Y11923595D01*
X31899148Y11931855D01*
X31911974Y11962817D01*
X31930035Y12100000D01*
X31911974Y12237183D01*
X31859024Y12365017D01*
X31774791Y12474791D01*
X31774789Y12474792D01*
X31774789Y12474793D01*
X31665015Y12559026D01*
X31537186Y12611973D01*
X31537184Y12611974D01*
X31537183Y12611974D01*
X31445727Y12624015D01*
X31400001Y12630035D01*
X31399999Y12630035D01*
X31331408Y12621005D01*
X31262817Y12611974D01*
X31262816Y12611974D01*
X31262813Y12611973D01*
X31134985Y12559026D01*
X31025209Y12474791D01*
X30940974Y12365015D01*
X30888027Y12237187D01*
X30888026Y12237184D01*
X30888026Y12237183D01*
X30869965Y12100000D01*
X28259358Y12100000D01*
X28324791Y12150209D01*
X28409024Y12259982D01*
X28461974Y12387817D01*
X28480035Y12525000D01*
X28461974Y12662183D01*
X28409024Y12790017D01*
X28324791Y12899791D01*
X28324789Y12899792D01*
X28324789Y12899793D01*
X28215015Y12984026D01*
X28087186Y13036973D01*
X28087184Y13036974D01*
X28087183Y13036974D01*
X27995727Y13049015D01*
X27950001Y13055035D01*
X27949999Y13055035D01*
X27881408Y13046005D01*
X27812817Y13036974D01*
X27812816Y13036974D01*
X27812813Y13036973D01*
X27684985Y12984026D01*
X27575209Y12899791D01*
X27490974Y12790015D01*
X27438027Y12662187D01*
X27438026Y12662182D01*
X27419965Y12525001D01*
X150000Y12525001D01*
X150000Y14275001D01*
X614571Y14275001D01*
X614571Y14275000D01*
X634244Y14062690D01*
X692596Y13857608D01*
X692596Y13857606D01*
X787632Y13666747D01*
X878369Y13546593D01*
X916128Y13496593D01*
X1073698Y13352948D01*
X1254981Y13240702D01*
X1453802Y13163679D01*
X1663390Y13124500D01*
X1663392Y13124500D01*
X1876608Y13124500D01*
X1876610Y13124500D01*
X2086198Y13163679D01*
X2285019Y13240702D01*
X2466302Y13352948D01*
X2623872Y13496593D01*
X2752366Y13666745D01*
X2847405Y13857611D01*
X2905756Y14062690D01*
X2916529Y14178953D01*
X2942315Y14243889D01*
X2984622Y14274196D01*
X3093130Y14274196D01*
X3129503Y14253332D01*
X3161693Y14191319D01*
X3163471Y14178952D01*
X3174244Y14062690D01*
X3232596Y13857608D01*
X3232596Y13857606D01*
X3327632Y13666747D01*
X3418369Y13546593D01*
X3456128Y13496593D01*
X3613698Y13352948D01*
X3794981Y13240702D01*
X3993802Y13163679D01*
X4203390Y13124500D01*
X4203392Y13124500D01*
X4416608Y13124500D01*
X4416610Y13124500D01*
X4626198Y13163679D01*
X4825019Y13240702D01*
X5006302Y13352948D01*
X5163872Y13496593D01*
X5292366Y13666745D01*
X5387405Y13857611D01*
X5445756Y14062690D01*
X5456529Y14178953D01*
X5482315Y14243889D01*
X5524622Y14274196D01*
X5633130Y14274196D01*
X5669503Y14253332D01*
X5701693Y14191319D01*
X5703471Y14178952D01*
X5714244Y14062690D01*
X5772596Y13857608D01*
X5772596Y13857606D01*
X5867632Y13666747D01*
X5958369Y13546593D01*
X5996128Y13496593D01*
X6153698Y13352948D01*
X6334981Y13240702D01*
X6533802Y13163679D01*
X6743390Y13124500D01*
X6743392Y13124500D01*
X6956608Y13124500D01*
X6956610Y13124500D01*
X7166198Y13163679D01*
X7365019Y13240702D01*
X7546302Y13352948D01*
X7703872Y13496593D01*
X7832366Y13666745D01*
X7927405Y13857611D01*
X7985756Y14062690D01*
X7992029Y14130395D01*
X8017814Y14195331D01*
X8074614Y14236019D01*
X8144395Y14239539D01*
X8205002Y14204775D01*
X8237193Y14142762D01*
X8239500Y14118953D01*
X8239500Y13380144D01*
X8239502Y13380118D01*
X8242413Y13355013D01*
X8242415Y13355009D01*
X8287793Y13252236D01*
X8287794Y13252235D01*
X8367235Y13172794D01*
X8470009Y13127415D01*
X8495135Y13124500D01*
X10284864Y13124501D01*
X10284879Y13124503D01*
X10284882Y13124503D01*
X10309987Y13127414D01*
X10309988Y13127415D01*
X10309991Y13127415D01*
X10412765Y13172794D01*
X10492206Y13252235D01*
X10537585Y13355009D01*
X10540500Y13380135D01*
X10540499Y15144869D01*
X14881880Y15144869D01*
X14881880Y13455144D01*
X14881882Y13455118D01*
X14884793Y13430013D01*
X14884795Y13430009D01*
X14930173Y13327236D01*
X14930174Y13327235D01*
X15009615Y13247794D01*
X15112389Y13202415D01*
X15137515Y13199500D01*
X16827244Y13199501D01*
X16827259Y13199503D01*
X16827262Y13199503D01*
X16852367Y13202414D01*
X16852368Y13202415D01*
X16852371Y13202415D01*
X16955145Y13247794D01*
X17034586Y13327235D01*
X17079965Y13430009D01*
X17082880Y13455135D01*
X17082879Y14325000D01*
X18854571Y14325000D01*
X18874244Y14112690D01*
X18888470Y14062690D01*
X18932596Y13907608D01*
X18932596Y13907606D01*
X19027632Y13716747D01*
X19156127Y13546594D01*
X19156128Y13546593D01*
X19313698Y13402948D01*
X19494981Y13290702D01*
X19693802Y13213679D01*
X19903390Y13174500D01*
X19903392Y13174500D01*
X20116608Y13174500D01*
X20116610Y13174500D01*
X20326198Y13213679D01*
X20525019Y13290702D01*
X20706302Y13402948D01*
X20863872Y13546593D01*
X20992366Y13716745D01*
X21062507Y13857608D01*
X21087403Y13907606D01*
X21087403Y13907607D01*
X21087405Y13907611D01*
X21145756Y14112690D01*
X21165429Y14325000D01*
X21145756Y14537310D01*
X21087405Y14742389D01*
X21087403Y14742394D01*
X21087403Y14742395D01*
X20992367Y14933254D01*
X20863872Y15103407D01*
X20818395Y15144865D01*
X20706302Y15247052D01*
X20525019Y15359298D01*
X20525017Y15359299D01*
X20361655Y15422585D01*
X20326198Y15436321D01*
X20116610Y15475500D01*
X19903390Y15475500D01*
X19693802Y15436321D01*
X19693799Y15436321D01*
X19693799Y15436320D01*
X19494982Y15359299D01*
X19494980Y15359298D01*
X19313699Y15247053D01*
X19156127Y15103407D01*
X19027632Y14933254D01*
X18932596Y14742395D01*
X18932596Y14742393D01*
X18874244Y14537311D01*
X18861161Y14396114D01*
X18854571Y14325000D01*
X17082879Y14325000D01*
X17082879Y15144864D01*
X17079980Y15169865D01*
X17079966Y15169988D01*
X17079965Y15169990D01*
X17079965Y15169991D01*
X17034586Y15272765D01*
X16955145Y15352206D01*
X16939081Y15359299D01*
X16852372Y15397585D01*
X16827245Y15400500D01*
X15137523Y15400500D01*
X15137497Y15400498D01*
X15112392Y15397587D01*
X15112388Y15397585D01*
X15009615Y15352207D01*
X14930174Y15272766D01*
X14884795Y15169994D01*
X14884795Y15169992D01*
X14881880Y15144869D01*
X10540499Y15144869D01*
X10540499Y15169864D01*
X10538515Y15186974D01*
X10537586Y15194988D01*
X10537585Y15194990D01*
X10537585Y15194991D01*
X10492206Y15297765D01*
X10412765Y15377206D01*
X10392124Y15386320D01*
X10309992Y15422585D01*
X10284865Y15425500D01*
X8495143Y15425500D01*
X8495117Y15425498D01*
X8470012Y15422587D01*
X8470008Y15422585D01*
X8367235Y15377207D01*
X8287794Y15297766D01*
X8242415Y15194994D01*
X8242415Y15194992D01*
X8239500Y15169869D01*
X8239500Y14431049D01*
X8219815Y14364010D01*
X8167011Y14318255D01*
X8097853Y14308311D01*
X8034297Y14337336D01*
X7996523Y14396114D01*
X7992029Y14419609D01*
X7990604Y14434985D01*
X7985756Y14487310D01*
X7982177Y14499887D01*
X7950905Y14609796D01*
X7927405Y14692389D01*
X7927403Y14692394D01*
X7927403Y14692395D01*
X7832367Y14883254D01*
X7703872Y15053407D01*
X7649025Y15103407D01*
X7546302Y15197052D01*
X7365019Y15309298D01*
X7365017Y15309299D01*
X7235950Y15359299D01*
X7166198Y15386321D01*
X6956610Y15425500D01*
X6743390Y15425500D01*
X6533802Y15386321D01*
X6533799Y15386321D01*
X6533799Y15386320D01*
X6334982Y15309299D01*
X6334980Y15309298D01*
X6153699Y15197053D01*
X5996127Y15053407D01*
X5867632Y14883254D01*
X5772596Y14692395D01*
X5772596Y14692393D01*
X5714244Y14487311D01*
X5703471Y14371049D01*
X5677685Y14306112D01*
X5633130Y14274196D01*
X5524622Y14274196D01*
X5526869Y14275806D01*
X5490497Y14296669D01*
X5458307Y14358682D01*
X5456529Y14371049D01*
X5450969Y14431049D01*
X5445756Y14487310D01*
X5387405Y14692389D01*
X5387403Y14692394D01*
X5387403Y14692395D01*
X5292367Y14883254D01*
X5163872Y15053407D01*
X5109025Y15103407D01*
X5006302Y15197052D01*
X4825019Y15309298D01*
X4825017Y15309299D01*
X4695950Y15359299D01*
X4626198Y15386321D01*
X4416610Y15425500D01*
X4203390Y15425500D01*
X3993802Y15386321D01*
X3993799Y15386321D01*
X3993799Y15386320D01*
X3794982Y15309299D01*
X3794980Y15309298D01*
X3613699Y15197053D01*
X3456127Y15053407D01*
X3327632Y14883254D01*
X3232596Y14692395D01*
X3232596Y14692393D01*
X3174244Y14487311D01*
X3163471Y14371049D01*
X3137685Y14306112D01*
X3093130Y14274196D01*
X2984622Y14274196D01*
X2986869Y14275806D01*
X2950497Y14296669D01*
X2918307Y14358682D01*
X2916529Y14371049D01*
X2910969Y14431049D01*
X2905756Y14487310D01*
X2847405Y14692389D01*
X2847403Y14692394D01*
X2847403Y14692395D01*
X2752367Y14883254D01*
X2623872Y15053407D01*
X2569025Y15103407D01*
X2466302Y15197052D01*
X2285019Y15309298D01*
X2285017Y15309299D01*
X2155950Y15359299D01*
X2086198Y15386321D01*
X1876610Y15425500D01*
X1663390Y15425500D01*
X1453802Y15386321D01*
X1453799Y15386321D01*
X1453799Y15386320D01*
X1254982Y15309299D01*
X1254980Y15309298D01*
X1073699Y15197053D01*
X916127Y15053407D01*
X787632Y14883254D01*
X692596Y14692395D01*
X692596Y14692393D01*
X634244Y14487311D01*
X614571Y14275001D01*
X150000Y14275001D01*
X150000Y15826000D01*
X169685Y15893039D01*
X222489Y15938794D01*
X274000Y15950000D01*
X26214415Y15950000D01*
X26281454Y15930315D01*
G37*
%TD.AperFunction*%
%TD*%
M02*
