%TF.GenerationSoftware,KiCad,Pcbnew,8.0.6*%
%TF.CreationDate,2024-11-27T12:45:58+01:00*%
%TF.ProjectId,Caffeinated-AFTONSPARV,43616666-6569-46e6-9174-65642d414654,rev?*%
%TF.SameCoordinates,Original*%
%TF.FileFunction,Other,Comment*%
%FSLAX46Y46*%
G04 Gerber Fmt 4.6, Leading zero omitted, Abs format (unit mm)*
G04 Created by KiCad (PCBNEW 8.0.6) date 2024-11-27 12:45:58*
%MOMM*%
%LPD*%
G01*
G04 APERTURE LIST*
%ADD10C,0.150000*%
%ADD11C,0.070000*%
G04 APERTURE END LIST*
D10*
X76320000Y-4975000D02*
X75220000Y-4975000D01*
X75220000Y-6975000D01*
X69920000Y-6975000D01*
X70020000Y2525000D01*
X76220000Y2525000D01*
X76320000Y-4975000D01*
D11*
X24591904Y2383593D02*
X24591904Y2783593D01*
X24820475Y2383593D02*
X24649046Y2612164D01*
X24820475Y2783593D02*
X24591904Y2555021D01*
X24991904Y2593117D02*
X25125237Y2593117D01*
X25182380Y2383593D02*
X24991904Y2383593D01*
X24991904Y2383593D02*
X24991904Y2783593D01*
X24991904Y2783593D02*
X25182380Y2783593D01*
X25353809Y2593117D02*
X25487142Y2593117D01*
X25544285Y2383593D02*
X25353809Y2383593D01*
X25353809Y2383593D02*
X25353809Y2783593D01*
X25353809Y2783593D02*
X25544285Y2783593D01*
X25715714Y2383593D02*
X25715714Y2783593D01*
X25715714Y2783593D02*
X25868095Y2783593D01*
X25868095Y2783593D02*
X25906190Y2764545D01*
X25906190Y2764545D02*
X25925237Y2745498D01*
X25925237Y2745498D02*
X25944285Y2707402D01*
X25944285Y2707402D02*
X25944285Y2650260D01*
X25944285Y2650260D02*
X25925237Y2612164D01*
X25925237Y2612164D02*
X25906190Y2593117D01*
X25906190Y2593117D02*
X25868095Y2574069D01*
X25868095Y2574069D02*
X25715714Y2574069D01*
X26191904Y2783593D02*
X26268095Y2783593D01*
X26268095Y2783593D02*
X26306190Y2764545D01*
X26306190Y2764545D02*
X26344285Y2726450D01*
X26344285Y2726450D02*
X26363333Y2650260D01*
X26363333Y2650260D02*
X26363333Y2516926D01*
X26363333Y2516926D02*
X26344285Y2440736D01*
X26344285Y2440736D02*
X26306190Y2402640D01*
X26306190Y2402640D02*
X26268095Y2383593D01*
X26268095Y2383593D02*
X26191904Y2383593D01*
X26191904Y2383593D02*
X26153809Y2402640D01*
X26153809Y2402640D02*
X26115714Y2440736D01*
X26115714Y2440736D02*
X26096666Y2516926D01*
X26096666Y2516926D02*
X26096666Y2650260D01*
X26096666Y2650260D02*
X26115714Y2726450D01*
X26115714Y2726450D02*
X26153809Y2764545D01*
X26153809Y2764545D02*
X26191904Y2783593D01*
X26534762Y2783593D02*
X26534762Y2459783D01*
X26534762Y2459783D02*
X26553809Y2421688D01*
X26553809Y2421688D02*
X26572857Y2402640D01*
X26572857Y2402640D02*
X26610952Y2383593D01*
X26610952Y2383593D02*
X26687143Y2383593D01*
X26687143Y2383593D02*
X26725238Y2402640D01*
X26725238Y2402640D02*
X26744285Y2421688D01*
X26744285Y2421688D02*
X26763333Y2459783D01*
X26763333Y2459783D02*
X26763333Y2783593D01*
X26896667Y2783593D02*
X27125238Y2783593D01*
X27010952Y2383593D02*
X27010952Y2783593D01*
M02*
